<?xml version="1.0" encoding="UTF-8"?>
<svg id="Layer_2" data-name="Layer 2" xmlns="http://www.w3.org/2000/svg" viewBox="0 0 373.89 91.9">
  <defs>
    <style>
      .cls-1 {
        fill: #414042;
      }

      .cls-1, .cls-2, .cls-3, .cls-4, .cls-5, .cls-6, .cls-7, .cls-8, .cls-9 {
        stroke: #231f20;
        stroke-miterlimit: 10;
        stroke-width: .25px;
      }

      .cls-2 {
        fill: #6d6e71;
      }

      .cls-3 {
        fill: #bcbec0;
      }

      .cls-4 {
        fill: #808285;
      }

      .cls-5 {
        fill: none;
      }

      .cls-6 {
        fill: #a7a9ac;
      }

      .cls-7 {
        fill: #e6e7e8;
      }

      .cls-8 {
        fill: #d1d3d4;
      }

      .cls-9 {
        fill: #3b6c80;
      }
    </style>
  </defs>
  <g id="Layer_3" data-name="Layer 3">
    <g>
      <path class="cls-8" d="M368.16,64.96v12.71c1.63-.6,3.07-1.26,4.11-1.97.96-.65,1.5-1.74,1.5-2.9v-.06c0-1.82-.79-3.56-2.16-4.76-1.26-1.1-2.4-2.1-3.45-3.02Z"/>
      <path class="cls-7" d="M368.16,64.95v12.72c-5.75,2.12-13.89,3.5-15.37,3.49-.61,0-2.49,0-5.34.02v-29.81c6.49,2.22,8.99,3.53,13.42,7.22l-1.67-.3h-2.22l-2.7.48-.48,1.46v1.62l1.59.66,2.98-.35,2.35-.97h3.17c1.24,1.08,2.64,2.33,4.27,3.76Z"/>
      <path class="cls-9" d="M363.89,61.2h-3.17l-2.35.97-2.98.35-1.59-.66v-1.62l.48-1.46,2.7-.48h2.22l1.67.3c.91.76,1.9,1.61,3.02,2.6Z"/>
      <path class="cls-2" d="M293.18,75.8v6.04c-13.42.21-26.02.46-33.97.71,8.35-2.79,7.82-4.84,4.92-6.67l29.05-.08Z"/>
      <path class="cls-3" d="M186.55,47.27v4.59l-55.88-.03c-1.88-1.33-4.91-3.47-7.08-5.14.53.28.86.46.87.46,17.47.4,38.96.31,62.09.12Z"/>
      <path class="cls-1" d="M259.21,82.55c-5.04.16-8.21.33-8.54.49v-5.55c.82.2,3.09-.01,4.95-.64,2.48-.85,2.69-2.92,1.07-3.69,0,0-1.66-.77-3.53-1.59-1.86-.83-3.94-1.69-4.75-1.89-6.45-1.57-14.08-1.54-19.01-.1-2.23.65-6.41.86-9.5,1.24-1.28.15-2.24,1.22-2.26,2.5-.01.42-.02.87-.03,1.35-3.2,1.12-9.43,1.45-12.78,1.41l-8.16-3.93c-1.52-.73-3.26-.9-4.88-.41-9.97,2.98-24.13,2.35-25.07.85v-1.69l1.03-.94,9.6-.85,4.7-1.43c.07-.02.12-.05.17-.08.14-.11.21-.28.21-.44,0-.23-.15-.47-.44-.53l-8.84-1.7c-.52-.1-1.05-.08-1.56.05l-3.62.9c-1.58.4-3.21.6-4.84.6h-1.4c-.82,0-1.63-.03-2.45-.1-.01,0-.01-.01-.02-.01h-.01c-1.29-.08-2.58-.26-3.86-.51l-3.29-.64c-.67-.13-1.15-.72-1.15-1.39,0-.05,0-.11.01-.17.01-.12.06-.22.13-.3s.17-.14.29-.17l3.78-.87c.09-.02.16-.07.21-.13.05-.06.07-.13.07-.21,0-.16-.1-.31-.28-.35-.55-.11-1.22-.25-1.99-.41-.49-.1-1.02-.21-1.58-.33-.55-.11-1.13-.23-1.73-.36-.45-.09-.92-.19-1.39-.28-8.59-1.79-20.81-4.32-20.81-4.32-3.34-1.62-4.92-2.84-6.1-4.1-1.23-1.31-2.02-2.67-3.88-4.55l-3.48-3.48c-.09-.09-.13-.2-.13-.31s.05-.23.12-.31c.08-.08.19-.14.33-.14h.44c1.23,0,2.44.31,3.52.89,1.55.84,3.84,2.07,5.08,2.74.01.01.02.02.03.02,2.17,1.67,5.2,3.81,7.08,5.14.32.24.62.45.89.65.1.07.19.14.28.2.15.11.3.21.44.31.21.15.4.29.57.41.12.08.23.16.34.24.1.07.2.14.3.2.56.38.88.58,1.05.69.06.03.1.05.12.06.04.02.06.03.06.03l22.51,2.94,7.53.99,15.29,1.99,1.53.2,1.75.23,1.59.21,1.63.21.45.06,1.45.19,1.97.26,1.09.14,36.1,4.72c5.61.84,12.24.62,18.91,1.68,5.02.8,15.84,6.26,16.23,6.67,0,0,.01,0,.01.01l1.36.76h.01c2.9,1.83,3.43,3.88-4.92,6.67Z"/>
      <polygon class="cls-4" points="65.32 69.43 65.32 72.43 31.27 64.7 31.27 62.79 65.32 69.43"/>
      <path class="cls-4" d="M31.27,59.33v5.37l-20.47-4.65v-3.05l6.7,1.94c.9.26,1.83.39,2.77.39h11Z"/>
      <path class="cls-4" d="M10.8,56.99v3.05l-1.18-.27c-1.16-.27-2.01-1.26-2.08-2.45l-.07-1.29,3.33.96Z"/>
      <path class="cls-3" d="M121.56,51.83h-56.24v-2.76l6.29-.53c6.23.2,35.82-1.24,46.07-1.26,1.86,1.88,2.65,3.24,3.88,4.55Z"/>
      <path class="cls-3" d="M71.61,48.54l-6.29.53-34.05,2.87-7.27.61-.56-.1c.4-.28.58-.83.34-1.33L.2,1.28C-.05.74.34.12.94.12h15.66c3.95,0,46.29,48.13,55.01,48.42Z"/>
      <path class="cls-4" d="M49.73,57.68l-4.18,1.35c-.6.19-1.22.29-1.85.29h-23.43c-.94,0-1.87-.13-2.77-.39l-6.7-1.94-3.33-.96-6.79-2.78c-.23-.1-.16-.43.08-.43l22.06-.17.22-.02.96-.08,7.27,1.27,18.41,3.2c.36.06.39.55.05.66Z"/>
      <path class="cls-5" d="M23.44,52.45c-.12.08-.25.15-.4.18"/>
      <path class="cls-7" d="M345.49,50.71c-2.96-.98-6.04-1.59-9.15-1.8-12.99-.9-27.63-1.43-43.16-1.72v4.72h32.39v23.81l21.88-.06v-24.29c-.61-.21-1.27-.43-1.96-.66ZM327.73,62.33c-.44,0-.8-.58-.8-1.31s.36-1.31.8-1.31.8.59.8,1.31-.36,1.31-.8,1.31ZM339.52,63.53c0,1.67-1.36,3.02-3.02,3.02h-1.5c-1.66,0-3.01-1.35-3.01-3.02v-6.48c0-1.67,1.35-3.02,3.01-3.02h1.5c1.66,0,3.02,1.35,3.02,3.02v6.48Z"/>
      <path class="cls-7" d="M293.18,47.2v4.72l-106.63-.05v-4.59c34.52-.26,72.7-.73,106.63-.08Z"/>
      <path class="cls-8" d="M325.57,75.72v5.69c9.12-.11,16.95-.18,21.88-.23v-5.52s-21.88.06-21.88.06Z"/>
      <path class="cls-3" d="M325.57,75.72v5.69c-9.96.11-21.45.26-32.39.43v-6.04l32.39-.08Z"/>
      <path class="cls-4" d="M255.62,76.85c-1.86.63-4.13.84-4.95.64v5.55l-.3,4.76c-.05.85-.57,1.6-1.34,1.93-3.31,1.41-9.69,2.31-13.99,1.97-3.04.44-23.15-2.01-17.78-3.11l-.1-2.44c.02-.48.05-1.24.09-2.17.1-2.23.24-5.44.32-8.14.01-.4.03-.8.04-1.17,0-.48.02-.93.03-1.35.02-1.28.98-2.35,2.26-2.5,3.09-.38,7.27-.59,9.5-1.24,4.93-1.44,12.56-1.47,19.01.1.81.2,2.89,1.06,4.75,1.89,1.87.82,3.53,1.59,3.53,1.59,1.62.77,1.41,2.84-1.07,3.69Z"/>
      <path class="cls-2" d="M140.34,81.97c-8.77-.38-15.29-.66-17.31-.72h-.01l-2.91,2.36c-.2.16-.5-.02-.44-.27.18-.93.41-2.36-.03-2.13-11.66-.44-25.17-1.53-32.92-3.91l-21.4-4.87v-3l26.15,4.36,16.06,1.38,18,.56,11.15-.68-1.62,2.02c-.36.43-.37,1.05-.03,1.49.43.57.98,1.03,1.61,1.36l3.7,2.05Z"/>
      <path class="cls-2" d="M217.25,83.98c-.04.93-.07,1.69-.09,2.17h-.25c-.79,0-1.46-.55-1.63-1.32-13.85-.18-52.07-1.86-74.94-2.86l-3.7-2.05c-.63-.33-1.18-.79-1.61-1.36-.34-.44-.33-1.06.03-1.49l1.62-2.02,4.75-.29c-.34.55,1.87.97,1.87.97l8.79,1.73,24.91,1.8,29.99.39c-.95.38-.96,1.72-.01,2.11,1.72.72,4.07,1.47,5.37,1.91.61.21,1.24.31,1.87.31h3.03Z"/>
      <path class="cls-5" d="M217.63,74.66s-.01,0-.02,0"/>
      <path class="cls-5" d="M123.59,46.69s-.02-.01-.03-.02"/>
      <path class="cls-4" d="M217.57,75.84c-.08,2.7-.22,5.91-.32,8.14h-3.03c-.63,0-1.26-.1-1.87-.31-1.3-.44-3.65-1.19-5.37-1.91-.95-.39-.94-1.73.01-2.11,2.78-1.11,6.97-2.72,8.48-2.21v-.3c0-.92.87-1.6,1.76-1.38l.34.08Z"/>
      <line class="cls-5" x1="23.44" y1="52.45" x2="23.42" y2="52.45"/>
      <line class="cls-5" x1="347.45" y1="81.18" x2="347.45" y2="81.19"/>
      <line class="cls-5" x1="246.52" y1="68.45" x2="246.52" y2="51.93"/>
      <line class="cls-5" x1="186.55" y1="47.16" x2="186.55" y2="47.27"/>
      <line class="cls-5" x1="125.53" y1="54.83" x2="125.53" y2="75.73"/>
      <polygon class="cls-6" points="31.27 51.95 31.27 53.83 24 52.55 31.27 51.95"/>
      <path class="cls-4" d="M65.32,49.08v20.36l-34.05-6.64v-3.47h12.43c.63,0,1.25-.1,1.85-.29l4.18-1.35c.34-.11.31-.6-.05-.66l-18.41-3.2v-1.88l34.05-2.87Z"/>
      <line class="cls-5" x1="31.27" y1="51.65" x2="31.27" y2="51.94"/>
      <path class="cls-6" d="M181.99,66.64l-8.84-1.7c-.52-.1-1.05-.08-1.56.05l-3.62.9c-1.58.4-3.21.6-4.84.6h-1.4c-.82,0-1.63-.03-2.45-.1-.01,0-.01-.01-.02-.01h-.01c-1.29-.08-2.58-.26-3.86-.51l-3.29-.64c-.67-.13-1.15-.72-1.15-1.39,0-.05,0-.11.01-.17.01-.12.06-.22.13-.3s.17-.14.29-.17l3.78-.87c.09-.02.16-.07.21-.13.05-.06.07-.13.07-.21,0-.16-.1-.31-.28-.35-.55-.11-1.22-.25-1.99-.41-.06.63-.39,1.11-.79,1.11-.45,0-.8-.58-.8-1.31,0-.04,0-.09.01-.13-.55-.11-1.13-.23-1.73-.36.04.15.06.32.06.49,0,.73-.36,1.31-.8,1.31s-.8-.58-.8-1.31c0-.29.06-.56.15-.77-8.59-1.79-20.81-4.32-20.81-4.32-3.34-1.62-4.92-2.84-6.1-4.1h-56.24v17.6l26.15,4.36,16.06,1.38,18,.56,11.15-.68,4.75-.29c.26-.41,9.29-3.61,14.01-5.25,1.84-.65,3.8-.83,5.73-.54l6.58.99,9.6-.85,4.7-1.43c.07-.02.12-.05.17-.08.14-.11.21-.28.21-.44,0-.23-.15-.47-.44-.53ZM83.07,63.53c0,1.67-1.35,3.02-3.02,3.02h-1.49c-1.67,0-3.02-1.35-3.02-3.02v-6.48c0-1.67,1.35-3.02,3.02-3.02h1.49c1.67,0,3.02,1.35,3.02,3.02v6.48ZM88.22,62.33c-.44,0-.8-.58-.8-1.31s.36-1.31.8-1.31.8.59.8,1.31-.36,1.31-.8,1.31ZM91.61,62.33c-.44,0-.8-.58-.8-1.31s.36-1.31.8-1.31.8.59.8,1.31-.36,1.31-.8,1.31ZM94.87,62.33c-.44,0-.8-.58-.8-1.31s.36-1.31.8-1.31.8.59.8,1.31-.36,1.31-.8,1.31ZM98.73,62.33c-.44,0-.8-.58-.8-1.31s.36-1.31.8-1.31.8.59.8,1.31-.35,1.31-.8,1.31ZM102.07,62.33c-.44,0-.8-.58-.8-1.31s.36-1.31.8-1.31.8.59.8,1.31-.36,1.31-.8,1.31ZM106.03,62.33c-.44,0-.8-.58-.8-1.31s.36-1.31.8-1.31.8.59.8,1.31-.36,1.31-.8,1.31ZM109.29,62.33c-.44,0-.8-.58-.8-1.31s.36-1.31.8-1.31.8.59.8,1.31-.36,1.31-.8,1.31ZM113.15,62.33c-.44,0-.8-.58-.8-1.31s.36-1.31.8-1.31.8.59.8,1.31-.35,1.31-.8,1.31ZM116.49,62.33c-.44,0-.8-.58-.8-1.31s.36-1.31.8-1.31.8.59.8,1.31-.36,1.31-.8,1.31ZM120.3,62.33c-.44,0-.8-.58-.8-1.31s.36-1.31.8-1.31.8.59.8,1.31-.36,1.31-.8,1.31ZM123.56,62.33c-.44,0-.8-.58-.8-1.31s.36-1.31.8-1.31.8.59.8,1.31-.36,1.31-.8,1.31ZM127.42,62.33c-.44,0-.8-.58-.8-1.31s.36-1.31.8-1.31.8.59.8,1.31-.36,1.31-.8,1.31ZM130.76,62.33c-.44,0-.8-.58-.8-1.31s.36-1.31.8-1.31.8.59.8,1.31-.36,1.31-.8,1.31ZM135.03,62.33c-.44,0-.8-.58-.8-1.31s.36-1.31.8-1.31.8.59.8,1.31-.36,1.31-.8,1.31ZM138.29,62.33c-.44,0-.8-.58-.8-1.31s.36-1.31.8-1.31.8.59.8,1.31-.36,1.31-.8,1.31ZM142.16,62.33c-.45,0-.8-.58-.8-1.31s.35-1.31.8-1.31.8.59.8,1.31-.36,1.31-.8,1.31ZM145.49,62.33c-.44,0-.8-.58-.8-1.31s.36-1.31.8-1.31.8.59.8,1.31-.36,1.31-.8,1.31Z"/>
      <ellipse class="cls-9" cx="102.07" cy="61.02" rx=".8" ry="1.31"/>
      <path class="cls-4" d="M217.61,74.67c-.01.37-.03.77-.04,1.17l-.34-.08c-.89-.22-1.76.46-1.76,1.38v.3c-1.51-.51-5.7,1.1-8.48,2.21l-29.99-.39-24.91-1.8-8.79-1.73s-2.21-.42-1.87-.97c.26-.41,9.29-3.61,14.01-5.25,1.84-.65,3.8-.83,5.73-.54l6.58.99-1.03.94v1.69c.94,1.5,15.1,2.13,25.07-.85,1.62-.49,3.36-.32,4.88.41l8.16,3.93c3.35.04,9.58-.29,12.78-1.41Z"/>
      <path class="cls-9" d="M149.92,61.02c0,.73-.36,1.31-.8,1.31s-.8-.58-.8-1.31c0-.29.06-.56.15-.77.47.09.94.19,1.39.28.04.15.06.32.06.49Z"/>
      <path class="cls-9" d="M153.17,61.22c-.06.63-.39,1.11-.79,1.11-.45,0-.8-.58-.8-1.31,0-.04,0-.09.01-.13.56.12,1.09.23,1.58.33Z"/>
      <path class="cls-3" d="M339.52,57.05v6.48c0,1.67-1.36,3.02-3.02,3.02h-1.5c-1.66,0-3.01-1.35-3.01-3.02v-6.48c0-1.67,1.35-3.02,3.01-3.02h1.5c1.66,0,3.02,1.35,3.02,3.02Z"/>
      <ellipse class="cls-9" cx="327.73" cy="61.02" rx=".8" ry="1.31"/>
      <path class="cls-8" d="M293.18,51.91v23.89l32.39-.08v-23.8h-32.39ZM295.01,62.33c-.45,0-.8-.58-.8-1.31s.35-1.31.8-1.31.8.59.8,1.31-.36,1.31-.8,1.31ZM298.87,62.33c-.44,0-.8-.58-.8-1.31s.36-1.31.8-1.31.8.59.8,1.31-.36,1.31-.8,1.31ZM302.13,62.33c-.44,0-.8-.58-.8-1.31s.36-1.31.8-1.31.8.59.8,1.31-.36,1.31-.8,1.31ZM305.99,62.33c-.44,0-.8-.58-.8-1.31s.36-1.31.8-1.31.8.59.8,1.31-.35,1.31-.8,1.31ZM309.33,62.33c-.44,0-.8-.58-.8-1.31s.36-1.31.8-1.31.8.59.8,1.31-.36,1.31-.8,1.31ZM313.19,62.33c-.44,0-.8-.58-.8-1.31s.36-1.31.8-1.31.8.59.8,1.31-.35,1.31-.8,1.31ZM316.83,62.33c-.44,0-.8-.58-.8-1.31s.36-1.31.8-1.31.8.59.8,1.31-.36,1.31-.8,1.31ZM320.69,62.33c-.44,0-.8-.58-.8-1.31s.36-1.31.8-1.31.8.59.8,1.31-.35,1.31-.8,1.31ZM323.87,62.33c-.44,0-.8-.58-.8-1.31s.36-1.31.8-1.31.8.59.8,1.31-.36,1.31-.8,1.31Z"/>
      <path class="cls-9" d="M299.67,61.02c0,.73-.36,1.31-.8,1.31s-.8-.58-.8-1.31.36-1.31.8-1.31.8.59.8,1.31Z"/>
      <path class="cls-9" d="M302.93,61.02c0,.73-.36,1.31-.8,1.31s-.8-.58-.8-1.31.36-1.31.8-1.31.8.59.8,1.31Z"/>
      <path class="cls-9" d="M306.79,61.02c0,.73-.35,1.31-.8,1.31s-.8-.58-.8-1.31.36-1.31.8-1.31.8.59.8,1.31Z"/>
      <ellipse class="cls-9" cx="309.33" cy="61.02" rx=".8" ry="1.31"/>
      <path class="cls-9" d="M313.99,61.02c0,.73-.35,1.31-.8,1.31s-.8-.58-.8-1.31.36-1.31.8-1.31.8.59.8,1.31Z"/>
      <ellipse class="cls-9" cx="316.83" cy="61.02" rx=".8" ry="1.31"/>
      <path class="cls-9" d="M321.49,61.02c0,.73-.35,1.31-.8,1.31s-.8-.58-.8-1.31.36-1.31.8-1.31.8.59.8,1.31Z"/>
      <path class="cls-9" d="M324.67,61.02c0,.73-.36,1.31-.8,1.31s-.8-.58-.8-1.31.36-1.31.8-1.31.8.59.8,1.31Z"/>
      <path class="cls-9" d="M295.81,61.02c0,.73-.36,1.31-.8,1.31s-.8-.58-.8-1.31.35-1.31.8-1.31.8.59.8,1.31Z"/>
      <path class="cls-9" d="M146.29,61.02c0,.73-.36,1.31-.8,1.31s-.8-.58-.8-1.31.36-1.31.8-1.31.8.59.8,1.31Z"/>
      <path class="cls-9" d="M142.96,61.02c0,.73-.36,1.31-.8,1.31s-.8-.58-.8-1.31.35-1.31.8-1.31.8.59.8,1.31Z"/>
      <ellipse class="cls-9" cx="138.29" cy="61.02" rx=".8" ry="1.31"/>
      <ellipse class="cls-9" cx="135.03" cy="61.02" rx=".8" ry="1.31"/>
      <ellipse class="cls-9" cx="130.76" cy="61.02" rx=".8" ry="1.31"/>
      <path class="cls-9" d="M128.22,61.02c0,.73-.36,1.31-.8,1.31s-.8-.58-.8-1.31.36-1.31.8-1.31.8.59.8,1.31Z"/>
      <path class="cls-9" d="M124.36,61.02c0,.73-.36,1.31-.8,1.31s-.8-.58-.8-1.31.36-1.31.8-1.31.8.59.8,1.31Z"/>
      <path class="cls-9" d="M121.1,61.02c0,.73-.36,1.31-.8,1.31s-.8-.58-.8-1.31.36-1.31.8-1.31.8.59.8,1.31Z"/>
      <path class="cls-9" d="M117.29,61.02c0,.73-.36,1.31-.8,1.31s-.8-.58-.8-1.31.36-1.31.8-1.31.8.59.8,1.31Z"/>
      <path class="cls-9" d="M113.95,61.02c0,.73-.35,1.31-.8,1.31s-.8-.58-.8-1.31.36-1.31.8-1.31.8.59.8,1.31Z"/>
      <ellipse class="cls-9" cx="109.29" cy="61.02" rx=".8" ry="1.31"/>
      <ellipse class="cls-9" cx="106.03" cy="61.02" rx=".8" ry="1.31"/>
      <path class="cls-9" d="M99.53,61.02c0,.73-.35,1.31-.8,1.31s-.8-.58-.8-1.31.36-1.31.8-1.31.8.59.8,1.31Z"/>
      <path class="cls-9" d="M95.67,61.02c0,.73-.36,1.31-.8,1.31s-.8-.58-.8-1.31.36-1.31.8-1.31.8.59.8,1.31Z"/>
      <path class="cls-9" d="M92.41,61.02c0,.73-.36,1.31-.8,1.31s-.8-.58-.8-1.31.36-1.31.8-1.31.8.59.8,1.31Z"/>
      <ellipse class="cls-9" cx="88.22" cy="61.02" rx=".8" ry="1.31"/>
      <path class="cls-3" d="M186.55,51.86v9.53l.45.06c-.03-.13-.05-.28-.05-.43,0-.72.35-1.31.8-1.31s.8.59.8,1.31c0,.23-.03.44-.1.62l1.97.26c-.13-.23-.21-.54-.21-.88,0-.72.36-1.31.8-1.31s.8.59.8,1.31c0,.42-.12.78-.3,1.02l36.1,4.72c5.61.84,12.24.62,18.91,1.68,5.02.8,15.84,6.26,16.23,6.67,0,0,.01,0,.01.01.49.25.95.5,1.36.76h.01l29.05-.08v-23.89l-106.63-.05ZM194.87,62.33c-.44,0-.8-.58-.8-1.31s.36-1.31.8-1.31.8.59.8,1.31-.36,1.31-.8,1.31ZM198.21,62.33c-.44,0-.8-.58-.8-1.31s.36-1.31.8-1.31.8.59.8,1.31-.36,1.31-.8,1.31ZM202.53,62.33c-.44,0-.8-.58-.8-1.31s.36-1.31.8-1.31.8.59.8,1.31-.36,1.31-.8,1.31ZM205.79,62.33c-.44,0-.8-.58-.8-1.31s.36-1.31.8-1.31.8.59.8,1.31-.36,1.31-.8,1.31ZM209.65,62.33c-.44,0-.8-.58-.8-1.31s.36-1.31.8-1.31.8.59.8,1.31-.36,1.31-.8,1.31ZM212.99,62.33c-.44,0-.8-.58-.8-1.31s.36-1.31.8-1.31.8.59.8,1.31-.36,1.31-.8,1.31ZM216.86,62.33c-.44,0-.8-.58-.8-1.31s.36-1.31.8-1.31.8.59.8,1.31-.36,1.31-.8,1.31ZM220.12,62.33c-.44,0-.8-.58-.8-1.31s.36-1.31.8-1.31.8.59.8,1.31-.36,1.31-.8,1.31ZM223.98,62.33c-.44,0-.8-.58-.8-1.31s.36-1.31.8-1.31.8.59.8,1.31-.36,1.31-.8,1.31ZM227.32,62.33c-.44,0-.8-.58-.8-1.31s.36-1.31.8-1.31.8.59.8,1.31-.36,1.31-.8,1.31ZM231.22,62.33c-.44,0-.8-.58-.8-1.31s.36-1.31.8-1.31.8.59.8,1.31-.36,1.31-.8,1.31ZM234.48,62.33c-.44,0-.8-.58-.8-1.31s.36-1.31.8-1.31.8.59.8,1.31-.36,1.31-.8,1.31ZM238.34,62.33c-.44,0-.8-.58-.8-1.31s.36-1.31.8-1.31.8.59.8,1.31-.35,1.31-.8,1.31ZM241.68,62.33c-.44,0-.8-.58-.8-1.31s.36-1.31.8-1.31.8.59.8,1.31-.36,1.31-.8,1.31ZM245.4,62.33c-.44,0-.8-.58-.8-1.31s.36-1.31.8-1.31.8.59.8,1.31-.36,1.31-.8,1.31ZM248.66,62.33c-.44,0-.8-.58-.8-1.31s.36-1.31.8-1.31.8.59.8,1.31-.36,1.31-.8,1.31ZM252.52,62.33c-.44,0-.8-.58-.8-1.31s.36-1.31.8-1.31.8.59.8,1.31-.36,1.31-.8,1.31ZM255.86,62.33c-.44,0-.8-.58-.8-1.31s.36-1.31.8-1.31.8.59.8,1.31-.36,1.31-.8,1.31ZM259.83,62.33c-.44,0-.8-.58-.8-1.31s.36-1.31.8-1.31.8.59.8,1.31-.36,1.31-.8,1.31ZM271.85,63.53c0,1.67-1.35,3.02-3.02,3.02h-1.49c-1.67,0-3.02-1.35-3.02-3.02v-6.48c0-1.67,1.35-3.02,3.02-3.02h1.49c1.67,0,3.02,1.35,3.02,3.02v6.48ZM277.52,62.33c-.44,0-.8-.58-.8-1.31s.36-1.31.8-1.31.8.59.8,1.31-.36,1.31-.8,1.31ZM280.78,62.33c-.44,0-.8-.58-.8-1.31s.36-1.31.8-1.31.8.59.8,1.31-.36,1.31-.8,1.31ZM284.64,62.33c-.44,0-.8-.58-.8-1.31s.36-1.31.8-1.31.8.59.8,1.31-.36,1.31-.8,1.31ZM287.98,62.33c-.44,0-.8-.58-.8-1.31s.36-1.31.8-1.31.8.59.8,1.31-.36,1.31-.8,1.31ZM291.84,62.33c-.44,0-.8-.58-.8-1.31s.36-1.31.8-1.31.8.59.8,1.31-.36,1.31-.8,1.31Z"/>
      <path class="cls-9" d="M188.55,61.02c0,.23-.03.44-.1.62l-1.45-.19c-.03-.13-.05-.28-.05-.43,0-.72.35-1.31.8-1.31s.8.59.8,1.31Z"/>
      <path class="cls-9" d="M191.81,61.02c0,.42-.12.78-.3,1.02l-1.09-.14c-.13-.23-.21-.54-.21-.88,0-.72.36-1.31.8-1.31s.8.59.8,1.31Z"/>
      <path class="cls-9" d="M195.67,61.02c0,.73-.36,1.31-.8,1.31s-.8-.58-.8-1.31.36-1.31.8-1.31.8.59.8,1.31Z"/>
      <ellipse class="cls-9" cx="198.21" cy="61.02" rx=".8" ry="1.31"/>
      <ellipse class="cls-9" cx="202.53" cy="61.02" rx=".8" ry="1.31"/>
      <ellipse class="cls-9" cx="205.79" cy="61.02" rx=".8" ry="1.31"/>
      <ellipse class="cls-9" cx="209.65" cy="61.02" rx=".8" ry="1.31"/>
      <path class="cls-9" d="M213.79,61.02c0,.73-.36,1.31-.8,1.31s-.8-.58-.8-1.31.36-1.31.8-1.31.8.59.8,1.31Z"/>
      <path class="cls-9" d="M217.66,61.02c0,.73-.36,1.31-.8,1.31s-.8-.58-.8-1.31.36-1.31.8-1.31.8.59.8,1.31Z"/>
      <path class="cls-9" d="M220.92,61.02c0,.73-.36,1.31-.8,1.31s-.8-.58-.8-1.31.36-1.31.8-1.31.8.59.8,1.31Z"/>
      <ellipse class="cls-9" cx="223.98" cy="61.02" rx=".8" ry="1.31"/>
      <ellipse class="cls-9" cx="227.32" cy="61.02" rx=".8" ry="1.31"/>
      <ellipse class="cls-9" cx="231.22" cy="61.02" rx=".8" ry="1.31"/>
      <ellipse class="cls-9" cx="234.48" cy="61.02" rx=".8" ry="1.31"/>
      <path class="cls-9" d="M239.14,61.02c0,.73-.35,1.31-.8,1.31s-.8-.58-.8-1.31.36-1.31.8-1.31.8.59.8,1.31Z"/>
      <path class="cls-9" d="M242.48,61.02c0,.73-.36,1.31-.8,1.31s-.8-.58-.8-1.31.36-1.31.8-1.31.8.59.8,1.31Z"/>
      <ellipse class="cls-9" cx="245.4" cy="61.02" rx=".8" ry="1.31"/>
      <ellipse class="cls-9" cx="248.66" cy="61.02" rx=".8" ry="1.31"/>
      <ellipse class="cls-9" cx="252.52" cy="61.02" rx=".8" ry="1.31"/>
      <path class="cls-9" d="M256.66,61.02c0,.73-.36,1.31-.8,1.31s-.8-.58-.8-1.31.36-1.31.8-1.31.8.59.8,1.31Z"/>
      <ellipse class="cls-9" cx="259.83" cy="61.02" rx=".8" ry="1.31"/>
      <ellipse class="cls-9" cx="277.52" cy="61.02" rx=".8" ry="1.31"/>
      <ellipse class="cls-9" cx="280.78" cy="61.02" rx=".8" ry="1.31"/>
      <ellipse class="cls-9" cx="284.64" cy="61.02" rx=".8" ry="1.31"/>
      <ellipse class="cls-9" cx="287.98" cy="61.02" rx=".8" ry="1.31"/>
      <ellipse class="cls-9" cx="291.84" cy="61.02" rx=".8" ry="1.31"/>
      <rect class="cls-3" x="264.32" y="54.03" width="7.53" height="12.52" rx="3.02" ry="3.02"/>
      <path class="cls-9" d="M184.93,61.02c0,.05,0,.11-.01.16l-1.59-.21c.02-.7.37-1.26.8-1.26s.8.59.8,1.31Z"/>
      <path class="cls-3" d="M164.76,57.05v1.5l-7.53-.99v-.51c0-1.67,1.35-3.02,3.01-3.02h1.5c1.67,0,3.02,1.35,3.02,3.02Z"/>
      <path class="cls-9" d="M181.58,60.74l-1.53-.2c.12-.48.41-.83.75-.83.38,0,.7.44.78,1.03Z"/>
      <path class="cls-3" d="M186.55,51.86v9.53l-1.63-.21s.01-.11.01-.16c0-.72-.35-1.31-.8-1.31s-.78.56-.8,1.26l-1.75-.23c-.08-.59-.4-1.03-.78-1.03-.34,0-.63.35-.75.83l-15.29-1.99v-1.5c0-1.67-1.35-3.02-3.02-3.02h-1.5c-1.66,0-3.01,1.35-3.01,3.02v.51l-22.51-2.94s-.02-.01-.06-.03c-.03-.02-.06-.04-.12-.06-.17-.11-.49-.31-1.05-.69-.1-.06-.2-.13-.3-.2-.11-.08-.22-.16-.34-.24-.17-.12-.36-.26-.57-.41-.14-.1-.29-.2-.44-.31-.09-.06-.18-.13-.28-.2-.27-.2-.57-.41-.89-.65l55.88.03Z"/>
      <path class="cls-4" d="M133.49,53.84c-.19-.12-.4-.27-.64-.44.25.17.46.31.64.44Z"/>
      <rect class="cls-3" x="75.54" y="54.03" width="7.53" height="12.52" rx="3.02" ry="3.02"/>
    </g>
  </g>
</svg>