<?xml version="1.0" encoding="UTF-8"?>
<svg id="Layer_2" data-name="Layer 2" xmlns="http://www.w3.org/2000/svg" viewBox="0 0 395.11 128.16">
  <defs>
    <style>
      .cls-1 {
        fill: #58595b;
      }

      .cls-1, .cls-2, .cls-3, .cls-4, .cls-5, .cls-6, .cls-7, .cls-8, .cls-9 {
        stroke: #231f20;
        stroke-miterlimit: 10;
        stroke-width: .25px;
      }

      .cls-2 {
        fill: #808285;
      }

      .cls-3 {
        fill: none;
      }

      .cls-4 {
        fill: #a7a9ac;
      }

      .cls-5 {
        fill: #e6e7e8;
      }

      .cls-6 {
        fill: #d1d3d4;
      }

      .cls-7 {
        fill: #f1f2f2;
      }

      .cls-8 {
        fill: #939598;
      }

      .cls-9 {
        fill: #5697b3;
      }
    </style>
  </defs>
  <g id="Layer_5" data-name="Layer 5">
    <g>
      <path class="cls-1" d="M262.64,107.48l-3.25.38h-.04l-1.03.13h-6.78l-3.89.82-4.16.87-1.27.57-.04,1.73-1.2,1.33c-.11.12-.24.22-.4.3l-7.58,3.79c-.27.14-.27.52,0,.65l7.81,3.77-20.02.65,5.17-1.85c.61-.22,1.04-.79,1.07-1.44l.72-14.44c.05-.83-.47-1.59-1.26-1.85l-.1-.04c-.46-.15-.92-.27-1.39-.37l-1.17-.23c-.63-.13-1.27-.18-1.91-.17l-13.14.24c-.67.02-1.33.08-1.99.19l-9.43,1.59c-.26.05-.45.27-.45.54v2.22l-1.68.9-7.29,3.92c-.2.11-.19.4.02.5l6.26,2.87h-10.7c-.2,0-.41-.03-.61-.08l-4.1-1.02c-.4-.1-.68-.46-.68-.87v-1.98c0-.33-.24-.6-.56-.64l-5.93-.78v-1.27h-5.06c-.11,0-.22,0-.34-.02l-9.68-1.4c-.56-.08-1.07-.38-1.43-.82l-.33-.42c-.16-.19-.39-.32-.64-.34l-5.39-.56c-.59-.07-1.06-.51-1.16-1.1l-.02-.1c-.06-.37-.32-.67-.67-.78l-1.18-.37-2.2-.69c-.33-.1-.54-.42-.51-.76l.03-.38c.03-.43.36-.77.78-.83l3.09-.44,3.06-.44c.19-.03.19-.29,0-.32l-3.07-.53-6.35-1.1-4.79-.83-1.12-.2-5.57-.96s.11-.02.16-.02l37.72.71,29.36,1.83,30.21,2.83,18.5,2.82,11.72,2.12,2.36.38c.75.12,1.44.48,1.95,1.04.4.44.96.71,1.56.75Z"/>
      <path class="cls-6" d="M306.21,115.95h-.01l-6.66,3.33-5.13.86-1.62.27-2.43.4c-.65.11-1.32.18-1.98.19l-15.8.4v-12.63l.68.23c.75.26,1.56.33,2.35.2l2.8-.46c.15-.02.27-.13.33-.27.52-1.35.03-2.89-1.18-3.68l-.28-.18c-.43-.28-.91-.46-1.43-.53l11.01,1.26c.64.07,1.27.19,1.89.35l12.46,3.17c.67.17,1.31.44,1.91.78l2.68,1.56c.18.1.49.28.81.5.09.06.17.14.24.24.53.7.53,2.19.53,2.19.23.77-.45,1.46-1.17,1.82Z"/>
      <path class="cls-6" d="M243.4,125.1c-.03.55.35,1.04.89,1.16l7.4,1.64c.39.09.78.13,1.18.13h10.78c.66,0,1.31-.09,1.94-.28l4.54-1.34c1.3-.39,2.22-1.54,2.31-2.89l.14-2.13v-12.63s-1.02-.35-1.02-.35c-.82-.29-1.68-.46-2.55-.52l-6.37-.42-3.26.38c-.71.08-1.42.13-2.13.13h-1.74c-2.64,0-5.28.27-7.86.82l-4.16.87v13.42s-.09,2.01-.09,2.01Z"/>
      <polygon class="cls-6" points="241.94 123.09 243.49 123.09 243.49 109.67 242.22 110.24 242.18 111.97 241.94 123.09"/>
      <path class="cls-4" d="M233,118.04l7.81,3.77,1.13,1.28.24-11.12-1.2,1.33c-.11.12-.24.22-.4.3l-7.58,3.79c-.27.14-.27.52,0,.65Z"/>
      <path class="cls-1" d="M201.99,121.82h-19.83c-.9,0-1.8-.03-2.69-.09l-7.08-.49-7.81-.8-1.41-.18h-5.99c-.43,0-.86-.04-1.28-.13l-4.88-1.02c-1.69-.35-3.41-.53-5.13-.53h-1.4l-3.03-1.21c-1.54-.62-2.73-1.9-3.22-3.49-.2-.66.02-1.37.57-1.78l1.1-.84c1-.76,2.13-1.34,3.33-1.7l5.95-1.8,5.94-1.59c.36.44.87.74,1.43.82l9.68,1.4c.12.02.23.02.34.02h5.06v1.27l5.93.78c.32.04.56.31.56.64v1.98c0,.41.28.77.68.87l4.1,1.02c.2.05.41.08.61.08h10.7l1.01.56,1.39.78v1.48h1.56v1.03c0,.82.49,1.56,1.25,1.87l2.56,1.05Z"/>
      <path class="cls-6" d="M227.75,104.74l-.72,14.44c-.03.65-.46,1.22-1.07,1.44l-5.17,1.85h-.01l-1.71.06h-6.97c-.25,0-.49-.01-.74-.03l-6.75-.62c-.44-.04-.87-.06-1.31-.06h-1.31l-2.56-1.05c-.76-.31-1.25-1.05-1.25-1.87v-1.03h-1.56v-1.48l.29-9.53v-2.22c0-.27.19-.49.45-.54l9.43-1.59c.66-.11,1.32-.17,1.99-.19l13.14-.24c.64-.01,1.28.04,1.91.17l1.17.23c.47.1.93.22,1.39.37l.1.04c.79.26,1.31,1.02,1.26,1.85Z"/>
      <line class="cls-3" x1="309.13" y1="73.14" x2="309.12" y2="73.14"/>
      <path class="cls-6" d="M156.73,84.95h6.34s.01-.01.01-.01c-.03-.17-.05-.35-.05-.54v-4.89c0-1.46,1.18-2.64,2.64-2.64h1.08c1.46,0,2.64,1.18,2.64,2.64v4.89c0,.18-.02.36-.05.53h0s91.98-.21,91.98-.21l.06-11.89h-41.26s-3.2-3.04-3.2-3.04l1,3.04h-61.12s-.08,12.12-.08,12.12ZM257.79,81.91c0-.89.53-1.62,1.2-1.62s1.2.73,1.2,1.62-.54,1.63-1.2,1.63-1.2-.73-1.2-1.63ZM254.01,81.91c0-.89.54-1.62,1.2-1.62s1.2.73,1.2,1.62-.54,1.63-1.2,1.63-1.2-.73-1.2-1.63ZM250.24,81.91c0-.89.53-1.62,1.2-1.62s1.2.73,1.2,1.62-.54,1.63-1.2,1.63-1.2-.73-1.2-1.63ZM246.46,81.91c0-.89.54-1.62,1.2-1.62s1.2.73,1.2,1.62-.54,1.63-1.2,1.63-1.2-.73-1.2-1.63ZM242.69,81.91c0-.89.53-1.62,1.2-1.62s1.2.73,1.2,1.62-.54,1.63-1.2,1.63-1.2-.73-1.2-1.63ZM238.91,81.91c0-.89.54-1.62,1.2-1.62s1.2.73,1.2,1.62-.54,1.63-1.2,1.63-1.2-.73-1.2-1.63ZM235.14,81.91c0-.89.53-1.62,1.2-1.62s1.2.73,1.2,1.62-.54,1.63-1.2,1.63-1.2-.73-1.2-1.63ZM231.36,81.91c0-.89.54-1.62,1.2-1.62s1.2.73,1.2,1.62-.54,1.63-1.2,1.63-1.2-.73-1.2-1.63ZM227.58,81.91c0-.89.54-1.62,1.2-1.62s1.2.73,1.2,1.62-.53,1.63-1.2,1.63-1.2-.73-1.2-1.63ZM223.81,81.91c0-.89.54-1.62,1.2-1.62s1.2.73,1.2,1.62-.54,1.63-1.2,1.63-1.2-.73-1.2-1.63ZM220.03,81.91c0-.89.54-1.62,1.2-1.62s1.2.73,1.2,1.62-.53,1.63-1.2,1.63-1.2-.73-1.2-1.63ZM216.26,81.91c0-.89.54-1.62,1.2-1.62s1.2.73,1.2,1.62-.54,1.63-1.2,1.63-1.2-.73-1.2-1.63ZM212.48,81.91c0-.89.54-1.62,1.2-1.62s1.2.73,1.2,1.62-.53,1.63-1.2,1.63-1.2-.73-1.2-1.63ZM208.71,81.91c0-.89.54-1.62,1.2-1.62s1.2.73,1.2,1.62-.54,1.63-1.2,1.63-1.2-.73-1.2-1.63ZM204.93,81.91c0-.89.54-1.62,1.2-1.62s1.2.73,1.2,1.62-.53,1.63-1.2,1.63-1.2-.73-1.2-1.63ZM201.16,81.91c0-.89.54-1.62,1.2-1.62s1.2.73,1.2,1.62-.54,1.63-1.2,1.63-1.2-.73-1.2-1.63ZM197.38,81.91c0-.89.54-1.62,1.2-1.62s1.2.73,1.2,1.62-.53,1.63-1.2,1.63-1.2-.73-1.2-1.63ZM193.61,81.91c0-.89.54-1.62,1.2-1.62s1.2.73,1.2,1.62-.54,1.63-1.2,1.63-1.2-.73-1.2-1.63ZM189.83,81.91c0-.89.54-1.62,1.2-1.62s1.2.73,1.2,1.62-.53,1.63-1.2,1.63-1.2-.73-1.2-1.63ZM186.06,81.91c0-.89.54-1.62,1.2-1.62s1.2.73,1.2,1.62-.54,1.63-1.2,1.63-1.2-.73-1.2-1.63ZM182.28,81.91c0-.89.54-1.62,1.2-1.62s1.2.73,1.2,1.62-.53,1.63-1.2,1.63-1.2-.73-1.2-1.63ZM178.51,81.91c0-.89.54-1.62,1.2-1.62s1.2.73,1.2,1.62-.54,1.63-1.2,1.63-1.2-.73-1.2-1.63ZM174.73,81.91c0-.89.54-1.62,1.2-1.62s1.2.73,1.2,1.62-.53,1.63-1.2,1.63-1.2-.73-1.2-1.63ZM170.96,81.95c0-.9.54-1.63,1.2-1.63s1.2.73,1.2,1.63-.54,1.62-1.2,1.62-1.2-.73-1.2-1.62ZM157.68,81.95c0-.9.54-1.63,1.2-1.63s1.2.73,1.2,1.63-.53,1.62-1.2,1.62-1.2-.73-1.2-1.62Z"/>
      <path class="cls-9" d="M174.73,81.91c0,.9.54,1.63,1.2,1.63s1.2-.73,1.2-1.63-.53-1.62-1.2-1.62-1.2.73-1.2,1.62Z"/>
      <path class="cls-6" d="M104.46,73.99l-2.28-2.42.07,2.47c-1.91.04-3.8-.32-5.56-1.07l-6.37-2.73c-1.21-.52-2.3-1.29-3.21-2.24L49.66,28.37,27.18,4.57c-1-1.07-2.21-1.92-3.55-2.51l-.22-.1c-1.69-.74-3.49-1.19-5.33-1.32l-5.94-.42c-.87-.06-1.74-.09-2.61-.09H.94C.35.12-.05.74.2,1.28l34.09,76.58c.2.46-.08.98-.57,1.05l-21.47,3.1,52.83,5.83c.17.02.33.05.49.09l7.6,1.07c.78.17.57.86-.31,1.13-.46.14-2.87.95-2.87.95-.47.16-.96.24-1.45.23l-27.07-.69-29.98-6.18c.12.09.19.23.19.39v3.65c0,.85.57,1.6,1.38,1.84l45.35,13.15,27.53,6.78,9.01,1.65h.01l9.64,1.76.13-12.38.18-16.2.12-11.1h-.57ZM97.78,100.3c0,1.45-1.18,2.63-2.63,2.63h-1.09c-1.45,0-2.63-1.18-2.63-2.63v-4.9c0-1.45,1.18-2.63,2.63-2.63h1.09c1.45,0,2.63,1.18,2.63,2.63v4.9ZM103.45,99.12c-.66,0-1.2-.73-1.2-1.63s.54-1.62,1.2-1.62,1.2.73,1.2,1.62-.54,1.63-1.2,1.63Z"/>
      <path class="cls-9" d="M102.25,97.48c0,.9.54,1.63,1.2,1.63s1.2-.73,1.2-1.63-.54-1.62-1.2-1.62-1.2.73-1.2,1.62Z"/>
      <path class="cls-4" d="M.86,82.62l9.42,1.56.99.16c.08.01.16.04.22.09l29.98,6.18,27.07.69c.49.01.98-.07,1.45-.23,0,0,2.41-.81,2.87-.95.88-.27,1.09-.96.31-1.13l-7.6-1.07c-.16-.04-.32-.07-.49-.09l-52.83-5.83-11.37.39c-.15,0-.16.21-.02.23Z"/>
      <path class="cls-6" d="M104.91,85.07l10.9-.03h.01c-.05-.2-.08-.42-.08-.64v-4.89c0-1.46,1.18-2.64,2.63-2.64h1.09c1.45,0,2.63,1.18,2.63,2.64v4.89c0,.22-.03.43-.08.63h.02s34.7-.08,34.7-.08l.08-12.12h-14.63s-3.08-2.92-3.08-2.92l.87,2.92h-.66s-34.03,1.13-34.03,1.13h-.25s-.12,11.11-.12,11.11ZM153.64,81.95c0-.9.54-1.63,1.2-1.63s1.2.73,1.2,1.63-.54,1.62-1.2,1.62-1.2-.73-1.2-1.62ZM149.59,81.95c0-.9.54-1.63,1.2-1.63s1.2.73,1.2,1.63-.53,1.62-1.2,1.62-1.2-.73-1.2-1.62ZM145.55,81.95c0-.9.54-1.63,1.2-1.63s1.2.73,1.2,1.63-.54,1.62-1.2,1.62-1.2-.73-1.2-1.62ZM141.51,81.95c0-.9.53-1.63,1.2-1.63s1.2.73,1.2,1.63-.54,1.62-1.2,1.62-1.2-.73-1.2-1.62ZM137.46,81.95c0-.9.54-1.63,1.2-1.63s1.2.73,1.2,1.63-.54,1.62-1.2,1.62-1.2-.73-1.2-1.62ZM133.42,81.95c0-.9.54-1.63,1.2-1.63s1.2.73,1.2,1.63-.54,1.62-1.2,1.62-1.2-.73-1.2-1.62ZM129.37,81.95c0-.9.54-1.63,1.2-1.63s1.2.73,1.2,1.63-.53,1.62-1.2,1.62-1.2-.73-1.2-1.62Z"/>
      <path class="cls-6" d="M271.97,84.4v-4.89c0-1.46,1.18-2.64,2.63-2.64h1.09c1.45,0,2.63,1.18,2.63,2.64v4.89c0,.1-.01.2-.01.29l34.22-.08,32.19-.07h.25s0-10.08,0-10.08c-1.2-.17-2.42-.27-3.64-.31l-30.42-.96-2.59-2.88.8,2.83-9.72-.31h-4.94s-.76-.75-.76-.75c-.25-.24-.59-.38-.95-.38h-5.15c-.29,0-.58.08-.82.25l-1.33.88h-24.06s-.06,11.89-.06,11.89l10.65-.02c0-.1,0-.2,0-.3ZM318.75,81.86c0-.89.54-1.62,1.2-1.62s1.2.73,1.2,1.62-.53,1.63-1.2,1.63-1.2-.73-1.2-1.63ZM315.24,81.86c0-.89.54-1.62,1.2-1.62s1.2.73,1.2,1.62-.53,1.63-1.2,1.63-1.2-.73-1.2-1.63ZM311.73,81.86c0-.89.54-1.62,1.2-1.62s1.2.73,1.2,1.62-.53,1.63-1.2,1.63-1.2-.73-1.2-1.63ZM308.22,81.86c0-.89.54-1.62,1.2-1.62s1.2.73,1.2,1.62-.54,1.63-1.2,1.63-1.2-.73-1.2-1.63ZM304.71,81.86c0-.89.54-1.62,1.2-1.62s1.2.73,1.2,1.62-.54,1.63-1.2,1.63-1.2-.73-1.2-1.63ZM301.2,81.86c0-.89.54-1.62,1.2-1.62s1.2.73,1.2,1.62-.54,1.63-1.2,1.63-1.2-.73-1.2-1.63ZM297.69,81.86c0-.89.54-1.62,1.2-1.62s1.2.73,1.2,1.62-.54,1.63-1.2,1.63-1.2-.73-1.2-1.63ZM294.18,81.86c0-.89.53-1.62,1.2-1.62s1.2.73,1.2,1.62-.54,1.63-1.2,1.63-1.2-.73-1.2-1.63ZM290.67,81.86c0-.89.53-1.62,1.2-1.62s1.2.73,1.2,1.62-.54,1.63-1.2,1.63-1.2-.73-1.2-1.63ZM287.15,81.86c0-.89.54-1.62,1.2-1.62s1.2.73,1.2,1.62-.53,1.63-1.2,1.63-1.2-.73-1.2-1.63ZM283.64,81.86c0-.89.54-1.62,1.2-1.62s1.2.73,1.2,1.62-.53,1.63-1.2,1.63-1.2-.73-1.2-1.63ZM263.96,81.91c0,.9-.54,1.63-1.2,1.63s-1.2-.73-1.2-1.63.54-1.62,1.2-1.62,1.2.73,1.2,1.62ZM267.74,81.91c0,.9-.54,1.63-1.2,1.63s-1.2-.73-1.2-1.63.53-1.62,1.2-1.62,1.2.73,1.2,1.62Z"/>
      <path class="cls-2" d="M367.47,80.52l.04,6.09v.93s.14,22.83.14,22.83l.04,6.92c1.19-.05,12.25-.65,15.99-2.25,1.31-.56,2.58-1.2,3.71-1.8.24-.13.47-.26.7-.4l.09-17.47-2.22-1.84h-2.77c-.7,0-1.39.13-2.05.37l-.71.27c-.46.17-.95.26-1.45.26h-.72c-.34,0-.68-.03-1.01-.08l-.96-.15c-.73-.12-1.19-.84-.99-1.54l.05-.18c.18-.62.69-1.09,1.33-1.21l2.61-.48c.11-.02.21-.03.32-.03h2.91s-3.78-2.97-3.78-2.97l-4.69-3.62c-1.39-1.06-2.89-1.97-4.48-2.69l-2.1-.96Z"/>
      <path class="cls-2" d="M344.97,118.65l11.47-.36,11.15-.99s.04,0,.1-.01l-.04-6.92c-.98.87-10.71,1.55-22.65,1.56l-.03,6.72Z"/>
      <polygon class="cls-2" points="312.64 111.93 312.67 119.1 343.02 118.71 344.97 118.65 345 111.93 312.64 111.93"/>
      <path class="cls-1" d="M305.24,119.2l-.57,2.57,2.33-2.59,5.67-.08-.03-7.17h-5.79c.53.7.53,2.19.53,2.19.23.77-.45,1.46-1.17,1.82h-.01s-6.66,3.33-6.66,3.33l5.7-.07Z"/>
      <path class="cls-5" d="M388.09,112.84c2.1-1.22,3.98-2.78,5.56-4.64l.11-.13c.78-.92,1.22-2.1,1.22-3.31,0-.85-.21-1.69-.61-2.44l-.3-.56c-.89-1.67-2.09-3.16-3.54-4.39l-1.62-1.39-.73-.61-.09,17.47Z"/>
      <path class="cls-9" d="M376.29,94.2l.96.15c.33.05.67.08,1.01.08h.72c.5,0,.99-.09,1.45-.26l.71-.27c.66-.24,1.35-.37,2.05-.37h2.77s-1.29-1.08-1.29-1.08l-2.15-1.69h-2.91c-.11,0-.21,0-.32.03l-2.61.48c-.64.12-1.15.59-1.33,1.21l-.05.18c-.2.7.26,1.42.99,1.54Z"/>
      <path class="cls-6" d="M344.97,74.46v10.08c10.35.02,18.18,1.25,22.55,3v-.93s-.05-6.09-.05-6.09l-2.44-1.12c-2.99-1.37-6.13-2.37-9.36-2.98l-8.75-1.66c-.65-.12-1.29-.23-1.95-.3Z"/>
      <path class="cls-7" d="M278.74,108.47c-.06.14-.18.25-.33.27l-2.8.46c-.79.13-1.6.06-2.35-.2l-.68-.23-1.02-.35c-.82-.29-1.68-.46-2.55-.52l-6.37-.42c-.6-.04-1.16-.31-1.56-.75-.51-.56-1.2-.92-1.95-1.04l-2.36-.38-11.72-2.12-18.5-2.82-30.21-2.83-29.36-1.83-37.72-.71s-.11,0-.16.02c-.12.01-.24.04-.34.1-.33.18-1,.55-1.91,1.16-.57.39-1.23.86-1.98,1.44-.88.68-1.86,1.51-2.93,2.5h-2.14c-.28,0-.48-.26-.42-.52l1.13-4.89c.06-.23,0-.48-.15-.66l-3.14-3.79c-.14-.18-.02-.44.21-.44h1.64c.22,0,.43.05.63.14l5.67,2.64c.25.12.52.21.79.28l3.62.91c.33.08.66.12.99.13l10.11.16,5.79.1,10,.16,38.4.63,12.66,1.2,6.36.61,4.21.4,2.39.22,1.24.12,2.36.22,1.3.13,2.24.21,1.51.14,1.96.19,1.88.18,1.49.14,2.66.25s.02.01.03.01h.01l.29.02,4.28.41,19.29,2.65,10.5,1.44,3.46.4.62.07h.04c.52.07,1,.25,1.43.53l.28.18c1.21.79,1.7,2.33,1.18,3.68Z"/>
      <line class="cls-3" x1="242.22" y1="111.93" x2="242.18" y2="111.97"/>
      <line class="cls-3" x1="220.78" y1="122.46" x2="220.76" y2="122.47"/>
      <line class="cls-3" x1="129.1" y1="95.01" x2="129" y2="94.99"/>
      <line class="cls-3" x1="198.11" y1="103.97" x2="198.18" y2="117.87"/>
      <polygon class="cls-4" points="195.23 107.75 195.23 115.6 196.62 116.38 196.91 106.85 195.23 107.75"/>
      <path class="cls-4" d="M187.96,112.17l6.26,2.87,1.01.56v-7.85s-7.29,3.92-7.29,3.92c-.2.11-.19.4.02.5Z"/>
      <line class="cls-3" x1="11.49" y1="84.43" x2="10.28" y2="84.18"/>
      <line class="cls-3" x1="388.09" y1="112.84" x2="388.09" y2="112.86"/>
      <line class="cls-3" x1="367.47" y1="80.51" x2="367.47" y2="80.52"/>
      <line class="cls-3" x1="344.97" y1="74.33" x2="344.97" y2="74.46"/>
      <path class="cls-8" d="M156.67,94.43l38.4.63,12.66,1.2v-.87c0-1.45,1.18-2.63,2.64-2.63h1.08c1.46,0,2.64,1.18,2.64,2.63v1.48s4.21.4,4.21.4c.08-.79.58-1.41,1.19-1.41.67,0,1.2.73,1.2,1.62h0s1.24.13,1.24.13c-.01-.04-.01-.09-.01-.13,0-.89.54-1.62,1.2-1.62s1.2.73,1.2,1.62c0,.12-.01.24-.03.35l1.3.13c-.03-.15-.05-.31-.05-.48,0-.89.54-1.62,1.2-1.62s1.2.73,1.2,1.62c0,.25-.04.48-.11.69l1.51.14c-.11-.24-.17-.53-.17-.83,0-.89.53-1.62,1.2-1.62s1.2.73,1.2,1.62c0,.39-.1.74-.27,1.02l1.88.18c-.24-.3-.39-.73-.39-1.2,0-.89.54-1.62,1.2-1.62s1.2.73,1.2,1.62c0,.56-.21,1.05-.52,1.34l2.66.25c-.53-.17-.92-.82-.92-1.59,0-.89.54-1.62,1.2-1.62s1.2.73,1.2,1.62-.5,1.59-1.15,1.62l4.28.41,19.29,2.65.1-17.44-91.98.21h0c-.25,1.21-1.31,2.11-2.59,2.11h-1.08c-1.27,0-2.33-.9-2.59-2.1h-6.35s-.06,9.49-.06,9.49ZM258.16,97.48c0-.89.53-1.62,1.2-1.62s1.2.73,1.2,1.62-.54,1.63-1.2,1.63-1.2-.73-1.2-1.63ZM254.53,97.48c0-.89.54-1.62,1.2-1.62s1.2.73,1.2,1.62-.53,1.63-1.2,1.63-1.2-.73-1.2-1.63ZM250.91,97.48c0-.89.54-1.62,1.2-1.62s1.2.73,1.2,1.62-.54,1.63-1.2,1.63-1.2-.73-1.2-1.63ZM247.29,97.48c0-.89.53-1.62,1.2-1.62s1.2.73,1.2,1.62-.54,1.63-1.2,1.63-1.2-.73-1.2-1.63ZM243.66,97.48c0-.89.54-1.62,1.2-1.62s1.2.73,1.2,1.62-.54,1.63-1.2,1.63-1.2-.73-1.2-1.63ZM240.04,97.48c0-.89.54-1.62,1.2-1.62s1.2.73,1.2,1.62-.54,1.63-1.2,1.63-1.2-.73-1.2-1.63Z"/>
      <path class="cls-4" d="M207.73,95.39v.87s6.36.61,6.36.61v-1.48c0-1.45-1.18-2.63-2.64-2.63h-1.08c-1.46,0-2.64,1.18-2.64,2.63Z"/>
      <path class="cls-9" d="M218.3,97.27l2.39.22h0c0-.9-.53-1.63-1.2-1.63-.61,0-1.11.62-1.19,1.41Z"/>
      <path class="cls-9" d="M221.92,97.48s0,.09.01.13l2.36.22c.02-.11.03-.23.03-.35,0-.89-.54-1.62-1.2-1.62s-1.2.73-1.2,1.62Z"/>
      <path class="cls-9" d="M225.54,97.48c0,.17.02.33.05.48l2.24.21c.07-.21.11-.44.11-.69,0-.89-.53-1.62-1.2-1.62s-1.2.73-1.2,1.62Z"/>
      <path class="cls-9" d="M229.17,97.48c0,.3.06.59.17.83l1.96.19c.17-.28.27-.63.27-1.02,0-.89-.54-1.62-1.2-1.62s-1.2.73-1.2,1.62Z"/>
      <path class="cls-9" d="M232.79,97.48c0,.47.15.9.39,1.2l1.49.14c.31-.29.52-.78.52-1.34,0-.89-.54-1.62-1.2-1.62s-1.2.73-1.2,1.62Z"/>
      <path class="cls-9" d="M236.41,97.48c0,.77.39,1.42.92,1.59.01,0,.02.01.03.01h.01l.29.02c.65-.03,1.15-.74,1.15-1.62s-.53-1.62-1.2-1.62-1.2.73-1.2,1.62Z"/>
      <path class="cls-8" d="M312.53,84.61l.06,15.75,32.42.28v-.28s-.04-15.38-.04-15.38v-.44s-.25,0-.25,0l-32.19.07ZM341.5,97.48c0-.89.53-1.62,1.2-1.62s1.2.73,1.2,1.62-.54,1.63-1.2,1.63-1.2-.73-1.2-1.63ZM337.98,97.48c0-.89.54-1.62,1.2-1.62s1.2.73,1.2,1.62-.54,1.63-1.2,1.63-1.2-.73-1.2-1.63ZM334.46,97.48c0-.89.54-1.62,1.2-1.62s1.2.73,1.2,1.62-.53,1.63-1.2,1.63-1.2-.73-1.2-1.63ZM330.95,97.48c0-.89.53-1.62,1.2-1.62s1.2.73,1.2,1.62-.54,1.63-1.2,1.63-1.2-.73-1.2-1.63ZM327.43,97.48c0-.89.54-1.62,1.2-1.62s1.2.73,1.2,1.62-.54,1.63-1.2,1.63-1.2-.73-1.2-1.63ZM323.91,97.48c0-.89.54-1.62,1.2-1.62s1.2.73,1.2,1.62-.53,1.63-1.2,1.63-1.2-.73-1.2-1.63ZM320.4,97.48c0-.89.54-1.62,1.2-1.62s1.2.73,1.2,1.62-.54,1.63-1.2,1.63-1.2-.73-1.2-1.63ZM316.88,97.48c0-.89.54-1.62,1.2-1.62s1.2.73,1.2,1.62-.54,1.63-1.2,1.63-1.2-.73-1.2-1.63ZM313.36,97.48c0-.89.54-1.62,1.2-1.62s1.2.73,1.2,1.62-.53,1.63-1.2,1.63-1.2-.73-1.2-1.63Z"/>
      <path class="cls-8" d="M261.23,102.16l10.5,1.44,3.46.4.62.07h.04s11.01,1.26,11.01,1.26c.64.07,1.27.19,1.89.35l12.46,3.17c.67.17,1.31.44,1.91.78l2.68,1.56c.18.1.49.28.81.5.09.06.17.14.24.24h5.79s-.05-11.57-.05-11.57l-.06-15.75-34.22.08c-.15,1.32-1.27,2.35-2.62,2.35h-1.09c-1.35,0-2.46-1.02-2.62-2.34l-10.65.02-.1,17.44ZM309.85,97.48c0-.89.54-1.62,1.2-1.62s1.2.73,1.2,1.62-.54,1.63-1.2,1.63-1.2-.73-1.2-1.63ZM299.1,95.39c0-1.45,1.18-2.63,2.63-2.63h1.09c1.45,0,2.63,1.18,2.63,2.63v4.9c0,1.45-1.18,2.63-2.63,2.63h-1.09c-1.45,0-2.63-1.18-2.63-2.63v-4.9ZM290.65,97.48c0-.89.53-1.62,1.2-1.62s1.2.73,1.2,1.62-.54,1.63-1.2,1.63-1.2-.73-1.2-1.63ZM287.02,97.48c0-.89.54-1.62,1.2-1.62s1.2.73,1.2,1.62-.54,1.63-1.2,1.63-1.2-.73-1.2-1.63ZM283.39,97.48c0-.89.54-1.62,1.2-1.62s1.2.73,1.2,1.62-.53,1.63-1.2,1.63-1.2-.73-1.2-1.63ZM279.77,97.48c0-.89.54-1.62,1.2-1.62s1.2.73,1.2,1.62-.54,1.63-1.2,1.63-1.2-.73-1.2-1.63ZM276.14,97.48c0-.89.54-1.62,1.2-1.62s1.2.73,1.2,1.62-.54,1.63-1.2,1.63-1.2-.73-1.2-1.63ZM272.52,97.48c0-.89.53-1.62,1.2-1.62s1.2.73,1.2,1.62-.54,1.63-1.2,1.63-1.2-.73-1.2-1.63ZM268.89,97.48c0-.89.54-1.62,1.2-1.62s1.2.73,1.2,1.62-.54,1.63-1.2,1.63-1.2-.73-1.2-1.63ZM265.26,97.48c0-.89.54-1.62,1.2-1.62s1.2.73,1.2,1.62-.53,1.63-1.2,1.63-1.2-.73-1.2-1.63ZM261.64,97.48c0-.89.53-1.62,1.2-1.62s1.2.73,1.2,1.62-.54,1.63-1.2,1.63-1.2-.73-1.2-1.63Z"/>
      <path class="cls-8" d="M122.03,85.04h-.02c-.28,1.16-1.32,2.01-2.55,2.01h-1.09c-1.23,0-2.27-.85-2.55-2h-.01l-10.9.03-.18,16.2,36.22.36c-.24-.39-.37-.85-.37-1.34v-3.29l-4.79-.83c.31.3.51.77.51,1.31,0,.9-.54,1.63-1.2,1.63s-1.2-.73-1.2-1.63c0-.69.32-1.28.77-1.51l-5.57-.96c-.12.01-.24.04-.34.1-.33.18-1,.55-1.91,1.16.25.3.41.73.41,1.21,0,.9-.54,1.63-1.2,1.63-.61,0-1.11-.61-1.19-1.4-.88.68-1.86,1.51-2.93,2.5h-2.14c-.28,0-.48-.26-.42-.52l1.13-4.89c.06-.23,0-.48-.15-.66l-3.14-3.79c-.14-.18-.02-.44.21-.44h1.64c.22,0,.43.05.63.14l5.67,2.64c.25.12.52.21.79.28l3.62.91c.33.08.66.12.99.13l10.11.16c.44-.84,1.32-1.41,2.33-1.41h1.09c1.05,0,1.96.62,2.37,1.51l10,.16.06-9.48-34.7.08ZM130.58,95.87c.66,0,1.2.73,1.2,1.62s-.54,1.63-1.2,1.63-1.2-.73-1.2-1.63.54-1.62,1.2-1.62ZM107.97,99.12c-.66,0-1.2-.73-1.2-1.63s.54-1.62,1.2-1.62,1.2.73,1.2,1.62-.54,1.63-1.2,1.63ZM112.49,99.12c-.66,0-1.2-.73-1.2-1.63s.54-1.62,1.2-1.62,1.2.73,1.2,1.62-.54,1.63-1.2,1.63ZM118.21,97.49c0,.9-.53,1.63-1.2,1.63s-1.2-.73-1.2-1.63.54-1.62,1.2-1.62,1.2.73,1.2,1.62Z"/>
      <path class="cls-8" d="M146.67,94.28l-5.79-.1c.44-.84,1.32-1.41,2.33-1.41h1.09c1.05,0,1.96.62,2.37,1.51Z"/>
      <path class="cls-9" d="M133.9,97.48c0,.9.54,1.63,1.2,1.63s1.2-.73,1.2-1.63c0-.54-.2-1.01-.51-1.31l-1.12-.2c-.45.23-.77.82-.77,1.51Z"/>
      <line class="cls-3" x1="104.6" y1="113.65" x2="104.6" y2="113.69"/>
      <line class="cls-3" x1="105.03" y1="73.96" x2="105.03" y2="73.97"/>
      <line class="cls-3" x1="104.73" y1="101.27" x2="97.62" y2="101.2"/>
      <line class="cls-3" x1="261.42" y1="67.6" x2="261.39" y2="72.83"/>
      <line class="cls-3" x1="312.53" y1="84.54" x2="312.53" y2="84.61"/>
      <line class="cls-3" x1="312.59" y1="100.36" x2="312.53" y2="100.36"/>
      <path class="cls-8" d="M345.01,100.36v.28s-.01,11.29-.01,11.29c11.94-.01,21.67-.69,22.65-1.56l-.13-22.83c-4.37-1.75-12.2-2.98-22.55-3v.44s.04,15.38.04,15.38ZM355.31,95.39c0-1.45,1.18-2.63,2.63-2.63h1.08c1.46,0,2.64,1.18,2.64,2.63v4.9c0,1.45-1.18,2.63-2.64,2.63h-1.08c-1.45,0-2.63-1.18-2.63-2.63v-4.9ZM348.53,97.48c0-.89.54-1.62,1.2-1.62s1.2.73,1.2,1.62-.54,1.63-1.2,1.63-1.2-.73-1.2-1.63ZM345.01,97.48c0-.89.54-1.62,1.2-1.62s1.2.73,1.2,1.62-.53,1.63-1.2,1.63-1.2-.73-1.2-1.63Z"/>
      <polygon class="cls-8" points="312.59 100.36 312.64 111.93 345 111.93 345.01 100.64 312.59 100.36"/>
      <rect class="cls-4" x="355.31" y="92.76" width="6.35" height="10.16" rx="2.63" ry="2.63"/>
      <rect class="cls-4" x="299.1" y="92.76" width="6.35" height="10.16" rx="2.63" ry="2.63"/>
      <path class="cls-4" d="M271.97,79.51v4.89c0,.1,0,.2,0,.3.16,1.32,1.27,2.34,2.62,2.34h1.09c1.35,0,2.47-1.03,2.62-2.35,0-.09.01-.19.01-.29v-4.89c0-1.46-1.18-2.64-2.63-2.64h-1.09c-1.45,0-2.63,1.18-2.63,2.64Z"/>
      <path class="cls-4" d="M163.03,79.51v4.89c0,.19.02.37.05.54.26,1.2,1.32,2.1,2.59,2.1h1.08c1.28,0,2.34-.9,2.59-2.11.03-.17.05-.35.05-.53v-4.89c0-1.46-1.18-2.64-2.64-2.64h-1.08c-1.46,0-2.64,1.18-2.64,2.64Z"/>
      <path class="cls-8" d="M149.99,98.96l-3.06.44v-1.29l3.07.53c.18.03.18.29,0,.32Z"/>
      <line class="cls-3" x1="146.93" y1="98.09" x2="146.93" y2="98.1"/>
      <line class="cls-3" x1="140.58" y1="96.99" x2="140.58" y2="97"/>
      <path class="cls-4" d="M115.74,79.51v4.89c0,.22.03.44.08.64.28,1.15,1.32,2,2.55,2h1.09c1.23,0,2.27-.85,2.55-2.01.05-.2.08-.41.08-.63v-4.89c0-1.46-1.18-2.64-2.63-2.64h-1.09c-1.45,0-2.63,1.18-2.63,2.64Z"/>
      <rect class="cls-4" x="91.43" y="92.76" width="6.35" height="10.16" rx="2.63" ry="2.63"/>
      <path class="cls-9" d="M348.53,97.48c0,.9.54,1.63,1.2,1.63s1.2-.73,1.2-1.63-.54-1.62-1.2-1.62-1.2.73-1.2,1.62Z"/>
      <path class="cls-9" d="M345.01,97.48c0,.9.54,1.63,1.2,1.63s1.2-.73,1.2-1.63-.53-1.62-1.2-1.62-1.2.73-1.2,1.62Z"/>
      <path class="cls-9" d="M341.5,97.48c0,.9.53,1.63,1.2,1.63s1.2-.73,1.2-1.63-.54-1.62-1.2-1.62-1.2.73-1.2,1.62Z"/>
      <path class="cls-9" d="M337.98,97.48c0,.9.54,1.63,1.2,1.63s1.2-.73,1.2-1.63-.54-1.62-1.2-1.62-1.2.73-1.2,1.62Z"/>
      <path class="cls-9" d="M334.46,97.48c0,.9.54,1.63,1.2,1.63s1.2-.73,1.2-1.63-.53-1.62-1.2-1.62-1.2.73-1.2,1.62Z"/>
      <path class="cls-9" d="M330.95,97.48c0,.9.53,1.63,1.2,1.63s1.2-.73,1.2-1.63-.54-1.62-1.2-1.62-1.2.73-1.2,1.62Z"/>
      <path class="cls-9" d="M327.43,97.48c0,.9.54,1.63,1.2,1.63s1.2-.73,1.2-1.63-.54-1.62-1.2-1.62-1.2.73-1.2,1.62Z"/>
      <path class="cls-9" d="M323.91,97.48c0,.9.54,1.63,1.2,1.63s1.2-.73,1.2-1.63-.53-1.62-1.2-1.62-1.2.73-1.2,1.62Z"/>
      <path class="cls-9" d="M318.75,81.86c0,.9.54,1.63,1.2,1.63s1.2-.73,1.2-1.63-.53-1.62-1.2-1.62-1.2.73-1.2,1.62Z"/>
      <path class="cls-9" d="M315.24,81.86c0,.9.54,1.63,1.2,1.63s1.2-.73,1.2-1.63-.53-1.62-1.2-1.62-1.2.73-1.2,1.62Z"/>
      <path class="cls-9" d="M311.73,81.86c0,.9.54,1.63,1.2,1.63s1.2-.73,1.2-1.63-.53-1.62-1.2-1.62-1.2.73-1.2,1.62Z"/>
      <path class="cls-9" d="M308.22,81.86c0,.9.54,1.63,1.2,1.63s1.2-.73,1.2-1.63-.54-1.62-1.2-1.62-1.2.73-1.2,1.62Z"/>
      <path class="cls-9" d="M304.71,81.86c0,.9.54,1.63,1.2,1.63s1.2-.73,1.2-1.63-.54-1.62-1.2-1.62-1.2.73-1.2,1.62Z"/>
      <path class="cls-9" d="M301.2,81.86c0,.9.54,1.63,1.2,1.63s1.2-.73,1.2-1.63-.54-1.62-1.2-1.62-1.2.73-1.2,1.62Z"/>
      <path class="cls-9" d="M297.69,81.86c0,.9.54,1.63,1.2,1.63s1.2-.73,1.2-1.63-.54-1.62-1.2-1.62-1.2.73-1.2,1.62Z"/>
      <path class="cls-9" d="M294.18,81.86c0,.9.53,1.63,1.2,1.63s1.2-.73,1.2-1.63-.54-1.62-1.2-1.62-1.2.73-1.2,1.62Z"/>
      <path class="cls-9" d="M290.67,81.86c0,.9.53,1.63,1.2,1.63s1.2-.73,1.2-1.63-.54-1.62-1.2-1.62-1.2.73-1.2,1.62Z"/>
      <path class="cls-9" d="M287.15,81.86c0,.9.54,1.63,1.2,1.63s1.2-.73,1.2-1.63-.53-1.62-1.2-1.62-1.2.73-1.2,1.62Z"/>
      <path class="cls-9" d="M283.64,81.86c0,.9.54,1.63,1.2,1.63s1.2-.73,1.2-1.63-.53-1.62-1.2-1.62-1.2.73-1.2,1.62Z"/>
      <path class="cls-9" d="M320.4,97.48c0,.9.54,1.63,1.2,1.63s1.2-.73,1.2-1.63-.54-1.62-1.2-1.62-1.2.73-1.2,1.62Z"/>
      <path class="cls-9" d="M316.88,97.48c0,.9.54,1.63,1.2,1.63s1.2-.73,1.2-1.63-.54-1.62-1.2-1.62-1.2.73-1.2,1.62Z"/>
      <path class="cls-9" d="M313.36,97.48c0,.9.54,1.63,1.2,1.63s1.2-.73,1.2-1.63-.53-1.62-1.2-1.62-1.2.73-1.2,1.62Z"/>
      <path class="cls-9" d="M309.85,97.48c0,.9.54,1.63,1.2,1.63s1.2-.73,1.2-1.63-.54-1.62-1.2-1.62-1.2.73-1.2,1.62Z"/>
      <path class="cls-9" d="M290.65,97.48c0,.9.53,1.63,1.2,1.63s1.2-.73,1.2-1.63-.54-1.62-1.2-1.62-1.2.73-1.2,1.62Z"/>
      <path class="cls-9" d="M287.02,97.48c0,.9.54,1.63,1.2,1.63s1.2-.73,1.2-1.63-.54-1.62-1.2-1.62-1.2.73-1.2,1.62Z"/>
      <path class="cls-9" d="M283.39,97.48c0,.9.54,1.63,1.2,1.63s1.2-.73,1.2-1.63-.53-1.62-1.2-1.62-1.2.73-1.2,1.62Z"/>
      <path class="cls-9" d="M279.77,97.48c0,.9.54,1.63,1.2,1.63s1.2-.73,1.2-1.63-.54-1.62-1.2-1.62-1.2.73-1.2,1.62Z"/>
      <path class="cls-9" d="M276.14,97.48c0,.9.54,1.63,1.2,1.63s1.2-.73,1.2-1.63-.54-1.62-1.2-1.62-1.2.73-1.2,1.62Z"/>
      <path class="cls-9" d="M272.52,97.48c0,.9.53,1.63,1.2,1.63s1.2-.73,1.2-1.63-.54-1.62-1.2-1.62-1.2.73-1.2,1.62Z"/>
      <path class="cls-9" d="M268.89,97.48c0,.9.54,1.63,1.2,1.63s1.2-.73,1.2-1.63-.54-1.62-1.2-1.62-1.2.73-1.2,1.62Z"/>
      <path class="cls-9" d="M265.26,97.48c0,.9.54,1.63,1.2,1.63s1.2-.73,1.2-1.63-.53-1.62-1.2-1.62-1.2.73-1.2,1.62Z"/>
      <path class="cls-9" d="M261.64,97.48c0,.9.53,1.63,1.2,1.63s1.2-.73,1.2-1.63-.54-1.62-1.2-1.62-1.2.73-1.2,1.62Z"/>
      <path class="cls-9" d="M265.34,81.91c0,.9.53,1.63,1.2,1.63s1.2-.73,1.2-1.63-.54-1.62-1.2-1.62-1.2.73-1.2,1.62Z"/>
      <path class="cls-9" d="M261.56,81.91c0,.9.54,1.63,1.2,1.63s1.2-.73,1.2-1.63-.54-1.62-1.2-1.62-1.2.73-1.2,1.62Z"/>
      <path class="cls-9" d="M257.79,81.91c0,.9.53,1.63,1.2,1.63s1.2-.73,1.2-1.63-.54-1.62-1.2-1.62-1.2.73-1.2,1.62Z"/>
      <path class="cls-9" d="M254.01,81.91c0,.9.54,1.63,1.2,1.63s1.2-.73,1.2-1.63-.54-1.62-1.2-1.62-1.2.73-1.2,1.62Z"/>
      <path class="cls-9" d="M250.24,81.91c0,.9.53,1.63,1.2,1.63s1.2-.73,1.2-1.63-.54-1.62-1.2-1.62-1.2.73-1.2,1.62Z"/>
      <path class="cls-9" d="M246.46,81.91c0,.9.54,1.63,1.2,1.63s1.2-.73,1.2-1.63-.54-1.62-1.2-1.62-1.2.73-1.2,1.62Z"/>
      <path class="cls-9" d="M242.69,81.91c0,.9.53,1.63,1.2,1.63s1.2-.73,1.2-1.63-.54-1.62-1.2-1.62-1.2.73-1.2,1.62Z"/>
      <path class="cls-9" d="M238.91,81.91c0,.9.54,1.63,1.2,1.63s1.2-.73,1.2-1.63-.54-1.62-1.2-1.62-1.2.73-1.2,1.62Z"/>
      <path class="cls-9" d="M235.14,81.91c0,.9.53,1.63,1.2,1.63s1.2-.73,1.2-1.63-.54-1.62-1.2-1.62-1.2.73-1.2,1.62Z"/>
      <path class="cls-9" d="M231.36,81.91c0,.9.54,1.63,1.2,1.63s1.2-.73,1.2-1.63-.54-1.62-1.2-1.62-1.2.73-1.2,1.62Z"/>
      <path class="cls-9" d="M227.58,81.91c0,.9.54,1.63,1.2,1.63s1.2-.73,1.2-1.63-.53-1.62-1.2-1.62-1.2.73-1.2,1.62Z"/>
      <path class="cls-9" d="M223.81,81.91c0,.9.54,1.63,1.2,1.63s1.2-.73,1.2-1.63-.54-1.62-1.2-1.62-1.2.73-1.2,1.62Z"/>
      <path class="cls-9" d="M220.03,81.91c0,.9.54,1.63,1.2,1.63s1.2-.73,1.2-1.63-.53-1.62-1.2-1.62-1.2.73-1.2,1.62Z"/>
      <path class="cls-9" d="M216.26,81.91c0,.9.54,1.63,1.2,1.63s1.2-.73,1.2-1.63-.54-1.62-1.2-1.62-1.2.73-1.2,1.62Z"/>
      <path class="cls-9" d="M212.48,81.91c0,.9.54,1.63,1.2,1.63s1.2-.73,1.2-1.63-.53-1.62-1.2-1.62-1.2.73-1.2,1.62Z"/>
      <path class="cls-9" d="M208.71,81.91c0,.9.54,1.63,1.2,1.63s1.2-.73,1.2-1.63-.54-1.62-1.2-1.62-1.2.73-1.2,1.62Z"/>
      <path class="cls-9" d="M204.93,81.91c0,.9.54,1.63,1.2,1.63s1.2-.73,1.2-1.63-.53-1.62-1.2-1.62-1.2.73-1.2,1.62Z"/>
      <path class="cls-9" d="M201.16,81.91c0,.9.54,1.63,1.2,1.63s1.2-.73,1.2-1.63-.54-1.62-1.2-1.62-1.2.73-1.2,1.62Z"/>
      <path class="cls-9" d="M197.38,81.91c0,.9.54,1.63,1.2,1.63s1.2-.73,1.2-1.63-.53-1.62-1.2-1.62-1.2.73-1.2,1.62Z"/>
      <path class="cls-9" d="M193.61,81.91c0,.9.54,1.63,1.2,1.63s1.2-.73,1.2-1.63-.54-1.62-1.2-1.62-1.2.73-1.2,1.62Z"/>
      <path class="cls-9" d="M189.83,81.91c0,.9.54,1.63,1.2,1.63s1.2-.73,1.2-1.63-.53-1.62-1.2-1.62-1.2.73-1.2,1.62Z"/>
      <path class="cls-9" d="M186.06,81.91c0,.9.54,1.63,1.2,1.63s1.2-.73,1.2-1.63-.54-1.62-1.2-1.62-1.2.73-1.2,1.62Z"/>
      <path class="cls-9" d="M182.28,81.91c0,.9.54,1.63,1.2,1.63s1.2-.73,1.2-1.63-.53-1.62-1.2-1.62-1.2.73-1.2,1.62Z"/>
      <path class="cls-9" d="M178.51,81.91c0,.9.54,1.63,1.2,1.63s1.2-.73,1.2-1.63-.54-1.62-1.2-1.62-1.2.73-1.2,1.62Z"/>
      <path class="cls-9" d="M170.96,81.95c0,.89.54,1.62,1.2,1.62s1.2-.73,1.2-1.62-.54-1.63-1.2-1.63-1.2.73-1.2,1.63Z"/>
      <path class="cls-9" d="M149.59,81.95c0,.89.54,1.62,1.2,1.62s1.2-.73,1.2-1.62-.53-1.63-1.2-1.63-1.2.73-1.2,1.63Z"/>
      <path class="cls-9" d="M145.55,81.95c0,.89.54,1.62,1.2,1.62s1.2-.73,1.2-1.62-.54-1.63-1.2-1.63-1.2.73-1.2,1.63Z"/>
      <path class="cls-9" d="M157.68,81.95c0,.89.54,1.62,1.2,1.62s1.2-.73,1.2-1.62-.53-1.63-1.2-1.63-1.2.73-1.2,1.63Z"/>
      <path class="cls-9" d="M141.51,81.95c0,.89.53,1.62,1.2,1.62s1.2-.73,1.2-1.62-.54-1.63-1.2-1.63-1.2.73-1.2,1.63Z"/>
      <path class="cls-9" d="M153.64,81.95c0,.89.54,1.62,1.2,1.62s1.2-.73,1.2-1.62-.54-1.63-1.2-1.63-1.2.73-1.2,1.63Z"/>
      <path class="cls-9" d="M258.16,97.48c0,.9.53,1.63,1.2,1.63s1.2-.73,1.2-1.63-.54-1.62-1.2-1.62-1.2.73-1.2,1.62Z"/>
      <path class="cls-9" d="M254.53,97.48c0,.9.54,1.63,1.2,1.63s1.2-.73,1.2-1.63-.53-1.62-1.2-1.62-1.2.73-1.2,1.62Z"/>
      <path class="cls-9" d="M250.91,97.48c0,.9.54,1.63,1.2,1.63s1.2-.73,1.2-1.63-.54-1.62-1.2-1.62-1.2.73-1.2,1.62Z"/>
      <path class="cls-9" d="M247.29,97.48c0,.9.53,1.63,1.2,1.63s1.2-.73,1.2-1.63-.54-1.62-1.2-1.62-1.2.73-1.2,1.62Z"/>
      <path class="cls-9" d="M243.66,97.48c0,.9.54,1.63,1.2,1.63s1.2-.73,1.2-1.63-.54-1.62-1.2-1.62-1.2.73-1.2,1.62Z"/>
      <path class="cls-9" d="M240.04,97.48c0,.9.54,1.63,1.2,1.63s1.2-.73,1.2-1.63-.54-1.62-1.2-1.62-1.2.73-1.2,1.62Z"/>
      <path class="cls-9" d="M129.38,97.48c0,.9.54,1.63,1.2,1.63s1.2-.73,1.2-1.63-.54-1.62-1.2-1.62-1.2.73-1.2,1.62Z"/>
      <path class="cls-9" d="M124.87,97.71c.08.79.58,1.4,1.19,1.4.66,0,1.2-.73,1.2-1.63,0-.48-.16-.91-.41-1.21-.57.39-1.23.86-1.98,1.44Z"/>
      <path class="cls-9" d="M115.81,97.48c0,.9.54,1.63,1.2,1.63s1.2-.73,1.2-1.63-.53-1.62-1.2-1.62-1.2.73-1.2,1.62Z"/>
      <path class="cls-9" d="M111.29,97.48c0,.9.54,1.63,1.2,1.63s1.2-.73,1.2-1.63-.54-1.62-1.2-1.62-1.2.73-1.2,1.62Z"/>
      <path class="cls-9" d="M106.77,97.48c0,.9.54,1.63,1.2,1.63s1.2-.73,1.2-1.63-.54-1.62-1.2-1.62-1.2.73-1.2,1.62Z"/>
      <path class="cls-8" d="M143.06,100.67l-.03.38c-.03.34.18.66.51.76l2.2.69c-.41.27-.9.43-1.44.43h-1.09c-.96,0-1.8-.52-2.25-1.29h-.01c-.24-.39-.37-.85-.37-1.34v-3.29l6.35,1.1v1.29l-3.09.44c-.42.06-.75.4-.78.83Z"/>
      <path class="cls-4" d="M138.81,112.1c-.55.41-.77,1.12-.57,1.78.49,1.59,1.68,2.87,3.22,3.49l3.03,1.21-1.84,2.12h-1.18l1.2-2.12h-1.39l-24.12-2.65-.3-.03-12.26-2.24.13-12.38,36.22.36h.01c.45.77,1.29,1.29,2.25,1.29h1.09c.54,0,1.03-.16,1.44-.43l1.18.37c.35.11.61.41.67.78l.02.1c.1.59.57,1.03,1.16,1.1l5.39.56c.25.02.48.15.64.34l.33.42-5.94,1.59-5.95,1.8c-1.2.36-2.33.94-3.33,1.7l-1.1.84Z"/>
      <path class="cls-9" d="M137.46,81.95c0,.89.54,1.62,1.2,1.62s1.2-.73,1.2-1.62-.54-1.63-1.2-1.63-1.2.73-1.2,1.63Z"/>
      <path class="cls-9" d="M133.42,81.95c0,.89.54,1.62,1.2,1.62s1.2-.73,1.2-1.62-.54-1.63-1.2-1.63-1.2.73-1.2,1.63Z"/>
      <path class="cls-9" d="M129.37,81.95c0,.89.54,1.62,1.2,1.62s1.2-.73,1.2-1.62-.53-1.63-1.2-1.63-1.2.73-1.2,1.63Z"/>
      <polygon class="cls-2" points="117.16 115.93 117.16 116.86 114.93 116.86 94.96 112.79 94.96 111.9 104.6 113.66 116.86 115.9 117.16 115.93"/>
      <line class="cls-3" x1="94.96" y1="111.9" x2="94.96" y2="111.89"/>
      <line class="cls-3" x1="217.97" y1="72.94" x2="217.93" y2="72.83"/>
      <polyline class="cls-3" points="309.12 73.14 309.13 73.14 309.14 73.19"/>
      <path class="cls-2" d="M294.41,120.14s-.23,1.21-1.97,1.94l.35-1.67,1.62-.27Z"/>
      <polygon class="cls-2" points="214.01 122.53 212.34 123.64 212.57 122.53 214.01 122.53"/>
      <line class="cls-3" x1="212.58" y1="122.48" x2="212.57" y2="122.53"/>
      <polygon class="cls-2" points="164.58 120.43 162.98 122.15 162.09 122.15 163.17 120.26 164.58 120.43"/>
    </g>
  </g>
</svg>