<?xml version="1.0" encoding="UTF-8"?>
<svg id="Layer_2" data-name="Layer 2" xmlns="http://www.w3.org/2000/svg" viewBox="0 0 107.49 77.02">
  <defs>
    <style>
      .cls-1 {
        fill: #fbb040;
      }

      .cls-1, .cls-2, .cls-3, .cls-4, .cls-5, .cls-6, .cls-7, .cls-8, .cls-9, .cls-10 {
        stroke: #231f20;
        stroke-miterlimit: 10;
        stroke-width: .25px;
      }

      .cls-11, .cls-5 {
        fill: #231f20;
      }

      .cls-2 {
        font-family: BodoniSvtyTwoSCITCTT-Book, 'Bodoni 72 Smallcaps';
        font-size: 12.06px;
      }

      .cls-3 {
        fill: #6d6e71;
      }

      .cls-4 {
        fill: #be1e2d;
      }

      .cls-6 {
        fill: #bcbec0;
      }

      .cls-7 {
        fill: none;
      }

      .cls-8 {
        fill: #f1f2f2;
      }

      .cls-9 {
        fill: #594a42;
      }

      .cls-10 {
        fill: #f15a29;
      }
    </style>
  </defs>
  <g id="Layer_2-2" data-name="Layer 2">
    <g>
      <path class="cls-7" d="M44.43,23.88c-.21.28-.66.48-1.18.48-.1,0-.19,0-.28-.02-.1-.01-.2-.03-.28-.06-.05-.01-.1-.03-.14-.05-.05-.02-.1-.04-.14-.07-.11-.06-.21-.14-.28-.22-.02-.02-.03-.04-.05-.06h2.36Z"/>
      <path class="cls-7" d="M44.56,23.53s0,.1-.02.14c-.01-.12-.02-.24-.03-.37.03.07.05.15.05.23Z"/>
      <path class="cls-7" d="M31.12,13.17h-.03M21.07,23.88c.17.23.5.4.9.46h0c.1-.01.19-.03.28-.06h0c.09-.03.17-.06.24-.09.01,0,.03-.02.04-.02.11-.06.21-.14.28-.22.02-.02.03-.04.04-.06h-1.79ZM22.2,23.88c.07.1.17.18.29.25.01,0,.03.02.04.02.11-.06.21-.14.28-.22.02-.02.03-.04.04-.06h-.66ZM22.2,23.88c.07.1.17.18.29.25.01,0,.03.02.04.02.11-.06.21-.14.28-.22.02-.02.03-.04.04-.06h-.66ZM22.2,23.88c.07.1.17.18.29.25.01,0,.03.02.04.02.11-.06.21-.14.28-.22.02-.02.03-.04.04-.06h-.66ZM22.2,23.88c.07.1.17.18.29.25.01,0,.03.02.04.02.11-.06.21-.14.28-.22.02-.02.03-.04.04-.06h-.66ZM22.2,23.88c.07.1.17.18.29.25.01,0,.03.02.04.02.11-.06.21-.14.28-.22.02-.02.03-.04.04-.06h-.66ZM22.2,23.88c.07.1.17.18.29.25.01,0,.03.02.04.02.11-.06.21-.14.28-.22.02-.02.03-.04.04-.06h-.66ZM22.2,23.88c.07.1.17.18.29.25.01,0,.03.02.04.02.11-.06.21-.14.28-.22.02-.02.03-.04.04-.06h-.66ZM22.2,23.88c.07.1.17.18.29.25.01,0,.03.02.04.02.11-.06.21-.14.28-.22.02-.02.03-.04.04-.06h-.66Z"/>
      <path class="cls-9" d="M39.17,33.54h-13.47c3.53,0,6.43-3.9,6.7-8.88,0-.1.01-.2.01-.3.01,0,.03,0,.04,0,.17,5.12,3.11,9.18,6.72,9.18Z"/>
      <path class="cls-1" d="M43.6,33.54h-4.43c-3.6,0-6.54-4.06-6.72-9.18h.01c.1,0,.19,0,.28-.02.09.01.19.02.28.02s.19,0,.28-.02c.09.01.19.02.28.02s.19,0,.28-.02c.08.01.17.02.26.02.07,1.56.51,3.02,1.22,4.3.59,1.06,1.38,2,2.31,2.76.76.63,1.63,1.13,2.56,1.49,1.05.41,2.18.63,3.37.63Z"/>
      <path class="cls-1" d="M32.4,24.35v.31c-.28,4.97-3.17,8.88-6.7,8.88h-4.45c1.25,0,2.45-.25,3.54-.7.94-.38,1.8-.92,2.56-1.57.95-.81,1.74-1.82,2.31-2.95h0c.61-1.2.98-2.54,1.04-3.96.02,0,.04,0,.06,0,.1,0,.19,0,.28-.02.09.01.19.02.28.02s.19,0,.28-.02c.09.01.19.02.28.02s.19,0,.28-.02c.07,0,.14.02.22.02Z"/>
      <path class="cls-4" d="M43.78,33.54h-.18c-1.19,0-2.32-.22-3.37-.63-.01-1.3-.02-4.52-.02-8.56.07,0,.13.01.2.01.1,0,.19,0,.28-.02.09.01.19.02.28.02s.19,0,.28-.02c.09.01.19.02.28.02s.19,0,.28-.02c.09.01.19.02.28.02s.19,0,.28-.02c.05,0,.1.01.14.02.15,5.3.65,9.19,1.23,9.19Z"/>
      <path class="cls-10" d="M49.3,33.54h-5.52c-.59,0-1.08-3.88-1.23-9.19.05,0,.09,0,.14,0,.1,0,.19,0,.28-.02.09.01.19.02.28.02.52,0,.97-.2,1.18-.48h.12c.51,5.55,2.44,9.66,4.75,9.66Z"/>
      <path class="cls-1" d="M22.53,20.93c0,1.01-.01,2-.04,2.94h-2c-.08-.11-.12-.22-.12-.35v-2.59h2.15Z"/>
      <path class="cls-1" d="M27.32,23.88h-2.5c0-.94,0-1.93,0-2.94h2.5c0,1.01,0,2,0,2.94Z"/>
      <path class="cls-1" d="M37.72,20.93c0,1.01,0,2,0,2.94h-2.36c0-.94,0-1.93,0-2.94h2.36Z"/>
      <path class="cls-10" d="M44.54,23.67c-.02.07-.05.14-.1.21h-1.9c-.02-.94-.04-1.93-.04-2.94h1.92c0,.81.03,1.6.09,2.37,0,.12.02.25.03.37Z"/>
      <path class="cls-1" d="M42.54,23.88h-2.32c0-.94,0-1.93,0-2.94h2.29c0,1.01.01,2,.04,2.94Z"/>
      <path class="cls-10" d="M29,17.37c-.54,1.76-2.79,2.82-6.47,3.56h-2.15v.05l-.06-.06c3.82-.59,6.82-1.86,8.68-3.55Z"/>
      <path class="cls-9" d="M30.14,16.09l-.46,1.38c-.35-.03-.58-.07-.64-.12.03-.02.05-.05.08-.08.4-.37.74-.77,1.03-1.18Z"/>
      <path class="cls-7" d="M30.14,16.09s.06-.09.09-.13h0c.54-.84.84-1.75.86-2.69,0-.03,0-.07,0-.1"/>
      <path class="cls-4" d="M44.49,20.93h0s-1.98,0-1.98,0c-3.64-.73-5.88-1.77-6.45-3.5.11-.02.2-.03.25-.05,2.05,2.02,3.29,3.2,8.18,3.55Z"/>
      <path class="cls-7" d="M44.56,20.93s-.04,0-.07,0"/>
      <path class="cls-7" d="M34.41,13.17h0s0,.03,0,.04h0c0,.62.12,1.23.33,1.8h0c.07.2.15.38.24.56h0c.17.35.38.69.63,1.01h0s.06.08.09.12h0c.13.18.28.34.44.5l.03.03h0s.08.09.13.13"/>
      <path class="cls-10" d="M22.49,24.34c-.15,5.31-.65,9.2-1.23,9.2h-5.75c2.69,0,4.87-5.61,4.88-12.55v2.89h.12c.21.28.66.48,1.18.48.1,0,.19,0,.28-.02h0c.09.01.19.02.28.02.08,0,.16,0,.24-.01Z"/>
      <path class="cls-7" d="M44.56,23.88c0-.07-.01-.14-.02-.21"/>
      <path class="cls-7" d="M20.5,23.88h-.12v-.35c0,.13.04.24.12.35Z"/>
      <path class="cls-7" d="M44.56,20.93v2.94h-.12c.05-.07.08-.13.1-.21-.01-.12-.02-.24-.03-.37-.06-.77-.09-1.56-.09-2.37h.13Z"/>
      <path class="cls-7" d="M43.87,23.88c-.17.23-.5.4-.9.46-.09.01-.19.02-.28.02-.05,0-.09,0-.14,0-.05,0-.1,0-.14-.02-.1-.01-.2-.03-.28-.06-.1-.03-.2-.07-.28-.12-.11-.06-.21-.14-.28-.22-.02-.02-.03-.04-.04-.06h2.36Z"/>
      <path class="cls-7" d="M43.3,23.88c-.13.17-.34.31-.61.4-.05.01-.09.03-.14.04-.05.01-.09.02-.14.03-.09.01-.19.02-.28.02s-.19,0-.28-.02c-.1-.01-.2-.03-.28-.06-.1-.03-.2-.07-.28-.12-.11-.06-.21-.14-.28-.22-.02-.02-.03-.04-.04-.06h2.36Z"/>
      <path class="cls-7" d="M42.73,23.88c-.05.07-.12.13-.19.19h0s-.09.06-.14.09c-.08.05-.18.09-.28.12-.09.03-.18.05-.28.06-.09.01-.19.02-.28.02s-.19,0-.28-.02c-.1-.01-.2-.03-.28-.06-.1-.03-.2-.07-.28-.12-.11-.06-.21-.14-.28-.22-.02-.02-.03-.04-.04-.06h2.36Z"/>
      <path class="cls-7" d="M42.16,23.88s-.03.04-.04.06c-.07.08-.17.16-.28.22-.08.05-.18.09-.28.12-.09.03-.18.05-.28.06-.09.01-.19.02-.28.02s-.19,0-.28-.02c-.1-.01-.2-.03-.28-.06-.07-.02-.14-.05-.2-.07h0s-.06-.03-.08-.04c-.11-.06-.21-.14-.28-.22-.02-.02-.03-.04-.05-.06h2.36Z"/>
      <path class="cls-7" d="M41.6,23.88s-.03.04-.04.06c-.07.08-.17.16-.28.22-.09.05-.18.09-.28.12-.09.03-.18.05-.28.06-.09.01-.19.02-.28.02-.07,0-.13,0-.2-.01-.03,0-.06,0-.08,0-.1-.01-.19-.03-.28-.06-.1-.03-.2-.07-.28-.12-.11-.06-.21-.14-.28-.22-.02-.02-.03-.04-.04-.06h2.36Z"/>
      <path class="cls-7" d="M41.03,23.88s-.03.04-.04.06c-.07.08-.17.16-.28.22-.09.05-.18.09-.28.12-.06.02-.13.04-.2.05-.03,0-.06,0-.08.01-.09.01-.19.02-.28.02s-.19,0-.28-.02c-.1-.01-.2-.03-.28-.06-.1-.03-.2-.07-.28-.12-.11-.06-.21-.14-.28-.22-.02-.02-.03-.04-.04-.06h2.36Z"/>
      <path class="cls-7" d="M40.46,23.88s-.03.04-.04.06c-.06.06-.12.12-.2.17-.03.02-.05.03-.08.05-.08.05-.18.09-.28.12-.09.03-.18.05-.28.06-.09.01-.19.02-.28.02s-.19,0-.28-.02c-.1-.01-.2-.03-.28-.06-.1-.03-.2-.07-.28-.12-.11-.06-.21-.14-.28-.22-.02-.02-.03-.04-.05-.06h2.36Z"/>
      <path class="cls-7" d="M39.89,23.88s-.03.04-.04.06c-.07.08-.17.16-.28.22-.09.05-.18.09-.28.12-.09.03-.18.05-.28.06-.09.01-.19.02-.28.02s-.19,0-.28-.02c-.1-.01-.2-.03-.28-.06-.1-.03-.2-.07-.28-.12-.05-.03-.1-.06-.14-.09-.05-.04-.1-.08-.14-.13-.02-.02-.03-.04-.05-.06h2.36Z"/>
      <path class="cls-7" d="M39.32,23.88s-.03.04-.04.06c-.07.08-.17.16-.28.22-.09.05-.18.09-.28.12-.09.03-.18.05-.28.06-.09.01-.19.02-.28.02s-.19,0-.28-.02c-.05,0-.1-.02-.15-.03-.05-.01-.09-.02-.14-.04-.1-.03-.2-.07-.28-.12-.11-.06-.21-.14-.28-.22-.02-.02-.03-.04-.04-.06h2.36Z"/>
      <path class="cls-7" d="M38.76,23.88s-.03.04-.04.06c-.07.08-.17.16-.28.22-.09.05-.18.09-.28.12-.09.03-.18.05-.28.06-.05,0-.1.01-.15.02-.05,0-.09,0-.14,0-.1,0-.19,0-.28-.02-.1-.01-.2-.03-.28-.06-.1-.03-.2-.07-.28-.12-.11-.06-.21-.14-.28-.22-.02-.02-.03-.04-.04-.06h2.36Z"/>
      <path class="cls-7" d="M38.19,23.88s-.03.04-.04.06c-.07.08-.17.16-.28.22-.05.02-.09.05-.15.07h0s-.09.03-.14.05c-.09.03-.18.05-.28.06-.09.01-.19.02-.28.02s-.19,0-.28-.02c-.1-.01-.2-.03-.28-.06-.1-.03-.2-.07-.28-.12-.11-.06-.21-.14-.28-.22-.02-.02-.03-.04-.05-.06h2.36Z"/>
      <path class="cls-7" d="M37.62,23.88s-.03.04-.04.06c-.07.08-.17.16-.28.22-.09.05-.18.09-.28.12-.09.03-.18.05-.28.06-.09.01-.19.02-.28.02s-.19,0-.28-.02c-.1-.01-.2-.03-.28-.06-.1-.03-.2-.07-.28-.12-.09-.05-.16-.1-.23-.17-.02-.02-.04-.04-.05-.06-.02-.02-.03-.04-.04-.06h2.36Z"/>
      <path class="cls-7" d="M37.05,23.88s-.03.04-.04.06c-.07.08-.17.16-.28.22-.09.05-.18.09-.28.12-.09.03-.18.05-.28.06-.09.01-.19.02-.28.02s-.19,0-.28-.02c-.08-.01-.16-.03-.23-.05-.02,0-.04,0-.05-.02-.1-.03-.2-.07-.28-.12-.11-.06-.21-.14-.28-.22-.02-.02-.03-.04-.04-.06h2.36Z"/>
      <path class="cls-7" d="M36.49,23.88s-.03.04-.04.06c-.07.08-.17.16-.28.22-.09.05-.18.09-.28.12-.09.03-.18.05-.28.06-.07.01-.15.02-.23.02-.02,0-.04,0-.05,0-.1,0-.19,0-.28-.02-.1-.01-.2-.03-.28-.06-.1-.03-.2-.07-.28-.12-.11-.06-.21-.14-.28-.22-.01-.02-.03-.03-.04-.05,0,0,0,0,0,0h2.36Z"/>
      <path class="cls-7" d="M35.92,23.88s-.03.04-.04.06c-.07.08-.17.16-.28.22-.07.04-.15.07-.23.1-.02,0-.04.01-.05.02-.09.03-.18.05-.28.06-.09.01-.19.02-.28.02s-.19,0-.28-.02c-.1-.01-.2-.03-.28-.06,0,0-.02,0-.03,0-.09-.03-.18-.07-.25-.11-.11-.06-.21-.14-.28-.22-.02-.02-.03-.04-.05-.06h2.36Z"/>
      <path class="cls-7" d="M35.35,23.88s-.03.04-.04.06c-.07.08-.17.16-.28.22-.09.05-.18.09-.28.12-.09.03-.18.05-.28.06-.09.01-.19.02-.28.02h-.03c-.09,0-.18,0-.26-.02-.1-.01-.2-.03-.28-.06-.1-.03-.2-.07-.28-.12-.11-.06-.21-.14-.28-.22-.02-.02-.03-.04-.05-.06h2.36Z"/>
      <path class="cls-7" d="M34.78,23.88s-.03.04-.04.06c-.07.08-.17.16-.28.22-.09.05-.18.09-.28.12,0,0-.02,0-.03,0-.08.03-.17.04-.25.06-.09.01-.19.02-.28.02s-.19,0-.28-.02c-.1-.01-.19-.03-.28-.06-.1-.03-.2-.07-.28-.12-.11-.06-.21-.14-.28-.22,0,0-.01-.02-.02-.03,0,0-.02-.02-.02-.03h2.36Z"/>
      <path class="cls-7" d="M34.22,23.88s-.03.04-.04.06c-.01.01-.02.03-.04.04-.07.07-.15.13-.25.18-.08.05-.18.09-.28.12-.09.03-.19.05-.28.06-.09.01-.19.02-.28.02s-.19,0-.28-.02c-.1-.01-.2-.03-.28-.06,0,0,0,0-.01,0-.01,0-.02,0-.04-.01,0,0-.01,0-.02,0-.08-.03-.15-.06-.22-.1-.11-.06-.21-.14-.28-.22-.02-.02-.03-.04-.04-.06h2.36Z"/>
      <path class="cls-7" d="M33.65,23.88s-.03.04-.04.06c-.07.08-.17.16-.28.22-.08.05-.18.09-.28.12-.09.03-.18.05-.28.06-.09.01-.19.02-.28.02h-.01s-.03,0-.04,0c0,0,0,0-.01,0-.07,0-.15,0-.22-.02-.1-.01-.2-.03-.28-.06-.1-.03-.2-.07-.28-.12-.11-.06-.21-.14-.28-.22-.02-.02-.03-.04-.05-.06h2.36Z"/>
      <path class="cls-7" d="M33.08,23.88s-.03.04-.04.06c-.07.08-.17.16-.28.22-.09.05-.18.09-.28.12,0,0,0,0-.01,0-.01,0-.02,0-.04.01,0,0,0,0-.02,0-.07.02-.14.03-.22.04-.09.01-.19.02-.28.02s-.19,0-.28-.02c-.1-.01-.2-.03-.28-.06-.1-.03-.2-.07-.28-.12-.11-.06-.21-.14-.28-.22-.02-.02-.03-.04-.04-.06h2.36Z"/>
      <path class="cls-7" d="M32.51,23.88s-.03.04-.04.06c0,0-.01.01-.02.02,0,0-.02.02-.03.03,0,0-.01.01-.02.02-.06.06-.13.11-.22.16-.09.05-.18.09-.28.12-.09.03-.18.05-.28.06-.09.01-.19.02-.28.02s-.19,0-.28-.02c-.1-.01-.2-.03-.28-.06-.02,0-.04-.01-.05-.02-.08-.03-.16-.06-.23-.1-.11-.06-.21-.14-.28-.22-.02-.02-.03-.04-.04-.06h2.36Z"/>
      <path class="cls-7" d="M31.95,23.88s-.03.04-.05.06c-.07.08-.17.16-.28.22-.08.05-.18.09-.28.12-.09.03-.18.05-.28.06-.09.01-.19.02-.28.02-.02,0-.04,0-.06,0-.08,0-.15,0-.23-.02-.1-.01-.2-.03-.28-.06-.1-.03-.2-.07-.28-.12-.09-.05-.18-.11-.24-.18h0s-.03-.03-.04-.04c-.02-.02-.03-.04-.04-.06h2.36Z"/>
      <path class="cls-7" d="M31.38,23.88s-.03.04-.04.06c-.07.08-.17.16-.28.22-.08.05-.18.09-.28.12-.02,0-.04.01-.05.02h0c-.07.02-.15.04-.23.05-.09.01-.19.02-.28.02s-.19,0-.28-.02c-.08-.01-.17-.03-.24-.05-.01,0-.03,0-.04-.01-.1-.03-.2-.07-.28-.12-.11-.06-.21-.14-.28-.22-.02-.02-.03-.04-.05-.06h2.36Z"/>
      <path class="cls-7" d="M30.81,23.88s-.03.04-.04.06c-.01.02-.03.03-.05.05-.07.06-.15.12-.24.17-.09.05-.18.09-.28.12-.09.03-.18.05-.28.06-.08.01-.16.02-.24.02-.01,0-.03,0-.04,0-.1,0-.19,0-.28-.02-.1-.01-.19-.03-.28-.06-.1-.03-.2-.07-.28-.12-.11-.06-.21-.14-.28-.22-.02-.02-.03-.04-.04-.06h2.36Z"/>
      <path class="cls-7" d="M30.24,23.88s-.03.04-.04.06c-.07.08-.17.16-.28.22-.07.04-.16.08-.24.1-.01,0-.03,0-.04.01-.09.03-.18.05-.28.06-.09.01-.19.02-.28.02s-.19,0-.28-.02c-.1-.01-.2-.03-.28-.06-.1-.03-.2-.07-.28-.12-.11-.06-.21-.14-.28-.22-.02-.02-.03-.04-.04-.06h2.36Z"/>
      <path class="cls-7" d="M29.67,23.88s0,0,0,0h0s-.03.04-.04.06c-.07.08-.17.16-.28.22-.08.05-.18.09-.28.12-.09.03-.18.05-.28.06-.09.01-.19.02-.28.02s-.19,0-.28-.02c-.1-.01-.2-.03-.28-.06-.1-.03-.2-.07-.28-.12-.11-.06-.21-.14-.28-.22-.02-.02-.03-.03-.04-.05h0s0,0,0,0h2.36Z"/>
      <path class="cls-7" d="M29.11,23.88s-.03.04-.04.06c-.07.08-.17.16-.28.22-.09.05-.18.09-.28.12-.09.03-.18.05-.28.06-.09.01-.19.02-.28.02s-.19,0-.28-.02c-.1-.01-.2-.03-.28-.06-.01,0-.03,0-.04-.01-.09-.03-.17-.06-.24-.1-.11-.06-.21-.14-.28-.22-.02-.02-.03-.04-.05-.06h2.36Z"/>
      <path class="cls-7" d="M28.54,23.88s-.03.04-.04.06c-.07.08-.17.16-.28.22-.09.05-.18.09-.28.12-.09.03-.18.05-.28.06-.09.01-.19.02-.28.02-.01,0-.03,0-.04,0-.08,0-.16,0-.24-.02-.1-.01-.19-.03-.28-.06-.1-.03-.2-.07-.28-.12-.11-.06-.21-.14-.28-.22-.02-.02-.03-.04-.04-.06h2.36Z"/>
      <path class="cls-7" d="M27.97,23.88s-.03.04-.04.06c-.07.08-.17.16-.28.22-.09.05-.18.09-.28.12-.01,0-.03,0-.04.01h0c-.08.02-.16.04-.24.05-.09.01-.19.02-.28.02s-.19,0-.28-.02c-.1-.01-.2-.03-.28-.06-.1-.03-.2-.07-.28-.12-.11-.06-.21-.14-.28-.22-.02-.02-.03-.04-.04-.06h2.36Z"/>
      <path class="cls-7" d="M27.4,23.88s-.03.04-.04.06c-.01.01-.03.03-.04.04h0c-.07.07-.15.13-.24.18-.08.05-.18.09-.28.12-.09.03-.18.05-.28.06-.09.01-.19.02-.28.02s-.19,0-.28-.02c-.1-.01-.2-.03-.28-.06-.1-.03-.2-.07-.28-.12-.11-.06-.21-.14-.28-.22-.02-.02-.03-.04-.05-.06h2.36Z"/>
      <path class="cls-7" d="M26.84,23.88s-.03.04-.04.06c-.07.08-.17.16-.28.22-.09.05-.18.09-.28.12-.09.03-.18.05-.28.06-.09.01-.19.02-.28.02s-.19,0-.28-.02c-.1-.01-.2-.03-.28-.06-.1-.03-.19-.07-.27-.11,0,0,0,0-.01,0-.11-.06-.21-.14-.28-.22-.02-.02-.03-.04-.04-.06h2.36Z"/>
      <path class="cls-7" d="M26.27,23.88s-.03.04-.04.06c-.07.08-.17.16-.28.22-.09.05-.18.09-.28.12-.09.03-.18.05-.28.06-.09.01-.19.02-.28.02-.09,0-.18,0-.27-.02,0,0,0,0-.01,0-.1-.01-.19-.03-.28-.06-.1-.03-.2-.07-.28-.12-.11-.06-.21-.14-.28-.22-.02-.02-.03-.04-.04-.06h2.36Z"/>
      <path class="cls-7" d="M25.7,23.88s-.03.04-.04.06c-.07.08-.17.16-.28.22-.09.05-.18.09-.28.12-.09.03-.18.05-.27.06,0,0,0,0-.01,0-.09.01-.19.02-.28.02s-.19,0-.28-.02c-.1-.01-.2-.03-.28-.06h0c-.1-.03-.2-.07-.28-.12-.11-.06-.21-.14-.28-.22-.02-.02-.03-.04-.04-.06h2.36Z"/>
      <path class="cls-7" d="M25.13,23.88s-.03.04-.04.06c-.07.08-.16.15-.27.21h0s0,0-.01,0c-.08.05-.18.09-.28.12-.09.03-.18.05-.28.06-.09.01-.19.02-.28.02s-.19,0-.28-.02h0c-.1-.01-.2-.03-.28-.06h0c-.1-.03-.2-.07-.28-.12-.11-.06-.21-.14-.28-.22-.02-.02-.03-.04-.05-.06h2.36Z"/>
      <path class="cls-7" d="M24.56,23.88s-.03.04-.04.06c-.07.08-.17.16-.28.22-.09.05-.18.09-.28.12h0c-.09.03-.18.05-.28.06"/>
      <path class="cls-7" d="M23.1,24.34c-.1-.01-.19-.03-.28-.06-.1-.03-.2-.07-.28-.12-.01,0-.03-.02-.04-.02-.12-.07-.22-.16-.29-.25"/>
      <path class="cls-7" d="M24,23.88s-.03.04-.04.06c-.07.08-.17.16-.28.22-.09.05-.18.09-.28.12h0c-.09.03-.18.05-.28.06"/>
      <path class="cls-7" d="M22.53,24.34s-.03,0-.05,0c-.08-.01-.16-.03-.24-.06h0c-.27-.08-.49-.22-.61-.4"/>
      <path class="cls-7" d="M21.07,23.88c.17.23.5.4.9.46"/>
      <path class="cls-7" d="M23.43,23.88s-.03.04-.04.06c-.07.08-.17.16-.28.22-.08.05-.18.09-.28.12-.09.03-.19.05-.28.06"/>
      <path class="cls-7" d="M21.97,24.34c.1-.01.19-.03.28-.06h0c.09-.03.17-.06.24-.09.01,0,.03-.02.04-.02.11-.06.21-.14.28-.22.02-.02.03-.04.04-.06"/>
      <path class="cls-7" d="M32.42,23.88s0,.07,0,.1c0,.09,0,.19,0,.28,0,.01,0,.02,0,.03,0,.02,0,.05,0,.07"/>
      <path class="cls-7" d="M32.46,24.36s0-.05,0-.08c0,0,0,0,0,0,0-.1,0-.21,0-.31,0-.01,0-.03,0-.05v-.03"/>
      <polyline class="cls-7" points="31.86 17.56 31.86 17.56 31.86 17.56 31.86 17.56 31.85 17.56"/>
      <polyline class="cls-7" points="30.79 17.53 30.79 17.53 30.78 17.53 30.78 17.53 30.77 17.53 30.77 17.53"/>
      <polyline class="cls-7" points="34.28 17.55 34.27 17.55 34.27 17.55 34.27 17.55 34.26 17.55 34.26 17.55"/>
      <path class="cls-7" d="M36.18,17.24h0c.14.02.21.05.21.08,0,.02-.03.04-.08.05"/>
      <path class="cls-7" d="M29.11,17.27c-.06.02-.09.04-.09.06,0,0,0,.01.01.02"/>
      <polygon class="cls-9" points="33.72 13.17 33.32 13.59 33.02 13.17 33.72 13.17"/>
      <polygon class="cls-1" points="34.42 13.17 31.12 13.17 32.77 10.31 34.42 13.17"/>
      <path class="cls-7" d="M22.5,23.88c0,.09,0,.17,0,.25,0,.02,0,.03,0,.05,0,.05,0,.1,0,.15,0,0,0,0,0,.01"/>
      <path class="cls-7" d="M24.82,24.34h0v-.18h0v-.29"/>
      <path class="cls-10" d="M27.35,31.27c-.76.65-1.62,1.19-2.56,1.57.01-1.35.02-4.53.02-8.5.09.01.18.02.27.02.1,0,.19,0,.28-.02.09.01.19.02.28.02s.19,0,.28-.02c.09.01.19.02.28.02s.19,0,.28-.02c.09.01.19.02.28.02s.19,0,.28-.02c.08.01.16.02.24.02,0,2.84.02,5.27.04,6.91Z"/>
      <path class="cls-4" d="M24.82,24.34c0,3.97-.01,7.15-.02,8.5-1.09.45-2.29.7-3.54.7.59,0,1.08-3.89,1.23-9.2.02,0,.03,0,.05,0h0c.09.01.19.02.28.02s.19,0,.28-.02h0c.09.01.19.02.28.02s.19,0,.28-.02h0c.09.01.19.02.28.02s.19,0,.28-.02c.09.01.19.02.28.02s.19,0,.28-.02c0,0,0,0,.01,0Z"/>
      <path class="cls-10" d="M30.71,24.36c-.07,1.42-.44,2.76-1.04,3.96,0-1.18,0-2.52,0-3.96.08,0,.16,0,.24-.02.09.01.19.02.28.02s.19,0,.28-.02c.07.01.15.02.23.02Z"/>
      <path class="cls-7" d="M30.72,23.88s0,.07,0,.1c0,.09,0,.18,0,.27,0,.01,0,.02,0,.03h0s0,.05,0,.07"/>
      <path class="cls-4" d="M29.67,24.36c0,1.44,0,2.78,0,3.96h0c-.58,1.13-1.36,2.14-2.31,2.95-.02-1.65-.03-4.08-.04-6.91.01,0,.03,0,.04,0,.1,0,.19,0,.28-.02.09.01.19.02.28.02s.19,0,.28-.02c.09.01.19.02.28.02s.19,0,.28-.02c.09.01.19.02.28.02s.19,0,.28-.02c.09.01.19.02.28.02.01,0,.03,0,.04,0Z"/>
      <path class="cls-10" d="M35.37,28.65c-.71-1.28-1.15-2.74-1.22-4.3h.03c.1,0,.19,0,.28-.02.09.01.19.02.28.02s.19,0,.28-.02c.09.01.19.02.28.02.02,0,.04,0,.05,0,0,1.58,0,3.03,0,4.3Z"/>
      <path class="cls-10" d="M40.24,32.91c-.93-.36-1.79-.87-2.56-1.49.02-1.65.03-4.14.04-7.06.05,0,.1,0,.15-.02.09.01.19.02.28.02s.19,0,.28-.02c.09.01.19.02.28.02s.19,0,.28-.02c.09.01.19.02.28.02s.19,0,.28-.02c.09.01.19.02.28.02s.19,0,.28-.02c.03,0,.06,0,.08,0,0,4.04.01,7.26.02,8.56Z"/>
      <path class="cls-4" d="M37.72,24.35c0,2.92-.02,5.42-.04,7.06-.93-.76-1.72-1.7-2.31-2.76,0-1.26,0-2.72,0-4.3.08,0,.16,0,.23-.02.09.01.19.02.28.02s.19,0,.28-.02c.09.01.19.02.28.02s.19,0,.28-.02c.09.01.19.02.28.02s.19,0,.28-.02c.09.01.19.02.28.02.05,0,.09,0,.14,0Z"/>
      <path class="cls-7" d="M34.15,24.36s0-.05,0-.08c0,0,0-.01,0-.02,0-.1,0-.19,0-.29,0-.03,0-.06,0-.09h0"/>
      <path class="cls-7" d="M27.32,24.36s0-.05,0-.07h0s0-.02,0-.03v-.28h0v-.1h0"/>
      <path class="cls-7" d="M29.67,23.88h0s0,.07,0,.1h0c0,.1,0,.19,0,.28,0,0,0,.02,0,.03,0,.02,0,.05,0,.07"/>
      <path class="cls-7" d="M42.55,24.35s0-.03,0-.04c0-.03,0-.06,0-.09v-.15s0,0,0,0c0-.06,0-.13,0-.19"/>
      <path class="cls-10" d="M40.22,23.88h-2.5c0-.94,0-1.93,0-2.94h2.5c0,1.01,0,2,0,2.94Z"/>
      <path class="cls-7" d="M40.22,24.35v-.15h0v-.32"/>
      <path class="cls-7" d="M37.72,24.35v-.13h0c0-.06,0-.11,0-.16v-.18"/>
      <path class="cls-7" d="M35.36,23.88v.48"/>
      <path class="cls-7" d="M32.4,24.35v-.48"/>
      <path class="cls-7" d="M32.4,16.04v.59"/>
      <path class="cls-10" d="M24.82,20.93c0,1.01,0,2,0,2.94h-2.32c.02-.94.04-1.93.04-2.94h2.29Z"/>
      <path class="cls-10" d="M29.67,20.93c0,1.01,0,2,0,2.94h-2.36c0-.94,0-1.93,0-2.94h2.36Z"/>
      <path class="cls-10" d="M30.77,17.53v.04c0,1.86-1.55,3.36-3.45,3.36h-2.5c2.68,0,4.85-1.55,4.85-3.47.29.03.66.05,1.09.07Z"/>
      <path class="cls-4" d="M29.67,17.46c0,1.92-2.17,3.47-4.85,3.47h-2.29c3.68-.74,5.93-1.79,6.47-3.56,0,0,.02-.02.03-.03.06.04.29.08.64.12Z"/>
      <path class="cls-4" d="M31.86,17.57c0,1.86-.98,3.36-2.18,3.36h-2.36c1.91,0,3.45-1.5,3.45-3.36l.03-.04c.32.01.68.02,1.06.03h0Z"/>
      <path class="cls-1" d="M32.4,20.93v2.94h-2.73c0-.94,0-1.93,0-2.94h2.73Z"/>
      <path class="cls-9" d="M30.86,16.39l-.09,1.14c-.43-.02-.8-.04-1.09-.07l1.19-1.07Z"/>
      <path class="cls-7" d="M29.02,17.33v.05"/>
      <path class="cls-10" d="M35.36,23.88h-2.96v-2.94h2.96c0,1.01,0,2,0,2.94Z"/>
      <path class="cls-10" d="M32.4,17.57v3.37h-2.73c1.21,0,2.18-1.5,2.18-3.36h0c.18,0,.36,0,.54,0Z"/>
      <path class="cls-4" d="M35.2,20.93h-2.8v-3.37c.1,0,.2,0,.31,0s.21,0,.31,0h0c0,1.86.98,3.37,2.18,3.37Z"/>
      <path class="cls-10" d="M37.72,20.93h-2.52c-1.21,0-2.18-1.5-2.18-3.36h0c.44,0,.86,0,1.24-.02l.02.02c0,1.86,1.54,3.36,3.44,3.36Z"/>
      <path class="cls-10" d="M42.51,20.93h-2.23c-2.67,0-4.84-1.54-4.85-3.44.26-.02.47-.04.63-.06.57,1.73,2.81,2.77,6.45,3.5Z"/>
      <path class="cls-9" d="M35.43,17.46v.03c-.32.02-.71.04-1.15.06l.04-1.19,1.12,1.1Z"/>
      <path class="cls-9" d="M35.43,17.49v-.03l-.19-.8.79.66s.02.07.03.1c-.16.02-.37.04-.63.06Z"/>
      <polyline class="cls-7" points="31.12 13.17 31.11 13.19 31.11 13.19 31.11 13.2 31.11 13.21 31.11 13.21 31.09 13.27 30.15 16.04 30.14 16.09"/>
      <polyline class="cls-7" points="30.86 16.39 30.86 16.39 30.88 16.18 30.9 15.89 30.92 15.62 30.97 15.08 30.98 14.89 30.98 14.89 31.12 13.23 31.12 13.21 31.12 13.2 31.12 13.19 31.12 13.17"/>
      <polyline class="cls-7" points="31.13 13.2 31.13 13.21 31.13 13.23 31.14 13.29 31.3 14.26 31.36 14.62 31.41 14.91 31.42 14.94 31.46 15.17 31.51 15.51 31.54 15.69 31.55 15.76 31.59 15.96 31.59 15.96 31.64 16.27 31.67 16.47"/>
      <polyline class="cls-7" points="32.52 16.43 32.43 16.22 32.4 16.16 32.29 15.91 32.29 15.91 32.24 15.79 32.18 15.65 32.13 15.54 32.03 15.32 31.98 15.2 31.92 15.07 31.86 14.93 31.86 14.92 31.78 14.75 31.68 14.51 31.6 14.34 31.58 14.29 31.44 13.98 31.14 13.29 31.12 13.23 31.11 13.21 31.11 13.21 31.09 13.17"/>
      <polyline class="cls-7" points="33.4 16.36 33.24 16.14 33.02 15.83 32.93 15.71 32.82 15.56 32.75 15.46 32.64 15.31 32.5 15.12 32.45 15.05 32.41 14.99 32.31 14.85 32.3 14.83 32.23 14.75 32.22 14.73 32.04 14.49 32.02 14.45 31.86 14.24 31.86 14.23 31.78 14.12 31.66 13.96 31.54 13.79 31.13 13.23 31.12 13.21 31.11 13.2 31.09 13.17"/>
      <polyline class="cls-7" points="31.09 13.17 31.11 13.19 31.12 13.2 31.13 13.21 31.6 13.67 31.7 13.78 31.86 13.93 31.91 13.98 31.99 14.06 32.13 14.19 32.15 14.22 32.18 14.25 32.37 14.43 32.38 14.44 32.45 14.51 32.62 14.68 32.67 14.73 32.68 14.74 32.75 14.81 32.75 14.81 32.77 14.83 32.92 14.98 32.94 15 33.02 15.07 33.2 15.26 33.36 15.41 33.51 15.56 33.62 15.67 33.78 15.83 34.09 16.14 34.31 16.36"/>
      <polyline class="cls-7" points="35.24 16.66 35.05 16.5 35.05 16.5 34.75 16.25 34.48 16.02 34.48 16.02 34.33 15.9 34.03 15.64 33.71 15.38 33.65 15.32 33.65 15.32 33.63 15.31 33.41 15.12 33.32 15.05 33.31 15.03 33.05 14.82 33.03 14.8 33.02 14.79 32.81 14.62 32.77 14.58 32.72 14.54 32.67 14.5 32.56 14.4 32.52 14.37 32.44 14.3 32.41 14.28 32.25 14.15 32.2 14.11 32.07 14 32.04 13.97 31.97 13.91 31.86 13.81 31.72 13.7 31.63 13.62"/>
      <polyline class="cls-7" points="31.13 13.2 31.12 13.19 31.11 13.19 31.09 13.17"/>
      <polygon class="cls-9" points="31.86 13.17 31.63 13.62 31.13 13.2 31.12 13.17 31.86 13.17"/>
      <polyline class="cls-7" points="31.63 13.62 31.6 13.67 31.54 13.79 31.44 13.98 31.3 14.26 30.98 14.89 30.98 14.89 30.76 15.33 30.76 15.33 29.67 17.46"/>
      <line class="cls-7" x1="30.77" y1="17.57" x2="31.86" y2="13.17"/>
      <line class="cls-7" x1="31.86" y1="17.57" x2="31.86" y2="13.17"/>
      <polyline class="cls-7" points="31.86 13.17 32.03 13.83 32.06 13.95 32.07 14 32.13 14.19 32.14 14.25 32.15 14.28 32.25 14.66 32.26 14.71 32.3 14.83 32.31 14.87 32.35 15.04 32.38 15.16 32.44 15.37 32.47 15.51 32.57 15.88 32.65 16.2 33.02 17.57"/>
      <line class="cls-7" x1="34.28" y1="17.57" x2="31.86" y2="13.17"/>
      <line class="cls-7" x1="35.43" y1="17.46" x2="31.86" y2="13.17"/>
      <polyline class="cls-7" points="32.25 13.56 32.29 13.6 32.38 13.69 32.49 13.8 32.51 13.82 32.63 13.93 32.67 13.98 32.77 14.08 32.82 14.12 32.97 14.28 33.02 14.32 33.04 14.35 33.08 14.38 33.16 14.47 33.26 14.56 33.46 14.77 33.46 14.77 33.48 14.78 33.48 14.79 33.8 15.11 33.99 15.29 34.01 15.31 34.34 15.64 34.49 15.8 34.95 16.25 35.2 16.5 35.2 16.5 36.03 17.33"/>
      <line class="cls-7" x1="29.67" y1="17.46" x2="33.02" y2="13.17"/>
      <line class="cls-7" x1="30.77" y1="17.57" x2="33.02" y2="13.17"/>
      <line class="cls-7" x1="31.86" y1="17.57" x2="33.02" y2="13.17"/>
      <polyline class="cls-7" points="33.02 13.17 33.02 13.65 33.02 13.81 33.02 13.91 33.02 14.21 33.02 14.28 33.02 14.32 33.02 14.44 33.02 14.56 33.02 14.79 33.02 14.82 33.02 14.85 33.02 15.07 33.02 15.28 33.02 15.57 33.02 15.83 33.02 17.57"/>
      <line class="cls-7" x1="34.28" y1="17.57" x2="33.02" y2="13.17"/>
      <line class="cls-7" x1="35.43" y1="17.46" x2="33.02" y2="13.17"/>
      <polyline class="cls-7" points="33.32 13.59 33.38 13.67 33.46 13.78 33.57 13.93 33.59 13.96 33.67 14.07 33.79 14.24 33.87 14.34 33.99 14.51 34.36 15.02 34.58 15.32 34.98 15.88 35.09 16.04 36.03 17.33"/>
      <polyline class="cls-7" points="30.86 16.39 30.86 16.39 31.11 16.16 31.49 15.82 31.55 15.76 31.81 15.53 31.81 15.53 31.86 15.49 32.03 15.32 32.27 15.12 32.35 15.04 32.41 14.99 32.58 14.83 32.63 14.78 32.64 14.78 32.68 14.74 32.71 14.71 32.74 14.69 32.81 14.62 32.96 14.49 33.02 14.44 33.06 14.39 33.08 14.38 33.27 14.2 33.28 14.19 33.3 14.17 33.4 14.09 33.49 14.01 33.57 13.93 33.6 13.91 33.79 13.74 33.9 13.63 33.95 13.59"/>
      <line class="cls-7" x1="34.42" y1="13.17" x2="34.41" y2="13.17"/>
      <path class="cls-9" d="M31.85,17.56c-.38,0-.74-.01-1.06-.03l.88-1.06.18,1.09Z"/>
      <polyline class="cls-7" points="31.67 16.47 31.86 16.25 32.13 15.92 32.24 15.79 32.36 15.64 32.47 15.51 32.47 15.51 32.64 15.31 32.78 15.14 32.88 15.02 32.92 14.98 32.99 14.89 32.99 14.89 33.02 14.85 33.05 14.82 33.14 14.71 33.17 14.67 33.26 14.56 33.38 14.42 33.4 14.39 33.53 14.24 33.55 14.21 33.55 14.21 33.58 14.17 33.67 14.07 33.81 13.9 33.94 13.74 34 13.67 34.41 13.17 34.41 13.17 34.42 13.17"/>
      <path class="cls-9" d="M33.02,17.57c-.1,0-.2,0-.31,0s-.2,0-.31,0c-.19,0-.37,0-.54,0l.54-.93.12-.2.5,1.14Z"/>
      <polyline class="cls-7" points="32.52 16.43 32.65 16.2 32.85 15.86 32.93 15.71 33.02 15.57 33.1 15.43 33.2 15.26 33.32 15.06 33.32 15.05 33.36 14.98 33.45 14.82 33.45 14.82 33.48 14.78 33.48 14.78 33.56 14.64 33.69 14.42 33.7 14.39 33.79 14.24 33.84 14.15 34 13.88 34.06 13.78 34.41 13.17 34.41 13.17 34.42 13.17"/>
      <path class="cls-9" d="M34.26,17.55c-.38.01-.8.02-1.24.02l.38-1.21.86,1.19Z"/>
      <polyline class="cls-7" points="33.4 16.36 33.48 16.12 33.59 15.77 33.62 15.67 33.68 15.48 33.68 15.48 33.71 15.39 33.71 15.38 33.8 15.11 33.82 15.03 33.82 15.03 33.91 14.76 33.91 14.76 33.92 14.74 33.92 14.74 33.93 14.69 33.99 14.51 34.11 14.14 34.16 13.97 34.16 13.97 34.41 13.18 34.42 13.17"/>
      <path class="cls-4" d="M40.29,20.93h-2.57c-1.9,0-3.44-1.51-3.44-3.36v-.02c.44-.01.83-.03,1.15-.06.02,1.91,2.18,3.44,4.85,3.44Z"/>
      <polyline class="cls-7" points="34.31 16.36 34.32 16.13 34.33 15.9 34.33 15.8 34.34 15.64 34.34 15.52 34.35 15.17 34.36 15.02 34.36 14.79 34.38 14.36 34.42 13.22 34.42 13.21 34.42 13.17"/>
      <polyline class="cls-7" points="34.42 13.17 34.93 15.36 34.99 15.58 34.99 15.58 35.08 16 35.09 16.04 35.2 16.5 35.24 16.66"/>
      <line class="cls-7" x1="32.59" y1="13.17" x2="31.86" y2="17.57"/>
      <polyline class="cls-7" points="32.59 13.17 32.64 13.65 32.66 13.87 32.67 13.98 32.69 14.17 32.7 14.25 32.7 14.35 32.72 14.54 32.73 14.64 32.74 14.69 32.75 14.79 32.75 14.81 32.78 15.14 32.8 15.33 32.82 15.56 32.85 15.86 33.02 17.57"/>
      <line class="cls-7" x1="34.28" y1="17.57" x2="32.59" y2="13.17"/>
      <line class="cls-7" x1="35.43" y1="17.46" x2="32.59" y2="13.17"/>
      <line class="cls-7" x1="36.18" y1="17.24" x2="32.59" y2="13.17"/>
      <polygon class="cls-9" points="32.59 13.17 32.25 13.56 31.86 13.17 32.59 13.17"/>
      <polyline class="cls-7" points="29.11 17.27 30.15 16.04 30.22 15.96 30.23 15.96 30.76 15.33 30.76 15.33 30.97 15.08 31.36 14.62 31.55 14.39 31.55 14.39 31.6 14.34 31.78 14.12 31.86 14.03 31.91 13.98 31.97 13.91 32.03 13.83 32.15 13.69 32.22 13.6 32.25 13.56"/>
      <line class="cls-7" x1="29.67" y1="17.46" x2="32.59" y2="13.17"/>
      <line class="cls-7" x1="30.77" y1="17.57" x2="32.59" y2="13.17"/>
      <polyline class="cls-7" points="29.67 17.46 30.88 16.18 31.19 15.85 31.51 15.51 31.7 15.31 31.86 15.14 31.92 15.07 32.18 14.8 32.23 14.75 32.26 14.71 32.35 14.62 32.45 14.51 32.54 14.42 32.56 14.4 32.7 14.25 32.73 14.22 32.74 14.2 32.82 14.12 32.92 14.02 33.02 13.91 33.06 13.87 33.14 13.79 33.18 13.74 33.28 13.63 33.32 13.59"/>
      <line class="cls-7" x1="30.77" y1="17.57" x2="33.72" y2="13.17"/>
      <line class="cls-7" x1="31.86" y1="17.57" x2="33.72" y2="13.17"/>
      <polyline class="cls-7" points="33.72 13.17 33.6 13.91 33.59 13.96 33.56 14.14 33.55 14.21 33.54 14.25 33.5 14.54 33.47 14.74 33.46 14.77 33.45 14.82 33.45 14.82 33.42 15.04 33.41 15.12 33.39 15.24 33.36 15.41 33.3 15.79 33.24 16.14 33.02 17.57"/>
      <line class="cls-7" x1="34.28" y1="17.57" x2="33.72" y2="13.17"/>
      <line class="cls-7" x1="35.43" y1="17.46" x2="33.72" y2="13.17"/>
      <polygon class="cls-9" points="34.41 13.17 34.41 13.17 33.95 13.59 33.72 13.17 34.41 13.17"/>
      <polyline class="cls-7" points="33.95 13.59 34 13.67 34.06 13.78 34.16 13.97 34.16 13.97 34.38 14.36 34.74 15.01 34.75 15.02 34.93 15.35 34.93 15.36 35.62 16.59 35.62 16.59 35.64 16.63 36.03 17.33"/>
      <line class="cls-7" x1="32.77" y1="10.31" x2="32.75" y2="7.87"/>
      <path class="cls-7" d="M32.75,9.43c.82.31,1.63-.31,2.45,0,0-.52,0-1.04,0-1.56-.82-.31-1.63.31-2.45,0v1.56Z"/>
      <polyline class="cls-7" points="45.7 18.81 45.64 18.91 44.93 20.16 44.49 20.93"/>
      <path class="cls-7" d="M44.92,20.16c.73.75,1.45.67,2.18.98.26-.47.52-.89.78-1.21-.7-.78-1.41-.77-2.11-1.1-.28.52-.57.99-.85,1.33Z"/>
      <polyline class="cls-7" points="20.32 20.92 20 20.55 18.96 19.39"/>
      <path class="cls-7" d="M19.99,20.67c.61-.67,1.23-1.54,1.84-1.72-.34-.59-.68-.97-1.03-1.28-.61.67-1.23,1.54-1.84,1.72.34.59.68.97,1.03,1.28Z"/>
      <g>
        <path class="cls-8" d="M50.08,50.72l-.63.6c-.06.06-.13.11-.21.15-.49.25-.99.47-1.5.67-.51.19-1.04.35-1.57.48-.49.12-.98.17-1.48.17-.21,0-.43-.01-.64-.03l.84-.47.6-.33,1.33-.25.57-.08c.14-.02.28-.05.42-.1l.79-.25c.14-.04.27-.1.39-.18l.54-.34c.16-.1.34-.15.52-.15.06,0,.08.07.04.11Z"/>
        <path class="cls-8" d="M49.71,49.53l-.09.11c-.06.08-.13.15-.2.21l-.87.69c-.26.21-.54.37-.85.48l-.34.12.66-.76,1.65-.89s.05.02.03.04Z"/>
        <path class="cls-6" d="M49.16,47.03c0-.09-.03-.17-.07-.25-.21-.37-.47-.71-.76-1.02l-.08-.08c-.14-.11-.29-.21-.45-.28-.16-.08-.33-.13-.5-.17l-.49-.1-.45-.07c-.27-.04-.54-.03-.81.04h-.06c-.14.05-.28.1-.42.16l-.62.3-.84.36-.38.16h-.28c-.08-.02-.14-.06-.17-.13l-.08-.19c-.03-.07-.09-.12-.17-.14l-.13-.03c-.07-.01-.14.02-.18.08l-.15.27s-.04.1-.04.15v.15c-.01.11.02.22.07.31l.03.04c.04.07.1.13.17.17l.1.05c.12.07.25.09.38.08l.27-.03.78-.16.47-.13.09-.03c.25-.09.52-.13.78-.13h.07l.51-.05h.3c.09,0,.18.02.26.06.14.08.26.2.32.35l.09.22c0,.17-.02.33-.06.49-.04.16-.1.32-.19.46l-.1.17-.38.4-.4.27c-.28.11-.58.16-.88.16-.07,0-.14,0-.21,0h-.09s-.4-.08-.4-.08l-.53-.2-.56-.31-.4-.24c-.11-.07-.23-.12-.36-.14l-.5-.1-.67-.15-.04-.02c-.26-.12-.55-.17-.84-.14h-.02c-.08,0-.16,0-.22-.05-.15-.09-.32-.14-.49-.15l-.34-.02c-.07,0-.15,0-.22,0l-.41.02c-.16,0-.32.04-.47.09-.14.05-.28.1-.41.16l-.44.2-.51.31-2.2.91-1.58.42-1.02.18-1.17.04-1.12.05c-.08,0-.16,0-.24,0l-.97-.06s-.08,0-.12-.01l-.77-.12c-.15-.02-.3-.04-.46-.04l-.92-.03c-.05,0-.1,0-.15,0l-1.15.03c-.21,0-.42.03-.63.09l-.5.13c-.37.09-.72.24-1.04.44l-.53.32-1.63,1.13c-.15.11-.29.22-.43.35l-.45.44c-.17.17-.32.36-.44.57l-.35.63-.38,1.06-.24,1.22-.29,1.91-.22,1.06-.38,1-.06.12c-.05.1-.11.19-.19.27l-.21.2c-.08.08-.14.17-.18.27l-.13.32c-.03.06-.04.12-.05.19l-.1.71s0,.09,0,.13v.39c0,.11-.02.21-.06.31l-.13.33s.02.04.04.03l.62-.53s.03-.03.05-.05l.53-.64c.07-.09.13-.19.16-.29l.11-.3-.05-1.6.15-.33.2-.53.2-.62.22-.75.2-.75.16-.6.25-.67v1.37l.47,1.09.47.71.73.86.47.62,1.08,1.67.44.56c.12.15.21.33.26.52l.24.85.49,1.79.47,1.61c.02.07.04.15.05.22l.12.68c.03.09.11.16.2.2l.4.14c.14.05.29.07.43.05l1.22-.12c.12-.01.25-.04.36-.09l.5-.2c.18-.07.3-.24.3-.43v-.08c0-.13-.04-.25-.11-.36l-.92-1.41-.98-1.63-.22-1.25.22-1.28h0s.76,0,.76,0l1.57-.24,1.73-.49,1.68-.7.86-.41.23,1.28c.02.11.06.21.11.3l.22.39c.08.14.19.27.32.36l.34.25c.09.07.19.12.29.17l1,.48.56.52c.1.09.18.19.25.3l.09.14c.07.11.06.25-.03.34l-.48.48s-.09.09-.13.14l-.56.67c-.1.12-.17.26-.2.41,0,.02,0,.05,0,.07,0,.07.03.14.07.2.08.1.19.24.26.32.04.05.08.1.11.15l.29.44c.09.13.19.24.31.34l.26.21s.07.05.11.07l.23.11c.09.04.2.04.29,0l.14-.06c.06-.03.1-.09.08-.16h0c-.05-.22-.02-.45.1-.64l.09-.14c.06-.09.11-.19.15-.29l.17-.41.21-.46c.07-.16.21-.28.37-.34h0c.19-.07.34-.22.41-.4.1-.27.24-.63.24-.63l.11-.53c.05-.23.03-.48-.06-.7l-.16-.44c-.02-.06-.05-.12-.08-.18l-1.2-2.09c-.09-.15-.15-.32-.17-.5l-.16-1.11.53-.62,1.38-2.17.6-.33.37.22c.11.07.24.08.36.04l.06-.02c.09-.03.15-.1.18-.18l.3-.92v-.27l.98-.49,1.46-.25,1.1-.1c.17-.02.3-.16.3-.33v-.08l-.27-.21c-.06-.05-.05-.14.02-.17l.25-.11.84-.47.6-.33,1.33-.25.56-.56.66-.76.73-1.33c.13-.24.23-.5.29-.77.08-.34.12-.68.12-1.03,0-.07,0-.15,0-.22ZM42.22,49.84c-.04.09-.13.15-.24.15-.15,0-.26-.12-.26-.26,0-.12.08-.22.19-.25.02,0,.05-.01.07-.01.15,0,.26.12.26.26,0,.04,0,.08-.03.11Z"/>
        <path class="cls-3" d="M22.14,61.77l-.21-.27s-.07-.05-.11-.05c-.05,0-.11.03-.13.08-.11.25-.29.46-.52.62l-.85.59c-.14.1-.26.22-.35.36l-.41.6c-.1.14-.18.3-.23.46l-.38,1.11c-.09.25-.13.51-.13.77v.71c0,.17.03.33.07.49l.2.63v.1c0,.22-.16.41-.38.46l-.72.14c-.56.11-1.14.07-1.67-.12-.16-.06-.26-.2-.26-.37v-.3s0-.07,0-.1l.08-.62c.01-.09.02-.18.02-.27v-.23c.01-.21.05-.41.12-.6l.07-.2.16-.4.27-.58.24-.78.26-.92s.02-.08.04-.12l.13-.35c.05-.14.08-.29.09-.44l.04-.87-.04-1.24c0-.24.04-.47.13-.69h0s.2-.53.2-.53l.2-.62.22-.75.2-.75.16-.6.25-.67v1.37l.47,1.09.47.71.73.86.47.62,1.08,1.67Z"/>
        <path class="cls-3" d="M34.62,67.59c.07.13.05.3-.05.41l-.07.08c-.13.14-.31.22-.5.21l-1.1-.04s-.56-.03-.85-.04c-.12,0-.23-.05-.31-.13h0c-.2-.19-.25-.48-.12-.72l.24-.42s.03-.06.03-.09l.29-1.37c.01-.07.02-.14.02-.21v-2.1c0-.16-.02-.31-.06-.46l-.21-.8-.54-1.79.86-.41.23,1.28c.02.11.06.21.11.3l.22.39c.08.14.19.27.32.36l.34.25c.09.07.19.12.29.17l1,.48-.22.65-.54,2.76.31.6.33.64Z"/>
        <path class="cls-7" d="M42.25,49.73s0,.08-.03.11c-.04.09-.13.15-.24.15-.15,0-.26-.12-.26-.26,0-.12.08-.22.19-.25.02,0,.05-.01.07-.01.15,0,.26.12.26.26Z"/>
        <line class="cls-7" x1="26.3" y1="60.12" x2="25.63" y2="61.55"/>
        <line class="cls-7" x1="25.63" y1="61.55" x2="25.25" y2="62.37"/>
        <path class="cls-7" d="M32.23,59.72l-.06-.95c0-.16,0-.33.03-.49l.19-.94.09-.58"/>
        <line class="cls-7" x1="35.7" y1="63.4" x2="34.73" y2="62.94"/>
        <line class="cls-7" x1="36.4" y1="58.75" x2="36.4" y2="57.62"/>
        <path class="cls-7" d="M38.92,55.64l-.98-.44-.76-.31-.6-.31-.91-.22h0c-.33-.06-.62-.24-.8-.52l-.03-.05h0c-.35-.27-.73-.47-1.14-.62h0c-.12-.28-.15-.6-.08-.9h0c.16-.7.45-1.37.86-1.97h0c.19-.28.4-.55.62-.8l.03-.03c.38-.43.83-.78,1.34-1.04h.03c.42-.23.86-.4,1.32-.51h0"/>
        <path class="cls-7" d="M39.35,50.07h0c.24.15.41.38.5.65h0c.07.2.11.4.14.61h0c.04.3.06.61.06.91v1.36l.02.05c.07.22.11.45.11.67h0v.18"/>
        <g>
          <path class="cls-5" d="M42.22,49.84c-.04.09-.13.15-.24.15-.15,0-.26-.12-.26-.26,0-.12.08-.22.19-.25-.02.03-.03.07-.03.11,0,.15.12.26.26.26.03,0,.05,0,.07-.01Z"/>
          <path class="cls-7" d="M42.25,49.73s0,.08-.03.11c-.02,0-.05.01-.07.01-.15,0-.26-.12-.26-.26,0-.04,0-.08.03-.11.02,0,.05-.01.07-.01.15,0,.26.12.26.26Z"/>
        </g>
        <ellipse class="cls-3" cx="42.25" cy="46.13" rx=".08" ry=".26"/>
        <ellipse class="cls-3" cx="42.57" cy="46.19" rx=".08" ry=".26"/>
      </g>
      <text class="cls-2" transform="translate(54.25 31.68)"><tspan x="0" y="0">60 tons </tspan></text>
      <text class="cls-2" transform="translate(57.13 64.18)"><tspan x="0" y="0">6 tons</tspan></text>
      <path class="cls-11" d="M107.24.25v76.52H.25V.25h106.99M107.49,0H0v77.02h107.49V0h0Z"/>
    </g>
  </g>
</svg>