<?xml version="1.0" encoding="UTF-8"?>
<svg id="Layer_2" data-name="Layer 2" xmlns="http://www.w3.org/2000/svg" xmlns:xlink="http://www.w3.org/1999/xlink" viewBox="0 0 788.74 107.88">
  <defs>
    <style>
      .cls-1 {
        stroke-width: 3px;
      }

      .cls-1, .cls-2, .cls-3, .cls-4, .cls-5, .cls-6, .cls-7, .cls-8, .cls-9, .cls-10, .cls-11, .cls-12, .cls-13, .cls-14, .cls-15, .cls-16, .cls-17, .cls-18, .cls-19, .cls-20, .cls-21, .cls-22, .cls-23, .cls-24 {
        stroke: #231f20;
        stroke-miterlimit: 10;
      }

      .cls-1, .cls-25 {
        fill: #7acfef;
      }

      .cls-2, .cls-4, .cls-7, .cls-10, .cls-11, .cls-12, .cls-15, .cls-16, .cls-18, .cls-19 {
        stroke-width: .25px;
      }

      .cls-2, .cls-22 {
        fill: #414042;
      }

      .cls-3 {
        fill: #594a42;
      }

      .cls-4, .cls-6 {
        fill: #6d6e71;
      }

      .cls-5, .cls-11, .cls-13 {
        fill: none;
      }

      .cls-7 {
        fill: #bcbec0;
      }

      .cls-26 {
        fill: url(#linear-gradient);
      }

      .cls-8 {
        fill: #489478;
      }

      .cls-8, .cls-13, .cls-23 {
        stroke-width: .75px;
      }

      .cls-9 {
        fill: #939598;
      }

      .cls-10, .cls-27 {
        fill: #808285;
      }

      .cls-12 {
        fill: #a7a9ac;
      }

      .cls-14 {
        fill: #754c29;
      }

      .cls-28 {
        fill: #f1f2f2;
      }

      .cls-29, .cls-30 {
        font-family: Arial-Black, 'Arial Black';
        font-weight: 800;
      }

      .cls-15 {
        fill: #e6e7e8;
      }

      .cls-16 {
        fill: #d1d3d4;
      }

      .cls-31, .cls-32 {
        font-size: 10px;
      }

      .cls-31, .cls-33, .cls-34 {
        font-family: BodoniSvtyTwoSCITCTT-Book, 'Bodoni 72 Smallcaps';
      }

      .cls-33 {
        font-size: 9.63px;
      }

      .cls-35 {
        font-size: 12px;
      }

      .cls-34 {
        font-size: 11px;
      }

      .cls-36 {
        fill: #fff;
      }

      .cls-17, .cls-18 {
        fill: #f9ed32;
      }

      .cls-19 {
        fill: #3b6c80;
      }

      .cls-20 {
        fill: #be1e2d;
      }

      .cls-30 {
        font-size: 16px;
        letter-spacing: 0em;
      }

      .cls-37 {
        text-decoration: underline;
      }

      .cls-38 {
        letter-spacing: .06em;
      }

      .cls-21 {
        fill: #3c2415;
      }

      .cls-39 {
        letter-spacing: .03em;
      }

      .cls-23 {
        fill: #5cbd99;
      }

      .cls-24 {
        fill: #a97c50;
      }
    </style>
    <linearGradient id="linear-gradient" x1=".22" y1="69.46" x2="673.65" y2="69.46" gradientUnits="userSpaceOnUse">
      <stop offset="0" stop-color="#fff"/>
      <stop offset=".89" stop-color="#231f20"/>
    </linearGradient>
  </defs>
  <g id="Layer_6" data-name="Layer 6">
    <g id="Layer_7" data-name="Layer 7">
      <g>
        <rect class="cls-1" x="29.43" y="32.65" width="669.79" height="40.03"/>
        <g>
          <path class="cls-27" d="M214.38,50.89s-.03.01-.05.01c0,0,0-.02,0-.02.02,0,.03.01.05.01Z"/>
          <path class="cls-27" d="M214.38,50.89s-.03.01-.05.01c0,0,0-.02,0-.02.02,0,.03.01.05.01Z"/>
          <path class="cls-27" d="M261.25,42.01c0-2.23-4.14-4.04-9.25-4.04-4.46,0-8.17,1.37-9.04,3.21-1.99-.41-4.34-.64-6.85-.64-4.75,0-8.89.83-11.14,2.07-1.43-.71-3.54-1.16-5.9-1.16-2.99,0-5.59.72-6.9,1.79-.47-.03-.94-.05-1.43-.05-3.67,0-6.65.91-6.65,2.04,0,.63.93,1.19,2.39,1.56-.45.41-.7.87-.7,1.35,0,.29.09.57.27.84-.38-.03-.78-.04-1.19-.04-2.96,0-5.35.69-5.35,1.53,0,.33.36.63.98.88-.63.31-.98.65-.98,1.03,0,1.22,3.83,2.21,8.56,2.21,4.38,0,7.99-.85,8.49-1.95,1.84.63,4.66,1.03,7.82,1.03,2.94,0,5.59-.35,7.42-.9.76.09,1.66.14,2.63.14,1.54,0,2.92-.13,3.83-.34,2.2.69,5.04,1.1,8.14,1.1,6.99,0,12.66-2.1,12.66-4.69,0-1.27-1.35-2.41-3.53-3.25,3.36-.61,5.72-2.05,5.72-3.73ZM214.33,50.9s0-.02,0-.02c.02,0,.03.01.05.01-.02.01-.03.01-.05.01Z"/>
          <path class="cls-27" d="M214.38,50.89s-.03.01-.05.01c0,0,0-.02,0-.02.02,0,.03.01.05.01Z"/>
        </g>
        <g>
          <path class="cls-25" d="M168.78,39.07s-.04.08-.06.12c-.06-.04-.12-.07-.19-.1.08,0,.16-.01.25-.02Z"/>
          <path class="cls-28" d="M219.62,48.16c0,1.24-1.78,2.25-3.97,2.25-1.07,0-2.03-.24-2.74-.63-.97.57-2.2,1.1-3.66,1.6,1.54.36,2.44.81,2.44,1.29,0,1.24-6.06,2.25-13.54,2.25-2.72,0-5.26-.13-7.38-.36h-.01c-3.29.24-6.78.36-10.4.36-3.88,0-7.61-.15-11.09-.42-.6.78-1.8,1.32-3.19,1.32-1.78,0-3.26-.88-3.55-2.03-3.82-.52-7.18-1.22-9.89-2.03-.43.13-.91.21-1.42.21-1.74,0-3.15-.85-3.15-1.9,0-.04,0-.09.01-.13-.73-.4-1.33-.83-1.78-1.26-.36.04-.74.06-1.13.06-2.38,0-4.31-.81-4.31-1.8s1.93-1.8,4.31-1.8c.29,0,.57.01.84.04.74-.87,2.07-1.68,3.88-2.43-.26-.55-.41-1.14-.41-1.75,0-3.19,3.92-5.77,8.75-5.77,3.55,0,6.6,1.39,7.97,3.39.04,0,.09,0,.13,0,.85,0,1.62.18,2.21.47.07.03.13.06.19.1.02-.04.04-.08.06-.12.42-.9,1.34-1.53,2.41-1.53.95,0,1.78.49,2.25,1.23.27-.01.54-.02.81-.04.75-1.23,2.53-2.1,4.6-2.1.55,0,1.07.06,1.56.18.31-1.64,1.74-2.88,3.47-2.88,1.27,0,2.38.67,3,1.66,1.22-.24,2.59-.37,4.03-.37,4.93,0,8.97,1.55,9.36,3.51.52-.08,1.1-.12,1.7-.12,2.42,0,4.38.7,4.38,1.56,0,.35-.31.67-.84.92.73.18,1.42.36,2.08.55.53-.41,1.2-.65,1.92-.65,1.55,0,2.84,1.12,3.11,2.6,1.32.73,2.19,1.51,2.55,2.32.15-.01.31-.02.46-.02,2.19,0,3.97,1.01,3.97,2.25Z"/>
        </g>
        <path class="cls-36" d="M354.56,55.93c.19.27.28.54.28.82,0,3.31-13.06,5.98-29.16,5.98-2.93,0-5.75-.09-8.41-.26-1.51,1.15-3.39,1.83-5.43,1.83-2.21,0-4.23-.79-5.79-2.11-4.06.34-8.67.54-13.56.54-16.29,0-29.49-2.16-29.49-4.82,0-2.31,9.91-4.23,23.15-4.7-1.22-.72-1.92-1.55-1.92-2.44,0-2.81,6.96-5.08,15.54-5.08,1.43,0,2.81.06,4.13.18,1.56-1.67,4.5-2.8,7.86-2.8,1.32,0,2.57.17,3.7.48,5.95-1.74,14.86-2.84,24.79-2.84,17.93,0,32.47,3.59,32.47,8.02,0,3.16-7.41,5.89-18.17,7.19Z"/>
        <g>
          <g>
            <path class="cls-25" d="M443.27,38.93s-.04.08-.06.12c-.06-.04-.12-.07-.19-.1.08,0,.16-.01.25-.02Z"/>
            <path class="cls-28" d="M494.11,48.02c0,1.24-1.78,2.25-3.97,2.25-1.07,0-2.03-.24-2.74-.63-.97.57-2.2,1.1-3.66,1.6,1.54.36,2.44.81,2.44,1.29,0,1.24-6.06,2.25-13.54,2.25-2.72,0-5.26-.13-7.38-.36h-.01c-3.29.24-6.78.36-10.4.36-3.88,0-7.61-.15-11.09-.42-.6.78-1.8,1.32-3.19,1.32-1.78,0-3.26-.88-3.55-2.03-3.82-.52-7.18-1.22-9.89-2.03-.43.13-.91.21-1.42.21-1.74,0-3.15-.85-3.15-1.9,0-.04,0-.09.01-.13-.73-.4-1.33-.83-1.78-1.26-.36.04-.74.06-1.13.06-2.38,0-4.31-.81-4.31-1.8s1.93-1.8,4.31-1.8c.29,0,.57.01.84.04.74-.87,2.07-1.68,3.88-2.43-.26-.55-.41-1.14-.41-1.75,0-3.19,3.92-5.77,8.75-5.77,3.55,0,6.6,1.39,7.97,3.39.04,0,.09,0,.13,0,.85,0,1.62.18,2.21.47.07.03.13.06.19.1.02-.04.04-.08.06-.12.42-.9,1.34-1.53,2.41-1.53.95,0,1.78.49,2.25,1.23.27-.01.54-.02.81-.04.75-1.23,2.53-2.1,4.6-2.1.55,0,1.07.06,1.56.18.31-1.64,1.74-2.88,3.47-2.88,1.27,0,2.38.67,3,1.66,1.22-.24,2.59-.37,4.03-.37,4.93,0,8.97,1.55,9.36,3.51.52-.08,1.1-.12,1.7-.12,2.42,0,4.38.7,4.38,1.56,0,.35-.31.67-.84.92.73.18,1.42.36,2.08.55.53-.41,1.2-.65,1.92-.65,1.55,0,2.84,1.12,3.11,2.6,1.32.73,2.19,1.51,2.55,2.32.15-.01.31-.02.46-.02,2.19,0,3.97,1.01,3.97,2.25Z"/>
          </g>
          <path class="cls-36" d="M480.25,53.21c.09.14.14.27.14.41,0,1.65-6.53,2.99-14.58,2.99-1.46,0-2.87-.05-4.2-.13-.76.57-1.7.92-2.71.92-1.1,0-2.11-.4-2.89-1.06-2.03.17-4.34.27-6.78.27-8.15,0-14.75-1.08-14.75-2.41,0-1.15,4.96-2.11,11.58-2.35-.61-.36-.96-.78-.96-1.22,0-1.4,3.48-2.54,7.77-2.54.71,0,1.41.03,2.06.09.78-.84,2.25-1.4,3.93-1.4.66,0,1.28.09,1.85.24,2.98-.87,7.43-1.42,12.4-1.42,8.97,0,16.23,1.79,16.23,4.01,0,1.58-3.71,2.95-9.09,3.6Z"/>
        </g>
        <g>
          <path class="cls-27" d="M568.81,44.79c0-2.23-4.14-4.04-9.25-4.04-4.46,0-8.17,1.37-9.04,3.21-1.99-.41-4.34-.64-6.85-.64-4.75,0-8.89.83-11.14,2.07-1.43-.71-3.54-1.16-5.9-1.16-2.99,0-5.59.72-6.9,1.79-.47-.03-.94-.05-1.43-.05-3.67,0-6.65.91-6.65,2.04,0,.63.93,1.19,2.39,1.56-.45.41-.7.87-.7,1.35,0,.29.09.57.27.84-.38-.03-.78-.04-1.19-.04-2.96,0-5.35.69-5.35,1.53,0,.33.36.63.98.88-.63.31-.98.65-.98,1.03,0,1.22,3.83,2.21,8.56,2.21,4.38,0,7.99-.85,8.49-1.95,1.84.63,4.66,1.03,7.82,1.03,2.94,0,5.59-.35,7.42-.9.76.09,1.66.14,2.63.14,1.54,0,2.92-.13,3.83-.34,2.2.69,5.04,1.1,8.14,1.1,6.99,0,12.66-2.1,12.66-4.69,0-1.27-1.35-2.41-3.53-3.25,3.36-.61,5.72-2.05,5.72-3.73ZM521.89,53.68s0-.02,0-.02c.02,0,.03.01.05.01-.02.01-.03.01-.05.01Z"/>
          <path class="cls-36" d="M545.03,44.09c-.16-.29-.23-.56-.21-.84.28-3.3,13.52-4.85,29.56-3.49,2.91.25,5.72.58,8.35.97,1.6-1.02,3.53-1.54,5.56-1.36,2.2.19,4.14,1.15,5.59,2.59,4.07,0,8.69.2,13.56.62,16.23,1.38,29.21,4.65,28.98,7.3-.2,2.3-10.23,3.37-23.47,2.72,1.15.83,1.78,1.71,1.7,2.59-.24,2.8-7.36,4.48-15.91,3.75-1.42-.12-2.8-.3-4.1-.53-1.7,1.53-4.72,2.41-8.07,2.12-1.31-.11-2.55-.39-3.64-.79-6.08,1.23-15.04,1.57-24.95.73-17.87-1.52-32.05-6.33-31.67-10.75.27-3.15,7.88-5.24,18.72-5.63Z"/>
        </g>
      </g>
      <g>
        <path class="cls-25" d="M39.38,40.2s-.07.06-.11.09c-.04-.06-.08-.12-.12-.17.08.03.15.06.23.09Z"/>
        <path class="cls-28" d="M30.93,54.59c.89.2,1.73.11,2.34-.21,1.4.79,2.85,1.58,4.36,2.36,1.77.93,3.61,1.83,5.51,2.72,3.28,1.54,6.5,2.9,9.57,4.08h.02c1.42.88,3.1,1.8,4.95,2.72.52.25,1.04.5,1.58.75,6.77,3.17,12.69,4.83,13.22,3.7.2-.43-.43-1.22-1.66-2.2,1.53.17,2.87.21,3.98.1.23.32.54.63.9.92.38.31.83.59,1.32.82,1.98.93,4.02.77,4.55-.36.53-1.12-.66-2.79-2.64-3.72-.14-.07-.29-.13-.43-.18.01-.58-.18-1.25-.57-1.99-.2-.38-.45-.78-.75-1.2.22-.83.09-1.69-.33-2.4-.31-.54-.78-.99-1.39-1.27-.65-.31-1.36-.38-2.01-.23-.52-.45-1.07-.91-1.65-1.38.58-.01,1-.16,1.15-.48.36-.78-1.11-2.25-3.31-3.27-.55-.26-1.09-.46-1.59-.61.01-.04.02-.08.02-.12.34-1.95-2.64-4.98-7.01-7.03-1.31-.62-2.61-1.08-3.82-1.38-.14-1.16-.86-2.24-2.01-2.77-.96-.45-2.02-.43-2.92-.03-.56.24-1.07.64-1.44,1.16-.4-.31-.85-.59-1.34-.82-1.88-.88-3.86-.85-5.06-.05-.25-.11-.5-.21-.75-.31-.11-.87-.65-1.67-1.51-2.07-.97-.45-2.07-.28-2.83.36-.04.03-.07.06-.11.09-.03-.07-.07-.12-.12-.18-.41-.52-1.03-1-1.8-1.36-.04-.02-.08-.04-.12-.05-.27-1.66-4.56-3.4-6.3-4.81v20.7Z"/>
      </g>
      <path class="cls-27" d="M92.28,53.35c0-2.23-4.14-4.04-9.25-4.04-4.46,0-8.17,1.37-9.04,3.21-1.99-.41-4.34-.64-6.85-.64-4.75,0-8.89.83-11.14,2.07-1.43-.71-3.54-1.16-5.9-1.16-2.99,0-5.59.72-6.9,1.79-.47-.03-.94-.05-1.43-.05-3.67,0-6.65.91-6.65,2.04,0,.63.93,1.19,2.39,1.56-.45.41-.7.87-.7,1.35,0,.29.09.57.27.84-.38-.03-.78-.04-1.19-.04-2.96,0-5.35.69-5.35,1.53,0,.33.36.63.98.88-.63.31-.98.65-.98,1.03,0,1.22,3.83,2.21,8.56,2.21,4.38,0,7.99-.85,8.49-1.95,1.84.63,4.66,1.03,7.82,1.03,2.94,0,5.59-.35,7.42-.9.76.09,1.66.14,2.63.14,1.54,0,2.92-.13,3.83-.34,2.2.69,5.04,1.1,8.14,1.1,6.99,0,12.66-2.1,12.66-4.69,0-1.27-1.35-2.41-3.53-3.25,3.36-.61,5.72-2.05,5.72-3.73ZM45.36,62.24s0-.02,0-.02c.02,0,.03.01.05.01-.02.01-.03.01-.05.01Z"/>
      <g>
        <path class="cls-25" d="M70.75,43.14s-.04.08-.06.12c-.06-.04-.12-.08-.18-.11.08,0,.16,0,.25,0Z"/>
        <path class="cls-28" d="M121.19,54.25c-.05,1.24-1.87,2.18-4.05,2.09-1.07-.04-2.02-.32-2.72-.74-.99.53-2.24,1.01-3.72,1.45,1.52.43,2.4.9,2.39,1.39-.05,1.24-6.15,2.01-13.62,1.71-2.72-.11-5.25-.34-7.36-.66h-.01c-3.29.1-6.79.09-10.41-.05-3.88-.16-7.6-.45-11.07-.86-.63.76-1.85,1.24-3.24,1.19-1.78-.07-3.23-1.01-3.47-2.17-3.8-.68-7.13-1.5-9.8-2.43-.43.11-.92.17-1.43.15-1.74-.07-3.12-.97-3.08-2.02,0-.04,0-.09.02-.13-.72-.43-1.3-.88-1.73-1.33-.36.03-.74.03-1.13.02-2.38-.1-4.28-.98-4.24-1.97s2-1.72,4.38-1.63c.29.01.56.04.84.07.77-.84,2.13-1.6,3.98-2.27-.24-.56-.36-1.16-.34-1.77.13-3.19,4.14-5.61,8.98-5.42,3.54.14,6.54,1.65,7.83,3.71.04,0,.09,0,.13,0,.85.03,1.61.24,2.19.56.07.03.13.07.18.11.02-.04.04-.08.06-.12.46-.88,1.4-1.47,2.47-1.43.95.04,1.76.56,2.2,1.32.27,0,.54,0,.81,0,.8-1.2,2.61-1.99,4.68-1.91.55.02,1.07.1,1.56.24.37-1.62,1.86-2.81,3.58-2.74,1.27.05,2.35.76,2.93,1.78,1.23-.19,2.6-.27,4.05-.21,4.92.2,8.9,1.9,9.22,3.88.53-.06,1.1-.08,1.71-.05,2.42.1,4.35.88,4.31,1.74-.01.35-.34.65-.87.89.72.21,1.41.42,2.06.63.54-.39,1.22-.6,1.95-.57,1.55.06,2.8,1.23,3,2.73,1.29.78,2.13,1.6,2.46,2.43.15,0,.31,0,.47,0,2.19.09,3.92,1.17,3.87,2.41Z"/>
      </g>
      <g>
        <path class="cls-25" d="M94.35,62.54s-.04.08-.06.12c-.06-.04-.12-.07-.19-.1.08,0,.16-.01.25-.02Z"/>
        <path class="cls-28" d="M145.11,71.17c-.38-1.02-1.98-1.79-3.89-1.79-.16,0-.31,0-.46.02-.29-.66-.92-1.29-1.83-1.89-.22-.15-.46-.3-.72-.44-.27-1.48-1.56-2.6-3.11-2.6-.73,0-1.4.24-1.93.65-.65-.19-1.35-.37-2.08-.55.53-.26.84-.58.84-.92,0-.1-.03-.2-.08-.29-.38-.73-2.16-1.28-4.3-1.28-.6,0-1.18.05-1.7.13-.39-1.97-4.44-3.51-9.37-3.51-1.44,0-2.81.13-4.03.37-.55-.87-1.45-1.48-2.5-1.62-.16-.03-.33-.04-.5-.04-.5,0-.97.1-1.4.29-.32.14-.61.32-.87.54h-.01c-.6.52-1.04,1.23-1.19,2.05-.49-.12-1.02-.18-1.56-.18-2.08,0-3.86.87-4.61,2.1-.27,0-.54.02-.8.03-.47-.73-1.3-1.23-2.25-1.23-1.07,0-1.99.63-2.41,1.53-.03.04-.04.08-.06.12-.06-.04-.12-.07-.19-.1-.59-.3-1.36-.48-2.21-.48-.04,0-.08,0-.12,0-.52-.75-1.27-1.41-2.19-1.95-.18-.11-.37-.21-.57-.3-1.45-.72-3.26-1.14-5.22-1.14-3.09,0-5.8,1.05-7.36,2.65-.61.63-1.05,1.34-1.25,2.1-.09.33-.14.67-.14,1.02,0,.61.15,1.2.41,1.75-.45.18-.86.37-1.25.56-1.18.59-2.07,1.21-2.63,1.86-.28-.02-.55-.03-.84-.03-2.39,0-4.31.81-4.31,1.8,0,.27.15.53.41.76h78.28Z"/>
      </g>
      <g>
        <path class="cls-27" d="M120.83,53.4c0-2.23-2.15-4.04-4.81-4.04-2.32,0-4.25,1.37-4.71,3.21-1.03-.41-2.26-.64-3.57-.64-2.47,0-4.63.83-5.8,2.07-.74-.71-1.84-1.16-3.07-1.16-1.56,0-2.91.72-3.59,1.79-.24-.03-.49-.05-.75-.05-1.91,0-3.46.91-3.46,2.04,0,.63.48,1.19,1.24,1.56-.23.41-.37.87-.37,1.35,0,.29.05.57.14.84-.2-.03-.41-.04-.62-.04-1.54,0-2.78.69-2.78,1.53,0,.33.19.63.51.88-.33.31-.51.65-.51,1.03,0,1.22,1.99,2.21,4.45,2.21,2.28,0,4.16-.85,4.42-1.95.96.63,2.43,1.03,4.07,1.03,1.53,0,2.91-.35,3.86-.9.4.09.86.14,1.37.14.8,0,1.52-.13,1.99-.34,1.14.69,2.62,1.1,4.24,1.1,3.64,0,6.59-2.1,6.59-4.69,0-1.27-.7-2.41-1.84-3.25,1.75-.61,2.98-2.05,2.98-3.73ZM96.41,62.29s0-.02,0-.02c0,0,.02.01.03.01,0,.01-.02.01-.03.01Z"/>
        <path class="cls-36" d="M108.45,52.7c-.09-.29-.12-.56-.11-.84.15-3.3,7.04-4.85,15.38-3.49,1.52.25,2.98.58,4.35.97.83-1.02,1.84-1.54,2.89-1.36,1.14.19,2.16,1.15,2.91,2.59,2.12,0,4.52.2,7.05.62,8.45,1.38,15.2,4.65,15.08,7.3-.1,2.3-5.33,3.37-12.21,2.72.6.83.92,1.71.89,2.59-.12,2.8-3.83,4.48-8.28,3.75-.74-.12-1.46-.3-2.13-.53-.88,1.53-2.46,2.41-4.2,2.12-.68-.11-1.32-.39-1.9-.79-3.16,1.23-7.83,1.57-12.98.73-9.3-1.52-16.68-6.33-16.48-10.75.14-3.15,4.1-5.24,9.74-5.63Z"/>
      </g>
      <g>
        <path class="cls-27" d="M391.62,45.04s.03,0,.04,0c0,0,0,.01,0,.02-.01,0-.03-.01-.04-.01Z"/>
        <path class="cls-27" d="M391.62,45.04s.03,0,.04,0c0,0,0,.01,0,.02-.01,0-.03-.01-.04-.01Z"/>
        <path class="cls-27" d="M353.04,50.4c-.09,1.82,3.22,3.46,7.38,3.66,3.64.18,6.72-.79,7.51-2.25,1.6.41,3.51.7,5.56.8,3.87.19,7.29-.32,9.17-1.24,1.14.64,2.84,1.09,4.77,1.18,2.44.12,4.59-.36,5.7-1.18.38.05.77.08,1.17.1,2.99.15,5.46-.47,5.5-1.39.03-.51-.71-1.01-1.88-1.37.38-.31.61-.68.63-1.08.01-.24-.05-.47-.18-.69.31.04.63.06.97.08,2.41.12,4.39-.35,4.42-1.03.01-.27-.27-.53-.76-.76.52-.23.83-.49.84-.8.05-1-3.04-1.96-6.89-2.15-3.57-.18-6.55.37-7.01,1.25-1.48-.59-3.76-1.03-6.34-1.16-2.4-.12-4.57.06-6.09.44-.62-.11-1.35-.18-2.14-.22-1.26-.06-2.39-.01-3.14.12-1.76-.65-4.07-1.1-6.6-1.22-5.7-.28-10.41,1.2-10.51,3.32-.05,1.03,1,2.02,2.75,2.8-2.76.36-4.75,1.44-4.82,2.81ZM391.66,45.04s0,.01,0,.02c-.01,0-.03-.01-.04-.01.01,0,.03,0,.04,0Z"/>
        <path class="cls-27" d="M391.62,45.04s.03,0,.04,0c0,0,0,.01,0,.02-.01,0-.03-.01-.04-.01Z"/>
      </g>
      <g>
        <path class="cls-25" d="M410.67,45.42s.04-.08.06-.12c.06.04.12.07.19.1-.08,0-.16.01-.25.02Z"/>
        <path class="cls-28" d="M367.13,34.39c-.21.1-.4.21-.59.32-.22-.12-.46-.23-.73-.32-.59-.2-1.28-.31-2.02-.31s-1.42.11-2.01.31c-1.17.39-1.95,1.11-1.95,1.94,0,1.24,1.78,2.25,3.96,2.25.16,0,.32,0,.47-.02.36.82,1.24,1.6,2.55,2.33.14.75.53,1.41,1.1,1.87.54.46,1.25.73,2.01.73.6,0,1.15-.16,1.62-.44.11-.06.21-.13.31-.21.11.03.23.07.34.09.55.16,1.13.31,1.73.46-.52.26-.83.57-.83.92,0,.86,1.96,1.56,4.38,1.56.6,0,1.18-.04,1.7-.12.39,1.97,4.44,3.51,9.36,3.51,1.45,0,2.82-.13,4.04-.37.62,1,1.73,1.66,3,1.66.42,0,.82-.07,1.2-.21.98-.35,1.75-1.13,2.11-2.11.07-.18.12-.37.16-.56.49.12,1.01.18,1.56.18,1.2,0,2.3-.29,3.16-.78.63-.34,1.13-.8,1.45-1.32.26-.01.53-.02.8-.03.47.73,1.3,1.23,2.25,1.23,1.07,0,1.99-.63,2.41-1.53l.06-.12c.06.04.12.07.19.1.59.3,1.36.47,2.2.47h.13c.54.8,1.35,1.5,2.36,2.04,1.52.85,3.48,1.35,5.62,1.35,4.83,0,8.75-2.58,8.75-5.77,0-.61-.15-1.2-.41-1.75,1.82-.74,3.14-1.56,3.88-2.43.28.03.55.04.84.04,1.85,0,3.42-.49,4.04-1.17.17-.19.27-.41.27-.63,0-.99-1.93-1.8-4.31-1.8-.39,0-.77.02-1.13.06-.45-.43-1.04-.85-1.78-1.25,0-.05.02-.09.02-.13v-.04h-64.27Z"/>
      </g>
    </g>
    <text class="cls-29" transform="translate(28.12 12.54)"><tspan class="cls-35"><tspan x="0" y="0">Airbus A350 XWB</tspan></tspan><tspan class="cls-32"><tspan x="0" y="12">Ai</tspan><tspan class="cls-39" x="11.11" y="12">r</tspan><tspan x="15.88" y="12">line se</tspan><tspan class="cls-38" x="51.99" y="12">r</tspan><tspan x="57.01" y="12">vice ent</tspan><tspan class="cls-38" x="100.9" y="12">r</tspan><tspan x="105.92" y="12">y: 2014</tspan></tspan></text>
    <text class="cls-34" transform="translate(727.64 9.36)"><tspan x="0" y="0">Maximum </tspan><tspan class="cls-37"><tspan x="-4.26" y="13.2">Passengers</tspan></tspan></text>
    <text class="cls-30" transform="translate(730.77 68.33) scale(1 1.97)"><tspan x="0" y="0">315</tspan></text>
  </g>
  <g id="Layer_8" data-name="Layer 8">
    <g>
      <path class="cls-23" d="M21.58,60.49l-.24.6s-.03.06-.05.1l-.22.37c-.1.16-.22.3-.38.41l-.57.4c-.09,0-.17.04-.23.09-.06.06-.09.14-.1.23v1.49c-.01.28-.09.56-.23.8-.11.19-.26.36-.44.48l-.19.13c-.06.04-.11.07-.18.1-.19.08-.32.27-.29.48l.16,1.47.15,1.23.13,1.76v.15c0,.19-.09.36-.22.5-.06.06-.09.14-.09.23v.27s-.26,3.11-.26,3.11l-.13,3.28-.02,1.04s0,.09,0,.13l.05.86c.06.18.2.32.38.38l.23.08-11.09-.04c.04-.25.13-.49.27-.7l.81-1.24.28-.19.36-.42,1.3-1.03c.09-.07.16-.17.2-.28l.09-.25c.05-.15.15-.28.29-.36l1.48-.95,2.29-1.29c-.03-.24-.19-.44-.41-.54l-.55-.25c-.06-.03-.1-.08-.1-.14-.04-.24.07-.48.27-.61l.94-.61,2.43-1.4v-1.12l-.15-1.9-.25-2.09-.19-2.64,1.06,1.06c.17.17.45.14.58-.06l1.34-2.02-.46-.7.05-.07c.06-.08.19-.1.27-.02l.54.49-.7-.83s-.02-.04-.02-.06c.02-.1.11-.17.2-.17.03,0,.07,0,.1.02l.19.1.66.55-.78-.87v-.05c0-.14.16-.22.27-.14l.55.39-.39-.65c-.04-.05,0-.13.06-.14l.62.17.28.55c.05.1.06.21.02.32Z"/>
      <path class="cls-8" d="M9.59,50.83l-1.08,1.42-.52-2.38-.39-1.79v-2.35l-.46-.83v-.23c-.06-.07-.1-.16-.1-.25,0-.06.01-.11.04-.17l.06-.11-.02-.55-.45-.64.19-.4-.3-.27.09-.19-.09-.3v-.21c.1,0,.18-.09.18-.18,0-.03,0-.06-.03-.09l-.15-.24c0-.16-.1-.3-.25-.35l-.19-.06-.19-.22c-.05-.06-.05-.15.01-.2.1-.09.16-.21.16-.34,0-.07-.02-.14-.05-.21l-.03-.05c-.08-.16.03-.35.21-.35h.17l.28-.13h.14c.19,0,.34-.15.34-.34l-.22-.42v-.66l.22-.4v-.23l.37.38.25-.72.23.44.19-.44.13.42.17-.25.21.93-.08.42-.28.36-.02.3.38.38h.44c.14.09.19.26.13.41l-.08.18.19.36v.27l-.25.28h-.44l-.06.19-.07.09c-.06.09-.17.14-.27.14v.08c0,.21.07.41.19.58l.1.14.04.93.09,1.69.21,1.21.45,1.29.15.82v1.08l.1.4.09.87c.02.19-.03.37-.15.52Z"/>
      <path class="cls-8" d="M17.72,69.24v1.12l-2.43,1.4-.94.61c-.2.13-.31.37-.27.61,0,.06.05.11.1.14l.55.25c.22.1.37.3.41.54l-2.29,1.29-1.48.95c-.13.08-.23.21-.29.36l-.09.25c-.04.11-.11.2-.2.28l-1.3,1.03-.36.42-.28.19-.04-.32-.15-5.76.02-.03,1.33-1.07,1.52-1.76,1.42-2.24,1.04-1.33.61-.74.13-.63-.11-1.14-.23-.39c-.06-.1-.08-.22-.07-.33l.06-.39c.02-.15.09-.28.21-.38l.55-.48.64-.93v-1.47c0-.17.12-.32.28-.37h.08c.15,0,.29.08.37.21l.15.26.27.73.11.54v.42l.02.32-.3.54c-.06.11-.04.25.05.33l.34.34.19,2.64.25,2.09.15,1.9Z"/>
      <path class="cls-23" d="M14.89,54.31h0s-.75.81-.75.81l-1.38,1.42-1.72,2.1-1.06,1.49-.7,1.3-.38,1.25v.68h-.15c-.29-.04-.56-.19-.73-.43-.15-.2-.22-.44-.22-.69v-.53c0-.13.03-.27.08-.39l.37-.82.23-.37,1.65-2.15,1.42-1.42,1.46-1.35,1.14-.82.28-.23.46.14Z"/>
      <polygon class="cls-23" points="14.14 54.4 13 55.21 11.54 56.56 10.12 57.98 8.47 60.13 9 59.27 8.93 58.68 8.54 58.03 8.96 57.85 9.48 57.35 10.1 56.46 10.59 55 10.92 53.62 10.92 52.03 11.73 52.75 12.01 53.28 12.32 53.85 12.68 54.17 13.32 54.43 14.14 54.4"/>
      <path class="cls-23" d="M10.92,52.03v1.59l-.32,1.38-.49,1.46-.63.89-.51.49-.43.19-.08-.14c-.1-.17-.16-.37-.16-.56v-.95l.06-1.06c0-.14-.02-.28-.08-.41l-.22-.46c-.07-.15-.2-.25-.35-.29l1.1-.76.66-.72.82-.91.19-.26.44.51Z"/>
      <polygon class="cls-8" points="18.9 81.77 6.63 81.77 6.65 80.61 7.77 80.61 18.86 80.65 18.88 81.12 18.9 81.77"/>
      <path class="cls-23" d="M18.71,58.4l-1.66,3.01-.02-.32v-.42l-.11-.54-.27-.73-.15-.26c-.07-.13-.21-.21-.37-.21h-.08c-.17.04-.28.2-.28.37v1.47l-.64.93-.55.48c-.11.1-.19.23-.21.38l-.06.39c-.02.11,0,.23.07.33l.23.39.11,1.14-.13.63-.61.74-1.04,1.33-1.42,2.24-1.52,1.76-1.33,1.07.16-.23c.13-.18.18-.4.16-.61l-.34-2.86c0-.08,0-.16,0-.24l.05-.29c.09-.51.03-1.04-.16-1.52l-.24-.59c-.06-.15-.09-.3-.09-.46,0-.3.07-.6.22-.87l.32-.61c.15-.28.19-.59.13-.9v-.02s0-.68,0-.68l.38-1.25.7-1.3,1.06-1.49,1.72-2.1,1.38-1.42.75-.81h0s.66.2.66.2l.24.08c.26.09.49.27.65.5l.53.78c.04.06.08.13.11.21l.3.78c.02.06.04.12.06.19l.07.31c.04.19.14.37.28.5l.22.21c.14.13.3.22.48.27l.24.06Z"/>
      <path class="cls-8" d="M17.19,49.79l-2.1-.15v-.23l2.1-1.02-2.43.53-.3-.42,1.23-1.69-1.67,1.38-.68-.19-.36-2.09-.28,2.01-.68.32-1.9-1.19,1.44,1.67-.27.28-1.52-.47,1.31,1.04v.21h-1.02s.08.22.08.22l.98.12.1.42.06.82-.36.66.82.72.28.53.31.57.36.32.64.27.82-.04.28-.23.46.14.66.2-.11-.49-.34-1.65-.04-1.71.09-.57,2.05-.3ZM14.43,50.87l-.04.13s0,.02,0,.03v.26c0,.14-.03.29-.08.42l-.13.32s-.02.07-.03.1h0s-.37.34-.37.34l-.11.07c-.15.1-.33.15-.51.15-.1,0-.2-.02-.28-.07l-.06-.03c-.09-.05-.17-.11-.24-.18l-.16-.17-.17-.19c-.15-.17-.27-.37-.32-.6l-.19-.79c.19,0,.39-.05.56-.14l.16-.08.42-.49.16-.36c.03-.06.12-.07.16-.01l.18.28.23.38.41.23s.09.04.13.06l.18.07c.11.04.16.16.12.27Z"/>
      <path class="cls-8" d="M21.71,58.92l-.43.71-.62-.17c-.07,0-.1.08-.06.14l.39.65-.55-.39c-.12-.08-.27,0-.27.14v.05l.78.87-.66-.55-.19-.1s-.06-.02-.1-.02c-.1,0-.19.07-.2.17,0,.02,0,.04.02.06l.7.83-.54-.49c-.08-.07-.2-.06-.27.02l-.05.07.46.7-1.34,2.02c-.13.2-.41.23-.58.06l-1.06-1.06-.34-.34c-.09-.09-.11-.23-.05-.33l.3-.54,1.66-3.01.47-.82c.09-.15.28-.21.44-.13l1.94.97c.19.09.26.33.15.51Z"/>
      <path class="cls-23" d="M10.48,51.52l-.19.26-.82.91-.66.72-1.1.76-.25-.06-.12-.05c-.16-.06-.27-.21-.29-.38l-.11-.81c-.02-.13,0-.25.03-.38l.23-.81c.02-.08.06-.15.11-.22l.15-.22c.08-.11.14-.23.18-.36l.34-1.01.52,2.38,1.08-1.42c.11-.15.16-.33.15-.52l-.09-.87.38.23.04.12.08.21v.03s.24.7.24.7l.09.78Z"/>
      <path class="cls-23" d="M14.43,50.87l-.04.13s0,.02,0,.03v.26c0,.14-.03.29-.08.42l-.13.32s-.02.07-.03.1h0s-.37.34-.37.34l-.11.07c-.15.1-.33.15-.51.15-.1,0-.2-.02-.28-.07l-.06-.03c-.09-.05-.17-.11-.24-.18l-.16-.17-.17-.19c-.15-.17-.27-.37-.32-.6l-.19-.79c.19,0,.39-.05.56-.14l.16-.08.42-.49.16-.36c.03-.06.12-.07.16-.01l.18.28.23.38.41.23s.09.04.13.06l.18.07c.11.04.16.16.12.27Z"/>
      <path class="cls-13" d="M14.15,52.14s-.01.07-.01.11v1.6l.28.32"/>
    </g>
  </g>
  <g id="_1" data-name="#1">
    <g>
      <g>
        <path class="cls-9" d="M678.54,69.05v13.59h3.88v-6.79h.33v-6.79h-4.21ZM679.76,81.58h-.6v-.55h.6v.55ZM679.76,80.63h-.6v-.55h.6v.55ZM679.76,79.68h-.6v-.55h.6v.55ZM679.76,78.73h-.6v-.55h.6v.55ZM679.76,77.78h-.6v-.55h.6v.55ZM679.76,76.83h-.6v-.55h.6v.55ZM679.76,75.88h-.6v-.55h.6v.55ZM679.76,74.93h-.6v-.55h.6v.55ZM679.76,73.98h-.6v-.55h.6v.55ZM679.76,73.03h-.6v-.55h.6v.55ZM679.76,72.09h-.6v-.55h.6v.55ZM679.76,71.14h-.6v-.55h.6v.55ZM679.76,70.19h-.6v-.55h.6v.55ZM681.12,81.58h-.6v-.55h.6v.55ZM681.12,80.63h-.6v-.55h.6v.55ZM681.12,79.68h-.6v-.55h.6v.55ZM681.12,78.73h-.6v-.55h.6v.55ZM681.12,77.78h-.6v-.55h.6v.55ZM681.12,76.83h-.6v-.55h.6v.55ZM681.12,75.88h-.6v-.55h.6v.55ZM681.12,74.93h-.6v-.55h.6v.55ZM681.12,73.98h-.6v-.55h.6v.55ZM681.12,73.03h-.6v-.55h.6v.55ZM681.12,72.09h-.6v-.55h.6v.55ZM681.12,71.14h-.6v-.55h.6v.55ZM681.12,70.19h-.6v-.55h.6v.55ZM682.34,81.58h-.6v-.55h.6v.55ZM682.34,80.64h-.6v-.55h.6v.55ZM682.34,79.69h-.6v-.55h.6v.55ZM682.34,78.74h-.6v-.55h.6v.55ZM682.34,77.79h-.6v-.55h.6v.55ZM682.34,76.84h-.6v-.55h.6v.55ZM682.34,75.89h-.6v-.55h.6v.55ZM682.34,74.94h-.6v-.55h.6v.55ZM682.34,73.99h-.6v-.55h.6v.55ZM682.34,73.04h-.6v-.55h.6v.55ZM682.34,72.1h-.6v-.55h.6v.55ZM682.34,71.15h-.6v-.55h.6v.55ZM682.34,70.2h-.6v-.55h.6v.55Z"/>
        <rect class="cls-17" x="681.74" y="69.65" width=".6" height=".55"/>
        <rect class="cls-17" x="680.52" y="69.64" width=".6" height=".55"/>
        <rect class="cls-17" x="679.16" y="69.64" width=".6" height=".55"/>
        <path class="cls-3" d="M682.43,75.84v6.79h4.26v-6.79h-4.26ZM683.17,81.44h-.41v-5.03h.41v5.03ZM683.79,81.44h-.41v-5.03h.41v5.03ZM684.41,81.44h-.41v-5.03h.41v5.03ZM685.03,81.44h-.41v-5.03h.41v5.03ZM685.65,81.44h-.41v-5.03h.41v5.03ZM686.28,81.44h-.41v-5.03h.41v5.03Z"/>
        <path class="cls-6" d="M686.53,74.23v1.61h.16v6.79h7.99v-8.4h-8.16ZM687.22,74.95h6.81v.55h-6.81v-.55ZM694.12,81.17h-6.81v-.55h6.81v.55ZM694.12,80.22h-6.81v-.55h6.81v.55ZM694.12,79.27h-6.81v-.55h6.81v.55ZM694.12,78.32h-6.81v-.55h6.81v.55ZM694.12,77.37h-6.81v-.55h6.81v.55ZM694.12,76.42h-6.81v-.55h6.81v.55Z"/>
        <path class="cls-14" d="M694.68,69.61v13.03h1.85v-13.03h-1.85ZM695.22,81.85h-.26v-.55h.26v.55ZM695.22,80.9h-.26v-.55h.26v.55ZM695.22,79.95h-.26v-.55h.26v.55ZM695.22,79h-.26v-.55h.26v.55ZM695.22,78.05h-.26v-.55h.26v.55ZM695.22,77.11h-.26v-.55h.26v.55ZM695.22,76.16h-.26v-.55h.26v.55ZM695.22,75.21h-.26v-.55h.26v.55ZM695.22,74.26h-.26v-.55h.26v.55ZM695.22,73.31h-.26v-.55h.26v.55ZM695.22,72.36h-.26v-.55h.26v.55ZM695.22,71.41h-.26v-.55h.26v.55ZM695.22,70.46h-.26v-.55h.26v.55ZM696.27,81.85h-.26v-.55h.26v.55ZM696.27,80.9h-.26v-.55h.26v.55ZM696.27,79.95h-.26v-.55h.26v.55ZM696.27,79h-.26v-.55h.26v.55ZM696.27,78.05h-.26v-.55h.26v.55ZM696.27,77.11h-.26v-.55h.26v.55ZM696.27,76.16h-.26v-.55h.26v.55ZM696.27,75.21h-.26v-.55h.26v.55ZM696.27,74.26h-.26v-.55h.26v.55ZM696.27,73.31h-.26v-.55h.26v.55ZM696.27,72.36h-.26v-.55h.26v.55ZM696.27,71.41h-.26v-.55h.26v.55ZM696.27,70.46h-.26v-.55h.26v.55Z"/>
        <rect class="cls-17" x="696.01" y="69.91" width=".26" height=".55"/>
        <rect class="cls-17" x="694.96" y="69.91" width=".26" height=".55"/>
        <path class="cls-22" d="M675.19,74.23v4.76h.42v3.64h2.94v-8.4h-3.36ZM677.1,80.92h-.26v-1.05h.26v1.05ZM677.1,79.12h-.26v-1.05h.26v1.05ZM677.1,77.32h-.26v-1.05h.26v1.05ZM677.1,75.51h-.26v-1.05h.26v1.05Z"/>
        <path class="cls-21" d="M673.65,78.99v3.64h1.96v-3.64h-1.96ZM674.03,79.53h.6v.55h-.6v-.55ZM674.67,81.59h-.6v-.55h.6v.55ZM675.36,80.81h-.6v-.55h.6v.55Z"/>
        <path class="cls-22" d="M696.53,79.7v2.93h2.68v-2.93h-2.68ZM697.35,81.87h-.26v-.55h.26v.55ZM697.35,80.92h-.26v-.55h.26v.55ZM698.41,81.87h-.26v-.55h.26v.55ZM698.41,80.92h-.26v-.55h.26v.55Z"/>
        <polygon class="cls-24" points="678.55 73.3 678.55 74.23 675.21 74.23 676.98 66.15 678.55 73.3"/>
        <rect class="cls-18" x="694.96" y="81.3" width=".26" height=".55"/>
        <rect class="cls-18" x="694.96" y="80.35" width=".26" height=".55"/>
        <rect class="cls-18" x="694.96" y="79.4" width=".26" height=".55"/>
        <rect class="cls-18" x="694.96" y="78.45" width=".26" height=".55"/>
        <rect class="cls-18" x="694.96" y="77.5" width=".26" height=".55"/>
        <rect class="cls-18" x="694.96" y="76.56" width=".26" height=".55"/>
        <rect class="cls-18" x="694.96" y="75.61" width=".26" height=".55"/>
        <rect class="cls-18" x="694.96" y="74.66" width=".26" height=".55"/>
        <rect class="cls-18" x="694.96" y="73.71" width=".26" height=".55"/>
        <rect class="cls-18" x="694.96" y="72.76" width=".26" height=".55"/>
        <rect class="cls-18" x="694.96" y="71.81" width=".26" height=".55"/>
        <rect class="cls-18" x="694.96" y="70.86" width=".26" height=".55"/>
        <rect class="cls-18" x="696.01" y="81.3" width=".26" height=".55"/>
        <rect class="cls-18" x="696.01" y="80.35" width=".26" height=".55"/>
        <rect class="cls-18" x="696.01" y="79.4" width=".26" height=".55"/>
        <rect class="cls-18" x="696.01" y="78.45" width=".26" height=".55"/>
        <rect class="cls-18" x="696.01" y="77.5" width=".26" height=".55"/>
        <rect class="cls-18" x="696.01" y="76.56" width=".26" height=".55"/>
        <rect class="cls-18" x="696.01" y="75.61" width=".26" height=".55"/>
        <rect class="cls-18" x="696.01" y="74.66" width=".26" height=".55"/>
        <rect class="cls-18" x="696.01" y="73.71" width=".26" height=".55"/>
        <rect class="cls-18" x="696.01" y="72.76" width=".26" height=".55"/>
        <rect class="cls-18" x="696.01" y="71.81" width=".26" height=".55"/>
        <rect class="cls-18" x="696.01" y="70.86" width=".26" height=".55"/>
        <rect class="cls-18" x="697.09" y="81.32" width=".26" height=".55"/>
        <rect class="cls-18" x="697.09" y="80.37" width=".26" height=".55"/>
        <rect class="cls-18" x="698.15" y="81.32" width=".26" height=".55"/>
        <rect class="cls-18" x="698.15" y="80.37" width=".26" height=".55"/>
        <polygon class="cls-20" points="699.22 79.7 696.53 79.7 696.53 77.78 699.22 79.7"/>
        <rect class="cls-18" x="679.16" y="81.02" width=".6" height=".55"/>
        <rect class="cls-18" x="679.16" y="80.08" width=".6" height=".55"/>
        <rect class="cls-18" x="679.16" y="79.13" width=".6" height=".55"/>
        <rect class="cls-18" x="679.16" y="78.18" width=".6" height=".55"/>
        <rect class="cls-18" x="679.16" y="77.23" width=".6" height=".55"/>
        <rect class="cls-18" x="679.16" y="76.28" width=".6" height=".55"/>
        <rect class="cls-18" x="679.16" y="75.33" width=".6" height=".55"/>
        <rect class="cls-18" x="679.16" y="74.38" width=".6" height=".55"/>
        <rect class="cls-18" x="679.16" y="73.43" width=".6" height=".55"/>
        <rect class="cls-18" x="679.16" y="72.48" width=".6" height=".55"/>
        <rect class="cls-18" x="679.16" y="71.54" width=".6" height=".55"/>
        <rect class="cls-18" x="679.16" y="70.59" width=".6" height=".55"/>
        <rect class="cls-18" x="680.52" y="81.02" width=".6" height=".55"/>
        <rect class="cls-18" x="680.52" y="80.08" width=".6" height=".55"/>
        <rect class="cls-18" x="680.52" y="79.13" width=".6" height=".55"/>
        <rect class="cls-18" x="680.52" y="78.18" width=".6" height=".55"/>
        <rect class="cls-18" x="680.52" y="77.23" width=".6" height=".55"/>
        <rect class="cls-18" x="680.52" y="76.28" width=".6" height=".55"/>
        <rect class="cls-18" x="680.52" y="75.33" width=".6" height=".55"/>
        <rect class="cls-18" x="680.52" y="74.38" width=".6" height=".55"/>
        <rect class="cls-18" x="680.52" y="73.43" width=".6" height=".55"/>
        <rect class="cls-18" x="680.52" y="72.48" width=".6" height=".55"/>
        <rect class="cls-18" x="680.52" y="71.54" width=".6" height=".55"/>
        <rect class="cls-18" x="680.52" y="70.59" width=".6" height=".55"/>
        <rect class="cls-18" x="681.74" y="81.03" width=".6" height=".55"/>
        <rect class="cls-18" x="681.74" y="80.09" width=".6" height=".55"/>
        <rect class="cls-18" x="681.74" y="79.14" width=".6" height=".55"/>
        <rect class="cls-18" x="681.74" y="78.19" width=".6" height=".55"/>
        <rect class="cls-18" x="681.74" y="77.24" width=".6" height=".55"/>
        <rect class="cls-18" x="681.74" y="76.29" width=".6" height=".55"/>
        <rect class="cls-18" x="681.74" y="75.34" width=".6" height=".55"/>
        <rect class="cls-18" x="681.74" y="74.39" width=".6" height=".55"/>
        <rect class="cls-18" x="681.74" y="73.44" width=".6" height=".55"/>
        <rect class="cls-18" x="681.74" y="72.49" width=".6" height=".55"/>
        <rect class="cls-18" x="681.74" y="71.54" width=".6" height=".55"/>
        <rect class="cls-18" x="681.74" y="70.6" width=".6" height=".55"/>
        <rect class="cls-18" x="687.31" y="80.62" width="6.81" height=".55"/>
        <rect class="cls-18" x="687.31" y="79.67" width="6.81" height=".55"/>
        <rect class="cls-18" x="687.31" y="78.72" width="6.81" height=".55"/>
        <rect class="cls-18" x="687.31" y="77.77" width="6.81" height=".55"/>
        <rect class="cls-18" x="687.31" y="76.82" width="6.81" height=".55"/>
        <rect class="cls-18" x="687.31" y="75.87" width="6.81" height=".55"/>
        <rect class="cls-18" x="676.84" y="79.87" width=".26" height="1.05"/>
        <rect class="cls-18" x="676.84" y="78.07" width=".26" height="1.05"/>
        <rect class="cls-18" x="676.84" y="76.27" width=".26" height="1.05"/>
        <rect class="cls-18" x="676.84" y="74.47" width=".26" height="1.05"/>
        <rect class="cls-18" x="685.87" y="76.41" width=".41" height="5.03"/>
        <rect class="cls-18" x="685.25" y="76.41" width=".41" height="5.03"/>
        <rect class="cls-18" x="684.63" y="76.41" width=".41" height="5.03"/>
        <rect class="cls-18" x="684" y="76.41" width=".41" height="5.03"/>
        <rect class="cls-18" x="683.38" y="76.41" width=".41" height="5.03"/>
        <rect class="cls-18" x="682.76" y="76.41" width=".41" height="5.03"/>
        <rect class="cls-18" x="687.22" y="74.95" width="6.81" height=".55"/>
        <rect class="cls-18" x="674.03" y="79.53" width=".6" height=".55"/>
        <rect class="cls-18" x="674.76" y="80.26" width=".6" height=".55"/>
        <rect class="cls-18" x="674.07" y="81.04" width=".6" height=".55"/>
      </g>
      <g>
        <text class="cls-31" transform="translate(669.6 105.26)"><tspan x="0" y="0">15,750 Km</tspan></text>
        <text class="cls-33" transform="translate(629.38 94.42)"><tspan x="0" y="0">Porcupine, Australia, Oceania</tspan></text>
      </g>
      <g>
        <line class="cls-5" x1="696.25" y1="82.64" y2="82.64"/>
        <path class="cls-26" d="M1.12,82.39c0-.51.35-.89.67-1.18.33-.31.72-.53,1.11-.74.79-.41,1.61-.74,2.44-1.02,1.67-.57,3.38-1,5.09-1.4,3.43-.78,6.9-1.38,10.37-1.92,6.95-1.07,13.93-1.9,20.92-2.64,13.98-1.47,27.99-2.6,42-3.6,28.04-1.99,56.1-3.46,84.18-4.74,56.15-2.5,112.34-4.19,168.53-5.54,28.1-.68,56.19-1.26,84.29-1.75,28.1-.43,56.2-.78,84.3-1.06,28.1-.15,56.21-.23,84.31-.25l42.15.04,42.15.31v.2l-84.3.74c-28.1.25-56.2.57-84.3.97-28.1.27-56.2.61-84.29,1.04-28.1.37-56.19.82-84.29,1.37-56.19,1.14-112.37,2.64-168.52,4.94-28.07,1.15-56.14,2.49-84.18,4.34-14.02.94-28.03,1.99-42,3.4-6.99.71-13.97,1.51-20.91,2.54-3.47.53-6.93,1.11-10.36,1.87-1.71.39-3.42.81-5.07,1.37-.83.28-1.65.6-2.42,1-.38.2-.76.42-1.08.71-.31.28-.61.62-.61,1.03h-.2Z"/>
      </g>
    </g>
    <g>
      <path class="cls-16" d="M673.63,55.48l-.02,2.55c.33-.12.62-.25.83-.39.19-.13.3-.35.31-.58h0c0-.38-.15-.73-.43-.97-.25-.22-.48-.43-.69-.61Z"/>
      <path class="cls-15" d="M673.63,55.48l-.02,2.56c-1.16.42-2.8.68-3.09.67-.12,0-.5,0-1.07,0l.05-5.99c1.3.46,1.8.72,2.68,1.47l-.33-.06h-.45s-.54.09-.54.09l-.1.29v.33s.32.14.32.14l.6-.07.47-.19h.64c.25.22.53.48.85.77Z"/>
      <path class="cls-19" d="M672.78,54.72h-.64s-.47.19-.47.19l-.6.07-.32-.14v-.33s.1-.29.1-.29l.54-.09h.45s.33.07.33.07c.18.15.38.33.6.53Z"/>
      <path class="cls-4" d="M658.55,57.53v1.21c-2.71.02-5.24.05-6.84.08,1.68-.55,1.58-.96,1-1.33l5.84.03Z"/>
      <path class="cls-7" d="M637.18,51.61v.92s-11.23-.1-11.23-.1c-.38-.27-.98-.71-1.41-1.05.11.06.17.09.17.09,3.51.11,7.83.13,12.47.13Z"/>
      <path class="cls-2" d="M651.71,58.83c-1.01.02-1.65.05-1.72.08v-1.12c.17.04.63,0,1.01-.12.5-.17.55-.58.22-.74,0,0-.33-.16-.71-.33-.37-.17-.79-.35-.95-.39-1.29-.33-2.83-.33-3.82-.05-.45.13-1.29.16-1.91.23-.26.03-.45.24-.46.5,0,.08,0,.17,0,.27-.64.22-1.9.27-2.57.26l-1.63-.8c-.3-.15-.65-.19-.98-.09-2.01.58-4.85.43-5.04.13v-.34s.21-.19.21-.19l1.93-.15.95-.28s.02,0,.03-.02c.03-.02.04-.06.04-.09,0-.05-.03-.09-.09-.11l-1.77-.36c-.1-.02-.21-.02-.31,0l-.73.17c-.32.08-.65.11-.97.11h-.28c-.16,0-.33-.01-.49-.03,0,0,0,0,0,0h0c-.26-.02-.52-.06-.77-.11l-.66-.13c-.13-.03-.23-.15-.23-.28,0-.01,0-.02,0-.03,0-.02.01-.04.03-.06s.03-.03.06-.03l.76-.17s.03-.01.04-.03c.01-.01.01-.03.01-.04,0-.03-.02-.06-.06-.07-.11-.02-.24-.05-.4-.09-.1-.02-.2-.04-.32-.07-.11-.02-.23-.05-.35-.08-.09-.02-.18-.04-.28-.06-1.72-.37-4.17-.9-4.17-.9-.67-.33-.98-.58-1.22-.83-.24-.27-.4-.54-.77-.92l-.69-.71s-.03-.04-.03-.06.01-.05.02-.06c.02-.02.04-.03.07-.03h.09c.25,0,.49.07.71.19.31.17.77.42,1.02.56,0,0,0,0,0,0,.43.34,1.04.77,1.41,1.05.06.05.12.09.18.13.02.01.04.03.06.04.03.02.06.04.09.06.04.03.08.06.11.08.02.02.05.03.07.05.02.01.04.03.06.04.11.08.18.12.21.14.01,0,.02.01.02.01,0,0,.01,0,.01,0l4.52.63,1.51.21,3.07.43.31.04.35.05.32.04.33.05h.09s.29.05.29.05l.4.06.22.03,7.24,1.01c1.13.18,2.46.15,3.8.37,1.01.17,3.17,1.29,3.25,1.37,0,0,0,0,0,0l.27.16h0c.58.37.68.79-1,1.33Z"/>
      <polygon class="cls-10" points="612.78 55.85 612.78 56.46 605.95 54.84 605.95 54.46 612.78 55.85"/>
      <path class="cls-10" d="M605.96,53.76v1.08s-4.11-.97-4.11-.97v-.61s1.35.4,1.35.4c.18.05.37.08.56.08l2.21.02Z"/>
      <path class="cls-10" d="M601.85,53.26v.61s-.24-.06-.24-.06c-.23-.06-.4-.26-.41-.5v-.26s.66.2.66.2Z"/>
      <path class="cls-7" d="M624.11,52.42l-11.3-.1v-.55s1.27-.1,1.27-.1c1.25.05,7.2-.19,9.26-.17.37.38.53.66.77.92Z"/>
      <path class="cls-7" d="M614.08,51.67l-1.26.1-6.85.52-1.46.11-.11-.02c.08-.06.12-.17.07-.27l-4.65-10.05c-.05-.11.03-.23.15-.23l3.15.03c.79,0,9.22,9.75,10.97,9.82Z"/>
      <path class="cls-10" d="M609.67,53.47l-.84.26c-.12.04-.25.06-.37.06l-4.71-.04c-.19,0-.38-.03-.56-.08l-1.34-.4-.67-.2-1.36-.57s-.03-.09.02-.09h4.43s.04,0,.04,0h.19s1.46.25,1.46.25l3.69.68c.07.01.08.11,0,.13Z"/>
      <path class="cls-11" d="M604.4,52.37s-.05.03-.08.04"/>
      <path class="cls-15" d="M669.1,52.58c-.59-.2-1.21-.33-1.84-.38-2.61-.2-5.55-.34-8.67-.42v.95s6.5.06,6.5.06l-.04,4.78,4.4.03.04-4.88c-.12-.04-.25-.09-.39-.14ZM665.52,54.89c-.09,0-.16-.12-.16-.26s.07-.26.16-.26.16.12.16.26-.07.26-.16.26ZM667.88,55.15c0,.34-.28.6-.61.6h-.3c-.33,0-.6-.28-.6-.61v-1.3c.01-.34.29-.6.62-.6h.3c.33,0,.6.28.6.61v1.3Z"/>
      <path class="cls-15" d="M658.6,51.78v.95s-21.43-.2-21.43-.2v-.92c6.94,0,14.62-.02,21.43.17Z"/>
      <path class="cls-16" d="M665.06,57.57v1.14c1.82,0,3.4,0,4.39,0v-1.11s-4.39-.03-4.39-.03Z"/>
      <path class="cls-7" d="M665.06,57.57v1.14c-2.01,0-4.32.01-6.52.03v-1.21s6.52.04,6.52.04Z"/>
      <path class="cls-10" d="M651,57.68c-.37.12-.83.16-1,.12v1.12s-.08.96-.08.96c-.01.17-.12.32-.27.39-.67.28-1.95.45-2.81.37-.61.08-4.65-.44-3.57-.66l-.02-.49c0-.1.01-.25.02-.44.02-.45.06-1.09.08-1.63,0-.08,0-.16.01-.23,0-.1,0-.19,0-.27,0-.26.2-.47.46-.5.62-.07,1.46-.11,1.91-.23.99-.28,2.53-.27,3.82.05.16.04.58.22.95.39.37.17.71.33.71.33.32.16.28.57-.22.74Z"/>
      <path class="cls-4" d="M627.83,58.5c-1.76-.09-3.07-.16-3.48-.17h0s-.59.47-.59.47c-.04.03-.1,0-.09-.06.04-.19.09-.47,0-.43-2.34-.11-5.05-.35-6.61-.84l-4.29-1.02v-.6s5.25.92,5.25.92l3.22.31,3.62.14,2.24-.12-.33.4c-.07.09-.08.21,0,.3.09.12.2.21.32.28l.74.42Z"/>
      <path class="cls-4" d="M643.28,59.04c0,.19-.02.34-.02.44h-.05c-.16,0-.29-.11-.33-.27-2.78-.06-10.46-.46-15.05-.71l-.74-.42c-.13-.07-.24-.16-.32-.28-.07-.09-.06-.21,0-.3l.33-.4.95-.05c-.07.11.37.2.37.2l1.76.36,5,.41,6.02.13c-.19.07-.2.34,0,.42.34.15.82.3,1.08.39.12.04.25.06.38.07h.61Z"/>
      <path class="cls-11" d="M643.37,57.17s0,0,0,0"/>
      <path class="cls-11" d="M624.53,51.39s0,0,0,0"/>
      <path class="cls-10" d="M643.36,57.41c-.02.54-.05,1.19-.08,1.63h-.61c-.13,0-.25-.03-.38-.07-.26-.09-.73-.25-1.08-.39-.19-.08-.19-.35,0-.42.56-.22,1.41-.53,1.71-.43v-.06c0-.18.18-.32.36-.27l.07.02Z"/>
      <line class="cls-11" x1="604.4" y1="52.37" x2="604.39" y2="52.37"/>
      <line class="cls-11" x1="669.44" y1="58.71" x2="669.44" y2="58.71"/>
      <line class="cls-11" x1="649.19" y1="55.97" x2="649.22" y2="52.65"/>
      <line class="cls-11" x1="637.18" y1="51.59" x2="637.18" y2="51.61"/>
      <line class="cls-11" x1="624.9" y1="53.03" x2="624.87" y2="57.23"/>
      <polygon class="cls-12" points="605.97 52.28 605.97 52.66 604.51 52.39 605.97 52.28"/>
      <path class="cls-10" d="M612.82,51.76l-.04,4.09-6.83-1.39v-.7s2.5.02,2.5.02c.13,0,.25-.02.37-.06l.84-.26c.07-.02.06-.12,0-.13l-3.69-.68v-.38s6.85-.52,6.85-.52Z"/>
      <line class="cls-11" x1="605.97" y1="52.22" x2="605.97" y2="52.28"/>
      <path class="cls-12" d="M636.23,55.5l-1.77-.36c-.1-.02-.21-.02-.31,0l-.73.17c-.32.08-.65.11-.97.11h-.28c-.16,0-.33-.01-.49-.03,0,0,0,0,0,0h0c-.26-.02-.52-.06-.77-.11l-.66-.13c-.13-.03-.23-.15-.23-.28,0-.01,0-.02,0-.03,0-.02.01-.04.03-.06s.03-.03.06-.03l.76-.17s.03-.01.04-.03c.01-.01.01-.03.01-.04,0-.03-.02-.06-.06-.07-.11-.02-.24-.05-.4-.09-.01.13-.08.22-.16.22-.09,0-.16-.12-.16-.26,0,0,0-.02,0-.03-.11-.02-.23-.05-.35-.08,0,.03.01.06.01.1,0,.15-.07.26-.16.26s-.16-.12-.16-.26c0-.06.01-.11.03-.15-1.72-.37-4.17-.9-4.17-.9-.67-.33-.98-.58-1.22-.83l-11.3-.1-.03,3.54,5.25.92,3.22.31,3.62.14,2.24-.12.95-.05c.05-.08,1.87-.71,2.82-1.03.37-.13.76-.16,1.15-.1l1.32.21,1.93-.15.95-.28s.02,0,.03-.02c.03-.02.04-.06.04-.09,0-.05-.03-.09-.09-.11ZM616.36,54.7c0,.34-.28.6-.61.6h-.3c-.34,0-.6-.28-.6-.61v-1.3c.01-.34.29-.6.62-.6h.3c.34,0,.6.28.6.61v1.3ZM617.4,54.47c-.09,0-.16-.12-.16-.26s.07-.26.16-.26.16.12.16.26-.07.26-.16.26ZM618.08,54.47c-.09,0-.16-.12-.16-.26s.07-.26.16-.26.16.12.16.26-.07.26-.16.26ZM618.73,54.48c-.09,0-.16-.12-.16-.26s.07-.26.16-.26.16.12.16.26-.07.26-.16.26ZM619.51,54.49c-.09,0-.16-.12-.16-.26s.07-.26.16-.26.16.12.16.26-.07.26-.16.26ZM620.18,54.49c-.09,0-.16-.12-.16-.26s.07-.26.16-.26.16.12.16.26-.07.26-.16.26ZM620.97,54.5c-.09,0-.16-.12-.16-.26s.07-.26.16-.26.16.12.16.26-.07.26-.16.26ZM621.63,54.5c-.09,0-.16-.12-.16-.26s.07-.26.16-.26.16.12.16.26-.07.26-.16.26ZM622.4,54.51c-.09,0-.16-.12-.16-.26s.07-.26.16-.26.16.12.16.26-.07.26-.16.26ZM623.08,54.52c-.09,0-.16-.12-.16-.26s.07-.26.16-.26.16.12.16.26-.07.26-.16.26ZM623.84,54.52c-.09,0-.16-.12-.16-.26s.07-.26.16-.26.16.12.16.26-.07.26-.16.26ZM624.5,54.53c-.09,0-.16-.12-.16-.26s.07-.26.16-.26.16.12.16.26-.07.26-.16.26ZM625.27,54.54c-.09,0-.16-.12-.16-.26s.07-.26.16-.26.16.12.16.26-.07.26-.16.26ZM625.94,54.54c-.09,0-.16-.12-.16-.26s.07-.26.16-.26.16.12.16.26-.07.26-.16.26ZM626.8,54.55c-.09,0-.16-.12-.16-.26s.07-.26.16-.26.16.12.16.26-.07.26-.16.26ZM627.46,54.56c-.09,0-.16-.12-.16-.26s.07-.26.16-.26.16.12.16.26-.07.26-.16.26ZM628.23,54.56c-.09,0-.16-.12-.16-.26s.07-.26.16-.26.16.12.16.26-.07.26-.16.26ZM628.9,54.57c-.09,0-.16-.12-.16-.26s.07-.26.16-.26.16.12.16.26-.07.26-.16.26Z"/>
      <ellipse class="cls-19" cx="620.18" cy="54.23" rx=".26" ry=".16" transform="translate(560.57 673.92) rotate(-89.5)"/>
      <path class="cls-10" d="M643.37,57.17c0,.07,0,.15-.01.23l-.07-.02c-.18-.05-.35.09-.36.27v.06c-.3-.11-1.15.21-1.71.43l-6.02-.13-5-.41-1.76-.36s-.44-.09-.37-.2c.05-.08,1.87-.71,2.82-1.03.37-.13.76-.16,1.15-.1l1.32.21-.21.19v.34c.18.3,3.03.45,5.04-.13.33-.1.68-.06.98.09l1.63.8c.67.01,1.93-.04,2.57-.26Z"/>
      <path class="cls-19" d="M629.79,54.31c0,.15-.07.26-.16.26s-.16-.12-.16-.26c0-.06.01-.11.03-.15.09.02.19.04.28.06,0,.03.01.06.01.1Z"/>
      <path class="cls-19" d="M630.45,54.36c-.01.13-.08.22-.16.22-.09,0-.16-.12-.16-.26,0,0,0-.02,0-.03.11.03.22.05.32.07Z"/>
      <path class="cls-7" d="M666.48,53.73h1.3c.33,0,.61.27.61.61v.3c0,.33-.27.61-.61.61h-1.3c-.33,0-.6-.27-.6-.6v-.3c0-.33.27-.61.61-.61Z" transform="translate(606.85 721.12) rotate(-89.5)"/>
      <ellipse class="cls-19" cx="665.52" cy="54.62" rx=".26" ry=".16" transform="translate(605.12 719.64) rotate(-89.5)"/>
      <path class="cls-16" d="M658.59,52.73l-.04,4.8,6.51.04.04-4.78-6.51-.06ZM658.94,54.83c-.09,0-.16-.12-.16-.26s.07-.26.16-.26.16.12.16.26-.07.26-.16.26ZM659.72,54.84c-.09,0-.16-.12-.16-.26s.07-.26.16-.26.16.12.16.26-.07.26-.16.26ZM660.37,54.84c-.09,0-.16-.12-.16-.26s.07-.26.16-.26.16.12.16.26-.07.26-.16.26ZM661.15,54.85c-.09,0-.16-.12-.16-.26s.07-.26.16-.26.16.12.16.26-.07.26-.16.26ZM661.82,54.85c-.09,0-.16-.12-.16-.26s.07-.26.16-.26.16.12.16.26-.07.26-.16.26ZM662.59,54.86c-.09,0-.16-.12-.16-.26s.07-.26.16-.26.16.12.16.26-.07.26-.16.26ZM663.33,54.87c-.09,0-.16-.12-.16-.26s.07-.26.16-.26.16.12.16.26-.07.26-.16.26ZM664.1,54.87c-.09,0-.16-.12-.16-.26s.07-.26.16-.26.16.12.16.26-.07.26-.16.26ZM664.74,54.88c-.09,0-.16-.12-.16-.26s.07-.26.16-.26.16.12.16.26-.07.26-.16.26Z"/>
      <path class="cls-19" d="M659.88,54.57c0,.15-.07.26-.16.26s-.16-.12-.16-.26.07-.26.16-.26.16.12.16.26Z"/>
      <path class="cls-19" d="M660.54,54.58c0,.15-.07.26-.16.26s-.16-.12-.16-.26.07-.26.16-.26.16.12.16.26Z"/>
      <path class="cls-19" d="M661.31,54.59c0,.15-.07.26-.16.26s-.16-.12-.16-.26.07-.26.16-.26.16.12.16.26Z"/>
      <ellipse class="cls-19" cx="661.82" cy="54.59" rx=".26" ry=".16" transform="translate(601.49 715.91) rotate(-89.5)"/>
      <path class="cls-19" d="M662.76,54.6c0,.15-.07.26-.16.26s-.16-.12-.16-.26.07-.26.16-.26.16.12.16.26Z"/>
      <ellipse class="cls-19" cx="663.33" cy="54.6" rx=".26" ry=".16" transform="translate(602.97 717.43) rotate(-89.5)"/>
      <path class="cls-19" d="M664.26,54.61c0,.15-.07.26-.16.26s-.16-.12-.16-.26.07-.26.16-.26.16.12.16.26Z"/>
      <path class="cls-19" d="M664.9,54.62c0,.15-.07.26-.16.26s-.16-.12-.16-.26.07-.26.16-.26.16.12.16.26Z"/>
      <ellipse class="cls-19" cx="658.94" cy="54.57" rx=".26" ry=".16" transform="translate(598.66 713.01) rotate(-89.5)"/>
      <path class="cls-19" d="M629.06,54.31c0,.15-.07.26-.16.26s-.16-.12-.16-.26.07-.26.16-.26.16.12.16.26Z"/>
      <ellipse class="cls-19" cx="628.24" cy="54.3" rx=".26" ry=".16" transform="translate(568.48 682.04) rotate(-89.5)"/>
      <ellipse class="cls-19" cx="627.46" cy="54.29" rx=".26" ry=".16" transform="translate(567.72 681.25) rotate(-89.5)"/>
      <ellipse class="cls-19" cx="626.8" cy="54.29" rx=".26" ry=".16" transform="translate(567.08 680.59) rotate(-89.5)"/>
      <ellipse class="cls-19" cx="625.94" cy="54.28" rx=".26" ry=".16" transform="translate(566.23 679.73) rotate(-89.5)"/>
      <path class="cls-19" d="M625.43,54.27c0,.15-.07.26-.16.26s-.16-.12-.16-.26.07-.26.16-.26.16.12.16.26Z"/>
      <path class="cls-19" d="M624.66,54.27c0,.15-.07.26-.16.26s-.16-.12-.16-.26.07-.26.16-.26.16.12.16.26Z"/>
      <path class="cls-19" d="M624,54.26c0,.15-.07.26-.16.26s-.16-.12-.16-.26.07-.26.16-.26.16.12.16.26Z"/>
      <path class="cls-19" d="M623.24,54.26c0,.15-.07.26-.16.26s-.16-.12-.16-.26.07-.26.16-.26.16.12.16.26Z"/>
      <ellipse class="cls-19" cx="622.41" cy="54.25" rx=".26" ry=".16" transform="translate(562.76 676.16) rotate(-89.5)"/>
      <ellipse class="cls-19" cx="621.63" cy="54.24" rx=".26" ry=".16" transform="translate(562 675.38) rotate(-89.5)"/>
      <ellipse class="cls-19" cx="620.98" cy="54.24" rx=".26" ry=".16" transform="translate(561.35 674.72) rotate(-89.5)"/>
      <ellipse class="cls-19" cx="619.51" cy="54.22" rx=".26" ry=".16" transform="translate(559.91 673.24) rotate(-89.5)"/>
      <path class="cls-19" d="M618.89,54.22c0,.15-.07.26-.16.26s-.16-.12-.16-.26.07-.26.16-.26.16.12.16.26Z"/>
      <path class="cls-19" d="M618.24,54.21c0,.15-.07.26-.16.26s-.16-.12-.16-.26.07-.26.16-.26.16.12.16.26Z"/>
      <ellipse class="cls-19" cx="617.4" cy="54.2" rx=".26" ry=".16" transform="translate(557.84 671.11) rotate(-89.5)"/>
      <path class="cls-7" d="M637.17,52.54l-.02,1.91h.09s0-.04,0-.07c0-.14.07-.26.16-.26s.16.12.16.26c0,.05,0,.09-.02.12l.4.06s-.04-.11-.04-.18c0-.14.07-.26.16-.26s.16.12.16.26c0,.08-.03.16-.06.2l7.24,1.01c1.13.18,2.46.15,3.8.37,1.01.17,3.17,1.29,3.25,1.37,0,0,0,0,0,0,.1.05.19.1.27.16h0s5.84.03,5.84.03l.04-4.8-21.42-.2ZM638.82,54.65c-.09,0-.16-.12-.16-.26s.07-.26.16-.26.16.12.16.26-.07.26-.16.26ZM639.49,54.66c-.09,0-.16-.12-.16-.26s.07-.26.16-.26.16.12.16.26-.07.26-.16.26ZM640.36,54.67c-.09,0-.16-.12-.16-.26s.07-.26.16-.26.16.12.16.26-.07.26-.16.26ZM641.02,54.67c-.09,0-.16-.12-.16-.26s.07-.26.16-.26.16.12.16.26-.07.26-.16.26ZM641.79,54.68c-.09,0-.16-.12-.16-.26s.07-.26.16-.26.16.12.16.26-.07.26-.16.26ZM642.46,54.69c-.09,0-.16-.12-.16-.26s.07-.26.16-.26.16.12.16.26-.07.26-.16.26ZM643.24,54.69c-.09,0-.16-.12-.16-.26s.07-.26.16-.26.16.12.16.26-.07.26-.16.26ZM643.9,54.7c-.09,0-.16-.12-.16-.26s.07-.26.16-.26.16.12.16.26-.07.26-.16.26ZM644.67,54.7c-.09,0-.16-.12-.16-.26s.07-.26.16-.26.16.12.16.26-.07.26-.16.26ZM645.34,54.71c-.09,0-.16-.12-.16-.26s.07-.26.16-.26.16.12.16.26-.07.26-.16.26ZM646.13,54.72c-.09,0-.16-.12-.16-.26s.07-.26.16-.26.16.12.16.26-.07.26-.16.26ZM646.78,54.72c-.09,0-.16-.12-.16-.26s.07-.26.16-.26.16.12.16.26-.07.26-.16.26ZM647.56,54.73c-.09,0-.16-.12-.16-.26s.07-.26.16-.26.16.12.16.26-.07.26-.16.26ZM648.23,54.74c-.09,0-.16-.12-.16-.26s.07-.26.16-.26.16.12.16.26-.07.26-.16.26ZM648.98,54.74c-.09,0-.16-.12-.16-.26s.07-.26.16-.26.16.12.16.26-.07.26-.16.26ZM649.63,54.75c-.09,0-.16-.12-.16-.26s.07-.26.16-.26.16.12.16.26-.07.26-.16.26ZM650.41,54.75c-.09,0-.16-.12-.16-.26s.07-.26.16-.26.16.12.16.26-.07.26-.16.26ZM651.08,54.76c-.09,0-.16-.12-.16-.26s.07-.26.16-.26.16.12.16.26-.07.26-.16.26ZM651.87,54.77c-.09,0-.16-.12-.16-.26s.07-.26.16-.26.16.12.16.26-.07.26-.16.26ZM654.29,55.03c0,.34-.28.6-.61.6h-.3c-.34,0-.6-.28-.6-.61v-1.3c.01-.34.29-.6.62-.6h.3c.34,0,.6.28.6.61v1.3ZM655.43,54.8c-.09,0-.16-.12-.16-.26s.07-.26.16-.26.16.12.16.26-.07.26-.16.26ZM656.08,54.8c-.09,0-.16-.12-.16-.26s.07-.26.16-.26.16.12.16.26-.07.26-.16.26ZM656.86,54.81c-.09,0-.16-.12-.16-.26s.07-.26.16-.26.16.12.16.26-.07.26-.16.26ZM657.53,54.82c-.09,0-.16-.12-.16-.26s.07-.26.16-.26.16.12.16.26-.07.26-.16.26ZM658.31,54.82c-.09,0-.16-.12-.16-.26s.07-.26.16-.26.16.12.16.26-.07.26-.16.26Z"/>
      <path class="cls-19" d="M637.56,54.38s0,.09-.02.12l-.29-.04s0-.06,0-.09c0-.14.07-.26.16-.26s.16.12.16.26Z"/>
      <path class="cls-19" d="M638.21,54.39c0,.08-.03.16-.06.2l-.22-.03s-.04-.11-.04-.18c0-.14.07-.26.16-.26s.16.12.16.26Z"/>
      <path class="cls-19" d="M638.99,54.39c0,.15-.07.26-.16.26s-.16-.12-.16-.26.07-.26.16-.26.16.12.16.26Z"/>
      <ellipse class="cls-19" cx="639.5" cy="54.4" rx=".26" ry=".16" transform="translate(579.55 693.4) rotate(-89.5)"/>
      <ellipse class="cls-19" cx="640.36" cy="54.4" rx=".26" ry=".16" transform="translate(580.4 694.27) rotate(-89.5)"/>
      <ellipse class="cls-19" cx="641.02" cy="54.41" rx=".26" ry=".16" transform="translate(581.05 694.93) rotate(-89.5)"/>
      <ellipse class="cls-19" cx="641.79" cy="54.42" rx=".26" ry=".16" transform="translate(581.81 695.71) rotate(-89.5)"/>
      <path class="cls-19" d="M642.63,54.42c0,.15-.07.26-.16.26s-.16-.12-.16-.26.07-.26.16-.26.16.12.16.26Z"/>
      <path class="cls-19" d="M643.4,54.43c0,.15-.07.26-.16.26s-.16-.12-.16-.26.07-.26.16-.26.16.12.16.26Z"/>
      <path class="cls-19" d="M644.06,54.44c0,.15-.07.26-.16.26s-.16-.12-.16-.26.07-.26.16-.26.16.12.16.26Z"/>
      <ellipse class="cls-19" cx="644.67" cy="54.44" rx=".26" ry=".16" transform="translate(584.64 698.62) rotate(-89.5)"/>
      <ellipse class="cls-19" cx="645.34" cy="54.45" rx=".26" ry=".16" transform="translate(585.3 699.3) rotate(-89.5)"/>
      <ellipse class="cls-19" cx="646.13" cy="54.45" rx=".26" ry=".16" transform="translate(586.07 700.09) rotate(-89.5)"/>
      <ellipse class="cls-19" cx="646.78" cy="54.46" rx=".26" ry=".16" transform="translate(586.71 700.75) rotate(-89.5)"/>
      <ellipse class="cls-19" cx="647.56" cy="54.47" rx=".26" ry=".16" transform="translate(587.47 701.53) rotate(-89.5)"/>
      <path class="cls-19" d="M648.39,54.47c0,.15-.07.26-.16.26s-.16-.12-.16-.26.07-.26.16-.26.16.12.16.26Z"/>
      <ellipse class="cls-19" cx="648.98" cy="54.48" rx=".26" ry=".16" transform="translate(588.87 702.96) rotate(-89.5)"/>
      <ellipse class="cls-19" cx="649.63" cy="54.48" rx=".26" ry=".16" transform="translate(589.51 703.62) rotate(-89.5)"/>
      <ellipse class="cls-19" cx="650.41" cy="54.49" rx=".26" ry=".16" transform="translate(590.27 704.4) rotate(-89.5)"/>
      <path class="cls-19" d="M651.24,54.5c0,.15-.07.26-.16.26s-.16-.12-.16-.26.07-.26.16-.26.16.12.16.26Z"/>
      <ellipse class="cls-19" cx="651.88" cy="54.5" rx=".26" ry=".16" transform="translate(591.72 705.88) rotate(-89.5)"/>
      <ellipse class="cls-19" cx="655.43" cy="54.53" rx=".26" ry=".16" transform="translate(595.21 709.47) rotate(-89.5)"/>
      <ellipse class="cls-19" cx="656.09" cy="54.54" rx=".26" ry=".16" transform="translate(595.85 710.13) rotate(-89.5)"/>
      <ellipse class="cls-19" cx="656.86" cy="54.55" rx=".26" ry=".16" transform="translate(596.61 710.91) rotate(-89.5)"/>
      <ellipse class="cls-19" cx="657.53" cy="54.55" rx=".26" ry=".16" transform="translate(597.27 711.59) rotate(-89.5)"/>
      <ellipse class="cls-19" cx="658.31" cy="54.56" rx=".26" ry=".16" transform="translate(598.03 712.37) rotate(-89.5)"/>
      <rect class="cls-7" x="652.28" y="53.62" width="2.52" height="1.51" rx=".61" ry=".61" transform="translate(593.49 707.41) rotate(-89.5)"/>
      <path class="cls-19" d="M636.83,54.37s0,.02,0,.03l-.32-.04c0-.14.08-.25.16-.25s.16.12.16.26Z"/>
      <path class="cls-7" d="M632.78,53.54v.3s-1.51-.21-1.51-.21v-.1c0-.34.28-.6.61-.6h.3c.34,0,.6.28.6.61Z"/>
      <path class="cls-19" d="M636.16,54.31l-.31-.04c.02-.1.08-.17.15-.17.08,0,.14.09.15.21Z"/>
      <path class="cls-7" d="M637.17,52.54l-.02,1.91-.33-.05s0-.02,0-.03c0-.14-.07-.26-.16-.26s-.16.11-.16.25l-.35-.05c-.02-.12-.08-.21-.15-.21-.07,0-.13.07-.15.17l-3.07-.43v-.3c0-.34-.26-.61-.6-.61h-.3c-.33,0-.61.26-.61.6v.1s-4.52-.63-4.52-.63c0,0,0,0-.01,0,0,0-.01,0-.02-.01-.03-.02-.1-.06-.21-.14-.02-.01-.04-.03-.06-.04-.02-.02-.04-.03-.07-.05-.03-.02-.07-.05-.11-.08-.03-.02-.06-.04-.09-.06-.02-.01-.04-.03-.06-.04-.05-.04-.11-.08-.18-.13l11.23.1Z"/>
      <path class="cls-10" d="M626.51,52.84s-.08-.05-.13-.09c.05.03.09.06.13.09Z"/>
      <rect class="cls-7" x="614.35" y="53.29" width="2.52" height="1.51" rx=".61" ry=".61" transform="translate(556.22 669.16) rotate(-89.5)"/>
    </g>
  </g>
</svg>