<?xml version="1.0" encoding="UTF-8"?>
<svg id="Layer_2" data-name="Layer 2" xmlns="http://www.w3.org/2000/svg" xmlns:xlink="http://www.w3.org/1999/xlink" viewBox="0 0 773.72 109.56">
  <defs>
    <style>
      .cls-1 {
        fill: #58595b;
      }

      .cls-1, .cls-2, .cls-3, .cls-4, .cls-5, .cls-6, .cls-7, .cls-8, .cls-9, .cls-10, .cls-11, .cls-12, .cls-13, .cls-14, .cls-15, .cls-16, .cls-17, .cls-18, .cls-19, .cls-20, .cls-21, .cls-22, .cls-23, .cls-24 {
        stroke: #231f20;
        stroke-miterlimit: 10;
      }

      .cls-1, .cls-8, .cls-9, .cls-10, .cls-13, .cls-14, .cls-15, .cls-17, .cls-18, .cls-19 {
        stroke-width: .25px;
      }

      .cls-2 {
        stroke-width: 3px;
      }

      .cls-2, .cls-25 {
        fill: #7acfef;
      }

      .cls-3 {
        fill: #594a42;
      }

      .cls-4, .cls-9, .cls-11 {
        fill: none;
      }

      .cls-5 {
        fill: #6d6e71;
      }

      .cls-26 {
        fill: url(#linear-gradient);
      }

      .cls-6 {
        fill: #489478;
      }

      .cls-6, .cls-11, .cls-23 {
        stroke-width: .75px;
      }

      .cls-7, .cls-18 {
        fill: #939598;
      }

      .cls-8, .cls-27 {
        fill: #808285;
      }

      .cls-10 {
        fill: #a7a9ac;
      }

      .cls-12 {
        fill: #754c29;
      }

      .cls-28, .cls-15 {
        fill: #f1f2f2;
      }

      .cls-29, .cls-30 {
        font-family: Arial-Black, 'Arial Black';
        font-weight: 800;
      }

      .cls-13 {
        fill: #e6e7e8;
      }

      .cls-14 {
        fill: #d1d3d4;
      }

      .cls-31, .cls-32 {
        font-size: 10px;
      }

      .cls-31, .cls-33 {
        font-family: BodoniSvtyTwoSCITCTT-Book, 'Bodoni 72 Smallcaps';
      }

      .cls-33 {
        font-size: 9.63px;
      }

      .cls-34 {
        font-size: 12px;
      }

      .cls-35 {
        fill: #fff;
      }

      .cls-16, .cls-17 {
        fill: #f9ed32;
      }

      .cls-19 {
        fill: #5697b3;
      }

      .cls-20 {
        fill: #be1e2d;
      }

      .cls-30 {
        font-size: 16px;
        letter-spacing: 0em;
      }

      .cls-36 {
        letter-spacing: .06em;
      }

      .cls-21 {
        fill: #3c2415;
      }

      .cls-37 {
        letter-spacing: .03em;
      }

      .cls-22 {
        fill: #414042;
      }

      .cls-23 {
        fill: #5cbd99;
      }

      .cls-24 {
        fill: #a97c50;
      }
    </style>
    <linearGradient id="linear-gradient" x1="-.9" y1="74.75" x2="631.71" y2="74.75" gradientUnits="userSpaceOnUse">
      <stop offset="0" stop-color="#fff"/>
      <stop offset=".89" stop-color="#231f20"/>
    </linearGradient>
  </defs>
  <g id="Layer_6" data-name="Layer 6">
    <g id="Layer_7" data-name="Layer 7">
      <g>
        <rect class="cls-2" x="30.58" y="32.94" width="669.79" height="40.03"/>
        <path class="cls-27" d="M105.9,56.06s-.03.01-.05.01c0,0,0-.02,0-.02.02,0,.03.01.05.01Z"/>
        <path class="cls-27" d="M105.9,56.06s-.03.01-.05.01c0,0,0-.02,0-.02.02,0,.03.01.05.01Z"/>
        <path class="cls-27" d="M152.76,47.18c0-2.23-4.14-4.04-9.25-4.04-4.46,0-8.17,1.37-9.04,3.21-1.99-.41-4.34-.64-6.85-.64-4.75,0-8.89.83-11.14,2.07-1.43-.71-3.54-1.16-5.9-1.16-2.99,0-5.59.72-6.9,1.79-.47-.03-.94-.05-1.43-.05-3.67,0-6.65.91-6.65,2.04,0,.63.93,1.19,2.39,1.56-.45.41-.7.87-.7,1.35,0,.29.09.57.27.84-.38-.03-.78-.04-1.19-.04-2.96,0-5.35.69-5.35,1.53,0,.33.36.63.98.88-.63.31-.98.65-.98,1.03,0,1.22,3.83,2.21,8.56,2.21,4.38,0,7.99-.85,8.49-1.95,1.84.63,4.66,1.03,7.82,1.03,2.94,0,5.59-.35,7.42-.9.76.09,1.66.14,2.63.14,1.54,0,2.92-.13,3.83-.34,2.2.69,5.04,1.1,8.14,1.1,6.99,0,12.66-2.1,12.66-4.69,0-1.27-1.35-2.41-3.53-3.25,3.36-.61,5.72-2.05,5.72-3.73ZM105.84,56.07s0-.02,0-.02c.02,0,.03.01.05.01-.02.01-.03.01-.05.01Z"/>
        <path class="cls-27" d="M105.9,56.06s-.03.01-.05.01c0,0,0-.02,0-.02.02,0,.03.01.05.01Z"/>
        <g>
          <path class="cls-25" d="M60.29,44.24s-.04.08-.06.12c-.06-.04-.12-.07-.19-.1.08,0,.16-.01.25-.02Z"/>
          <path class="cls-28" d="M111.14,53.33c0,1.24-1.78,2.25-3.97,2.25-1.07,0-2.03-.24-2.74-.63-.97.57-2.2,1.1-3.66,1.6,1.54.36,2.44.81,2.44,1.29,0,1.24-6.06,2.25-13.54,2.25-2.72,0-5.26-.13-7.38-.36h-.01c-3.29.24-6.78.36-10.4.36-3.88,0-7.61-.15-11.09-.42-.6.78-1.8,1.32-3.19,1.32-1.78,0-3.26-.88-3.55-2.03-3.82-.52-7.18-1.22-9.89-2.03-.43.13-.91.21-1.42.21-1.74,0-3.15-.85-3.15-1.9,0-.04,0-.09.01-.13-.73-.4-1.33-.83-1.78-1.26-.36.04-.74.06-1.13.06-2.38,0-4.31-.81-4.31-1.8s1.93-1.8,4.31-1.8c.29,0,.57.01.84.04.74-.87,2.07-1.68,3.88-2.43-.26-.55-.41-1.14-.41-1.75,0-3.19,3.92-5.77,8.75-5.77,3.55,0,6.6,1.39,7.97,3.39.04,0,.09,0,.13,0,.85,0,1.62.18,2.21.47.07.03.13.06.19.1.02-.04.04-.08.06-.12.42-.9,1.34-1.53,2.41-1.53.95,0,1.78.49,2.25,1.23.27-.01.54-.02.81-.04.75-1.23,2.53-2.1,4.6-2.1.55,0,1.07.06,1.56.18.31-1.64,1.74-2.88,3.47-2.88,1.27,0,2.38.67,3,1.66,1.22-.24,2.59-.37,4.03-.37,4.93,0,8.97,1.55,9.36,3.51.52-.08,1.1-.12,1.7-.12,2.42,0,4.38.7,4.38,1.56,0,.35-.31.67-.84.92.73.18,1.42.36,2.08.55.53-.41,1.2-.65,1.92-.65,1.55,0,2.84,1.12,3.11,2.6,1.32.73,2.19,1.51,2.55,2.32.15-.01.31-.02.46-.02,2.19,0,3.97,1.01,3.97,2.25Z"/>
        </g>
        <path class="cls-35" d="M246.08,61.1c.19.27.28.54.28.82,0,3.31-13.06,5.98-29.16,5.98-2.93,0-5.75-.09-8.41-.26-1.51,1.15-3.39,1.83-5.43,1.83-2.21,0-4.23-.79-5.79-2.11-4.06.34-8.67.54-13.56.54-16.29,0-29.49-2.16-29.49-4.82,0-2.31,9.91-4.23,23.15-4.7-1.22-.72-1.92-1.55-1.92-2.44,0-2.81,6.96-5.08,15.54-5.08,1.43,0,2.81.06,4.13.18,1.56-1.67,4.5-2.8,7.86-2.8,1.32,0,2.57.17,3.7.48,5.95-1.74,14.86-2.84,24.79-2.84,17.93,0,32.47,3.59,32.47,8.02,0,3.16-7.41,5.89-18.17,7.19Z"/>
        <g>
          <path class="cls-25" d="M334.78,44.09s-.04.08-.06.12c-.06-.04-.12-.07-.19-.1.08,0,.16-.01.25-.02Z"/>
          <path class="cls-28" d="M385.63,53.18c0,1.24-1.78,2.25-3.97,2.25-1.07,0-2.03-.24-2.74-.63-.97.57-2.2,1.1-3.66,1.6,1.54.36,2.44.81,2.44,1.29,0,1.24-6.06,2.25-13.54,2.25-2.72,0-5.26-.13-7.38-.36h-.01c-3.29.24-6.78.36-10.4.36-3.88,0-7.61-.15-11.09-.42-.6.78-1.8,1.32-3.19,1.32-1.78,0-3.26-.88-3.55-2.03-3.82-.52-7.18-1.22-9.89-2.03-.43.13-.91.21-1.42.21-1.74,0-3.15-.85-3.15-1.9,0-.04,0-.09.01-.13-.73-.4-1.33-.83-1.78-1.26-.36.04-.74.06-1.13.06-2.38,0-4.31-.81-4.31-1.8s1.93-1.8,4.31-1.8c.29,0,.57.01.84.04.74-.87,2.07-1.68,3.88-2.43-.26-.55-.41-1.14-.41-1.75,0-3.19,3.92-5.77,8.75-5.77,3.55,0,6.6,1.39,7.97,3.39.04,0,.09,0,.13,0,.85,0,1.62.18,2.21.47.07.03.13.06.19.1.02-.04.04-.08.06-.12.42-.9,1.34-1.53,2.41-1.53.95,0,1.78.49,2.25,1.23.27-.01.54-.02.81-.04.75-1.23,2.53-2.1,4.6-2.1.55,0,1.07.06,1.56.18.31-1.64,1.74-2.88,3.47-2.88,1.27,0,2.38.67,3,1.66,1.22-.24,2.59-.37,4.03-.37,4.93,0,8.97,1.55,9.36,3.51.52-.08,1.1-.12,1.7-.12,2.42,0,4.38.7,4.38,1.56,0,.35-.31.67-.84.92.73.18,1.42.36,2.08.55.53-.41,1.2-.65,1.92-.65,1.55,0,2.84,1.12,3.11,2.6,1.32.73,2.19,1.51,2.55,2.32.15-.01.31-.02.46-.02,2.19,0,3.97,1.01,3.97,2.25Z"/>
        </g>
        <path class="cls-35" d="M371.77,58.38c.09.14.14.27.14.41,0,1.65-6.53,2.99-14.58,2.99-1.46,0-2.87-.05-4.2-.13-.76.57-1.7.92-2.71.92-1.1,0-2.11-.4-2.89-1.06-2.03.17-4.34.27-6.78.27-8.15,0-14.75-1.08-14.75-2.41,0-1.15,4.96-2.11,11.58-2.35-.61-.36-.96-.78-.96-1.22,0-1.4,3.48-2.54,7.77-2.54.71,0,1.41.03,2.06.09.78-.84,2.25-1.4,3.93-1.4.66,0,1.28.09,1.85.24,2.98-.87,7.43-1.42,12.4-1.42,8.97,0,16.23,1.79,16.23,4.01,0,1.58-3.71,2.95-9.09,3.6Z"/>
        <path class="cls-27" d="M460.32,49.96c0-2.23-4.14-4.04-9.25-4.04-4.46,0-8.17,1.37-9.04,3.21-1.99-.41-4.34-.64-6.85-.64-4.75,0-8.89.83-11.14,2.07-1.43-.71-3.54-1.16-5.9-1.16-2.99,0-5.59.72-6.9,1.79-.47-.03-.94-.05-1.43-.05-3.67,0-6.65.91-6.65,2.04,0,.63.93,1.19,2.39,1.56-.45.41-.7.87-.7,1.35,0,.29.09.57.27.84-.38-.03-.78-.04-1.19-.04-2.96,0-5.35.69-5.35,1.53,0,.33.36.63.98.88-.63.31-.98.65-.98,1.03,0,1.22,3.83,2.21,8.56,2.21,4.38,0,7.99-.85,8.49-1.95,1.84.63,4.66,1.03,7.82,1.03,2.94,0,5.59-.35,7.42-.9.76.09,1.66.14,2.63.14,1.54,0,2.92-.13,3.83-.34,2.2.69,5.04,1.1,8.14,1.1,6.99,0,12.66-2.1,12.66-4.69,0-1.27-1.35-2.41-3.53-3.25,3.36-.61,5.72-2.05,5.72-3.73ZM413.4,58.85s0-.02,0-.02c.02,0,.03.01.05.01-.02.01-.03.01-.05.01Z"/>
        <path class="cls-35" d="M436.54,49.26c-.16-.29-.23-.56-.21-.84.28-3.3,13.52-4.85,29.56-3.49,2.91.25,5.72.58,8.35.97,1.6-1.02,3.53-1.54,5.56-1.36,2.2.19,4.14,1.15,5.59,2.59,4.07,0,8.69.2,13.56.62,16.23,1.38,29.21,4.65,28.98,7.3-.2,2.3-10.23,3.37-23.47,2.72,1.15.83,1.78,1.71,1.7,2.59-.24,2.8-7.36,4.48-15.91,3.75-1.42-.12-2.8-.3-4.1-.53-1.7,1.53-4.72,2.41-8.07,2.12-1.31-.11-2.55-.39-3.64-.79-6.08,1.23-15.04,1.57-24.95.73-17.87-1.52-32.05-6.33-31.67-10.75.27-3.15,7.88-5.24,18.72-5.63Z"/>
      </g>
      <g>
        <path class="cls-25" d="M245.94,41.73s-.04.08-.06.12c-.06-.04-.12-.08-.18-.11.08,0,.16,0,.25,0Z"/>
        <path class="cls-28" d="M296.38,52.85c-.05,1.24-1.87,2.18-4.05,2.09-1.07-.04-2.02-.32-2.72-.74-.99.53-2.24,1.01-3.72,1.45,1.52.43,2.4.9,2.39,1.39-.05,1.24-6.15,2.01-13.62,1.71-2.72-.11-5.25-.34-7.36-.66h-.01c-3.29.1-6.79.09-10.41-.05-3.88-.16-7.6-.45-11.07-.86-.63.76-1.85,1.24-3.24,1.19-1.78-.07-3.23-1.01-3.47-2.17-3.8-.68-7.13-1.5-9.8-2.43-.43.11-.92.17-1.43.15-1.74-.07-3.12-.97-3.08-2.02,0-.04,0-.09.02-.13-.72-.43-1.3-.88-1.73-1.33-.36.03-.74.03-1.13.02-2.38-.1-4.28-.98-4.24-1.97s2-1.72,4.38-1.63c.29.01.56.04.84.07.77-.84,2.13-1.6,3.98-2.27-.24-.56-.36-1.16-.34-1.77.13-3.19,4.14-5.61,8.98-5.42,3.54.14,6.54,1.65,7.83,3.71.04,0,.09,0,.13,0,.85.03,1.61.24,2.19.56.07.03.13.07.18.11.02-.04.04-.08.06-.12.46-.88,1.4-1.47,2.47-1.43.95.04,1.76.56,2.2,1.32.27,0,.54,0,.81,0,.8-1.2,2.61-1.99,4.68-1.91.55.02,1.07.1,1.56.24.37-1.62,1.86-2.81,3.58-2.74,1.27.05,2.35.76,2.93,1.78,1.23-.19,2.6-.27,4.05-.21,4.92.2,8.9,1.9,9.22,3.88.53-.06,1.1-.08,1.71-.05,2.42.1,4.35.88,4.31,1.74-.01.35-.34.65-.87.89.72.21,1.41.42,2.06.63.54-.39,1.22-.6,1.95-.57,1.55.06,2.8,1.23,3,2.73,1.29.78,2.13,1.6,2.46,2.43.15,0,.31,0,.47,0,2.19.09,3.92,1.17,3.87,2.41Z"/>
      </g>
      <g>
        <path class="cls-25" d="M272.28,62.64s-.04.08-.06.12c-.06-.04-.12-.07-.19-.1.08,0,.16-.01.25-.02Z"/>
        <path class="cls-28" d="M323.05,71.27c-.38-1.02-1.98-1.79-3.89-1.79-.16,0-.31,0-.46.02-.29-.66-.92-1.29-1.83-1.89-.22-.15-.46-.3-.72-.44-.27-1.48-1.56-2.6-3.11-2.6-.73,0-1.4.24-1.93.65-.65-.19-1.35-.37-2.08-.55.53-.26.84-.58.84-.92,0-.1-.03-.2-.08-.29-.38-.73-2.16-1.28-4.3-1.28-.6,0-1.18.05-1.7.13-.39-1.97-4.44-3.51-9.37-3.51-1.44,0-2.81.13-4.03.37-.55-.87-1.45-1.48-2.5-1.62-.16-.03-.33-.04-.5-.04-.5,0-.97.1-1.4.29-.32.14-.61.32-.87.54h-.01c-.6.52-1.04,1.23-1.19,2.05-.49-.12-1.02-.18-1.56-.18-2.08,0-3.86.87-4.61,2.1-.27,0-.54.02-.8.03-.47-.73-1.3-1.23-2.25-1.23-1.07,0-1.99.63-2.41,1.53-.03.04-.04.08-.06.12-.06-.04-.12-.07-.19-.1-.59-.3-1.36-.48-2.21-.48-.04,0-.08,0-.12.01-.52-.75-1.27-1.41-2.19-1.95-.18-.11-.37-.21-.57-.3-1.45-.72-3.26-1.14-5.22-1.14-3.09,0-5.8,1.05-7.36,2.65-.61.63-1.05,1.34-1.25,2.1-.09.33-.14.67-.14,1.02,0,.61.15,1.2.41,1.75-.45.18-.86.37-1.25.56-1.18.59-2.07,1.21-2.63,1.86-.28-.02-.55-.03-.84-.03-2.39,0-4.31.81-4.31,1.8,0,.27.15.53.41.76h78.28Z"/>
      </g>
      <g>
        <path class="cls-27" d="M328.38,52c0-2.23-4.14-4.04-9.25-4.04-4.46,0-8.17,1.37-9.04,3.21-1.99-.41-4.34-.64-6.85-.64-4.75,0-8.89.83-11.14,2.07-1.43-.71-3.54-1.16-5.9-1.16-2.99,0-5.59.72-6.9,1.79-.47-.03-.94-.05-1.43-.05-3.67,0-6.65.91-6.65,2.04,0,.63.93,1.19,2.39,1.56-.45.41-.7.87-.7,1.35,0,.29.09.57.27.84-.38-.03-.78-.04-1.19-.04-2.96,0-5.35.69-5.35,1.53,0,.33.36.63.98.88-.63.31-.98.65-.98,1.03,0,1.22,3.83,2.21,8.56,2.21,4.38,0,7.99-.85,8.49-1.95,1.84.63,4.66,1.03,7.82,1.03,2.94,0,5.59-.35,7.42-.9.76.09,1.66.14,2.63.14,1.54,0,2.92-.13,3.83-.34,2.2.69,5.04,1.1,8.14,1.1,6.99,0,12.66-2.1,12.66-4.69,0-1.27-1.35-2.41-3.53-3.25,3.36-.61,5.72-2.05,5.72-3.73ZM281.46,60.89s0-.02,0-.02c.02,0,.03.01.05.01-.02.01-.03.01-.05.01Z"/>
        <path class="cls-35" d="M304.6,51.3c-.16-.29-.23-.56-.21-.84.28-3.3,13.52-4.85,29.56-3.49,2.91.25,5.72.58,8.35.97,1.6-1.02,3.53-1.54,5.56-1.36,2.2.19,4.14,1.15,5.59,2.59,4.07,0,8.69.2,13.56.62,16.23,1.38,29.21,4.65,28.98,7.3-.2,2.3-10.23,3.37-23.47,2.72,1.15.83,1.78,1.71,1.7,2.59-.24,2.8-7.36,4.48-15.91,3.75-1.42-.12-2.8-.3-4.1-.53-1.7,1.53-4.72,2.41-8.07,2.12-1.31-.11-2.55-.39-3.64-.79-6.08,1.23-15.04,1.57-24.95.73-17.87-1.52-32.05-6.33-31.67-10.75.27-3.15,7.88-5.24,18.72-5.63Z"/>
      </g>
      <g>
        <path class="cls-25" d="M662.87,63.91s.04-.08.06-.12c.06.04.12.08.18.11-.08,0-.16,0-.25,0Z"/>
        <path class="cls-28" d="M612.43,52.79c.05-1.24,1.87-2.18,4.05-2.09,1.07.04,2.02.32,2.72.74.99-.53,2.24-1.01,3.72-1.45-1.52-.43-2.4-.9-2.39-1.39.05-1.24,6.15-2.01,13.62-1.71,2.72.11,5.25.34,7.36.66h.01c3.29-.1,6.79-.09,10.41.05,3.88.16,7.6.45,11.07.86.63-.76,1.85-1.24,3.24-1.19,1.78.07,3.23,1.01,3.47,2.17,3.8.68,7.13,1.5,9.8,2.43.43-.11.92-.17,1.43-.15,1.74.07,3.12.97,3.08,2.02,0,.04,0,.09-.02.13.72.43,1.3.88,1.73,1.33.36-.03.74-.03,1.13-.02,2.38.1,4.28.98,4.24,1.97s-2,1.72-4.38,1.63c-.29-.01-.56-.04-.84-.07-.77.84-2.13,1.6-3.98,2.27.24.56.36,1.16.34,1.77-.13,3.19-4.14,5.61-8.98,5.42-3.54-.14-6.54-1.65-7.83-3.71-.04,0-.09,0-.13,0-.85-.03-1.61-.24-2.19-.56-.07-.03-.13-.07-.18-.11-.02.04-.04.08-.06.12-.46.88-1.4,1.47-2.47,1.43-.95-.04-1.76-.56-2.2-1.32-.27,0-.54,0-.81,0-.8,1.2-2.61,1.99-4.68,1.91-.55-.02-1.07-.1-1.56-.24-.37,1.62-1.86,2.81-3.58,2.74-1.27-.05-2.35-.76-2.93-1.78-1.23.19-2.6.27-4.05.21-4.92-.2-8.9-1.9-9.22-3.88-.53.06-1.1.08-1.71.05-2.42-.1-4.35-.88-4.31-1.74.01-.35.34-.65.87-.89-.72-.21-1.41-.42-2.06-.63-.54.39-1.22.6-1.95.57-1.55-.06-2.8-1.23-3-2.73-1.29-.78-2.13-1.6-2.46-2.43-.15,0-.31,0-.47,0-2.19-.09-3.92-1.17-3.87-2.41Z"/>
      </g>
      <g>
        <path class="cls-25" d="M636.52,43s.04-.08.06-.12c.06.04.12.07.19.1-.08,0-.16.01-.25.02Z"/>
        <path class="cls-28" d="M585.76,34.37c.38,1.02,1.98,1.79,3.89,1.79.16,0,.31,0,.46-.02.29.66.92,1.29,1.83,1.89.22.15.46.3.72.44.27,1.48,1.56,2.6,3.11,2.6.73,0,1.4-.24,1.93-.65.65.19,1.35.37,2.08.55-.53.26-.84.58-.84.92,0,.1.03.2.08.29.38.73,2.16,1.28,4.3,1.28.6,0,1.18-.05,1.7-.13.39,1.97,4.44,3.51,9.37,3.51,1.44,0,2.81-.13,4.03-.37.55.87,1.45,1.48,2.5,1.62.16.03.33.04.5.04.5,0,.97-.1,1.4-.29.32-.14.61-.32.87-.54h.01c.6-.52,1.04-1.23,1.19-2.05.49.12,1.02.18,1.56.18,2.08,0,3.86-.87,4.61-2.1.27-.01.54-.02.8-.03.47.73,1.3,1.23,2.25,1.23,1.07,0,1.99-.63,2.41-1.53.03-.04.04-.08.06-.12.06.04.12.07.19.1.59.3,1.36.48,2.21.48.04,0,.08,0,.12,0,.52.75,1.27,1.41,2.19,1.95.18.11.37.21.57.3,1.45.72,3.26,1.14,5.22,1.14,3.09,0,5.8-1.05,7.36-2.65.61-.63,1.05-1.34,1.25-2.1.09-.33.14-.67.14-1.02,0-.61-.15-1.2-.41-1.75.45-.18.86-.37,1.25-.56,1.18-.59,2.07-1.21,2.63-1.86.28.02.55.03.84.03,2.39,0,4.31-.81,4.31-1.8,0-.27-.15-.53-.41-.76h-78.28Z"/>
      </g>
      <g>
        <path class="cls-25" d="M496.35,41.39s-.04.08-.06.12c-.06-.04-.12-.07-.19-.1.08,0,.16-.01.25-.02Z"/>
        <path class="cls-28" d="M547.12,50.02c-.38-1.02-1.98-1.79-3.89-1.79-.16,0-.31,0-.46.02-.29-.66-.92-1.29-1.83-1.89-.22-.15-.46-.3-.72-.44-.27-1.48-1.56-2.6-3.11-2.6-.73,0-1.4.24-1.93.65-.65-.19-1.35-.37-2.08-.55.53-.26.84-.58.84-.92,0-.1-.03-.2-.08-.29-.38-.73-2.16-1.28-4.3-1.28-.6,0-1.18.05-1.7.13-.39-1.97-4.44-3.51-9.37-3.51-1.44,0-2.81.13-4.03.37-.55-.87-1.45-1.48-2.5-1.62-.16-.03-.33-.04-.5-.04-.5,0-.97.1-1.4.29-.32.14-.61.32-.87.54h-.01c-.6.52-1.04,1.23-1.19,2.05-.49-.12-1.02-.18-1.56-.18-2.08,0-3.86.87-4.61,2.1-.27.01-.54.02-.8.03-.47-.73-1.3-1.23-2.25-1.23-1.07,0-1.99.63-2.41,1.53-.03.04-.04.08-.06.12-.06-.04-.12-.07-.19-.1-.59-.3-1.36-.48-2.21-.48-.04,0-.08,0-.12,0-.52-.75-1.27-1.41-2.19-1.95-.18-.11-.37-.21-.57-.3-1.45-.72-3.26-1.14-5.22-1.14-3.09,0-5.8,1.05-7.36,2.65-.61.63-1.05,1.34-1.25,2.1-.09.33-.14.67-.14,1.02,0,.61.15,1.2.41,1.75-.45.18-.86.37-1.25.56-1.18.59-2.07,1.21-2.63,1.86-.28-.02-.55-.03-.84-.03-2.39,0-4.31.81-4.31,1.8,0,.27.15.53.41.76h78.28Z"/>
      </g>
      <g>
        <path class="cls-27" d="M580.43,53.64c0,2.23,4.14,4.04,9.25,4.04,4.46,0,8.17-1.37,9.04-3.21,1.99.41,4.34.64,6.85.64,4.75,0,8.89-.83,11.14-2.07,1.43.71,3.54,1.16,5.9,1.16,2.99,0,5.59-.72,6.9-1.79.47.03.94.05,1.43.05,3.67,0,6.65-.91,6.65-2.04,0-.63-.93-1.19-2.39-1.56.45-.41.7-.87.7-1.35,0-.29-.09-.57-.27-.84.38.03.78.04,1.19.04,2.96,0,5.35-.69,5.35-1.53,0-.33-.36-.63-.98-.88.63-.31.98-.65.98-1.03,0-1.22-3.83-2.21-8.56-2.21-4.38,0-7.99.85-8.49,1.95-1.84-.63-4.66-1.03-7.82-1.03-2.94,0-5.59.35-7.42.9-.76-.09-1.66-.14-2.63-.14-1.54,0-2.92.13-3.83.34-2.2-.69-5.04-1.1-8.14-1.1-6.99,0-12.66,2.1-12.66,4.69,0,1.27,1.35,2.41,3.53,3.25-3.36.61-5.72,2.05-5.72,3.73ZM627.35,44.75s0,.02,0,.02c-.02,0-.03-.01-.05-.01.02-.01.03-.01.05-.01Z"/>
        <path class="cls-35" d="M604.21,54.34c.16.29.23.56.21.84-.28,3.3-13.52,4.85-29.56,3.49-2.91-.25-5.72-.58-8.35-.97-1.6,1.02-3.53,1.54-5.56,1.36-2.2-.19-4.14-1.15-5.59-2.59-4.07,0-8.69-.2-13.56-.62-16.23-1.38-29.21-4.65-28.98-7.3.2-2.3,10.23-3.37,23.47-2.72-1.15-.83-1.78-1.71-1.7-2.59.24-2.8,7.36-4.48,15.91-3.75,1.42.12,2.8.3,4.1.53,1.7-1.53,4.72-2.41,8.07-2.12,1.31.11,2.55.39,3.64.79,6.08-1.23,15.04-1.57,24.95-.73,17.87,1.52,32.05,6.33,31.67,10.75-.27,3.15-7.88,5.24-18.72,5.63Z"/>
      </g>
    </g>
    <text class="cls-29" transform="translate(27.48 10.3)"><tspan class="cls-34"><tspan x="0" y="0">Airbus A380-841</tspan></tspan><tspan class="cls-32"><tspan x="0" y="12">Ai</tspan><tspan class="cls-37" x="11.11" y="12">r</tspan><tspan x="15.88" y="12">line se</tspan><tspan class="cls-36" x="51.99" y="12">r</tspan><tspan x="57.01" y="12">vice ent</tspan><tspan class="cls-36" x="100.9" y="12">r</tspan><tspan x="105.92" y="12">y: 2007</tspan></tspan></text>
    <text class="cls-30" transform="translate(730.13 69.57) scale(1 1.97)"><tspan x="0" y="0">853</tspan></text>
  </g>
  <g id="Layer_8" data-name="Layer 8">
    <g>
      <path class="cls-23" d="M20.94,66.34l-.24.6s-.03.06-.05.1l-.22.37c-.1.16-.22.3-.38.41l-.57.4c-.09,0-.17.04-.23.09-.06.06-.09.14-.1.23v1.49c-.01.28-.09.56-.23.8-.11.19-.26.36-.44.48l-.19.13c-.06.04-.11.07-.18.1-.19.08-.32.27-.29.48l.16,1.47.15,1.23.13,1.76v.15c0,.19-.09.36-.22.5-.06.06-.09.14-.09.23v.27s-.26,3.11-.26,3.11l-.13,3.28-.02,1.04s0,.09,0,.13l.05.86c.06.18.2.32.38.38l.23.08-11.09-.04c.04-.25.13-.49.27-.7l.81-1.24.28-.19.36-.42,1.3-1.03c.09-.07.16-.17.2-.28l.09-.25c.05-.15.15-.28.29-.36l1.48-.95,2.29-1.29c-.03-.24-.19-.44-.41-.54l-.55-.25c-.06-.03-.1-.08-.1-.14-.04-.24.07-.48.27-.61l.94-.61,2.43-1.4v-1.12l-.15-1.9-.25-2.09-.19-2.64,1.06,1.06c.17.17.45.14.58-.06l1.34-2.02-.46-.7.05-.07c.06-.08.19-.1.27-.02l.54.49-.7-.83s-.02-.04-.02-.06c.02-.1.11-.17.2-.17.03,0,.07,0,.1.02l.19.1.66.55-.78-.87v-.05c0-.14.16-.22.27-.14l.55.39-.39-.65c-.04-.05,0-.13.06-.14l.62.17.28.55c.05.1.06.21.02.32Z"/>
      <path class="cls-6" d="M8.95,56.68l-1.08,1.42-.52-2.38-.39-1.79v-2.35l-.46-.83v-.23c-.06-.07-.1-.16-.1-.25,0-.06.01-.11.04-.17l.06-.11-.02-.55-.45-.64.19-.4-.3-.27.09-.19-.09-.3v-.21c.1,0,.18-.09.18-.18,0-.03,0-.06-.03-.09l-.15-.24c0-.16-.1-.3-.25-.35l-.19-.06-.19-.22c-.05-.06-.05-.15.01-.2.1-.09.16-.21.16-.34,0-.07-.02-.14-.05-.21l-.03-.05c-.08-.16.03-.35.21-.35h.17l.28-.13h.14c.19,0,.34-.15.34-.34l-.22-.42v-.66l.22-.4v-.23l.37.38.25-.72.23.44.19-.44.13.42.17-.25.21.93-.08.42-.28.36-.02.3.38.38h.44c.14.09.19.26.13.41l-.08.18.19.36v.27l-.25.28h-.44l-.06.19-.07.09c-.06.09-.17.14-.27.14v.08c0,.21.07.41.19.58l.1.14.04.93.09,1.69.21,1.21.45,1.29.15.82v1.08l.1.4.09.87c.02.19-.03.37-.15.52Z"/>
      <path class="cls-6" d="M17.08,75.08v1.12l-2.43,1.4-.94.61c-.2.13-.31.37-.27.61,0,.06.05.11.1.14l.55.25c.22.1.37.3.41.54l-2.29,1.29-1.48.95c-.13.08-.23.21-.29.36l-.09.25c-.04.11-.11.2-.2.28l-1.3,1.03-.36.42-.28.19-.04-.32-.15-5.76.02-.03,1.33-1.07,1.52-1.76,1.42-2.24,1.04-1.33.61-.74.13-.63-.11-1.14-.23-.39c-.06-.1-.08-.22-.07-.33l.06-.39c.02-.15.09-.28.21-.38l.55-.48.64-.93v-1.47c0-.17.12-.32.28-.37h.08c.15,0,.29.08.37.21l.15.26.27.73.11.54v.42l.02.32-.3.54c-.06.11-.04.25.05.33l.34.34.19,2.64.25,2.09.15,1.9Z"/>
      <path class="cls-23" d="M14.25,60.16h0s-.75.81-.75.81l-1.38,1.42-1.72,2.1-1.06,1.49-.7,1.3-.38,1.25v.68h-.15c-.29-.04-.56-.19-.73-.43-.15-.2-.22-.44-.22-.69v-.53c0-.13.03-.27.08-.39l.37-.82.23-.37,1.65-2.15,1.42-1.42,1.46-1.35,1.14-.82.28-.23.46.14Z"/>
      <polygon class="cls-23" points="13.5 60.24 12.36 61.06 10.9 62.4 9.48 63.82 7.83 65.98 8.36 65.11 8.29 64.53 7.9 63.88 8.33 63.69 8.84 63.2 9.46 62.31 9.96 60.85 10.28 59.47 10.28 57.87 11.09 58.59 11.37 59.12 11.68 59.69 12.04 60.01 12.69 60.28 13.5 60.24"/>
      <path class="cls-23" d="M10.28,57.87v1.59l-.32,1.38-.49,1.46-.63.89-.51.49-.43.19-.08-.14c-.1-.17-.16-.37-.16-.56v-.95l.06-1.06c0-.14-.02-.28-.08-.41l-.22-.46c-.07-.15-.2-.25-.35-.29l1.1-.76.66-.72.82-.91.19-.26.44.51Z"/>
      <polygon class="cls-6" points="18.26 87.61 5.99 87.61 6.01 86.46 7.13 86.46 18.22 86.5 18.24 86.97 18.26 87.61"/>
      <path class="cls-23" d="M18.07,64.24l-1.66,3.01-.02-.32v-.42l-.11-.54-.27-.73-.15-.26c-.07-.13-.21-.21-.37-.21h-.08c-.17.04-.28.2-.28.37v1.47l-.64.93-.55.48c-.11.1-.19.23-.21.38l-.06.39c-.02.11,0,.23.07.33l.23.39.11,1.14-.13.63-.61.74-1.04,1.33-1.42,2.24-1.52,1.76-1.33,1.07.16-.23c.13-.18.18-.4.16-.61l-.34-2.86c0-.08,0-.16,0-.24l.05-.29c.09-.51.03-1.04-.16-1.52l-.24-.59c-.06-.15-.09-.3-.09-.46,0-.3.07-.6.22-.87l.32-.61c.15-.28.19-.59.13-.9v-.02s0-.68,0-.68l.38-1.25.7-1.3,1.06-1.49,1.72-2.1,1.38-1.42.75-.81h0s.66.2.66.2l.24.08c.26.09.49.27.65.5l.53.78c.04.06.08.13.11.21l.3.78c.02.06.04.12.06.19l.07.31c.04.19.14.37.28.5l.22.21c.14.13.3.22.48.27l.24.06Z"/>
      <path class="cls-6" d="M16.55,55.64l-2.1-.15v-.23l2.1-1.02-2.43.53-.3-.42,1.23-1.69-1.67,1.38-.68-.19-.36-2.09-.28,2.01-.68.32-1.9-1.19,1.44,1.67-.27.28-1.52-.47,1.31,1.04v.21h-1.02s.08.22.08.22l.98.12.1.42.06.82-.36.66.82.72.28.53.31.57.36.32.64.27.82-.04.28-.23.46.14.66.2-.11-.49-.34-1.65-.04-1.71.09-.57,2.05-.3ZM13.8,56.72l-.04.13s0,.02,0,.03v.26c0,.14-.03.29-.08.42l-.13.32s-.02.07-.03.1h0s-.37.34-.37.34l-.11.07c-.15.1-.33.15-.51.15-.1,0-.2-.02-.28-.07l-.06-.03c-.09-.05-.17-.11-.24-.18l-.16-.17-.17-.19c-.15-.17-.27-.37-.32-.6l-.19-.79c.19,0,.39-.05.56-.14l.16-.08.42-.49.16-.36c.03-.06.12-.07.16-.01l.18.28.23.38.41.23s.09.04.13.06l.18.07c.11.04.16.16.12.27Z"/>
      <path class="cls-6" d="M21.07,64.76l-.43.71-.62-.17c-.07,0-.1.08-.06.14l.39.65-.55-.39c-.12-.08-.27,0-.27.14v.05l.78.87-.66-.55-.19-.1s-.06-.02-.1-.02c-.1,0-.19.07-.2.17,0,.02,0,.04.02.06l.7.83-.54-.49c-.08-.07-.2-.06-.27.02l-.05.07.46.7-1.34,2.02c-.13.2-.41.23-.58.06l-1.06-1.06-.34-.34c-.09-.09-.11-.23-.05-.33l.3-.54,1.66-3.01.47-.82c.09-.15.28-.21.44-.13l1.94.97c.19.09.26.33.15.51Z"/>
      <path class="cls-23" d="M9.84,57.36l-.19.26-.82.91-.66.72-1.1.76-.25-.06-.12-.05c-.16-.06-.27-.21-.29-.38l-.11-.81c-.02-.13,0-.25.03-.38l.23-.81c.02-.08.06-.15.11-.22l.15-.22c.08-.11.14-.23.18-.36l.34-1.01.52,2.38,1.08-1.42c.11-.15.16-.33.15-.52l-.09-.87.38.23.04.12.08.21v.03s.24.7.24.7l.09.78Z"/>
      <path class="cls-23" d="M13.8,56.72l-.04.13s0,.02,0,.03v.26c0,.14-.03.29-.08.42l-.13.32s-.02.07-.03.1h0s-.37.34-.37.34l-.11.07c-.15.1-.33.15-.51.15-.1,0-.2-.02-.28-.07l-.06-.03c-.09-.05-.17-.11-.24-.18l-.16-.17-.17-.19c-.15-.17-.27-.37-.32-.6l-.19-.79c.19,0,.39-.05.56-.14l.16-.08.42-.49.16-.36c.03-.06.12-.07.16-.01l.18.28.23.38.41.23s.09.04.13.06l.18.07c.11.04.16.16.12.27Z"/>
      <path class="cls-11" d="M13.51,57.99s-.01.07-.01.11v1.6l.28.32"/>
    </g>
  </g>
  <g id="_3" data-name="#3">
    <g>
      <g>
        <path class="cls-7" d="M637.04,74.12v13.59h3.88v-6.79h.33v-6.79h-4.21ZM638.26,86.65h-.6v-.55h.6v.55ZM638.26,85.7h-.6v-.55h.6v.55ZM638.26,84.75h-.6v-.55h.6v.55ZM638.26,83.8h-.6v-.55h.6v.55ZM638.26,82.85h-.6v-.55h.6v.55ZM638.26,81.9h-.6v-.55h.6v.55ZM638.26,80.96h-.6v-.55h.6v.55ZM638.26,80.01h-.6v-.55h.6v.55ZM638.26,79.06h-.6v-.55h.6v.55ZM638.26,78.11h-.6v-.55h.6v.55ZM638.26,77.16h-.6v-.55h.6v.55ZM638.26,76.21h-.6v-.55h.6v.55ZM638.26,75.26h-.6v-.55h.6v.55ZM639.62,86.65h-.6v-.55h.6v.55ZM639.62,85.7h-.6v-.55h.6v.55ZM639.62,84.75h-.6v-.55h.6v.55ZM639.62,83.8h-.6v-.55h.6v.55ZM639.62,82.85h-.6v-.55h.6v.55ZM639.62,81.9h-.6v-.55h.6v.55ZM639.62,80.96h-.6v-.55h.6v.55ZM639.62,80.01h-.6v-.55h.6v.55ZM639.62,79.06h-.6v-.55h.6v.55ZM639.62,78.11h-.6v-.55h.6v.55ZM639.62,77.16h-.6v-.55h.6v.55ZM639.62,76.21h-.6v-.55h.6v.55ZM639.62,75.26h-.6v-.55h.6v.55ZM640.84,86.66h-.6v-.55h.6v.55ZM640.84,85.71h-.6v-.55h.6v.55ZM640.84,84.76h-.6v-.55h.6v.55ZM640.84,83.81h-.6v-.55h.6v.55ZM640.84,82.86h-.6v-.55h.6v.55ZM640.84,81.91h-.6v-.55h.6v.55ZM640.84,80.97h-.6v-.55h.6v.55ZM640.84,80.02h-.6v-.55h.6v.55ZM640.84,79.07h-.6v-.55h.6v.55ZM640.84,78.12h-.6v-.55h.6v.55ZM640.84,77.17h-.6v-.55h.6v.55ZM640.84,76.22h-.6v-.55h.6v.55ZM640.84,75.27h-.6v-.55h.6v.55Z"/>
        <rect class="cls-16" x="640.24" y="74.72" width=".6" height=".55"/>
        <rect class="cls-16" x="639.02" y="74.71" width=".6" height=".55"/>
        <rect class="cls-16" x="637.66" y="74.71" width=".6" height=".55"/>
        <path class="cls-3" d="M640.92,80.92v6.79h4.26v-6.79h-4.26ZM641.67,86.51h-.41v-5.03h.41v5.03ZM642.29,86.51h-.41v-5.03h.41v5.03ZM642.91,86.51h-.41v-5.03h.41v5.03ZM643.53,86.51h-.41v-5.03h.41v5.03ZM644.15,86.51h-.41v-5.03h.41v5.03ZM644.78,86.51h-.41v-5.03h.41v5.03Z"/>
        <path class="cls-5" d="M645.03,79.3v1.61h.16v6.79h7.99v-8.4h-8.16ZM645.72,80.03h6.81v.55h-6.81v-.55ZM652.62,86.24h-6.81v-.55h6.81v.55ZM652.62,85.29h-6.81v-.55h6.81v.55ZM652.62,84.34h-6.81v-.55h6.81v.55ZM652.62,83.39h-6.81v-.55h6.81v.55ZM652.62,82.45h-6.81v-.55h6.81v.55ZM652.62,81.5h-6.81v-.55h6.81v.55Z"/>
        <path class="cls-12" d="M653.18,74.68v13.03h1.85v-13.03h-1.85ZM653.72,86.92h-.26v-.55h.26v.55ZM653.72,85.98h-.26v-.55h.26v.55ZM653.72,85.03h-.26v-.55h.26v.55ZM653.72,84.08h-.26v-.55h.26v.55ZM653.72,83.13h-.26v-.55h.26v.55ZM653.72,82.18h-.26v-.55h.26v.55ZM653.72,81.23h-.26v-.55h.26v.55ZM653.72,80.28h-.26v-.55h.26v.55ZM653.72,79.33h-.26v-.55h.26v.55ZM653.72,78.38h-.26v-.55h.26v.55ZM653.72,77.44h-.26v-.55h.26v.55ZM653.72,76.49h-.26v-.55h.26v.55ZM653.72,75.54h-.26v-.55h.26v.55ZM654.77,86.92h-.26v-.55h.26v.55ZM654.77,85.98h-.26v-.55h.26v.55ZM654.77,85.03h-.26v-.55h.26v.55ZM654.77,84.08h-.26v-.55h.26v.55ZM654.77,83.13h-.26v-.55h.26v.55ZM654.77,82.18h-.26v-.55h.26v.55ZM654.77,81.23h-.26v-.55h.26v.55ZM654.77,80.28h-.26v-.55h.26v.55ZM654.77,79.33h-.26v-.55h.26v.55ZM654.77,78.38h-.26v-.55h.26v.55ZM654.77,77.44h-.26v-.55h.26v.55ZM654.77,76.49h-.26v-.55h.26v.55ZM654.77,75.54h-.26v-.55h.26v.55Z"/>
        <rect class="cls-16" x="654.51" y="74.99" width=".26" height=".55"/>
        <rect class="cls-16" x="653.46" y="74.99" width=".26" height=".55"/>
        <path class="cls-22" d="M633.69,79.3v4.76h.42v3.64h2.94v-8.4h-3.36ZM635.6,85.99h-.26v-1.05h.26v1.05ZM635.6,84.19h-.26v-1.05h.26v1.05ZM635.6,82.39h-.26v-1.05h.26v1.05ZM635.6,80.59h-.26v-1.05h.26v1.05Z"/>
        <path class="cls-21" d="M632.15,84.07v3.64h1.96v-3.64h-1.96ZM632.53,84.61h.6v.55h-.6v-.55ZM633.17,86.67h-.6v-.55h.6v.55ZM633.86,85.89h-.6v-.55h.6v.55Z"/>
        <path class="cls-22" d="M655.03,84.78v2.93h2.68v-2.93h-2.68ZM655.85,86.94h-.26v-.55h.26v.55ZM655.85,85.99h-.26v-.55h.26v.55ZM656.91,86.94h-.26v-.55h.26v.55ZM656.91,85.99h-.26v-.55h.26v.55Z"/>
        <polygon class="cls-24" points="637.05 78.37 637.05 79.3 633.71 79.3 635.48 71.22 637.05 78.37"/>
        <rect class="cls-17" x="653.46" y="86.37" width=".26" height=".55"/>
        <rect class="cls-17" x="653.46" y="85.42" width=".26" height=".55"/>
        <rect class="cls-17" x="653.46" y="84.47" width=".26" height=".55"/>
        <rect class="cls-17" x="653.46" y="83.53" width=".26" height=".55"/>
        <rect class="cls-17" x="653.46" y="82.58" width=".26" height=".55"/>
        <rect class="cls-17" x="653.46" y="81.63" width=".26" height=".55"/>
        <rect class="cls-17" x="653.46" y="80.68" width=".26" height=".55"/>
        <rect class="cls-17" x="653.46" y="79.73" width=".26" height=".55"/>
        <rect class="cls-17" x="653.46" y="78.78" width=".26" height=".55"/>
        <rect class="cls-17" x="653.46" y="77.83" width=".26" height=".55"/>
        <rect class="cls-17" x="653.46" y="76.88" width=".26" height=".55"/>
        <rect class="cls-17" x="653.46" y="75.93" width=".26" height=".55"/>
        <rect class="cls-17" x="654.51" y="86.37" width=".26" height=".55"/>
        <rect class="cls-17" x="654.51" y="85.42" width=".26" height=".55"/>
        <rect class="cls-17" x="654.51" y="84.47" width=".26" height=".55"/>
        <rect class="cls-17" x="654.51" y="83.53" width=".26" height=".55"/>
        <rect class="cls-17" x="654.51" y="82.58" width=".26" height=".55"/>
        <rect class="cls-17" x="654.51" y="81.63" width=".26" height=".55"/>
        <rect class="cls-17" x="654.51" y="80.68" width=".26" height=".55"/>
        <rect class="cls-17" x="654.51" y="79.73" width=".26" height=".55"/>
        <rect class="cls-17" x="654.51" y="78.78" width=".26" height=".55"/>
        <rect class="cls-17" x="654.51" y="77.83" width=".26" height=".55"/>
        <rect class="cls-17" x="654.51" y="76.88" width=".26" height=".55"/>
        <rect class="cls-17" x="654.51" y="75.93" width=".26" height=".55"/>
        <rect class="cls-17" x="655.59" y="86.39" width=".26" height=".55"/>
        <rect class="cls-17" x="655.59" y="85.44" width=".26" height=".55"/>
        <rect class="cls-17" x="656.65" y="86.39" width=".26" height=".55"/>
        <rect class="cls-17" x="656.65" y="85.44" width=".26" height=".55"/>
        <polygon class="cls-20" points="657.72 84.78 655.03 84.78 655.03 82.85 657.72 84.78"/>
        <rect class="cls-17" x="637.66" y="86.1" width=".6" height=".55"/>
        <rect class="cls-17" x="637.66" y="85.15" width=".6" height=".55"/>
        <rect class="cls-17" x="637.66" y="84.2" width=".6" height=".55"/>
        <rect class="cls-17" x="637.66" y="83.25" width=".6" height=".55"/>
        <rect class="cls-17" x="637.66" y="82.3" width=".6" height=".55"/>
        <rect class="cls-17" x="637.66" y="81.35" width=".6" height=".55"/>
        <rect class="cls-17" x="637.66" y="80.4" width=".6" height=".55"/>
        <rect class="cls-17" x="637.66" y="79.45" width=".6" height=".55"/>
        <rect class="cls-17" x="637.66" y="78.51" width=".6" height=".55"/>
        <rect class="cls-17" x="637.66" y="77.56" width=".6" height=".55"/>
        <rect class="cls-17" x="637.66" y="76.61" width=".6" height=".55"/>
        <rect class="cls-17" x="637.66" y="75.66" width=".6" height=".55"/>
        <rect class="cls-17" x="639.02" y="86.1" width=".6" height=".55"/>
        <rect class="cls-17" x="639.02" y="85.15" width=".6" height=".55"/>
        <rect class="cls-17" x="639.02" y="84.2" width=".6" height=".55"/>
        <rect class="cls-17" x="639.02" y="83.25" width=".6" height=".55"/>
        <rect class="cls-17" x="639.02" y="82.3" width=".6" height=".55"/>
        <rect class="cls-17" x="639.02" y="81.35" width=".6" height=".55"/>
        <rect class="cls-17" x="639.02" y="80.4" width=".6" height=".55"/>
        <rect class="cls-17" x="639.02" y="79.45" width=".6" height=".55"/>
        <rect class="cls-17" x="639.02" y="78.51" width=".6" height=".55"/>
        <rect class="cls-17" x="639.02" y="77.56" width=".6" height=".55"/>
        <rect class="cls-17" x="639.02" y="76.61" width=".6" height=".55"/>
        <rect class="cls-17" x="639.02" y="75.66" width=".6" height=".55"/>
        <rect class="cls-17" x="640.24" y="86.11" width=".6" height=".55"/>
        <rect class="cls-17" x="640.24" y="85.16" width=".6" height=".55"/>
        <rect class="cls-17" x="640.24" y="84.21" width=".6" height=".55"/>
        <rect class="cls-17" x="640.24" y="83.26" width=".6" height=".55"/>
        <rect class="cls-17" x="640.24" y="82.31" width=".6" height=".55"/>
        <rect class="cls-17" x="640.24" y="81.36" width=".6" height=".55"/>
        <rect class="cls-17" x="640.24" y="80.41" width=".6" height=".55"/>
        <rect class="cls-17" x="640.24" y="79.46" width=".6" height=".55"/>
        <rect class="cls-17" x="640.24" y="78.52" width=".6" height=".55"/>
        <rect class="cls-17" x="640.24" y="77.57" width=".6" height=".55"/>
        <rect class="cls-17" x="640.24" y="76.62" width=".6" height=".55"/>
        <rect class="cls-17" x="640.24" y="75.67" width=".6" height=".55"/>
        <rect class="cls-17" x="645.81" y="85.69" width="6.81" height=".55"/>
        <rect class="cls-17" x="645.81" y="84.74" width="6.81" height=".55"/>
        <rect class="cls-17" x="645.81" y="83.79" width="6.81" height=".55"/>
        <rect class="cls-17" x="645.81" y="82.84" width="6.81" height=".55"/>
        <rect class="cls-17" x="645.81" y="81.89" width="6.81" height=".55"/>
        <rect class="cls-17" x="645.81" y="80.94" width="6.81" height=".55"/>
        <rect class="cls-17" x="635.34" y="84.95" width=".26" height="1.05"/>
        <rect class="cls-17" x="635.34" y="83.14" width=".26" height="1.05"/>
        <rect class="cls-17" x="635.34" y="81.34" width=".26" height="1.05"/>
        <rect class="cls-17" x="635.34" y="79.54" width=".26" height="1.05"/>
        <rect class="cls-17" x="644.37" y="81.48" width=".41" height="5.03"/>
        <rect class="cls-17" x="643.75" y="81.48" width=".41" height="5.03"/>
        <rect class="cls-17" x="643.13" y="81.48" width=".41" height="5.03"/>
        <rect class="cls-17" x="642.5" y="81.48" width=".41" height="5.03"/>
        <rect class="cls-17" x="641.88" y="81.48" width=".41" height="5.03"/>
        <rect class="cls-17" x="641.26" y="81.48" width=".41" height="5.03"/>
        <rect class="cls-17" x="645.72" y="80.03" width="6.81" height=".55"/>
        <rect class="cls-17" x="632.53" y="84.61" width=".6" height=".55"/>
        <rect class="cls-17" x="633.26" y="85.34" width=".6" height=".55"/>
        <rect class="cls-17" x="632.57" y="86.11" width=".6" height=".55"/>
      </g>
      <g>
        <text class="cls-33" transform="translate(580.9 98.6)"><tspan x="0" y="0">Geraldine, New Zealand, Oceania</tspan></text>
        <text class="cls-31" transform="translate(625.15 106.94)"><tspan x="0" y="0">14,800 Km</tspan></text>
      </g>
      <g>
        <line class="cls-4" x1="654.35" y1="87.71" x2=".1" y2="87.71"/>
        <path class="cls-26" d="M0,87.71c0-.47.29-.84.58-1.14.31-.3.65-.54,1.02-.74.73-.41,1.49-.75,2.27-1.03,1.56-.58,3.15-1.01,4.76-1.41,3.21-.78,6.46-1.38,9.72-1.93,6.52-1.07,13.07-1.91,19.63-2.65,13.12-1.47,26.28-2.6,39.45-3.61,26.33-1.99,52.7-3.46,79.08-4.75,52.76-2.5,105.55-4.2,158.34-5.54,26.4-.68,52.8-1.26,79.2-1.75,26.4-.43,52.81-.78,79.21-1.06,52.81-.37,105.63-.48,158.44.1v.2c-52.81.57-105.61.98-158.42,1.7-26.4.27-52.8.61-79.2,1.04-26.4.37-52.8.82-79.2,1.37-52.79,1.15-105.58,2.64-158.33,4.94-26.38,1.15-52.75,2.49-79.08,4.35-13.17.94-26.33,2-39.45,3.41-6.56.71-13.11,1.51-19.63,2.55-3.26.53-6.5,1.11-9.71,1.87-1.6.39-3.2.81-4.74,1.38-.77.27-1.53.6-2.24,1-.67.4-1.45.92-1.51,1.7h-.2Z"/>
      </g>
    </g>
    <g>
      <path class="cls-1" d="M604.26,63.44l-.67.08h0l-.21.03h-1.41l-.81.17-.86.18-.26.12v.36s-.26.28-.26.28c-.02.02-.05.05-.08.06l-1.57.79c-.06.03-.06.11,0,.13l1.62.78-4.15.13,1.07-.38c.13-.05.22-.16.22-.3l.15-2.99c.01-.17-.1-.33-.26-.38h-.02c-.1-.04-.19-.06-.29-.09l-.24-.05c-.13-.03-.26-.04-.4-.04l-2.72.05c-.14,0-.28.02-.41.04l-1.96.33c-.05.01-.09.06-.09.11v.46l-.35.19-1.51.81s-.04.08,0,.1l1.3.6h-2.22s-.09,0-.13-.02l-.85-.21c-.08-.02-.14-.1-.14-.18v-.41c0-.07-.05-.12-.12-.13l-1.23-.16v-.26h-1.05s-.05,0-.07,0l-2.01-.29c-.12-.02-.22-.08-.3-.17l-.07-.09s-.08-.07-.13-.07l-1.12-.12c-.12-.01-.22-.11-.24-.23v-.02c-.02-.08-.07-.14-.14-.16l-.24-.08-.46-.14c-.07-.02-.11-.09-.11-.16v-.08c.01-.09.08-.16.17-.17l.64-.09.63-.09s.04-.06,0-.07l-.64-.11-1.32-.23-.99-.17-.23-.04-1.16-.2s.02,0,.03,0l7.82.15,6.09.38,6.26.59,3.84.58,2.43.44.49.08c.16.02.3.1.4.22.08.09.2.15.32.16Z"/>
      <path class="cls-14" d="M613.3,65.2h0l-1.38.69-1.06.18-.34.06-.5.08c-.13.02-.27.04-.41.04l-3.28.08v-2.62l.14.05c.16.05.32.07.49.04l.58-.1s.06-.03.07-.06c.11-.28,0-.6-.24-.76l-.06-.04c-.09-.06-.19-.1-.3-.11l2.28.26c.13.01.26.04.39.07l2.58.66c.14.04.27.09.4.16l.56.32s.1.06.17.1c.02.01.04.03.05.05.11.15.11.45.11.45.05.16-.09.3-.24.38Z"/>
      <path class="cls-14" d="M600.27,67.1c0,.11.07.22.18.24l1.53.34c.08.02.16.03.24.03h2.24c.14,0,.27-.02.4-.06l.94-.28c.27-.08.46-.32.48-.6l.03-.44v-2.62s-.21-.07-.21-.07c-.17-.06-.35-.1-.53-.11l-1.32-.09-.68.08c-.15.02-.29.03-.44.03h-.36c-.55,0-1.09.06-1.63.17l-.86.18v2.78s-.02.42-.02.42Z"/>
      <polygon class="cls-14" points="599.97 66.68 600.29 66.68 600.29 63.9 600.03 64.02 600.02 64.38 599.97 66.68"/>
      <path class="cls-10" d="M598.12,65.64l1.62.78.23.27.05-2.31-.25.28s-.05.05-.08.06l-1.57.79c-.06.03-.06.11,0,.13Z"/>
      <path class="cls-1" d="M591.68,66.42h-4.11c-.19,0-.37,0-.56-.02l-1.47-.1-1.62-.17-.29-.04h-1.24c-.09,0-.18,0-.27-.03l-1.01-.21c-.35-.07-.71-.11-1.06-.11h-.29l-.63-.25c-.32-.13-.57-.39-.67-.72-.04-.14,0-.28.12-.37l.23-.17c.21-.16.44-.28.69-.35l1.23-.37,1.23-.33c.07.09.18.15.3.17l2.01.29s.05,0,.07,0h1.05v.26l1.23.16c.07,0,.12.06.12.13v.41c0,.09.06.16.14.18l.85.21s.09.02.13.02h2.22l.21.12.29.16v.31h.32v.21c0,.17.1.32.26.39l.53.22Z"/>
      <path class="cls-14" d="M597.03,62.88l-.15,2.99c0,.13-.1.25-.22.3l-1.07.38h-.36s-1.45.01-1.45.01c-.05,0-.1,0-.15,0l-1.4-.13c-.09,0-.18-.01-.27-.01h-.27l-.53-.22c-.16-.06-.26-.22-.26-.39v-.21h-.32v-.31l.06-1.98v-.46c0-.06.04-.1.09-.11l1.96-.33c.14-.02.27-.04.41-.04l2.72-.05c.13,0,.27,0,.4.04l.24.05c.1.02.19.05.29.08h.02c.16.06.27.22.26.39Z"/>
      <line class="cls-9" x1="613.9" y1="56.33" x2="613.9" y2="56.33"/>
      <path class="cls-14" d="M582.3,58.77h1.31s0,0,0,0c0-.04-.01-.07-.01-.11v-1.01c0-.3.24-.55.55-.55h.22c.3,0,.55.24.55.55v1.01s0,.07-.01.11h0l19.07-.04v-2.47s-8.54,0-8.54,0l-.66-.63.21.63h-12.67s-.02,2.51-.02,2.51ZM603.26,58.14c0-.18.11-.34.25-.34s.25.15.25.34c0,.19-.11.34-.25.34s-.25-.15-.25-.34ZM602.47,58.14c0-.18.11-.34.25-.34s.25.15.25.34c0,.19-.11.34-.25.34s-.25-.15-.25-.34ZM601.69,58.14c0-.18.11-.34.25-.34s.25.15.25.34-.11.34-.25.34-.25-.15-.25-.34ZM600.91,58.14c0-.18.11-.34.25-.34s.25.15.25.34c0,.19-.11.34-.25.34s-.25-.15-.25-.34ZM600.12,58.14c0-.18.11-.34.25-.34s.25.15.25.34-.11.34-.25.34-.25-.15-.25-.34ZM599.34,58.14c0-.18.11-.34.25-.34s.25.15.25.34c0,.19-.11.34-.25.34s-.25-.15-.25-.34ZM598.56,58.14c0-.18.11-.34.25-.34s.25.15.25.34c0,.19-.11.34-.25.34s-.25-.15-.25-.34ZM597.77,58.14c0-.18.11-.34.25-.34s.25.15.25.34-.11.34-.25.34-.25-.15-.25-.34ZM596.99,58.14c0-.18.11-.34.25-.34s.25.15.25.34c0,.19-.11.34-.25.34s-.25-.15-.25-.34ZM596.21,58.14c0-.18.11-.34.25-.34s.25.15.25.34c0,.19-.11.34-.25.34s-.25-.15-.25-.34ZM595.43,58.14c0-.18.11-.34.25-.34s.25.15.25.34-.11.34-.25.34-.25-.15-.25-.34ZM594.64,58.14c0-.18.11-.34.25-.34s.25.15.25.34c0,.19-.11.34-.25.34s-.25-.15-.25-.34ZM593.86,58.14c0-.18.11-.34.25-.34s.25.15.25.34c0,.19-.11.34-.25.34s-.25-.15-.25-.34ZM593.08,58.14c0-.18.11-.34.25-.34s.25.15.25.34c0,.19-.11.34-.25.34s-.25-.15-.25-.34ZM592.29,58.14c0-.18.11-.34.25-.34s.25.15.25.34-.11.34-.25.34-.25-.15-.25-.34ZM591.51,58.14c0-.18.11-.34.25-.34s.25.15.25.34c0,.19-.11.34-.25.34s-.25-.15-.25-.34ZM590.73,58.14c0-.18.11-.34.25-.34s.25.15.25.34c0,.19-.11.34-.25.34s-.25-.15-.25-.34ZM589.95,58.14c0-.18.11-.34.25-.34s.25.15.25.34c0,.19-.11.34-.25.34s-.25-.15-.25-.34ZM589.16,58.14c0-.18.11-.34.25-.34s.25.15.25.34-.11.34-.25.34-.25-.15-.25-.34ZM588.38,58.14c0-.18.11-.34.25-.34s.25.15.25.34c0,.19-.11.34-.25.34s-.25-.15-.25-.34ZM587.6,58.14c0-.18.11-.34.25-.34s.25.15.25.34c0,.19-.11.34-.25.34s-.25-.15-.25-.34ZM586.82,58.14c0-.18.11-.34.25-.34s.25.15.25.34c0,.19-.11.34-.25.34s-.25-.15-.25-.34ZM586.03,58.14c0-.18.11-.34.25-.34s.25.15.25.34c0,.19-.11.34-.25.34s-.25-.15-.25-.34ZM585.25,58.15c0-.19.11-.34.25-.34s.25.15.25.34c0,.18-.11.34-.25.34s-.25-.15-.25-.34ZM582.5,58.15c0-.19.11-.34.25-.34s.25.15.25.34c0,.18-.11.34-.25.34s-.25-.15-.25-.34Z"/>
      <path class="cls-19" d="M586.03,58.14c0,.19.11.34.25.34s.25-.15.25-.34c0-.18-.11-.34-.25-.34s-.25.15-.25.34Z"/>
      <path class="cls-14" d="M571.46,56.5l-.47-.5v.51c-.38,0-.77-.07-1.14-.22l-1.32-.57c-.25-.11-.48-.27-.67-.46l-7.77-8.22-4.66-4.94c-.21-.22-.46-.4-.74-.52l-.05-.02c-.35-.15-.72-.25-1.11-.27l-1.23-.09c-.18-.01-.36-.02-.54-.02h-1.78c-.12,0-.21.13-.15.24l7.07,15.88c.04.1-.02.2-.12.22l-4.45.64,10.96,1.21s.07.01.1.02l1.58.22c.16.04.12.18-.06.23-.1.03-.6.2-.6.2-.1.03-.2.05-.3.05l-5.61-.14-6.22-1.28s.04.05.04.08v.76c0,.18.12.33.29.38l9.4,2.73,5.71,1.41,1.87.34h0l2,.36.03-2.57.04-3.36.02-2.3h-.12ZM570.07,61.96c0,.3-.24.55-.55.55h-.23c-.3,0-.55-.24-.55-.55v-1.02c0-.3.24-.55.55-.55h.23c.3,0,.55.24.55.55v1.02ZM571.25,61.71c-.14,0-.25-.15-.25-.34s.11-.34.25-.34.25.15.25.34-.11.34-.25.34Z"/>
      <path class="cls-19" d="M571,61.37c0,.19.11.34.25.34s.25-.15.25-.34-.11-.34-.25-.34-.25.15-.25.34Z"/>
      <path class="cls-10" d="M549.97,58.29l1.95.32.21.03s.03,0,.05.02l6.22,1.28,5.61.14c.1,0,.2-.01.3-.05,0,0,.5-.17.6-.2.18-.06.23-.2.06-.23l-1.58-.22s-.07-.01-.1-.02l-10.96-1.21-2.36.08s-.03.04,0,.05Z"/>
      <path class="cls-14" d="M571.55,58.8h2.26s0,0,0,0c-.01-.04-.02-.09-.02-.13v-1.01c0-.3.24-.55.55-.55h.23c.3,0,.55.24.55.55v1.01s0,.09-.02.13h0s7.2-.02,7.2-.02l.02-2.51h-3.03s-.64-.61-.64-.61l.18.61h-.14s-7.06.23-7.06.23h-.05s-.02,2.3-.02,2.3ZM581.66,58.15c0-.19.11-.34.25-.34s.25.15.25.34c0,.18-.11.34-.25.34s-.25-.15-.25-.34ZM580.82,58.15c0-.19.11-.34.25-.34s.25.15.25.34-.11.34-.25.34-.25-.15-.25-.34ZM579.98,58.15c0-.19.11-.34.25-.34s.25.15.25.34-.11.34-.25.34-.25-.15-.25-.34ZM579.14,58.15c0-.19.11-.34.25-.34s.25.15.25.34c0,.18-.11.34-.25.34s-.25-.15-.25-.34ZM578.3,58.15c0-.19.11-.34.25-.34s.25.15.25.34c0,.18-.11.34-.25.34s-.25-.15-.25-.34ZM577.46,58.15c0-.19.11-.34.25-.34s.25.15.25.34-.11.34-.25.34-.25-.15-.25-.34ZM576.62,58.15c0-.19.11-.34.25-.34s.25.15.25.34-.11.34-.25.34-.25-.15-.25-.34Z"/>
      <path class="cls-14" d="M606.2,58.66v-1.01c0-.3.24-.55.55-.55h.23c.3,0,.55.24.55.55v1.01s0,.04,0,.06l7.1-.02h6.68s.05-.01.05-.01v-2.09c-.25-.04-.5-.06-.75-.06l-6.31-.2-.54-.6.17.59-2.02-.06h-1.02l-.16-.16c-.05-.05-.12-.08-.2-.08h-1.07c-.06,0-.12.02-.17.05l-.28.18h-4.99s-.01,2.47-.01,2.47h2.21s0-.05,0-.07ZM615.9,58.13c0-.18.11-.34.25-.34s.25.15.25.34-.11.34-.25.34-.25-.15-.25-.34ZM615.17,58.13c0-.18.11-.34.25-.34s.25.15.25.34c0,.19-.11.34-.25.34s-.25-.15-.25-.34ZM614.44,58.13c0-.18.11-.34.25-.34s.25.15.25.34c0,.19-.11.34-.25.34s-.25-.15-.25-.34ZM613.71,58.13c0-.18.11-.34.25-.34s.25.15.25.34-.11.34-.25.34-.25-.15-.25-.34ZM612.99,58.13c0-.18.11-.34.25-.34s.25.15.25.34c0,.19-.11.34-.25.34s-.25-.15-.25-.34ZM612.26,58.13c0-.18.11-.34.25-.34s.25.15.25.34-.11.34-.25.34-.25-.15-.25-.34ZM611.53,58.13c0-.18.11-.34.25-.34s.25.15.25.34c0,.19-.11.34-.25.34s-.25-.15-.25-.34ZM610.8,58.13c0-.18.11-.34.25-.34s.25.15.25.34c0,.19-.11.34-.25.34s-.25-.15-.25-.34ZM610.07,58.13c0-.18.11-.34.25-.34s.25.15.25.34-.11.34-.25.34-.25-.15-.25-.34ZM609.34,58.13c0-.18.11-.34.25-.34s.25.15.25.34c0,.19-.11.34-.25.34s-.25-.15-.25-.34ZM608.62,58.13c0-.18.11-.34.25-.34s.25.15.25.34c0,.19-.11.34-.25.34s-.25-.15-.25-.34ZM604.54,58.14c0,.19-.11.34-.25.34s-.25-.15-.25-.34.11-.34.25-.34.25.15.25.34ZM605.32,58.14c0,.19-.11.34-.25.34s-.25-.15-.25-.34.11-.34.25-.34.25.15.25.34Z"/>
      <path class="cls-8" d="M626,57.86v1.26s.01.19.01.19l.03,4.73v1.44c.26-.01,2.55-.13,3.32-.47.27-.12.54-.25.77-.37.05-.03.1-.05.15-.08l.02-3.62-.46-.38h-.57c-.15,0-.29.03-.43.08l-.15.06c-.1.04-.2.05-.3.05h-.15c-.07,0-.14,0-.21-.02l-.2-.03c-.15-.02-.25-.17-.21-.32v-.04c.05-.13.15-.23.29-.25l.54-.1s.04,0,.07,0h.6s-.78-.62-.78-.62l-.97-.75c-.29-.22-.6-.41-.93-.56l-.44-.2Z"/>
      <path class="cls-8" d="M621.34,65.76l2.38-.07,2.31-.21s0,0,.02,0v-1.44c-.21.18-2.23.32-4.71.32v1.39Z"/>
      <polygon class="cls-8" points="614.63 64.37 614.64 65.86 620.93 65.78 621.34 65.76 621.34 64.37 614.63 64.37"/>
      <path class="cls-1" d="M613.1,65.88l-.12.53.48-.54,1.18-.02v-1.49h-1.21c.11.15.11.45.11.45.05.16-.09.3-.24.38h0l-1.38.69h1.18Z"/>
      <path class="cls-13" d="M630.28,64.56c.44-.25.83-.58,1.15-.96l.02-.03c.16-.19.25-.44.25-.69,0-.18-.04-.35-.13-.51l-.06-.12c-.18-.35-.43-.66-.73-.91l-.34-.29-.15-.13-.02,3.62Z"/>
      <path class="cls-19" d="M627.83,60.69l.2.03c.07.01.14.02.21.02h.15c.1,0,.21-.02.3-.05l.15-.06c.14-.05.28-.08.43-.08h.57s-.27-.22-.27-.22l-.45-.35h-.6s-.04,0-.07,0l-.54.1c-.13.02-.24.12-.28.25v.04c-.05.15.04.29.19.32Z"/>
      <path class="cls-14" d="M621.34,56.6v2.09c2.15,0,3.77.26,4.68.62v-.19s-.01-1.26-.01-1.26l-.51-.23c-.62-.28-1.27-.49-1.94-.62l-1.81-.34c-.13-.02-.27-.05-.4-.06Z"/>
      <path class="cls-15" d="M607.6,63.65s-.04.05-.07.06l-.58.1c-.16.03-.33.01-.49-.04l-.14-.05-.21-.07c-.17-.06-.35-.1-.53-.11l-1.32-.09c-.12,0-.24-.06-.32-.16-.11-.12-.25-.19-.4-.22l-.49-.08-2.43-.44-3.84-.58-6.26-.59-6.09-.38-7.82-.15s-.02,0-.03,0c-.02,0-.05,0-.07.02-.07.04-.21.11-.4.24-.12.08-.26.18-.41.3-.18.14-.39.31-.61.52h-.44c-.06,0-.1-.05-.09-.11l.23-1.01s0-.1-.03-.14l-.65-.79s0-.09.04-.09h.34s.09.01.13.03l1.18.55c.05.02.11.04.16.06l.75.19c.07.02.14.02.21.03l2.1.03,1.2.02,2.07.03,7.96.13,2.63.25,1.32.13.87.08.5.05.26.02.49.05.27.03.46.04.31.03.41.04.39.04.31.03.55.05s0,0,0,0h.06s.89.09.89.09l4,.55,2.18.3.72.08h.13s0,.01,0,.01c.11.01.21.05.3.11l.06.04c.25.16.35.48.24.76Z"/>
      <line class="cls-9" x1="600.03" y1="64.37" x2="600.02" y2="64.38"/>
      <line class="cls-9" x1="595.58" y1="66.55" x2="595.58" y2="66.56"/>
      <line class="cls-9" x1="576.57" y1="60.86" x2="576.55" y2="60.86"/>
      <line class="cls-9" x1="590.88" y1="62.72" x2="590.89" y2="65.6"/>
      <polygon class="cls-10" points="590.28 63.5 590.28 65.13 590.57 65.29 590.63 63.32 590.28 63.5"/>
      <path class="cls-10" d="M588.77,64.42l1.3.6.21.12v-1.63s-1.51.81-1.51.81c-.04.02-.04.08,0,.1Z"/>
      <line class="cls-9" x1="552.18" y1="58.67" x2="551.93" y2="58.62"/>
      <line class="cls-9" x1="630.28" y1="64.56" x2="630.28" y2="64.56"/>
      <line class="cls-9" x1="621.34" y1="56.57" x2="621.34" y2="56.6"/>
      <path class="cls-18" d="M582.29,60.74l7.96.13,2.63.25v-.18c0-.3.24-.55.55-.55h.22c.3,0,.55.24.55.55v.31s.87.08.87.08c.02-.16.12-.29.25-.29.14,0,.25.15.25.34h0s.26.03.26.03c0,0,0-.02,0-.03,0-.18.11-.34.25-.34s.25.15.25.34c0,.02,0,.05,0,.07l.27.03s-.01-.06-.01-.1c0-.18.11-.34.25-.34s.25.15.25.34c0,.05,0,.1-.02.14l.31.03s-.04-.11-.04-.17c0-.18.11-.34.25-.34s.25.15.25.34c0,.08-.02.15-.06.21l.39.04c-.05-.06-.08-.15-.08-.25,0-.18.11-.34.25-.34s.25.15.25.34-.04.22-.11.28l.55.05c-.11-.04-.19-.17-.19-.33,0-.18.11-.34.25-.34s.25.15.25.34-.1.33-.24.34l.89.09,4,.55.02-3.62-19.07.04h0c-.05.25-.27.44-.54.44h-.22c-.26,0-.48-.19-.54-.44h-1.32s-.01,1.97-.01,1.97ZM603.33,61.37c0-.18.11-.34.25-.34s.25.15.25.34-.11.34-.25.34-.25-.15-.25-.34ZM602.58,61.37c0-.18.11-.34.25-.34s.25.15.25.34c0,.19-.11.34-.25.34s-.25-.15-.25-.34ZM601.83,61.37c0-.18.11-.34.25-.34s.25.15.25.34-.11.34-.25.34-.25-.15-.25-.34ZM601.08,61.37c0-.18.11-.34.25-.34s.25.15.25.34c0,.19-.11.34-.25.34s-.25-.15-.25-.34ZM600.33,61.37c0-.18.11-.34.25-.34s.25.15.25.34c0,.19-.11.34-.25.34s-.25-.15-.25-.34ZM599.57,61.37c0-.18.11-.34.25-.34s.25.15.25.34c0,.19-.11.34-.25.34s-.25-.15-.25-.34Z"/>
      <path class="cls-10" d="M592.87,60.94v.18s1.32.13,1.32.13v-.31c0-.3-.24-.55-.55-.55h-.22c-.3,0-.55.24-.55.55Z"/>
      <path class="cls-19" d="M595.07,61.33l.5.05h0c0-.19-.11-.34-.25-.34-.13,0-.23.13-.25.29Z"/>
      <path class="cls-19" d="M595.82,61.37s0,.02,0,.03l.49.05s0-.05,0-.07c0-.18-.11-.34-.25-.34s-.25.15-.25.34Z"/>
      <path class="cls-19" d="M596.57,61.37s0,.07.01.1l.46.04s.02-.09.02-.14c0-.18-.11-.34-.25-.34s-.25.15-.25.34Z"/>
      <path class="cls-19" d="M597.32,61.37c0,.06.01.12.04.17l.41.04c.04-.06.06-.13.06-.21,0-.18-.11-.34-.25-.34s-.25.15-.25.34Z"/>
      <path class="cls-19" d="M598.07,61.37c0,.1.03.19.08.25l.31.03c.06-.06.11-.16.11-.28s-.11-.34-.25-.34-.25.15-.25.34Z"/>
      <path class="cls-19" d="M598.82,61.37c0,.16.08.29.19.33,0,0,0,0,0,0h.06c.13,0,.24-.15.24-.33s-.11-.34-.25-.34-.25.15-.25.34Z"/>
      <path class="cls-18" d="M614.61,58.7v3.27s6.74.06,6.74.06v-.06s0-3.19,0-3.19v-.09s-.05,0-.05,0h-6.68ZM620.62,61.37c0-.18.11-.34.25-.34s.25.15.25.34c0,.19-.11.34-.25.34s-.25-.15-.25-.34ZM619.89,61.37c0-.18.11-.34.25-.34s.25.15.25.34c0,.19-.11.34-.25.34s-.25-.15-.25-.34ZM619.16,61.37c0-.18.11-.34.25-.34s.25.15.25.34-.11.34-.25.34-.25-.15-.25-.34ZM618.43,61.37c0-.18.11-.34.25-.34s.25.15.25.34-.11.34-.25.34-.25-.15-.25-.34ZM617.7,61.37c0-.18.11-.34.25-.34s.25.15.25.34-.11.34-.25.34-.25-.15-.25-.34ZM616.97,61.37c0-.18.11-.34.25-.34s.25.15.25.34c0,.19-.11.34-.25.34s-.25-.15-.25-.34ZM616.24,61.37c0-.18.11-.34.25-.34s.25.15.25.34-.11.34-.25.34-.25-.15-.25-.34ZM615.51,61.37c0-.18.11-.34.25-.34s.25.15.25.34c0,.19-.11.34-.25.34s-.25-.15-.25-.34ZM614.78,61.37c0-.18.11-.34.25-.34s.25.15.25.34-.11.34-.25.34-.25-.15-.25-.34Z"/>
      <path class="cls-18" d="M603.97,62.34l2.18.3.72.08h.13s0,.01,0,.01l2.28.26c.13.01.26.04.39.07l2.58.66c.14.04.27.09.4.16l.56.32s.1.06.17.1c.02.01.04.03.05.05h1.2s-.01-2.4-.01-2.4v-3.27s-7.11.02-7.11.02c-.03.27-.26.49-.54.49h-.23c-.28,0-.51-.21-.54-.49h-2.21s-.02,3.62-.02,3.62ZM614.05,61.37c0-.18.11-.34.25-.34s.25.15.25.34c0,.19-.11.34-.25.34s-.25-.15-.25-.34ZM611.82,60.94c0-.3.24-.55.55-.55h.23c.3,0,.55.24.55.55v1.02c0,.3-.24.55-.55.55h-.23c-.3,0-.55-.24-.55-.55v-1.02ZM610.07,61.37c0-.18.11-.34.25-.34s.25.15.25.34c0,.19-.11.34-.25.34s-.25-.15-.25-.34ZM609.32,61.37c0-.18.11-.34.25-.34s.25.15.25.34c0,.19-.11.34-.25.34s-.25-.15-.25-.34ZM608.56,61.37c0-.18.11-.34.25-.34s.25.15.25.34c0,.19-.11.34-.25.34s-.25-.15-.25-.34ZM607.81,61.37c0-.18.11-.34.25-.34s.25.15.25.34c0,.19-.11.34-.25.34s-.25-.15-.25-.34ZM607.06,61.37c0-.18.11-.34.25-.34s.25.15.25.34c0,.19-.11.34-.25.34s-.25-.15-.25-.34ZM606.31,61.37c0-.18.11-.34.25-.34s.25.15.25.34c0,.19-.11.34-.25.34s-.25-.15-.25-.34ZM605.56,61.37c0-.18.11-.34.25-.34s.25.15.25.34-.11.34-.25.34-.25-.15-.25-.34ZM604.81,61.37c0-.18.11-.34.25-.34s.25.15.25.34c0,.19-.11.34-.25.34s-.25-.15-.25-.34ZM604.05,61.37c0-.18.11-.34.25-.34s.25.15.25.34-.11.34-.25.34-.25-.15-.25-.34Z"/>
      <path class="cls-18" d="M575.1,58.79h0c-.06.24-.27.42-.53.42h-.23c-.26,0-.47-.18-.53-.41h-2.26s-.04,3.37-.04,3.37l7.51.07c-.05-.08-.08-.18-.08-.28v-.68l-.99-.17c.06.06.11.16.11.27,0,.19-.11.34-.25.34s-.25-.15-.25-.34c0-.14.07-.27.16-.31l-1.16-.2s-.05,0-.07.02c-.07.04-.21.11-.4.24.05.06.09.15.09.25,0,.19-.11.34-.25.34-.13,0-.23-.13-.25-.29-.18.14-.39.31-.61.52h-.44c-.06,0-.1-.05-.09-.11l.23-1.01s0-.1-.03-.14l-.65-.79s0-.09.04-.09h.34s.09.01.13.03l1.18.55c.05.02.11.04.16.06l.75.19c.07.02.14.02.21.03l2.1.03c.09-.17.27-.29.48-.29h.23c.22,0,.41.13.49.31l2.07.03v-1.97s-7.18.02-7.18.02ZM576.88,61.04c.14,0,.25.15.25.34s-.11.34-.25.34-.25-.15-.25-.34.11-.34.25-.34ZM572.19,61.71c-.14,0-.25-.15-.25-.34s.11-.34.25-.34.25.15.25.34-.11.34-.25.34ZM573.12,61.71c-.14,0-.25-.15-.25-.34s.11-.34.25-.34.25.15.25.34-.11.34-.25.34ZM574.31,61.37c0,.19-.11.34-.25.34s-.25-.15-.25-.34.11-.34.25-.34.25.15.25.34Z"/>
      <path class="cls-18" d="M580.21,60.71l-1.2-.02c.09-.17.27-.29.48-.29h.23c.22,0,.41.13.49.31Z"/>
      <path class="cls-19" d="M577.56,61.37c0,.19.11.34.25.34s.25-.15.25-.34c0-.11-.04-.21-.11-.27l-.23-.04c-.09.05-.16.17-.16.31Z"/>
      <line class="cls-9" x1="571.49" y1="64.73" x2="571.49" y2="64.73"/>
      <line class="cls-9" x1="571.58" y1="56.5" x2="571.58" y2="56.5"/>
      <line class="cls-9" x1="571.51" y1="62.16" x2="570.04" y2="62.14"/>
      <line class="cls-9" x1="614.61" y1="58.69" x2="614.61" y2="58.7"/>
      <line class="cls-9" x1="614.62" y1="61.97" x2="614.61" y2="61.97"/>
      <path class="cls-18" d="M621.34,61.97v2.4c2.47,0,4.49-.14,4.7-.32l-.03-4.73c-.91-.36-2.53-.62-4.68-.62v.09s0,3.19,0,3.19ZM623.48,60.94c0-.3.24-.55.55-.55h.22c.3,0,.55.24.55.55v1.02c0,.3-.24.55-.55.55h-.22c-.3,0-.55-.24-.55-.55v-1.02ZM622.07,61.37c0-.18.11-.34.25-.34s.25.15.25.34c0,.19-.11.34-.25.34s-.25-.15-.25-.34ZM621.34,61.37c0-.18.11-.34.25-.34s.25.15.25.34c0,.19-.11.34-.25.34s-.25-.15-.25-.34Z"/>
      <polygon class="cls-18" points="614.62 61.97 614.63 64.37 621.34 64.37 621.34 62.03 614.62 61.97"/>
      <rect class="cls-10" x="623.48" y="60.39" width="1.32" height="2.11" rx=".55" ry=".55"/>
      <rect class="cls-10" x="611.82" y="60.39" width="1.32" height="2.11" rx=".55" ry=".55"/>
      <path class="cls-10" d="M606.2,57.65v1.01s0,.04,0,.06c.03.27.26.49.54.49h.23c.28,0,.51-.21.54-.49,0-.02,0-.04,0-.06v-1.01c0-.3-.24-.55-.55-.55h-.23c-.3,0-.55.24-.55.55Z"/>
      <path class="cls-10" d="M583.6,57.65v1.01s0,.08.01.11c.05.25.27.44.54.44h.22c.27,0,.49-.19.54-.44,0-.04.01-.07.01-.11v-1.01c0-.3-.24-.55-.55-.55h-.22c-.3,0-.55.24-.55.55Z"/>
      <path class="cls-18" d="M580.9,61.68l-.63.09v-.27l.64.11s.04.06,0,.07Z"/>
      <path class="cls-10" d="M573.8,57.65v1.01s0,.09.02.13c.06.24.27.41.53.41h.23c.26,0,.47-.18.53-.42.01-.04.02-.09.02-.13v-1.01c0-.3-.24-.55-.55-.55h-.23c-.3,0-.55.24-.55.55Z"/>
      <rect class="cls-10" x="568.76" y="60.39" width="1.32" height="2.11" rx=".55" ry=".55"/>
      <path class="cls-19" d="M622.07,61.37c0,.19.11.34.25.34s.25-.15.25-.34c0-.18-.11-.34-.25-.34s-.25.15-.25.34Z"/>
      <path class="cls-19" d="M621.34,61.37c0,.19.11.34.25.34s.25-.15.25-.34c0-.18-.11-.34-.25-.34s-.25.15-.25.34Z"/>
      <path class="cls-19" d="M620.62,61.37c0,.19.11.34.25.34s.25-.15.25-.34c0-.18-.11-.34-.25-.34s-.25.15-.25.34Z"/>
      <path class="cls-19" d="M619.89,61.37c0,.19.11.34.25.34s.25-.15.25-.34c0-.18-.11-.34-.25-.34s-.25.15-.25.34Z"/>
      <path class="cls-19" d="M619.16,61.37c0,.19.11.34.25.34s.25-.15.25-.34-.11-.34-.25-.34-.25.15-.25.34Z"/>
      <path class="cls-19" d="M618.43,61.37c0,.19.11.34.25.34s.25-.15.25-.34-.11-.34-.25-.34-.25.15-.25.34Z"/>
      <path class="cls-19" d="M617.7,61.37c0,.19.11.34.25.34s.25-.15.25-.34-.11-.34-.25-.34-.25.15-.25.34Z"/>
      <path class="cls-19" d="M616.97,61.37c0,.19.11.34.25.34s.25-.15.25-.34c0-.18-.11-.34-.25-.34s-.25.15-.25.34Z"/>
      <path class="cls-19" d="M615.9,58.13c0,.19.11.34.25.34s.25-.15.25-.34-.11-.34-.25-.34-.25.15-.25.34Z"/>
      <path class="cls-19" d="M615.17,58.13c0,.19.11.34.25.34s.25-.15.25-.34c0-.18-.11-.34-.25-.34s-.25.15-.25.34Z"/>
      <path class="cls-19" d="M614.44,58.13c0,.19.11.34.25.34s.25-.15.25-.34c0-.18-.11-.34-.25-.34s-.25.15-.25.34Z"/>
      <path class="cls-19" d="M613.71,58.13c0,.19.11.34.25.34s.25-.15.25-.34-.11-.34-.25-.34-.25.15-.25.34Z"/>
      <path class="cls-19" d="M612.99,58.13c0,.19.11.34.25.34s.25-.15.25-.34c0-.18-.11-.34-.25-.34s-.25.15-.25.34Z"/>
      <path class="cls-19" d="M612.26,58.13c0,.19.11.34.25.34s.25-.15.25-.34-.11-.34-.25-.34-.25.15-.25.34Z"/>
      <path class="cls-19" d="M611.53,58.13c0,.19.11.34.25.34s.25-.15.25-.34c0-.18-.11-.34-.25-.34s-.25.15-.25.34Z"/>
      <path class="cls-19" d="M610.8,58.13c0,.19.11.34.25.34s.25-.15.25-.34c0-.18-.11-.34-.25-.34s-.25.15-.25.34Z"/>
      <path class="cls-19" d="M610.07,58.13c0,.19.11.34.25.34s.25-.15.25-.34-.11-.34-.25-.34-.25.15-.25.34Z"/>
      <path class="cls-19" d="M609.34,58.13c0,.19.11.34.25.34s.25-.15.25-.34c0-.18-.11-.34-.25-.34s-.25.15-.25.34Z"/>
      <path class="cls-19" d="M608.62,58.13c0,.19.11.34.25.34s.25-.15.25-.34c0-.18-.11-.34-.25-.34s-.25.15-.25.34Z"/>
      <path class="cls-19" d="M616.24,61.37c0,.19.11.34.25.34s.25-.15.25-.34-.11-.34-.25-.34-.25.15-.25.34Z"/>
      <path class="cls-19" d="M615.51,61.37c0,.19.11.34.25.34s.25-.15.25-.34c0-.18-.11-.34-.25-.34s-.25.15-.25.34Z"/>
      <path class="cls-19" d="M614.78,61.37c0,.19.11.34.25.34s.25-.15.25-.34-.11-.34-.25-.34-.25.15-.25.34Z"/>
      <path class="cls-19" d="M614.05,61.37c0,.19.11.34.25.34s.25-.15.25-.34c0-.18-.11-.34-.25-.34s-.25.15-.25.34Z"/>
      <path class="cls-19" d="M610.07,61.37c0,.19.11.34.25.34s.25-.15.25-.34c0-.18-.11-.34-.25-.34s-.25.15-.25.34Z"/>
      <path class="cls-19" d="M609.32,61.37c0,.19.11.34.25.34s.25-.15.25-.34c0-.18-.11-.34-.25-.34s-.25.15-.25.34Z"/>
      <path class="cls-19" d="M608.56,61.37c0,.19.11.34.25.34s.25-.15.25-.34c0-.18-.11-.34-.25-.34s-.25.15-.25.34Z"/>
      <path class="cls-19" d="M607.81,61.37c0,.19.11.34.25.34s.25-.15.25-.34c0-.18-.11-.34-.25-.34s-.25.15-.25.34Z"/>
      <path class="cls-19" d="M607.06,61.37c0,.19.11.34.25.34s.25-.15.25-.34c0-.18-.11-.34-.25-.34s-.25.15-.25.34Z"/>
      <path class="cls-19" d="M606.31,61.37c0,.19.11.34.25.34s.25-.15.25-.34c0-.18-.11-.34-.25-.34s-.25.15-.25.34Z"/>
      <path class="cls-19" d="M605.56,61.37c0,.19.11.34.25.34s.25-.15.25-.34-.11-.34-.25-.34-.25.15-.25.34Z"/>
      <path class="cls-19" d="M604.81,61.37c0,.19.11.34.25.34s.25-.15.25-.34c0-.18-.11-.34-.25-.34s-.25.15-.25.34Z"/>
      <path class="cls-19" d="M604.05,61.37c0,.19.11.34.25.34s.25-.15.25-.34-.11-.34-.25-.34-.25.15-.25.34Z"/>
      <path class="cls-19" d="M604.82,58.14c0,.19.11.34.25.34s.25-.15.25-.34c0-.18-.11-.34-.25-.34s-.25.15-.25.34Z"/>
      <path class="cls-19" d="M604.04,58.14c0,.19.11.34.25.34s.25-.15.25-.34c0-.18-.11-.34-.25-.34s-.25.15-.25.34Z"/>
      <path class="cls-19" d="M603.26,58.14c0,.19.11.34.25.34s.25-.15.25-.34c0-.18-.11-.34-.25-.34s-.25.15-.25.34Z"/>
      <path class="cls-19" d="M602.47,58.14c0,.19.11.34.25.34s.25-.15.25-.34c0-.18-.11-.34-.25-.34s-.25.15-.25.34Z"/>
      <path class="cls-19" d="M601.69,58.14c0,.19.11.34.25.34s.25-.15.25-.34-.11-.34-.25-.34-.25.15-.25.34Z"/>
      <path class="cls-19" d="M600.91,58.14c0,.19.11.34.25.34s.25-.15.25-.34c0-.18-.11-.34-.25-.34s-.25.15-.25.34Z"/>
      <path class="cls-19" d="M600.12,58.14c0,.19.11.34.25.34s.25-.15.25-.34-.11-.34-.25-.34-.25.15-.25.34Z"/>
      <path class="cls-19" d="M599.34,58.14c0,.19.11.34.25.34s.25-.15.25-.34c0-.18-.11-.34-.25-.34s-.25.15-.25.34Z"/>
      <path class="cls-19" d="M598.56,58.14c0,.19.11.34.25.34s.25-.15.25-.34c0-.18-.11-.34-.25-.34s-.25.15-.25.34Z"/>
      <path class="cls-19" d="M597.77,58.14c0,.19.11.34.25.34s.25-.15.25-.34-.11-.34-.25-.34-.25.15-.25.34Z"/>
      <path class="cls-19" d="M596.99,58.14c0,.19.11.34.25.34s.25-.15.25-.34c0-.18-.11-.34-.25-.34s-.25.15-.25.34Z"/>
      <path class="cls-19" d="M596.21,58.14c0,.19.11.34.25.34s.25-.15.25-.34c0-.18-.11-.34-.25-.34s-.25.15-.25.34Z"/>
      <path class="cls-19" d="M595.43,58.14c0,.19.11.34.25.34s.25-.15.25-.34-.11-.34-.25-.34-.25.15-.25.34Z"/>
      <path class="cls-19" d="M594.64,58.14c0,.19.11.34.25.34s.25-.15.25-.34c0-.18-.11-.34-.25-.34s-.25.15-.25.34Z"/>
      <path class="cls-19" d="M593.86,58.14c0,.19.11.34.25.34s.25-.15.25-.34c0-.18-.11-.34-.25-.34s-.25.15-.25.34Z"/>
      <path class="cls-19" d="M593.08,58.14c0,.19.11.34.25.34s.25-.15.25-.34c0-.18-.11-.34-.25-.34s-.25.15-.25.34Z"/>
      <path class="cls-19" d="M592.29,58.14c0,.19.11.34.25.34s.25-.15.25-.34-.11-.34-.25-.34-.25.15-.25.34Z"/>
      <path class="cls-19" d="M591.51,58.14c0,.19.11.34.25.34s.25-.15.25-.34c0-.18-.11-.34-.25-.34s-.25.15-.25.34Z"/>
      <path class="cls-19" d="M590.73,58.14c0,.19.11.34.25.34s.25-.15.25-.34c0-.18-.11-.34-.25-.34s-.25.15-.25.34Z"/>
      <path class="cls-19" d="M589.95,58.14c0,.19.11.34.25.34s.25-.15.25-.34c0-.18-.11-.34-.25-.34s-.25.15-.25.34Z"/>
      <path class="cls-19" d="M589.16,58.14c0,.19.11.34.25.34s.25-.15.25-.34-.11-.34-.25-.34-.25.15-.25.34Z"/>
      <path class="cls-19" d="M588.38,58.14c0,.19.11.34.25.34s.25-.15.25-.34c0-.18-.11-.34-.25-.34s-.25.15-.25.34Z"/>
      <path class="cls-19" d="M587.6,58.14c0,.19.11.34.25.34s.25-.15.25-.34c0-.18-.11-.34-.25-.34s-.25.15-.25.34Z"/>
      <path class="cls-19" d="M586.82,58.14c0,.19.11.34.25.34s.25-.15.25-.34c0-.18-.11-.34-.25-.34s-.25.15-.25.34Z"/>
      <path class="cls-19" d="M585.25,58.15c0,.18.11.34.25.34s.25-.15.25-.34c0-.19-.11-.34-.25-.34s-.25.15-.25.34Z"/>
      <path class="cls-19" d="M580.82,58.15c0,.18.11.34.25.34s.25-.15.25-.34-.11-.34-.25-.34-.25.15-.25.34Z"/>
      <path class="cls-19" d="M579.98,58.15c0,.18.11.34.25.34s.25-.15.25-.34-.11-.34-.25-.34-.25.15-.25.34Z"/>
      <path class="cls-19" d="M582.5,58.15c0,.18.11.34.25.34s.25-.15.25-.34c0-.19-.11-.34-.25-.34s-.25.15-.25.34Z"/>
      <path class="cls-19" d="M579.14,58.15c0,.18.11.34.25.34s.25-.15.25-.34c0-.19-.11-.34-.25-.34s-.25.15-.25.34Z"/>
      <path class="cls-19" d="M581.66,58.15c0,.18.11.34.25.34s.25-.15.25-.34c0-.19-.11-.34-.25-.34s-.25.15-.25.34Z"/>
      <path class="cls-19" d="M603.33,61.37c0,.19.11.34.25.34s.25-.15.25-.34-.11-.34-.25-.34-.25.15-.25.34Z"/>
      <path class="cls-19" d="M602.58,61.37c0,.19.11.34.25.34s.25-.15.25-.34c0-.18-.11-.34-.25-.34s-.25.15-.25.34Z"/>
      <path class="cls-19" d="M601.83,61.37c0,.19.11.34.25.34s.25-.15.25-.34-.11-.34-.25-.34-.25.15-.25.34Z"/>
      <path class="cls-19" d="M601.08,61.37c0,.19.11.34.25.34s.25-.15.25-.34c0-.18-.11-.34-.25-.34s-.25.15-.25.34Z"/>
      <path class="cls-19" d="M600.33,61.37c0,.19.11.34.25.34s.25-.15.25-.34c0-.18-.11-.34-.25-.34s-.25.15-.25.34Z"/>
      <path class="cls-19" d="M599.57,61.37c0,.19.11.34.25.34s.25-.15.25-.34c0-.18-.11-.34-.25-.34s-.25.15-.25.34Z"/>
      <path class="cls-19" d="M576.63,61.37c0,.19.11.34.25.34s.25-.15.25-.34c0-.18-.11-.34-.25-.34s-.25.15-.25.34Z"/>
      <path class="cls-19" d="M575.69,61.42c.02.16.12.29.25.29.14,0,.25-.15.25-.34,0-.1-.03-.19-.09-.25-.12.08-.26.18-.41.3Z"/>
      <path class="cls-19" d="M573.81,61.37c0,.19.11.34.25.34s.25-.15.25-.34-.11-.34-.25-.34-.25.15-.25.34Z"/>
      <path class="cls-19" d="M572.88,61.37c0,.19.11.34.25.34s.25-.15.25-.34-.11-.34-.25-.34-.25.15-.25.34Z"/>
      <path class="cls-19" d="M571.94,61.37c0,.19.11.34.25.34s.25-.15.25-.34c0-.18-.11-.34-.25-.34s-.25.15-.25.34Z"/>
      <path class="cls-18" d="M579.46,62.03v.08c-.01.07.03.14.1.16l.46.14c-.09.06-.19.09-.3.09h-.23c-.2,0-.37-.11-.47-.27h0c-.05-.08-.08-.18-.08-.28v-.68l1.32.23v.27l-.64.09c-.09.01-.16.08-.16.17Z"/>
      <path class="cls-10" d="M578.58,64.4c-.11.09-.16.23-.12.37.1.33.35.6.67.72l.63.25-.38.44h-.24l.25-.44h-.29l-5-.55h-.06s-2.54-.47-2.54-.47l.03-2.57,7.51.07h0c.09.16.27.27.47.27h.23c.11,0,.21-.03.3-.09l.24.08c.07.02.13.09.14.16v.02c.02.12.12.21.24.23l1.12.12c.05,0,.1.03.13.07l.07.09-1.23.33-1.23.37c-.25.07-.48.19-.69.35l-.23.17Z"/>
      <path class="cls-19" d="M578.3,58.15c0,.18.11.34.25.34s.25-.15.25-.34c0-.19-.11-.34-.25-.34s-.25.15-.25.34Z"/>
      <path class="cls-19" d="M577.46,58.15c0,.18.11.34.25.34s.25-.15.25-.34-.11-.34-.25-.34-.25.15-.25.34Z"/>
      <path class="cls-19" d="M576.62,58.15c0,.18.11.34.25.34s.25-.15.25-.34-.11-.34-.25-.34-.25.15-.25.34Z"/>
      <polygon class="cls-8" points="574.09 65.2 574.09 65.39 573.63 65.39 569.49 64.55 569.49 64.36 571.49 64.73 574.03 65.19 574.09 65.2"/>
      <line class="cls-9" x1="595" y1="56.28" x2="594.99" y2="56.26"/>
      <polyline class="cls-9" points="613.9 56.33 613.9 56.33 613.9 56.34"/>
      <path class="cls-8" d="M610.85,66.07s-.05.25-.41.4l.07-.35.34-.06Z"/>
      <polygon class="cls-8" points="594.18 66.57 593.83 66.8 593.88 66.57 594.18 66.57"/>
      <line class="cls-9" x1="593.88" y1="66.56" x2="593.88" y2="66.57"/>
      <polygon class="cls-8" points="583.93 66.13 583.59 66.49 583.41 66.49 583.63 66.1 583.93 66.13"/>
    </g>
  </g>
</svg>