<?xml version="1.0" encoding="UTF-8"?>
<svg id="Layer_2" data-name="Layer 2" xmlns="http://www.w3.org/2000/svg" xmlns:xlink="http://www.w3.org/1999/xlink" viewBox="0 0 773.62 106.6">
  <defs>
    <style>
      .cls-1 {
        fill: #58595b;
      }

      .cls-1, .cls-2, .cls-3, .cls-4, .cls-5, .cls-6, .cls-7, .cls-8, .cls-9, .cls-10, .cls-11, .cls-12, .cls-13, .cls-14, .cls-15, .cls-16, .cls-17, .cls-18, .cls-19, .cls-20, .cls-21, .cls-22, .cls-23, .cls-24 {
        stroke: #231f20;
        stroke-miterlimit: 10;
      }

      .cls-1, .cls-3, .cls-7, .cls-10, .cls-11, .cls-14, .cls-16, .cls-17, .cls-20 {
        stroke-width: .25px;
      }

      .cls-2 {
        stroke-width: 3px;
      }

      .cls-2, .cls-25 {
        fill: #7acfef;
      }

      .cls-3, .cls-22 {
        fill: #414042;
      }

      .cls-4 {
        fill: #594a42;
      }

      .cls-5, .cls-11, .cls-12 {
        fill: none;
      }

      .cls-6 {
        fill: #6d6e71;
      }

      .cls-7 {
        fill: #bcbec0;
      }

      .cls-26 {
        fill: url(#linear-gradient);
      }

      .cls-8 {
        fill: #489478;
      }

      .cls-8, .cls-12, .cls-23 {
        stroke-width: .75px;
      }

      .cls-9, .cls-17 {
        fill: #939598;
      }

      .cls-10, .cls-27 {
        fill: #808285;
      }

      .cls-13 {
        fill: #754c29;
      }

      .cls-28 {
        fill: #f1f2f2;
      }

      .cls-14 {
        fill: #e6e7e8;
      }

      .cls-29, .cls-30 {
        font-size: 10px;
      }

      .cls-29, .cls-31 {
        font-family: BodoniSvtyTwoSCITCTT-Book, 'Bodoni 72 Smallcaps';
      }

      .cls-31 {
        font-size: 9.63px;
      }

      .cls-32 {
        font-size: 12px;
      }

      .cls-33 {
        fill: #fff;
      }

      .cls-15, .cls-16 {
        fill: #f9ed32;
      }

      .cls-18 {
        stroke-width: .2px;
      }

      .cls-18, .cls-34 {
        font-family: Arial-Black, 'Arial Black';
        font-weight: 800;
      }

      .cls-19 {
        fill: #be1e2d;
      }

      .cls-34 {
        font-size: 16px;
        letter-spacing: 0em;
      }

      .cls-20 {
        fill: #3c77a6;
      }

      .cls-35 {
        letter-spacing: .06em;
      }

      .cls-21 {
        fill: #3c2415;
      }

      .cls-36 {
        letter-spacing: .03em;
      }

      .cls-23 {
        fill: #5cbd99;
      }

      .cls-24 {
        fill: #a97c50;
      }
    </style>
    <linearGradient id="linear-gradient" x1="-.52" y1="71.6" x2="633.52" y2="71.6" gradientUnits="userSpaceOnUse">
      <stop offset="0" stop-color="#fff"/>
      <stop offset=".89" stop-color="#231f20"/>
    </linearGradient>
  </defs>
  <g id="Layer_6" data-name="Layer 6">
    <g id="Layer_7" data-name="Layer 7">
      <g>
        <rect class="cls-2" x="28.69" y="34.1" width="669.79" height="40.03"/>
        <path class="cls-27" d="M104.01,57.22s-.03.01-.05.01c0,0,0-.02,0-.02.02,0,.03.01.05.01Z"/>
        <path class="cls-27" d="M104.01,57.22s-.03.01-.05.01c0,0,0-.02,0-.02.02,0,.03.01.05.01Z"/>
        <path class="cls-27" d="M150.88,48.34c0-2.23-4.14-4.04-9.25-4.04-4.46,0-8.17,1.37-9.04,3.21-1.99-.41-4.34-.64-6.85-.64-4.75,0-8.89.83-11.14,2.07-1.43-.71-3.54-1.16-5.9-1.16-2.99,0-5.59.72-6.9,1.79-.47-.03-.94-.05-1.43-.05-3.67,0-6.65.91-6.65,2.04,0,.63.93,1.19,2.39,1.56-.45.41-.7.87-.7,1.35,0,.29.09.57.27.84-.38-.03-.78-.04-1.19-.04-2.96,0-5.35.69-5.35,1.53,0,.33.36.63.98.88-.63.31-.98.65-.98,1.03,0,1.22,3.83,2.21,8.56,2.21,4.38,0,7.99-.85,8.49-1.95,1.84.63,4.66,1.03,7.82,1.03,2.94,0,5.59-.35,7.42-.9.76.09,1.66.14,2.63.14,1.54,0,2.92-.13,3.83-.34,2.2.69,5.04,1.1,8.14,1.1,6.99,0,12.66-2.1,12.66-4.69,0-1.27-1.35-2.41-3.53-3.25,3.36-.61,5.72-2.05,5.72-3.73ZM103.96,57.23s0-.02,0-.02c.02,0,.03.01.05.01-.02.01-.03.01-.05.01Z"/>
        <path class="cls-27" d="M104.01,57.22s-.03.01-.05.01c0,0,0-.02,0-.02.02,0,.03.01.05.01Z"/>
        <g>
          <path class="cls-25" d="M58.41,45.4s-.04.08-.06.12c-.06-.04-.12-.07-.19-.1.08,0,.16-.01.25-.02Z"/>
          <path class="cls-28" d="M109.25,54.49c0,1.24-1.78,2.25-3.97,2.25-1.07,0-2.03-.24-2.74-.63-.97.57-2.2,1.1-3.66,1.6,1.54.36,2.44.81,2.44,1.29,0,1.24-6.06,2.25-13.54,2.25-2.72,0-5.26-.13-7.38-.36h-.01c-3.29.24-6.78.36-10.4.36-3.88,0-7.61-.15-11.09-.42-.6.78-1.8,1.32-3.19,1.32-1.78,0-3.26-.88-3.55-2.03-3.82-.52-7.18-1.22-9.89-2.03-.43.13-.91.21-1.42.21-1.74,0-3.15-.85-3.15-1.9,0-.04,0-.09.01-.13-.73-.4-1.33-.83-1.78-1.26-.36.04-.74.06-1.13.06-2.38,0-4.31-.81-4.31-1.8s1.93-1.8,4.31-1.8c.29,0,.57.01.84.04.74-.87,2.07-1.68,3.88-2.43-.26-.55-.41-1.14-.41-1.75,0-3.19,3.92-5.77,8.75-5.77,3.55,0,6.6,1.39,7.97,3.39.04,0,.09,0,.13,0,.85,0,1.62.18,2.21.47.07.03.13.06.19.1.02-.04.04-.08.06-.12.42-.9,1.34-1.53,2.41-1.53.95,0,1.78.49,2.25,1.23.27-.01.54-.02.81-.04.75-1.23,2.53-2.1,4.6-2.1.55,0,1.07.06,1.56.18.31-1.64,1.74-2.88,3.47-2.88,1.27,0,2.38.67,3,1.66,1.22-.24,2.59-.37,4.03-.37,4.93,0,8.97,1.55,9.36,3.51.52-.08,1.1-.12,1.7-.12,2.42,0,4.38.7,4.38,1.56,0,.35-.31.67-.84.92.73.18,1.42.36,2.08.55.53-.41,1.2-.65,1.92-.65,1.55,0,2.84,1.12,3.11,2.6,1.32.73,2.19,1.51,2.55,2.32.15-.01.31-.02.46-.02,2.19,0,3.97,1.01,3.97,2.25Z"/>
        </g>
        <path class="cls-33" d="M244.19,62.26c.19.27.28.54.28.82,0,3.31-13.06,5.98-29.16,5.98-2.93,0-5.75-.09-8.41-.26-1.51,1.15-3.39,1.83-5.43,1.83-2.21,0-4.23-.79-5.79-2.11-4.06.34-8.67.54-13.56.54-16.29,0-29.49-2.16-29.49-4.82,0-2.31,9.91-4.23,23.15-4.7-1.22-.72-1.92-1.55-1.92-2.44,0-2.81,6.96-5.08,15.54-5.08,1.43,0,2.81.06,4.13.18,1.56-1.67,4.5-2.8,7.86-2.8,1.32,0,2.57.17,3.7.48,5.95-1.74,14.86-2.84,24.79-2.84,17.93,0,32.47,3.59,32.47,8.02,0,3.16-7.41,5.89-18.17,7.19Z"/>
        <g>
          <path class="cls-25" d="M332.9,45.25s-.04.08-.06.12c-.06-.04-.12-.07-.19-.1.08,0,.16-.01.25-.02Z"/>
          <path class="cls-28" d="M383.74,54.34c0,1.24-1.78,2.25-3.97,2.25-1.07,0-2.03-.24-2.74-.63-.97.57-2.2,1.1-3.66,1.6,1.54.36,2.44.81,2.44,1.29,0,1.24-6.06,2.25-13.54,2.25-2.72,0-5.26-.13-7.38-.36h-.01c-3.29.24-6.78.36-10.4.36-3.88,0-7.61-.15-11.09-.42-.6.78-1.8,1.32-3.19,1.32-1.78,0-3.26-.88-3.55-2.03-3.82-.52-7.18-1.22-9.89-2.03-.43.13-.91.21-1.42.21-1.74,0-3.15-.85-3.15-1.9,0-.04,0-.09.01-.13-.73-.4-1.33-.83-1.78-1.26-.36.04-.74.06-1.13.06-2.38,0-4.31-.81-4.31-1.8s1.93-1.8,4.31-1.8c.29,0,.57.01.84.04.74-.87,2.07-1.68,3.88-2.43-.26-.55-.41-1.14-.41-1.75,0-3.19,3.92-5.77,8.75-5.77,3.55,0,6.6,1.39,7.97,3.39.04,0,.09,0,.13,0,.85,0,1.62.18,2.21.47.07.03.13.06.19.1.02-.04.04-.08.06-.12.42-.9,1.34-1.53,2.41-1.53.95,0,1.78.49,2.25,1.23.27-.01.54-.02.81-.04.75-1.23,2.53-2.1,4.6-2.1.55,0,1.07.06,1.56.18.31-1.64,1.74-2.88,3.47-2.88,1.27,0,2.38.67,3,1.66,1.22-.24,2.59-.37,4.03-.37,4.93,0,8.97,1.55,9.36,3.51.52-.08,1.1-.12,1.7-.12,2.42,0,4.38.7,4.38,1.56,0,.35-.31.67-.84.92.73.18,1.42.36,2.08.55.53-.41,1.2-.65,1.92-.65,1.55,0,2.84,1.12,3.11,2.6,1.32.73,2.19,1.51,2.55,2.32.15-.01.31-.02.46-.02,2.19,0,3.97,1.01,3.97,2.25Z"/>
        </g>
        <path class="cls-33" d="M369.88,59.54c.09.14.14.27.14.41,0,1.65-6.53,2.99-14.58,2.99-1.46,0-2.87-.05-4.2-.13-.76.57-1.7.92-2.71.92-1.1,0-2.11-.4-2.89-1.06-2.03.17-4.34.27-6.78.27-8.15,0-14.75-1.08-14.75-2.41,0-1.15,4.96-2.11,11.58-2.35-.61-.36-.96-.78-.96-1.22,0-1.4,3.48-2.54,7.77-2.54.71,0,1.41.03,2.06.09.78-.84,2.25-1.4,3.93-1.4.66,0,1.28.09,1.85.24,2.98-.87,7.43-1.42,12.4-1.42,8.97,0,16.23,1.79,16.23,4.01,0,1.58-3.71,2.95-9.09,3.6Z"/>
        <path class="cls-27" d="M458.44,51.12c0-2.23-4.14-4.04-9.25-4.04-4.46,0-8.17,1.37-9.04,3.21-1.99-.41-4.34-.64-6.85-.64-4.75,0-8.89.83-11.14,2.07-1.43-.71-3.54-1.16-5.9-1.16-2.99,0-5.59.72-6.9,1.79-.47-.03-.94-.05-1.43-.05-3.67,0-6.65.91-6.65,2.04,0,.63.93,1.19,2.39,1.56-.45.41-.7.87-.7,1.35,0,.29.09.57.27.84-.38-.03-.78-.04-1.19-.04-2.96,0-5.35.69-5.35,1.53,0,.33.36.63.98.88-.63.31-.98.65-.98,1.03,0,1.22,3.83,2.21,8.56,2.21,4.38,0,7.99-.85,8.49-1.95,1.84.63,4.66,1.03,7.82,1.03,2.94,0,5.59-.35,7.42-.9.76.09,1.66.14,2.63.14,1.54,0,2.92-.13,3.83-.34,2.2.69,5.04,1.1,8.14,1.1,6.99,0,12.66-2.1,12.66-4.69,0-1.27-1.35-2.41-3.53-3.25,3.36-.61,5.72-2.05,5.72-3.73ZM411.52,60.01s0-.02,0-.02c.02,0,.03.01.05.01-.02.01-.03.01-.05.01Z"/>
        <path class="cls-33" d="M434.66,50.42c-.16-.29-.23-.56-.21-.84.28-3.3,13.52-4.85,29.56-3.49,2.91.25,5.72.58,8.35.97,1.6-1.02,3.53-1.54,5.56-1.36,2.2.19,4.14,1.15,5.59,2.59,4.07,0,8.69.2,13.56.62,16.23,1.38,29.21,4.65,28.98,7.3-.2,2.3-10.23,3.37-23.47,2.72,1.15.83,1.78,1.71,1.7,2.59-.24,2.8-7.36,4.48-15.91,3.75-1.42-.12-2.8-.3-4.1-.53-1.7,1.53-4.72,2.41-8.07,2.12-1.31-.11-2.55-.39-3.64-.79-6.08,1.23-15.04,1.57-24.95.73-17.87-1.52-32.05-6.33-31.67-10.75.27-3.15,7.88-5.24,18.72-5.63Z"/>
      </g>
      <g>
        <path class="cls-27" d="M336.39,55.08c0-2.23-4.14-4.04-9.25-4.04-4.46,0-8.17,1.37-9.04,3.21-1.99-.41-4.34-.64-6.85-.64-4.75,0-8.89.83-11.14,2.07-1.43-.71-3.54-1.16-5.9-1.16-2.99,0-5.59.72-6.9,1.79-.47-.03-.94-.05-1.43-.05-3.67,0-6.65.91-6.65,2.04,0,.63.93,1.19,2.39,1.56-.45.41-.7.87-.7,1.35,0,.29.09.57.27.84-.38-.03-.78-.04-1.19-.04-2.96,0-5.35.69-5.35,1.53,0,.33.36.63.98.88-.63.31-.98.65-.98,1.03,0,1.22,3.83,2.21,8.56,2.21,4.38,0,7.99-.85,8.49-1.95,1.84.63,4.66,1.03,7.82,1.03,2.94,0,5.59-.35,7.42-.9.76.09,1.66.14,2.63.14,1.54,0,2.92-.13,3.83-.34,2.2.69,5.04,1.1,8.14,1.1,6.99,0,12.66-2.1,12.66-4.69,0-1.27-1.35-2.41-3.53-3.25,3.36-.61,5.72-2.05,5.72-3.73ZM289.47,63.97s0-.02,0-.02c.02,0,.03.01.05.01-.02.01-.03.01-.05.01Z"/>
        <path class="cls-33" d="M312.61,54.38c-.16-.29-.23-.56-.21-.84.28-3.3,13.52-4.85,29.56-3.49,2.91.25,5.72.58,8.35.97,1.6-1.02,3.53-1.54,5.56-1.36,2.2.19,4.14,1.15,5.59,2.59,4.07,0,8.69.2,13.56.62,16.23,1.38,29.21,4.65,28.98,7.3-.2,2.3-10.23,3.37-23.47,2.72,1.15.83,1.78,1.71,1.7,2.59-.24,2.8-7.36,4.48-15.91,3.75-1.42-.12-2.8-.3-4.1-.53-1.7,1.53-4.72,2.41-8.07,2.12-1.31-.11-2.55-.39-3.64-.79-6.08,1.23-15.04,1.57-24.95.73-17.87-1.52-32.05-6.33-31.67-10.75.27-3.15,7.88-5.24,18.72-5.63Z"/>
      </g>
      <g>
        <path class="cls-27" d="M574.88,45.75s.03,0,.05,0c0,0,0,.02,0,.02-.02,0-.03-.01-.05-.01Z"/>
        <path class="cls-27" d="M574.88,45.75s.03,0,.05,0c0,0,0,.02,0,.02-.02,0-.03-.01-.05-.01Z"/>
        <path class="cls-27" d="M527.64,52.31c-.11,2.23,3.94,4.24,9.04,4.49,4.45.22,8.23-.97,9.19-2.76,1.96.5,4.3.85,6.81.98,4.74.23,8.92-.39,11.23-1.52,1.39.78,3.48,1.33,5.84,1.45,2.99.15,5.62-.44,6.98-1.44.46.06.94.1,1.43.12,3.67.18,6.68-.58,6.74-1.71.03-.63-.87-1.23-2.31-1.67.47-.38.75-.83.77-1.32.01-.29-.06-.58-.22-.85.38.05.78.08,1.18.1,2.95.15,5.38-.42,5.42-1.27.02-.33-.33-.65-.94-.93.64-.28,1.01-.61,1.03-.98.06-1.22-3.72-2.4-8.44-2.63-4.37-.22-8.02.46-8.58,1.53-1.81-.72-4.6-1.26-7.76-1.42-2.94-.14-5.6.07-7.46.54-.76-.13-1.65-.22-2.62-.27-1.54-.08-2.93-.01-3.84.15-2.16-.79-4.98-1.35-8.08-1.5-6.98-.34-12.75,1.47-12.88,4.06-.06,1.27,1.23,2.47,3.37,3.42-3.38.44-5.82,1.76-5.9,3.44ZM574.94,45.74s0,.02,0,.02c-.02,0-.03-.01-.05-.01.02-.01.03,0,.05,0Z"/>
        <path class="cls-27" d="M574.88,45.75s.03,0,.05,0c0,0,0,.02,0,.02-.02,0-.03-.01-.05-.01Z"/>
      </g>
      <g>
        <path class="cls-25" d="M596.62,46.85s.04-.08.06-.12c.06.04.12.07.19.1-.08,0-.16.01-.25.02Z"/>
        <path class="cls-28" d="M553.08,35.82c-.21.1-.4.21-.59.32-.22-.12-.46-.23-.73-.32-.59-.2-1.28-.31-2.02-.31s-1.42.11-2.01.31c-1.17.39-1.95,1.11-1.95,1.94,0,1.24,1.78,2.25,3.96,2.25.16,0,.32,0,.47-.02.36.82,1.24,1.6,2.55,2.33.14.75.53,1.41,1.1,1.87.54.46,1.25.73,2.01.73.6,0,1.15-.16,1.62-.44.11-.06.21-.13.31-.21.11.03.23.07.34.09.55.16,1.13.31,1.73.46-.52.26-.83.57-.83.92,0,.86,1.96,1.56,4.38,1.56.6,0,1.18-.04,1.7-.12.39,1.97,4.44,3.51,9.36,3.51,1.45,0,2.82-.13,4.04-.37.62,1,1.73,1.66,3,1.66.42,0,.82-.07,1.2-.21.98-.35,1.75-1.13,2.11-2.11.07-.18.12-.37.16-.56.49.12,1.01.18,1.56.18,1.2,0,2.3-.29,3.16-.78.63-.34,1.13-.8,1.45-1.32.26-.01.53-.02.8-.03.47.73,1.3,1.23,2.25,1.23,1.07,0,1.99-.63,2.41-1.53l.06-.12c.06.04.12.07.19.1.59.3,1.36.47,2.2.47h.13c.54.8,1.35,1.5,2.36,2.04,1.52.85,3.48,1.35,5.62,1.35,4.83,0,8.75-2.58,8.75-5.77,0-.61-.15-1.2-.41-1.75,1.82-.74,3.14-1.56,3.88-2.43.28.03.55.04.84.04,1.85,0,3.42-.49,4.04-1.17.17-.19.27-.41.27-.63,0-.99-1.93-1.8-4.31-1.8-.39,0-.77.02-1.13.06-.45-.43-1.04-.85-1.78-1.25,0-.05.02-.09.02-.13v-.04h-64.27Z"/>
      </g>
      <g>
        <path class="cls-25" d="M116.18,42.89s-.04.08-.06.12c-.06-.04-.12-.08-.18-.11.08,0,.16,0,.25,0Z"/>
        <path class="cls-28" d="M166.62,54.01c-.05,1.24-1.87,2.18-4.05,2.09-1.07-.04-2.02-.32-2.72-.74-.99.53-2.24,1.01-3.72,1.45,1.52.43,2.4.9,2.39,1.39-.05,1.24-6.15,2.01-13.62,1.71-2.72-.11-5.25-.34-7.36-.66h-.01c-3.29.1-6.79.09-10.41-.05-3.88-.16-7.6-.45-11.07-.86-.63.76-1.85,1.24-3.24,1.19-1.78-.07-3.23-1.01-3.47-2.17-3.8-.68-7.13-1.5-9.8-2.43-.43.11-.92.17-1.43.15-1.74-.07-3.12-.97-3.08-2.02,0-.04,0-.09.02-.13-.72-.43-1.3-.88-1.73-1.33-.36.03-.74.03-1.13.02-2.38-.1-4.28-.98-4.24-1.97s2-1.72,4.38-1.63c.29.01.56.04.84.07.77-.84,2.13-1.6,3.98-2.27-.24-.56-.36-1.16-.34-1.77.13-3.19,4.14-5.61,8.98-5.42,3.54.14,6.54,1.65,7.83,3.71.04,0,.09,0,.13,0,.85.03,1.61.24,2.19.56.07.03.13.07.18.11.02-.04.04-.08.06-.12.46-.88,1.4-1.47,2.47-1.43.95.04,1.76.56,2.2,1.32.27,0,.54,0,.81,0,.8-1.2,2.61-1.99,4.68-1.91.55.02,1.07.1,1.56.24.37-1.62,1.86-2.81,3.58-2.74,1.27.05,2.35.76,2.93,1.78,1.23-.19,2.6-.27,4.05-.21,4.92.2,8.9,1.9,9.22,3.88.53-.06,1.1-.08,1.71-.05,2.42.1,4.35.88,4.31,1.74-.01.35-.34.65-.87.89.72.21,1.41.42,2.06.63.54-.39,1.22-.6,1.95-.57,1.55.06,2.8,1.23,3,2.73,1.29.78,2.13,1.6,2.46,2.43.15,0,.31,0,.47,0,2.19.09,3.92,1.17,3.87,2.41Z"/>
      </g>
      <g>
        <path class="cls-25" d="M142.53,63.8s-.04.08-.06.12c-.06-.04-.12-.07-.19-.1.08,0,.16-.01.25-.02Z"/>
        <path class="cls-28" d="M193.29,72.43c-.38-1.02-1.98-1.79-3.89-1.79-.16,0-.31,0-.46.02-.29-.66-.92-1.29-1.83-1.89-.22-.15-.46-.3-.72-.44-.27-1.48-1.56-2.6-3.11-2.6-.73,0-1.4.24-1.93.65-.65-.19-1.35-.37-2.08-.55.53-.26.84-.58.84-.92,0-.1-.03-.2-.08-.29-.38-.73-2.16-1.28-4.3-1.28-.6,0-1.18.05-1.7.13-.39-1.97-4.44-3.51-9.37-3.51-1.44,0-2.81.13-4.03.37-.55-.87-1.45-1.48-2.5-1.62-.16-.03-.33-.04-.5-.04-.5,0-.97.1-1.4.29-.32.14-.61.32-.87.54h-.01c-.6.52-1.04,1.23-1.19,2.05-.49-.12-1.02-.18-1.56-.18-2.08,0-3.86.87-4.61,2.1-.27,0-.54.02-.8.03-.47-.73-1.3-1.23-2.25-1.23-1.07,0-1.99.63-2.41,1.53-.03.04-.04.08-.06.12-.06-.04-.12-.07-.19-.1-.59-.3-1.36-.48-2.21-.48-.04,0-.08,0-.12,0-.52-.75-1.27-1.41-2.19-1.95-.18-.11-.37-.21-.57-.3-1.45-.72-3.26-1.14-5.22-1.14-3.09,0-5.8,1.05-7.36,2.65-.61.63-1.05,1.34-1.25,2.1-.09.33-.14.67-.14,1.02,0,.61.15,1.2.41,1.75-.45.18-.86.37-1.25.56-1.18.59-2.07,1.21-2.63,1.86-.28-.02-.55-.03-.84-.03-2.39,0-4.31.81-4.31,1.8,0,.27.15.53.41.76h78.28Z"/>
      </g>
      <g>
        <path class="cls-27" d="M176.02,53.16c0-2.23-2.63-4.04-5.86-4.04-2.83,0-5.18,1.37-5.73,3.21-1.26-.41-2.75-.64-4.34-.64-3.01,0-5.64.83-7.06,2.07-.91-.71-2.24-1.16-3.74-1.16-1.9,0-3.54.72-4.37,1.79-.3-.03-.6-.05-.91-.05-2.33,0-4.21.91-4.21,2.04,0,.63.59,1.19,1.51,1.56-.28.41-.45.87-.45,1.35,0,.29.06.57.17.84-.24-.03-.49-.04-.75-.04-1.87,0-3.39.69-3.39,1.53,0,.33.23.63.62.88-.4.31-.62.65-.62,1.03,0,1.22,2.43,2.21,5.43,2.21,2.78,0,5.06-.85,5.38-1.95,1.17.63,2.95,1.03,4.96,1.03,1.86,0,3.54-.35,4.7-.9.48.09,1.05.14,1.67.14.98,0,1.85-.13,2.43-.34,1.39.69,3.19,1.1,5.16,1.1,4.43,0,8.03-2.1,8.03-4.69,0-1.27-.85-2.41-2.24-3.25,2.13-.61,3.63-2.05,3.63-3.73ZM146.28,62.05s0-.02,0-.02c.01,0,.02.01.03.01-.01.01-.02.01-.03.01Z"/>
        <path class="cls-33" d="M160.94,52.46c-.1-.29-.15-.56-.13-.84.18-3.3,8.57-4.85,18.74-3.49,1.85.25,3.62.58,5.3.97,1.02-1.02,2.24-1.54,3.53-1.36,1.39.19,2.63,1.15,3.54,2.59,2.58,0,5.51.2,8.59.62,10.29,1.38,18.51,4.65,18.37,7.3-.12,2.3-6.49,3.37-14.88,2.72.73.83,1.13,1.71,1.08,2.59-.15,2.8-4.67,4.48-10.09,3.75-.9-.12-1.77-.3-2.6-.53-1.08,1.53-2.99,2.41-5.12,2.12-.83-.11-1.61-.39-2.31-.79-3.85,1.23-9.54,1.57-15.81.73-11.33-1.52-20.32-6.33-20.08-10.75.17-3.15,5-5.24,11.86-5.63Z"/>
      </g>
    </g>
    <text class="cls-18" transform="translate(27.38 10.4)"><tspan class="cls-32"><tspan x="0" y="0">Airbus A330 Neo-841</tspan></tspan><tspan class="cls-30"><tspan x="0" y="12">Ai</tspan><tspan class="cls-36" x="11.11" y="12">r</tspan><tspan x="15.88" y="12">line se</tspan><tspan class="cls-35" x="51.99" y="12">r</tspan><tspan x="57.01" y="12">vice ent</tspan><tspan class="cls-35" x="100.9" y="12">r</tspan><tspan x="105.92" y="12">y: 2018</tspan></tspan></text>
    <text class="cls-34" transform="translate(730.03 71.06) scale(1 1.97)"><tspan x="0" y="0">406</tspan></text>
  </g>
  <g id="Layer_8" data-name="Layer 8">
    <g>
      <path class="cls-23" d="M20.1,61.95l-.24.6s-.03.06-.05.1l-.22.37c-.1.16-.22.3-.38.41l-.57.4c-.09,0-.17.04-.23.09-.06.06-.09.14-.1.23v1.49c-.01.28-.09.56-.23.8-.11.19-.26.36-.44.48l-.19.13c-.06.04-.11.07-.18.1-.19.08-.32.27-.29.48l.16,1.47.15,1.23.13,1.76v.15c0,.19-.09.36-.22.5-.06.06-.09.14-.09.23v.27s-.26,3.11-.26,3.11l-.13,3.28-.02,1.04s0,.09,0,.13l.05.86c.06.18.2.32.38.38l.23.08-11.09-.04c.04-.25.13-.49.27-.7l.81-1.24.28-.19.36-.42,1.3-1.03c.09-.07.16-.17.2-.28l.09-.25c.05-.15.15-.28.29-.36l1.48-.95,2.29-1.29c-.03-.24-.19-.44-.41-.54l-.55-.25c-.06-.03-.1-.08-.1-.14-.04-.24.07-.48.27-.61l.94-.61,2.43-1.4v-1.12l-.15-1.9-.25-2.09-.19-2.64,1.06,1.06c.17.17.45.14.58-.06l1.34-2.02-.46-.7.05-.07c.06-.08.19-.1.27-.02l.54.49-.7-.83s-.02-.04-.02-.06c.02-.1.11-.17.2-.17.03,0,.07,0,.1.02l.19.1.66.55-.78-.87v-.05c0-.14.16-.22.27-.14l.55.39-.39-.65c-.04-.05,0-.13.06-.14l.62.17.28.55c.05.1.06.21.02.32Z"/>
      <path class="cls-8" d="M8.1,52.3l-1.08,1.42-.52-2.38-.39-1.79v-2.35l-.46-.83v-.23c-.06-.07-.1-.16-.1-.25,0-.06.01-.11.04-.17l.06-.11-.02-.55-.45-.64.19-.4-.3-.27.09-.19-.09-.3v-.21c.1,0,.18-.09.18-.18,0-.03,0-.06-.03-.09l-.15-.24c0-.16-.1-.3-.25-.35l-.19-.06-.19-.22c-.05-.06-.05-.15.01-.2.1-.09.16-.21.16-.34,0-.07-.02-.14-.05-.21l-.03-.05c-.08-.16.03-.35.21-.35h.17l.28-.13h.14c.19,0,.34-.15.34-.34l-.22-.42v-.66l.22-.4v-.23l.37.38.25-.72.23.44.19-.44.13.42.17-.25.21.93-.08.42-.28.36-.02.3.38.38h.44c.14.09.19.26.13.41l-.08.18.19.36v.27l-.25.28h-.44l-.06.19-.07.09c-.06.09-.17.14-.27.14v.08c0,.21.07.41.19.58l.1.14.04.93.09,1.69.21,1.21.45,1.29.15.82v1.08l.1.4.09.87c.02.19-.03.37-.15.52Z"/>
      <path class="cls-8" d="M16.24,70.7v1.12l-2.43,1.4-.94.61c-.2.13-.31.37-.27.61,0,.06.05.11.1.14l.55.25c.22.1.37.3.41.54l-2.29,1.29-1.48.95c-.13.08-.23.21-.29.36l-.09.25c-.04.11-.11.2-.2.28l-1.3,1.03-.36.42-.28.19-.04-.32-.15-5.76.02-.03,1.33-1.07,1.52-1.76,1.42-2.24,1.04-1.33.61-.74.13-.63-.11-1.14-.23-.39c-.06-.1-.08-.22-.07-.33l.06-.39c.02-.15.09-.28.21-.38l.55-.48.64-.93v-1.47c0-.17.12-.32.28-.37h.08c.15,0,.29.08.37.21l.15.26.27.73.11.54v.42l.02.32-.3.54c-.06.11-.04.25.05.33l.34.34.19,2.64.25,2.09.15,1.9Z"/>
      <path class="cls-23" d="M13.4,55.77h0s-.75.81-.75.81l-1.38,1.42-1.72,2.1-1.06,1.49-.7,1.3-.38,1.25v.68h-.15c-.29-.04-.56-.19-.73-.43-.15-.2-.22-.44-.22-.69v-.53c0-.13.03-.27.08-.39l.37-.82.23-.37,1.65-2.15,1.42-1.42,1.46-1.35,1.14-.82.28-.23.46.14Z"/>
      <polygon class="cls-23" points="12.66 55.86 11.52 56.67 10.06 58.02 8.64 59.44 6.99 61.59 7.52 60.73 7.44 60.14 7.05 59.5 7.48 59.31 7.99 58.81 8.62 57.92 9.11 56.46 9.43 55.08 9.43 53.49 10.25 54.21 10.52 54.74 10.84 55.31 11.2 55.63 11.84 55.9 12.66 55.86"/>
      <path class="cls-23" d="M9.43,53.49v1.59l-.32,1.38-.49,1.46-.63.89-.51.49-.43.19-.08-.14c-.1-.17-.16-.37-.16-.56v-.95l.06-1.06c0-.14-.02-.28-.08-.41l-.22-.46c-.07-.15-.2-.25-.35-.29l1.1-.76.66-.72.82-.91.19-.26.44.51Z"/>
      <polygon class="cls-8" points="17.41 83.23 5.15 83.23 5.17 82.07 6.29 82.07 17.37 82.11 17.39 82.59 17.41 83.23"/>
      <path class="cls-23" d="M17.22,59.86l-1.66,3.01-.02-.32v-.42l-.11-.54-.27-.73-.15-.26c-.07-.13-.21-.21-.37-.21h-.08c-.17.04-.28.2-.28.37v1.47l-.64.93-.55.48c-.11.1-.19.23-.21.38l-.06.39c-.02.11,0,.23.07.33l.23.39.11,1.14-.13.63-.61.74-1.04,1.33-1.42,2.24-1.52,1.76-1.33,1.07.16-.23c.13-.18.18-.4.16-.61l-.34-2.86c0-.08,0-.16,0-.24l.05-.29c.09-.51.03-1.04-.16-1.52l-.24-.59c-.06-.15-.09-.3-.09-.46,0-.3.07-.6.22-.87l.32-.61c.15-.28.19-.59.13-.9v-.02s0-.68,0-.68l.38-1.25.7-1.3,1.06-1.49,1.72-2.1,1.38-1.42.75-.81h0s.66.2.66.2l.24.08c.26.09.49.27.65.5l.53.78c.04.06.08.13.11.21l.3.78c.02.06.04.12.06.19l.07.31c.04.19.14.37.28.5l.22.21c.14.13.3.22.48.27l.24.06Z"/>
      <path class="cls-8" d="M15.71,51.25l-2.1-.15v-.23l2.1-1.02-2.43.53-.3-.42,1.23-1.69-1.67,1.38-.68-.19-.36-2.09-.28,2.01-.68.32-1.9-1.19,1.44,1.67-.27.28-1.52-.47,1.31,1.04v.21h-1.02s.08.22.08.22l.98.12.1.42.06.82-.36.66.82.72.28.53.31.57.36.32.64.27.82-.04.28-.23.46.14.66.2-.11-.49-.34-1.65-.04-1.71.09-.57,2.05-.3ZM12.95,52.34l-.04.13s0,.02,0,.03v.26c0,.14-.03.29-.08.42l-.13.32s-.02.07-.03.1h0s-.37.34-.37.34l-.11.07c-.15.1-.33.15-.51.15-.1,0-.2-.02-.28-.07l-.06-.03c-.09-.05-.17-.11-.24-.18l-.16-.17-.17-.19c-.15-.17-.27-.37-.32-.6l-.19-.79c.19,0,.39-.05.56-.14l.16-.08.42-.49.16-.36c.03-.06.12-.07.16-.01l.18.28.23.38.41.23s.09.04.13.06l.18.07c.11.04.16.16.12.27Z"/>
      <path class="cls-8" d="M20.23,60.38l-.43.71-.62-.17c-.07,0-.1.08-.06.14l.39.65-.55-.39c-.12-.08-.27,0-.27.14v.05l.78.87-.66-.55-.19-.1s-.06-.02-.1-.02c-.1,0-.19.07-.2.17,0,.02,0,.04.02.06l.7.83-.54-.49c-.08-.07-.2-.06-.27.02l-.05.07.46.7-1.34,2.02c-.13.2-.41.23-.58.06l-1.06-1.06-.34-.34c-.09-.09-.11-.23-.05-.33l.3-.54,1.66-3.01.47-.82c.09-.15.28-.21.44-.13l1.94.97c.19.09.26.33.15.51Z"/>
      <path class="cls-23" d="M9,52.98l-.19.26-.82.91-.66.72-1.1.76-.25-.06-.12-.05c-.16-.06-.27-.21-.29-.38l-.11-.81c-.02-.13,0-.25.03-.38l.23-.81c.02-.08.06-.15.11-.22l.15-.22c.08-.11.14-.23.18-.36l.34-1.01.52,2.38,1.08-1.42c.11-.15.16-.33.15-.52l-.09-.87.38.23.04.12.08.21v.03s.24.7.24.7l.09.78Z"/>
      <path class="cls-23" d="M12.95,52.34l-.04.13s0,.02,0,.03v.26c0,.14-.03.29-.08.42l-.13.32s-.02.07-.03.1h0s-.37.34-.37.34l-.11.07c-.15.1-.33.15-.51.15-.1,0-.2-.02-.28-.07l-.06-.03c-.09-.05-.17-.11-.24-.18l-.16-.17-.17-.19c-.15-.17-.27-.37-.32-.6l-.19-.79c.19,0,.39-.05.56-.14l.16-.08.42-.49.16-.36c.03-.06.12-.07.16-.01l.18.28.23.38.41.23s.09.04.13.06l.18.07c.11.04.16.16.12.27Z"/>
      <path class="cls-12" d="M12.67,53.6s-.01.07-.01.11v1.6l.28.32"/>
    </g>
  </g>
  <g id="_2" data-name="#2">
    <g>
      <g>
        <path class="cls-9" d="M642.42,70.97v13.59h3.88v-6.79h.33v-6.79h-4.21ZM643.63,83.49h-.6v-.55h.6v.55ZM643.63,82.54h-.6v-.55h.6v.55ZM643.63,81.59h-.6v-.55h.6v.55ZM643.63,80.64h-.6v-.55h.6v.55ZM643.63,79.69h-.6v-.55h.6v.55ZM643.63,78.75h-.6v-.55h.6v.55ZM643.63,77.8h-.6v-.55h.6v.55ZM643.63,76.85h-.6v-.55h.6v.55ZM643.63,75.9h-.6v-.55h.6v.55ZM643.63,74.95h-.6v-.55h.6v.55ZM643.63,74h-.6v-.55h.6v.55ZM643.63,73.05h-.6v-.55h.6v.55ZM643.63,72.1h-.6v-.55h.6v.55ZM645,83.49h-.6v-.55h.6v.55ZM645,82.54h-.6v-.55h.6v.55ZM645,81.59h-.6v-.55h.6v.55ZM645,80.64h-.6v-.55h.6v.55ZM645,79.69h-.6v-.55h.6v.55ZM645,78.75h-.6v-.55h.6v.55ZM645,77.8h-.6v-.55h.6v.55ZM645,76.85h-.6v-.55h.6v.55ZM645,75.9h-.6v-.55h.6v.55ZM645,74.95h-.6v-.55h.6v.55ZM645,74h-.6v-.55h.6v.55ZM645,73.05h-.6v-.55h.6v.55ZM645,72.1h-.6v-.55h.6v.55ZM646.21,83.5h-.6v-.55h.6v.55ZM646.21,82.55h-.6v-.55h.6v.55ZM646.21,81.6h-.6v-.55h.6v.55ZM646.21,80.65h-.6v-.55h.6v.55ZM646.21,79.7h-.6v-.55h.6v.55ZM646.21,78.76h-.6v-.55h.6v.55ZM646.21,77.81h-.6v-.55h.6v.55ZM646.21,76.86h-.6v-.55h.6v.55ZM646.21,75.91h-.6v-.55h.6v.55ZM646.21,74.96h-.6v-.55h.6v.55ZM646.21,74.01h-.6v-.55h.6v.55ZM646.21,73.06h-.6v-.55h.6v.55ZM646.21,72.11h-.6v-.55h.6v.55Z"/>
        <rect class="cls-15" x="645.61" y="71.56" width=".6" height=".55"/>
        <rect class="cls-15" x="644.4" y="71.55" width=".6" height=".55"/>
        <rect class="cls-15" x="643.04" y="71.55" width=".6" height=".55"/>
        <path class="cls-4" d="M646.3,77.76v6.79h4.26v-6.79h-4.26ZM647.04,83.35h-.41v-5.03h.41v5.03ZM647.66,83.35h-.41v-5.03h.41v5.03ZM648.28,83.35h-.41v-5.03h.41v5.03ZM648.91,83.35h-.41v-5.03h.41v5.03ZM649.53,83.35h-.41v-5.03h.41v5.03ZM650.15,83.35h-.41v-5.03h.41v5.03Z"/>
        <path class="cls-6" d="M650.4,76.15v1.61h.16v6.79h7.99v-8.4h-8.16ZM651.1,76.87h6.81v.55h-6.81v-.55ZM657.99,83.08h-6.81v-.55h6.81v.55ZM657.99,82.14h-6.81v-.55h6.81v.55ZM657.99,81.19h-6.81v-.55h6.81v.55ZM657.99,80.24h-6.81v-.55h6.81v.55ZM657.99,79.29h-6.81v-.55h6.81v.55ZM657.99,78.34h-6.81v-.55h6.81v.55Z"/>
        <path class="cls-13" d="M658.55,71.52v13.03h1.85v-13.03h-1.85ZM659.1,83.77h-.26v-.55h.26v.55ZM659.1,82.82h-.26v-.55h.26v.55ZM659.1,81.87h-.26v-.55h.26v.55ZM659.1,80.92h-.26v-.55h.26v.55ZM659.1,79.97h-.26v-.55h.26v.55ZM659.1,79.02h-.26v-.55h.26v.55ZM659.1,78.07h-.26v-.55h.26v.55ZM659.1,77.12h-.26v-.55h.26v.55ZM659.1,76.17h-.26v-.55h.26v.55ZM659.1,75.23h-.26v-.55h.26v.55ZM659.1,74.28h-.26v-.55h.26v.55ZM659.1,73.33h-.26v-.55h.26v.55ZM659.1,72.38h-.26v-.55h.26v.55ZM660.15,83.77h-.26v-.55h.26v.55ZM660.15,82.82h-.26v-.55h.26v.55ZM660.15,81.87h-.26v-.55h.26v.55ZM660.15,80.92h-.26v-.55h.26v.55ZM660.15,79.97h-.26v-.55h.26v.55ZM660.15,79.02h-.26v-.55h.26v.55ZM660.15,78.07h-.26v-.55h.26v.55ZM660.15,77.12h-.26v-.55h.26v.55ZM660.15,76.17h-.26v-.55h.26v.55ZM660.15,75.23h-.26v-.55h.26v.55ZM660.15,74.28h-.26v-.55h.26v.55ZM660.15,73.33h-.26v-.55h.26v.55ZM660.15,72.38h-.26v-.55h.26v.55Z"/>
        <rect class="cls-15" x="659.89" y="71.83" width=".26" height=".55"/>
        <rect class="cls-15" x="658.84" y="71.83" width=".26" height=".55"/>
        <path class="cls-22" d="M639.06,76.15v4.76h.42v3.64h2.94v-8.4h-3.36ZM640.97,82.84h-.26v-1.05h.26v1.05ZM640.97,81.03h-.26v-1.05h.26v1.05ZM640.97,79.23h-.26v-1.05h.26v1.05ZM640.97,77.43h-.26v-1.05h.26v1.05Z"/>
        <path class="cls-21" d="M637.52,80.91v3.64h1.96v-3.64h-1.96ZM637.9,81.45h.6v.55h-.6v-.55ZM638.55,83.51h-.6v-.55h.6v.55ZM639.24,82.73h-.6v-.55h.6v.55Z"/>
        <path class="cls-22" d="M660.41,81.62v2.93h2.68v-2.93h-2.68ZM661.23,83.78h-.26v-.55h.26v.55ZM661.23,82.83h-.26v-.55h.26v.55ZM662.28,83.78h-.26v-.55h.26v.55ZM662.28,82.83h-.26v-.55h.26v.55Z"/>
        <polygon class="cls-24" points="642.42 75.21 642.42 76.15 639.08 76.15 640.85 68.06 642.42 75.21"/>
        <rect class="cls-16" x="658.84" y="83.22" width=".26" height=".55"/>
        <rect class="cls-16" x="658.84" y="82.27" width=".26" height=".55"/>
        <rect class="cls-16" x="658.84" y="81.32" width=".26" height=".55"/>
        <rect class="cls-16" x="658.84" y="80.37" width=".26" height=".55"/>
        <rect class="cls-16" x="658.84" y="79.42" width=".26" height=".55"/>
        <rect class="cls-16" x="658.84" y="78.47" width=".26" height=".55"/>
        <rect class="cls-16" x="658.84" y="77.52" width=".26" height=".55"/>
        <rect class="cls-16" x="658.84" y="76.57" width=".26" height=".55"/>
        <rect class="cls-16" x="658.84" y="75.62" width=".26" height=".55"/>
        <rect class="cls-16" x="658.84" y="74.67" width=".26" height=".55"/>
        <rect class="cls-16" x="658.84" y="73.73" width=".26" height=".55"/>
        <rect class="cls-16" x="658.84" y="72.78" width=".26" height=".55"/>
        <rect class="cls-16" x="659.89" y="83.22" width=".26" height=".55"/>
        <rect class="cls-16" x="659.89" y="82.27" width=".26" height=".55"/>
        <rect class="cls-16" x="659.89" y="81.32" width=".26" height=".55"/>
        <rect class="cls-16" x="659.89" y="80.37" width=".26" height=".55"/>
        <rect class="cls-16" x="659.89" y="79.42" width=".26" height=".55"/>
        <rect class="cls-16" x="659.89" y="78.47" width=".26" height=".55"/>
        <rect class="cls-16" x="659.89" y="77.52" width=".26" height=".55"/>
        <rect class="cls-16" x="659.89" y="76.57" width=".26" height=".55"/>
        <rect class="cls-16" x="659.89" y="75.62" width=".26" height=".55"/>
        <rect class="cls-16" x="659.89" y="74.67" width=".26" height=".55"/>
        <rect class="cls-16" x="659.89" y="73.73" width=".26" height=".55"/>
        <rect class="cls-16" x="659.89" y="72.78" width=".26" height=".55"/>
        <rect class="cls-16" x="660.97" y="83.23" width=".26" height=".55"/>
        <rect class="cls-16" x="660.97" y="82.28" width=".26" height=".55"/>
        <rect class="cls-16" x="662.02" y="83.23" width=".26" height=".55"/>
        <rect class="cls-16" x="662.02" y="82.28" width=".26" height=".55"/>
        <polygon class="cls-19" points="663.09 81.62 660.41 81.62 660.41 79.69 663.09 81.62"/>
        <rect class="cls-16" x="643.04" y="82.94" width=".6" height=".55"/>
        <rect class="cls-16" x="643.04" y="81.99" width=".6" height=".55"/>
        <rect class="cls-16" x="643.04" y="81.04" width=".6" height=".55"/>
        <rect class="cls-16" x="643.04" y="80.09" width=".6" height=".55"/>
        <rect class="cls-16" x="643.04" y="79.14" width=".6" height=".55"/>
        <rect class="cls-16" x="643.04" y="78.2" width=".6" height=".55"/>
        <rect class="cls-16" x="643.04" y="77.25" width=".6" height=".55"/>
        <rect class="cls-16" x="643.04" y="76.3" width=".6" height=".55"/>
        <rect class="cls-16" x="643.04" y="75.35" width=".6" height=".55"/>
        <rect class="cls-16" x="643.04" y="74.4" width=".6" height=".55"/>
        <rect class="cls-16" x="643.04" y="73.45" width=".6" height=".55"/>
        <rect class="cls-16" x="643.04" y="72.5" width=".6" height=".55"/>
        <rect class="cls-16" x="644.4" y="82.94" width=".6" height=".55"/>
        <rect class="cls-16" x="644.4" y="81.99" width=".6" height=".55"/>
        <rect class="cls-16" x="644.4" y="81.04" width=".6" height=".55"/>
        <rect class="cls-16" x="644.4" y="80.09" width=".6" height=".55"/>
        <rect class="cls-16" x="644.4" y="79.14" width=".6" height=".55"/>
        <rect class="cls-16" x="644.4" y="78.2" width=".6" height=".55"/>
        <rect class="cls-16" x="644.4" y="77.25" width=".6" height=".55"/>
        <rect class="cls-16" x="644.4" y="76.3" width=".6" height=".55"/>
        <rect class="cls-16" x="644.4" y="75.35" width=".6" height=".55"/>
        <rect class="cls-16" x="644.4" y="74.4" width=".6" height=".55"/>
        <rect class="cls-16" x="644.4" y="73.45" width=".6" height=".55"/>
        <rect class="cls-16" x="644.4" y="72.5" width=".6" height=".55"/>
        <rect class="cls-16" x="645.61" y="82.95" width=".6" height=".55"/>
        <rect class="cls-16" x="645.61" y="82" width=".6" height=".55"/>
        <rect class="cls-16" x="645.61" y="81.05" width=".6" height=".55"/>
        <rect class="cls-16" x="645.61" y="80.1" width=".6" height=".55"/>
        <rect class="cls-16" x="645.61" y="79.15" width=".6" height=".55"/>
        <rect class="cls-16" x="645.61" y="78.2" width=".6" height=".55"/>
        <rect class="cls-16" x="645.61" y="77.26" width=".6" height=".55"/>
        <rect class="cls-16" x="645.61" y="76.31" width=".6" height=".55"/>
        <rect class="cls-16" x="645.61" y="75.36" width=".6" height=".55"/>
        <rect class="cls-16" x="645.61" y="74.41" width=".6" height=".55"/>
        <rect class="cls-16" x="645.61" y="73.46" width=".6" height=".55"/>
        <rect class="cls-16" x="645.61" y="72.51" width=".6" height=".55"/>
        <rect class="cls-16" x="651.18" y="82.53" width="6.81" height=".55"/>
        <rect class="cls-16" x="651.18" y="81.58" width="6.81" height=".55"/>
        <rect class="cls-16" x="651.18" y="80.64" width="6.81" height=".55"/>
        <rect class="cls-16" x="651.18" y="79.69" width="6.81" height=".55"/>
        <rect class="cls-16" x="651.18" y="78.74" width="6.81" height=".55"/>
        <rect class="cls-16" x="651.18" y="77.79" width="6.81" height=".55"/>
        <rect class="cls-16" x="640.71" y="81.79" width=".26" height="1.05"/>
        <rect class="cls-16" x="640.71" y="79.99" width=".26" height="1.05"/>
        <rect class="cls-16" x="640.71" y="78.19" width=".26" height="1.05"/>
        <rect class="cls-16" x="640.71" y="76.38" width=".26" height="1.05"/>
        <rect class="cls-16" x="649.74" y="78.32" width=".41" height="5.03"/>
        <rect class="cls-16" x="649.12" y="78.32" width=".41" height="5.03"/>
        <rect class="cls-16" x="648.5" y="78.32" width=".41" height="5.03"/>
        <rect class="cls-16" x="647.88" y="78.32" width=".41" height="5.03"/>
        <rect class="cls-16" x="647.25" y="78.32" width=".41" height="5.03"/>
        <rect class="cls-16" x="646.63" y="78.32" width=".41" height="5.03"/>
        <rect class="cls-16" x="651.1" y="76.87" width="6.81" height=".55"/>
        <rect class="cls-16" x="637.9" y="81.45" width=".6" height=".55"/>
        <rect class="cls-16" x="638.63" y="82.18" width=".6" height=".55"/>
        <rect class="cls-16" x="637.94" y="82.96" width=".6" height=".55"/>
      </g>
      <g>
        <text class="cls-31" transform="translate(610.39 94.29)"><tspan x="0" y="0">Paking, Indonesia, Asia</tspan></text>
        <text class="cls-29" transform="translate(633.78 103.98)"><tspan x="0" y="0">15,000 Km</tspan></text>
      </g>
      <g>
        <line class="cls-5" x1="663.09" y1="84.55" y2="84.55"/>
        <path class="cls-26" d="M.38,84.55c0-.47.29-.85.59-1.14.31-.3.66-.54,1.02-.74.73-.41,1.49-.75,2.28-1.03,1.56-.58,3.16-1.01,4.77-1.41,3.22-.78,6.48-1.38,9.74-1.93,6.53-1.07,13.1-1.9,19.68-2.65,13.15-1.47,26.34-2.6,39.54-3.61,26.39-1.99,52.82-3.46,79.26-4.75,52.88-2.5,105.78-4.2,158.7-5.54,26.46-.68,52.92-1.26,79.38-1.75,26.46-.43,52.93-.78,79.39-1.06,52.93-.37,105.86-.48,158.79.1v.2c-52.93.57-105.85.98-158.77,1.7-26.46.27-52.92.61-79.38,1.04-26.46.37-52.92.82-79.37,1.37-52.91,1.15-105.82,2.64-158.69,4.94-26.44,1.15-52.87,2.49-79.26,4.35-13.2.94-26.39,2-39.54,3.4-6.58.71-13.14,1.51-19.67,2.55-3.26.53-6.52,1.11-9.73,1.87-1.6.39-3.2.81-4.75,1.38-.78.27-1.53.6-2.25,1-.67.4-1.46.92-1.52,1.7h-.2Z"/>
      </g>
    </g>
    <g>
      <path class="cls-10" d="M633.27,59.55c0,.15-.07.29-.19.38-.34.25-.7.47-1.08.65v-2.09l1.05.67c.14.09.22.23.22.4Z"/>
      <path class="cls-20" d="M629.54,58.06c0,.05,0,.11.03.16.04.1.11.18.2.23.12.07.26.08.4.05l.33-.09s.07-.02.11-.04l.19-.09c.12-.06.25-.09.39-.09h.45s0,0-.01-.01l-.23-.25c-.1-.11-.2-.21-.31-.3h-.78c-.11,0-.22.01-.33.03l-.27.05h0c-.1.09-.15.22-.15.34Z"/>
      <path class="cls-10" d="M613.42,61.61c.18.23.2.54.07.79l.72-.09,5.56.07v-2.1h-6.35s0,1.33,0,1.33Z"/>
      <path class="cls-3" d="M581.23,61.64c.07.01.14.02.21.03l3.41.48,3.03.18c.09,0,.19,0,.28,0h4.62c.39,0,.79.03,1.17.09l1.82.28c.12.02.25.03.37.03h9s-1.38-.53-1.38-.53l1.41-.6h-2.53s-.37-.28-.37-.28l-5.52-.17-.21-.47-2.09-.2v-.36s-8.39,0-8.39,0l-4.82-.31v1.81Z"/>
      <path class="cls-7" d="M603.75,62.22l1.38.53c.05.08.11.15.18.21l.03-1.41-.17.07-1.41.6Z"/>
      <path class="cls-7" d="M605.31,62.95s.09.07.13.09c.13.07.27.11.42.11h.18s.08-2.21.08-2.21c-.18,0-.36.07-.51.18l-.12.09c-.11.08-.17.2-.17.33l-.03,1.41Z"/>
      <path class="cls-7" d="M612.5,62.52l.99-.12c.13-.26.11-.56-.07-.79l-.21-.28c-.19-.25-.41-.49-.65-.7l-.06,1.89Z"/>
      <path class="cls-7" d="M605.75,63.81l2.91.41h2.29s.82-.13.82-.13c.32-.05.57-.31.61-.63l.12-.93.06-1.89-.02-.04c-.16-.23-.4-.39-.67-.44l-.13-.02h-.02c-.19-.04-.38-.06-.58-.06h-1.52s-1.32.11-1.32.11l-1.8.32c-.21.04-.37.22-.38.43l-.08,2.21.02.11c.03.16-.03.32-.16.43l-.16.13Z"/>
      <path class="cls-17" d="M563.54,55.86l.28.13,2.41,1,.49.2c.22.08.45.13.68.12l5.07-.05s.04-.05,0-.06l-5.95-1.33c-.19-.04-.39-.07-.59-.07l-1.81-.06h0l-.57.03s-.06.07-.02.09Z"/>
      <path class="cls-1" d="M563.82,55.99l.38.19c.24.12.42.34.47.61.02.1.09.19.19.22l1.34.42.03-.43-2.41-1Z"/>
      <path class="cls-1" d="M567.26,55.6l-3.12.14,1.81.06c.2,0,.39.03.59.07l5.95,1.33s.03.06,0,.06l-5.07.05c-.23,0-.46-.04-.68-.12l-.49-.2-.03.43,4.73,1.48,4.94,1.44,5,1.22c.12.03.24.05.35.07v-1.81s.02-3.23.02-3.23v-.71s-1.42,0-1.42,0l-1.34-.42c-.45-.14-.88-.35-1.27-.62l-1.63-1.14-8.45-8.13c-.17-.16-.37-.27-.6-.33-.31-.07-.62-.11-.94-.11h-2.4s4.22,10.21,4.22,10.21c.05.11-.03.24-.15.24ZM580.75,58.06c0-.13.07-.24.16-.24s.16.11.16.24c0,.13-.07.24-.16.24s-.16-.11-.16-.24ZM578.09,57.31c0-.3.25-.55.55-.55h.49c.3,0,.55.25.55.55v1.67c0,.3-.25.55-.55.55h-.49c-.3,0-.55-.25-.55-.55v-1.67Z"/>
      <path class="cls-1" d="M585.78,56.59l-.29-.28h.35c.1,0,.2.03.28.08l.31.2h3.45s0-.71,0-.71h-8.63s0,.71,0,.71h4.53Z"/>
      <rect class="cls-1" x="589.88" y="55.89" width="13.52" height=".71"/>
      <rect class="cls-1" x="603.4" y="55.89" width="7.46" height=".71"/>
      <polygon class="cls-1" points="610.86 56.6 613.39 56.6 613.39 55.89 610.87 55.89 610.86 56.6"/>
      <rect class="cls-1" x="613.39" y="55.89" width="4.52" height=".71" transform="translate(-.3 3.39) rotate(-.32)"/>
      <rect class="cls-1" x="617.91" y="55.89" width="1.83" height=".71"/>
      <polygon class="cls-1" points="619.74 55.89 619.74 56.6 624.73 56.6 624.73 55.89 619.74 55.89"/>
      <path class="cls-1" d="M632,58.49v1.31l-2.66.34v-3.42s.08.03.11.05l.8.34c.3.13.59.31.84.52h-.78c-.11,0-.22,0-.33.03l-.27.05h0c-.1.09-.15.22-.15.34,0,.05,0,.11.03.16.04.1.11.18.2.23.12.07.26.08.4.05l.33-.09s.07-.02.11-.04l.19-.09c.12-.06.25-.09.39-.09h.45c.11.11.23.21.36.3Z"/>
      <path class="cls-1" d="M627.63,56.24v4.03l1.7-.14v-3.42c-.24-.1-.5-.18-.75-.24l-.95-.23Z"/>
      <path class="cls-1" d="M624.72,60.27h2.91s0-4.03,0-4.03c-.18-.04-.36-.08-.54-.1l-1.52-.21c-.23-.03-.47-.05-.7-.05h-.14s0,.71,0,.71v3.68ZM625.47,57.31c0-.3.24-.55.55-.55h.49c.3,0,.55.25.55.55v1.67c0,.3-.25.55-.55.55h-.49c-.3,0-.55-.25-.55-.55v-1.67Z"/>
      <path class="cls-1" d="M632,59.79v.78c-.23.11-.46.2-.7.28l-2.97,1-3.61.44v-2.03h2.92l1.7-.14,2.66-.34Z"/>
      <polygon class="cls-1" points="619.76 60.27 619.77 62.38 624.71 62.3 624.72 60.27 619.76 60.27"/>
      <path class="cls-17" d="M585.49,56.32l.29.28.61.58.64.28,1.31.38h0l.18.05.36.1.25.07.07.02,2.7.83-.48.22-.04.2.8.1.1.33,1.08.07.06.21h.92s-.07.1-.07.1h.18v.36s2.09.2,2.09.2l.21.47,5.52.17.37.28h2.53s.17-.07.17-.07c0-.13.06-.25.17-.33l.12-.09c.15-.11.32-.17.51-.18,0-.22.16-.4.38-.43l1.8-.32,1.32-.11h1.52c.19,0,.39.02.58.05l-.89-.37c-.29-.12-.59-.22-.89-.29-.42-.09-.85-.14-1.29-.14h-3.71s-1.81-.22-1.81-.22l-5.62-.59-1.82-.22h0s-.02,0-.03,0l-.64-.08-1.09-.13-.23-.03-.36-.04-.31-.04-.41-.05-.25-.03-2.29-.26-.2-.04-1.49-.28c-.23-.04-.46-.11-.69-.19l-.89-.34c-.13-.05-.26-.11-.38-.19l-.31-.2c-.08-.05-.18-.08-.28-.08h-.35Z"/>
      <path class="cls-11" d="M593.44,62.37s-2.31-.61-2.42-.63c-.11-.02-.09-.22-.12-.37-.04-.15.68-.43.68-.43l2.86-.44"/>
      <path class="cls-1" d="M586.43,56.59c.12.08.25.14.38.19l.89.34c.22.08.45.15.69.19l1.49.28v-1s-3.45,0-3.45,0Z"/>
      <line class="cls-11" x1="631.12" y1="57.63" x2="631.08" y2="57.63"/>
      <path class="cls-11" d="M618.45,55.89v-.17s-.02-.08-.06-.09h0c-.11-.05-.24-.07-.36-.05l-1.64.31"/>
      <line class="cls-11" x1="632" y1="60.58" x2="632" y2="60.59"/>
      <path class="cls-1" d="M613.39,56.6l.02,3.68h4.5s0-3.68,0-3.68h-4.52ZM617.5,58.06c0-.13.07-.24.16-.24s.16.11.16.24-.07.24-.16.24-.16-.11-.16-.24ZM616.9,58.06c0-.13.07-.24.16-.24s.16.11.16.24c0,.13-.07.24-.16.24s-.16-.11-.16-.24ZM614.89,57.31c0-.3.25-.55.55-.55h.49c.3,0,.55.25.55.55v1.67c0,.3-.24.55-.55.55h-.49c-.3,0-.55-.25-.55-.55v-1.67ZM614.15,58.06c0-.13.07-.24.16-.24s.16.11.16.24c0,.13-.07.24-.16.24s-.16-.11-.16-.24ZM613.52,58.06c0-.13.07-.24.16-.24s.16.11.16.24c0,.13-.07.24-.16.24s-.16-.11-.16-.24Z"/>
      <path class="cls-1" d="M610.83,59.76l.89.37h.02s.13.03.13.03c.27.05.51.21.67.44l.02.04c.24.21.45.45.65.7l.21.28v-1.33s-.03-3.68-.03-3.68h-2.53s-.03,3.16-.03,3.16ZM612.88,58.06c0-.13.07-.24.16-.24s.16.11.16.24-.07.24-.16.24-.16-.11-.16-.24ZM612.25,58.06c0-.13.07-.24.16-.24s.16.11.16.24c0,.13-.07.24-.16.24s-.16-.11-.16-.24ZM611.61,58.06c0-.13.07-.24.16-.24s.16.11.16.24c0,.13-.07.24-.16.24s-.16-.11-.16-.24ZM610.98,58.06c0-.13.07-.24.16-.24s.16.11.16.24c0,.13-.07.24-.16.24s-.16-.11-.16-.24Z"/>
      <line class="cls-11" x1="603.4" y1="56.6" x2="603.4" y2="59.13"/>
      <path class="cls-1" d="M581.23,59.83l4.82.31h8.21s.07-.11.07-.11h-.92s-.06-.2-.06-.2l-1.08-.07-.1-.33-.8-.1.04-.2.48-.22-2.7-.83c0,.12-.07.21-.16.21s-.16-.11-.16-.24c0-.02,0-.04,0-.07l-.36-.1s.05.1.05.17c0,.13-.07.24-.16.24s-.16-.11-.16-.24c0-.1.04-.18.1-.22l-1.31-.38-.64-.28-.61-.58h-4.53s-.01,3.24-.01,3.24ZM587.61,58.06c0-.13.07-.24.16-.24s.16.11.16.24c0,.13-.07.24-.16.24s-.16-.11-.16-.24ZM586.99,58.06c0-.13.07-.24.16-.24s.16.11.16.24c0,.13-.07.24-.16.24s-.16-.11-.16-.24ZM586.36,58.06c0-.13.07-.24.16-.24s.16.11.16.24c0,.13-.07.24-.16.24s-.16-.11-.16-.24ZM585.73,58.06c0-.13.07-.24.16-.24s.16.11.16.24c0,.13-.07.24-.16.24s-.16-.11-.16-.24ZM585.11,58.06c0-.13.07-.24.16-.24s.16.11.16.24c0,.13-.07.24-.16.24s-.16-.11-.16-.24ZM584.48,58.06c0-.13.07-.24.16-.24s.16.11.16.24c0,.13-.07.24-.16.24s-.16-.11-.16-.24ZM583.86,58.06c0-.13.07-.24.16-.24s.16.11.16.24c0,.13-.07.24-.16.24s-.16-.11-.16-.24ZM583.23,58.06c0-.13.07-.24.16-.24s.16.11.16.24c0,.13-.07.24-.16.24s-.16-.11-.16-.24ZM582.6,58.06c0-.13.07-.24.16-.24s.16.11.16.24c0,.13-.07.24-.16.24s-.16-.11-.16-.24ZM581.98,58.06c0-.13.07-.24.16-.24s.16.11.16.24-.07.24-.16.24-.16-.11-.16-.24ZM581.35,58.06c0-.13.07-.24.16-.24s.16.11.16.24c0,.13-.07.24-.16.24s-.16-.11-.16-.24Z"/>
      <line class="cls-11" x1="581.23" y1="61.64" x2="581.22" y2="62.27"/>
      <rect class="cls-14" x="625.47" y="56.76" width="1.59" height="2.77" rx=".55" ry=".55"/>
      <rect class="cls-14" x="614.89" y="56.76" width="1.59" height="2.77" rx=".55" ry=".55"/>
      <path class="cls-14" d="M593.92,57.57v.51s1.09.13,1.09.13v-.64c0-.3-.25-.55-.55-.55-.15,0-.29.06-.39.16-.1.1-.16.24-.16.39Z"/>
      <rect class="cls-14" x="578.09" y="56.76" width="1.59" height="2.77" rx=".55" ry=".55"/>
      <path class="cls-20" d="M617.5,58.06c0,.13.07.24.16.24s.16-.11.16-.24-.07-.24-.16-.24-.16.11-.16.24Z"/>
      <path class="cls-20" d="M616.9,58.06c0,.13.07.24.16.24s.16-.11.16-.24c0-.13-.07-.24-.16-.24s-.16.11-.16.24Z"/>
      <path class="cls-20" d="M614.15,58.06c0,.13.07.24.16.24s.16-.11.16-.24c0-.13-.07-.24-.16-.24s-.16.11-.16.24Z"/>
      <path class="cls-20" d="M613.52,58.06c0,.13.07.24.16.24s.16-.11.16-.24c0-.13-.07-.24-.16-.24s-.16.11-.16.24Z"/>
      <path class="cls-20" d="M612.88,58.06c0,.13.07.24.16.24s.16-.11.16-.24-.07-.24-.16-.24-.16.11-.16.24Z"/>
      <path class="cls-20" d="M612.25,58.06c0,.13.07.24.16.24s.16-.11.16-.24c0-.13-.07-.24-.16-.24s-.16.11-.16.24Z"/>
      <path class="cls-20" d="M611.61,58.06c0,.13.07.24.16.24s.16-.11.16-.24c0-.13-.07-.24-.16-.24s-.16.11-.16.24Z"/>
      <path class="cls-20" d="M610.98,58.06c0,.13.07.24.16.24s.16-.11.16-.24c0-.13-.07-.24-.16-.24s-.16.11-.16.24Z"/>
      <path class="cls-20" d="M595.53,58.06c0,.11.05.21.13.23.01,0,.02,0,.03,0h0c.09,0,.16-.11.16-.24s-.07-.24-.16-.24-.16.11-.16.24Z"/>
      <path class="cls-20" d="M593.02,57.97l.31.04c-.02-.11-.08-.19-.16-.19-.07,0-.13.07-.15.16Z"/>
      <path class="cls-20" d="M592.36,57.89l.25.03c-.03-.07-.08-.11-.13-.11-.05,0-.09.03-.12.08Z"/>
      <path class="cls-20" d="M588.87,58.06c0,.13.07.24.16.24s.15-.09.16-.21l-.07-.02-.25-.07s0,.04,0,.07Z"/>
      <path class="cls-20" d="M588.24,58.06c0,.13.07.24.16.24s.16-.11.16-.24c0-.07-.02-.13-.05-.17l-.18-.05h0c-.06.04-.1.12-.1.22Z"/>
      <path class="cls-20" d="M587.61,58.06c0,.13.07.24.16.24s.16-.11.16-.24c0-.13-.07-.24-.16-.24s-.16.11-.16.24Z"/>
      <path class="cls-20" d="M586.99,58.06c0,.13.07.24.16.24s.16-.11.16-.24c0-.13-.07-.24-.16-.24s-.16.11-.16.24Z"/>
      <path class="cls-20" d="M586.36,58.06c0,.13.07.24.16.24s.16-.11.16-.24c0-.13-.07-.24-.16-.24s-.16.11-.16.24Z"/>
      <path class="cls-20" d="M585.73,58.06c0,.13.07.24.16.24s.16-.11.16-.24c0-.13-.07-.24-.16-.24s-.16.11-.16.24Z"/>
      <path class="cls-20" d="M585.11,58.06c0,.13.07.24.16.24s.16-.11.16-.24c0-.13-.07-.24-.16-.24s-.16.11-.16.24Z"/>
      <path class="cls-20" d="M584.48,58.06c0,.13.07.24.16.24s.16-.11.16-.24c0-.13-.07-.24-.16-.24s-.16.11-.16.24Z"/>
      <path class="cls-20" d="M583.86,58.06c0,.13.07.24.16.24s.16-.11.16-.24c0-.13-.07-.24-.16-.24s-.16.11-.16.24Z"/>
      <path class="cls-20" d="M583.23,58.06c0,.13.07.24.16.24s.16-.11.16-.24c0-.13-.07-.24-.16-.24s-.16.11-.16.24Z"/>
      <path class="cls-20" d="M582.6,58.06c0,.13.07.24.16.24s.16-.11.16-.24c0-.13-.07-.24-.16-.24s-.16.11-.16.24Z"/>
      <path class="cls-20" d="M581.98,58.06c0,.13.07.24.16.24s.16-.11.16-.24-.07-.24-.16-.24-.16.11-.16.24Z"/>
      <path class="cls-20" d="M581.35,58.06c0,.13.07.24.16.24s.16-.11.16-.24c0-.13-.07-.24-.16-.24s-.16.11-.16.24Z"/>
      <path class="cls-20" d="M580.75,58.06c0,.13.07.24.16.24s.16-.11.16-.24c0-.13-.07-.24-.16-.24s-.16.11-.16.24Z"/>
      <line class="cls-11" x1="624.72" y1="58.65" x2="619.77" y2="58.65"/>
      <path class="cls-1" d="M619.74,56.6v3.68h4.97s.01-3.68.01-3.68h-4.99ZM624.27,58.06c0-.13.07-.24.16-.24s.16.11.16.24-.07.24-.16.24-.16-.11-.16-.24ZM623.64,58.06c0-.13.07-.24.16-.24s.16.11.16.24c0,.13-.07.24-.16.24s-.16-.11-.16-.24ZM623.01,58.06c0-.13.07-.24.16-.24s.16.11.16.24-.07.24-.16.24-.16-.11-.16-.24ZM622.39,58.06c0-.13.07-.24.16-.24s.16.11.16.24-.07.24-.16.24-.16-.11-.16-.24ZM621.76,58.06c0-.13.07-.24.16-.24s.16.11.16.24c0,.13-.07.24-.16.24s-.16-.11-.16-.24ZM621.13,58.06c0-.13.07-.24.16-.24s.16.11.16.24c0,.13-.07.24-.16.24s-.16-.11-.16-.24ZM620.51,58.06c0-.13.07-.24.16-.24s.16.11.16.24-.07.24-.16.24-.16-.11-.16-.24ZM619.88,58.06c0-.13.07-.24.16-.24s.16.11.16.24-.07.24-.16.24-.16-.11-.16-.24Z"/>
      <path class="cls-20" d="M619.88,58.06c0,.13.07.24.16.24s.16-.11.16-.24-.07-.24-.16-.24-.16.11-.16.24Z"/>
      <path class="cls-20" d="M620.51,58.06c0,.13.07.24.16.24s.16-.11.16-.24-.07-.24-.16-.24-.16.11-.16.24Z"/>
      <path class="cls-20" d="M621.13,58.06c0,.13.07.24.16.24s.16-.11.16-.24c0-.13-.07-.24-.16-.24s-.16.11-.16.24Z"/>
      <path class="cls-20" d="M621.76,58.06c0,.13.07.24.16.24s.16-.11.16-.24c0-.13-.07-.24-.16-.24s-.16.11-.16.24Z"/>
      <path class="cls-20" d="M622.39,58.06c0,.13.07.24.16.24s.16-.11.16-.24-.07-.24-.16-.24-.16.11-.16.24Z"/>
      <path class="cls-20" d="M623.01,58.06c0,.13.07.24.16.24s.16-.11.16-.24-.07-.24-.16-.24-.16.11-.16.24Z"/>
      <path class="cls-20" d="M623.64,58.06c0,.13.07.24.16.24s.16-.11.16-.24c0-.13-.07-.24-.16-.24s-.16.11-.16.24Z"/>
      <path class="cls-20" d="M624.27,58.06c0,.13.07.24.16.24s.16-.11.16-.24-.07-.24-.16-.24-.16.11-.16.24Z"/>
      <path class="cls-1" d="M589.88,57.59l.2.04,2.29.26s.07-.08.12-.08c.06,0,.11.04.13.11l.41.05c.02-.09.08-.16.15-.16.08,0,.14.08.16.19l.36.04.23.03v-.51c0-.15.06-.29.16-.39.1-.1.24-.16.39-.16.3,0,.55.25.55.55v.64s.64.08.64.08c-.07-.02-.13-.12-.13-.23,0-.13.07-.24.16-.24s.16.11.16.24-.07.24-.16.24l1.82.22,5.62.59,1.81.22h3.71c.43,0,.86.05,1.29.14.3.07.6.16.89.29l.03-3.16h-20.98s0,1,0,1ZM610.34,58.06c0-.13.07-.24.16-.24s.16.11.16.24c0,.13-.07.24-.16.24s-.16-.11-.16-.24ZM609.73,58.06c0-.13.07-.24.16-.24s.16.11.16.24c0,.13-.07.24-.16.24s-.16-.11-.16-.24ZM609.12,58.06c0-.13.07-.24.16-.24s.16.11.16.24c0,.13-.07.24-.16.24s-.16-.11-.16-.24ZM608.5,58.06c0-.13.07-.24.16-.24s.16.11.16.24-.07.24-.16.24-.16-.11-.16-.24ZM607.89,58.06c0-.13.07-.24.16-.24s.16.11.16.24c0,.13-.07.24-.16.24s-.16-.11-.16-.24ZM607.28,58.06c0-.13.07-.24.16-.24s.16.11.16.24c0,.13-.07.24-.16.24s-.16-.11-.16-.24ZM606.66,58.06c0-.13.07-.24.16-.24s.16.11.16.24c0,.13-.07.24-.16.24s-.16-.11-.16-.24ZM606.05,58.06c0-.13.07-.24.16-.24s.16.11.16.24c0,.13-.07.24-.16.24s-.16-.11-.16-.24ZM605.44,58.06c0-.13.07-.24.16-.24s.16.11.16.24-.07.24-.16.24-.16-.11-.16-.24ZM604.82,58.06c0-.13.07-.24.16-.24s.16.11.16.24c0,.13-.07.24-.16.24s-.16-.11-.16-.24ZM604.21,58.06c0-.13.07-.24.16-.24s.16.11.16.24c0,.13-.07.24-.16.24s-.16-.11-.16-.24ZM603.6,58.06c0-.13.07-.24.16-.24s.16.11.16.24c0,.13-.07.24-.16.24s-.16-.11-.16-.24ZM602.68,58.06c0-.13.07-.24.16-.24s.16.11.16.24c0,.13-.07.24-.16.24s-.16-.11-.16-.24ZM602.03,58.06c0-.13.07-.24.16-.24s.16.11.16.24-.07.24-.16.24-.16-.11-.16-.24ZM601.38,58.06c0-.13.07-.24.16-.24s.16.11.16.24-.07.24-.16.24-.16-.11-.16-.24ZM600.73,58.06c0-.13.07-.24.16-.24s.16.11.16.24c0,.13-.07.24-.16.24s-.16-.11-.16-.24ZM600.08,58.06c0-.13.07-.24.16-.24s.16.11.16.24-.07.24-.16.24-.16-.11-.16-.24ZM599.43,58.06c0-.13.07-.24.16-.24s.16.11.16.24c0,.13-.07.24-.16.24s-.16-.11-.16-.24ZM598.78,58.06c0-.13.07-.24.16-.24s.16.11.16.24c0,.13-.07.24-.16.24s-.16-.11-.16-.24ZM598.13,58.06c0-.13.07-.24.16-.24s.16.11.16.24c0,.13-.07.24-.16.24s-.16-.11-.16-.24ZM597.48,58.06c0-.13.07-.24.16-.24s.16.11.16.24c0,.13-.07.24-.16.24s-.16-.11-.16-.24ZM596.83,58.06c0-.13.07-.24.16-.24s.16.11.16.24c0,.13-.07.24-.16.24s-.16-.11-.16-.24ZM596.18,58.06c0-.13.07-.24.16-.24s.16.11.16.24c0,.13-.07.24-.16.24s-.16-.11-.16-.24Z"/>
      <path class="cls-20" d="M596.18,58.06c0,.13.07.24.16.24s.16-.11.16-.24c0-.13-.07-.24-.16-.24s-.16.11-.16.24Z"/>
      <path class="cls-20" d="M596.83,58.06c0,.13.07.24.16.24s.16-.11.16-.24c0-.13-.07-.24-.16-.24s-.16.11-.16.24Z"/>
      <path class="cls-20" d="M597.48,58.06c0,.13.07.24.16.24s.16-.11.16-.24c0-.13-.07-.24-.16-.24s-.16.11-.16.24Z"/>
      <path class="cls-20" d="M598.13,58.06c0,.13.07.24.16.24s.16-.11.16-.24c0-.13-.07-.24-.16-.24s-.16.11-.16.24Z"/>
      <path class="cls-20" d="M598.78,58.06c0,.13.07.24.16.24s.16-.11.16-.24c0-.13-.07-.24-.16-.24s-.16.11-.16.24Z"/>
      <path class="cls-20" d="M599.43,58.06c0,.13.07.24.16.24s.16-.11.16-.24c0-.13-.07-.24-.16-.24s-.16.11-.16.24Z"/>
      <path class="cls-20" d="M600.08,58.06c0,.13.07.24.16.24s.16-.11.16-.24-.07-.24-.16-.24-.16.11-.16.24Z"/>
      <path class="cls-20" d="M600.73,58.06c0,.13.07.24.16.24s.16-.11.16-.24c0-.13-.07-.24-.16-.24s-.16.11-.16.24Z"/>
      <path class="cls-20" d="M601.38,58.06c0,.13.07.24.16.24s.16-.11.16-.24-.07-.24-.16-.24-.16.11-.16.24Z"/>
      <path class="cls-20" d="M602.03,58.06c0,.13.07.24.16.24s.16-.11.16-.24-.07-.24-.16-.24-.16.11-.16.24Z"/>
      <path class="cls-20" d="M602.68,58.06c0,.13.07.24.16.24s.16-.11.16-.24c0-.13-.07-.24-.16-.24s-.16.11-.16.24Z"/>
      <path class="cls-20" d="M603.6,58.06c0,.13.07.24.16.24s.16-.11.16-.24c0-.13-.07-.24-.16-.24s-.16.11-.16.24Z"/>
      <path class="cls-20" d="M604.21,58.06c0,.13.07.24.16.24s.16-.11.16-.24c0-.13-.07-.24-.16-.24s-.16.11-.16.24Z"/>
      <path class="cls-20" d="M604.82,58.06c0,.13.07.24.16.24s.16-.11.16-.24c0-.13-.07-.24-.16-.24s-.16.11-.16.24Z"/>
      <path class="cls-20" d="M605.44,58.06c0,.13.07.24.16.24s.16-.11.16-.24-.07-.24-.16-.24-.16.11-.16.24Z"/>
      <path class="cls-20" d="M606.05,58.06c0,.13.07.24.16.24s.16-.11.16-.24c0-.13-.07-.24-.16-.24s-.16.11-.16.24Z"/>
      <path class="cls-20" d="M606.66,58.06c0,.13.07.24.16.24s.16-.11.16-.24c0-.13-.07-.24-.16-.24s-.16.11-.16.24Z"/>
      <path class="cls-20" d="M607.28,58.06c0,.13.07.24.16.24s.16-.11.16-.24c0-.13-.07-.24-.16-.24s-.16.11-.16.24Z"/>
      <path class="cls-20" d="M607.89,58.06c0,.13.07.24.16.24s.16-.11.16-.24c0-.13-.07-.24-.16-.24s-.16.11-.16.24Z"/>
      <path class="cls-20" d="M608.5,58.06c0,.13.07.24.16.24s.16-.11.16-.24-.07-.24-.16-.24-.16.11-.16.24Z"/>
      <path class="cls-20" d="M609.12,58.06c0,.13.07.24.16.24s.16-.11.16-.24c0-.13-.07-.24-.16-.24s-.16.11-.16.24Z"/>
      <path class="cls-20" d="M609.73,58.06c0,.13.07.24.16.24s.16-.11.16-.24c0-.13-.07-.24-.16-.24s-.16.11-.16.24Z"/>
      <path class="cls-20" d="M610.34,58.06c0,.13.07.24.16.24s.16-.11.16-.24c0-.13-.07-.24-.16-.24s-.16.11-.16.24Z"/>
      <line class="cls-11" x1="624.73" y1="56.6" x2="624.73" y2="56.6"/>
      <line class="cls-11" x1="613.41" y1="60.27" x2="612.24" y2="60.27"/>
      <path class="cls-10" d="M617.91,56.6v3.68s1.85,0,1.85,0v-3.68h-1.85ZM619.29,58.06c0-.13.07-.24.16-.24s.16.11.16.24c0,.13-.07.24-.16.24s-.16-.11-.16-.24ZM618.69,58.06c0-.13.07-.24.16-.24s.16.11.16.24c0,.13-.07.24-.16.24s-.16-.11-.16-.24ZM618.09,58.06c0-.13.07-.24.16-.24s.16.11.16.24c0,.13-.07.24-.16.24s-.16-.11-.16-.24Z"/>
      <path class="cls-20" d="M618.09,58.06c0,.13.07.24.16.24s.16-.11.16-.24c0-.13-.07-.24-.16-.24s-.16.11-.16.24Z"/>
      <path class="cls-20" d="M618.69,58.06c0,.13.07.24.16.24s.16-.11.16-.24c0-.13-.07-.24-.16-.24s-.16.11-.16.24Z"/>
      <path class="cls-20" d="M619.29,58.06c0,.13.07.24.16.24s.16-.11.16-.24c0-.13-.07-.24-.16-.24s-.16.11-.16.24Z"/>
      <line class="cls-11" x1="620.29" y1="60.27" x2="619.76" y2="60.27"/>
      <line class="cls-11" x1="581.23" y1="59.83" x2="581.22" y2="59.83"/>
    </g>
  </g>
</svg>