<?xml version="1.0" encoding="UTF-8"?>
<svg id="Layer_2" data-name="Layer 2" xmlns="http://www.w3.org/2000/svg" xmlns:xlink="http://www.w3.org/1999/xlink" viewBox="0 0 773.65 107.07">
  <defs>
    <style>
      .cls-1 {
        fill: #58595b;
      }

      .cls-1, .cls-2, .cls-3, .cls-4, .cls-5, .cls-6, .cls-7, .cls-8, .cls-9, .cls-10, .cls-11, .cls-12, .cls-13, .cls-14, .cls-15, .cls-16, .cls-17, .cls-18, .cls-19, .cls-20, .cls-21, .cls-22, .cls-23, .cls-24, .cls-25, .cls-26 {
        stroke: #231f20;
        stroke-miterlimit: 10;
      }

      .cls-1, .cls-3, .cls-5, .cls-8, .cls-11, .cls-12, .cls-13, .cls-16, .cls-17, .cls-19, .cls-20, .cls-21 {
        stroke-width: .25px;
      }

      .cls-2 {
        stroke-width: 3px;
      }

      .cls-2, .cls-27 {
        fill: #7acfef;
      }

      .cls-3, .cls-24 {
        fill: #414042;
      }

      .cls-4 {
        fill: #594a42;
      }

      .cls-5, .cls-7 {
        fill: #6d6e71;
      }

      .cls-6, .cls-12, .cls-14 {
        fill: none;
      }

      .cls-8 {
        fill: #231f20;
      }

      .cls-28 {
        fill: url(#linear-gradient);
      }

      .cls-9 {
        fill: #489478;
      }

      .cls-9, .cls-14, .cls-25 {
        stroke-width: .75px;
      }

      .cls-10, .cls-21 {
        fill: #939598;
      }

      .cls-11, .cls-29 {
        fill: #808285;
      }

      .cls-13 {
        fill: #a7a9ac;
      }

      .cls-15 {
        fill: #754c29;
      }

      .cls-30 {
        fill: #f1f2f2;
      }

      .cls-31, .cls-32 {
        font-family: Arial-Black, 'Arial Black';
        font-weight: 800;
      }

      .cls-16 {
        fill: #e6e7e8;
      }

      .cls-17 {
        fill: #d1d3d4;
      }

      .cls-33, .cls-34 {
        font-size: 10px;
      }

      .cls-33, .cls-35 {
        font-family: BodoniSvtyTwoSCITCTT-Book, 'Bodoni 72 Smallcaps';
      }

      .cls-36 {
        font-size: 12px;
      }

      .cls-37 {
        fill: #fff;
      }

      .cls-18, .cls-19 {
        fill: #f9ed32;
      }

      .cls-35 {
        font-size: 9.07px;
      }

      .cls-20 {
        fill: #4c889e;
      }

      .cls-22 {
        fill: #be1e2d;
      }

      .cls-32 {
        font-size: 16px;
        letter-spacing: 0em;
      }

      .cls-38 {
        letter-spacing: .06em;
      }

      .cls-39 {
        letter-spacing: .02em;
      }

      .cls-23 {
        fill: #3c2415;
      }

      .cls-40 {
        letter-spacing: .03em;
      }

      .cls-25 {
        fill: #5cbd99;
      }

      .cls-26 {
        fill: #a97c50;
      }
    </style>
    <linearGradient id="linear-gradient" x1="-.9" y1="70.68" x2="564.69" y2="70.68" gradientUnits="userSpaceOnUse">
      <stop offset="0" stop-color="#fff"/>
      <stop offset=".89" stop-color="#231f20"/>
    </linearGradient>
  </defs>
  <g id="Layer_6" data-name="Layer 6">
    <g id="Layer_7" data-name="Layer 7">
      <g>
        <rect class="cls-2" x="30.51" y="32.02" width="669.79" height="40.03"/>
        <path class="cls-29" d="M105.83,55.14s-.03.01-.05.01c0,0,0-.02,0-.02.02,0,.03.01.05.01Z"/>
        <path class="cls-29" d="M105.83,55.14s-.03.01-.05.01c0,0,0-.02,0-.02.02,0,.03.01.05.01Z"/>
        <path class="cls-29" d="M152.69,46.26c0-2.23-4.14-4.04-9.25-4.04-4.46,0-8.17,1.37-9.04,3.21-1.99-.41-4.34-.64-6.85-.64-4.75,0-8.89.83-11.14,2.07-1.43-.71-3.54-1.16-5.9-1.16-2.99,0-5.59.72-6.9,1.79-.47-.03-.94-.05-1.43-.05-3.67,0-6.65.91-6.65,2.04,0,.63.93,1.19,2.39,1.56-.45.41-.7.87-.7,1.35,0,.29.09.57.27.84-.38-.03-.78-.04-1.19-.04-2.96,0-5.35.69-5.35,1.53,0,.33.36.63.98.88-.63.31-.98.65-.98,1.03,0,1.22,3.83,2.21,8.56,2.21,4.38,0,7.99-.85,8.49-1.95,1.84.63,4.66,1.03,7.82,1.03,2.94,0,5.59-.35,7.42-.9.76.09,1.66.14,2.63.14,1.54,0,2.92-.13,3.83-.34,2.2.69,5.04,1.1,8.14,1.1,6.99,0,12.66-2.1,12.66-4.69,0-1.27-1.35-2.41-3.53-3.25,3.36-.61,5.72-2.05,5.72-3.73ZM105.77,55.15s0-.02,0-.02c.02,0,.03.01.05.01-.02.01-.03.01-.05.01Z"/>
        <path class="cls-29" d="M105.83,55.14s-.03.01-.05.01c0,0,0-.02,0-.02.02,0,.03.01.05.01Z"/>
        <g>
          <path class="cls-27" d="M60.22,43.32s-.04.08-.06.12c-.06-.04-.12-.07-.19-.1.08,0,.16-.01.25-.02Z"/>
          <path class="cls-30" d="M111.07,52.41c0,1.24-1.78,2.25-3.97,2.25-1.07,0-2.03-.24-2.74-.63-.97.57-2.2,1.1-3.66,1.6,1.54.36,2.44.81,2.44,1.29,0,1.24-6.06,2.25-13.54,2.25-2.72,0-5.26-.13-7.38-.36h-.01c-3.29.24-6.78.36-10.4.36-3.88,0-7.61-.15-11.09-.42-.6.78-1.8,1.32-3.19,1.32-1.78,0-3.26-.88-3.55-2.03-3.82-.52-7.18-1.22-9.89-2.03-.43.13-.91.21-1.42.21-1.74,0-3.15-.85-3.15-1.9,0-.04,0-.09.01-.13-.73-.4-1.33-.83-1.78-1.26-.36.04-.74.06-1.13.06-2.38,0-4.31-.81-4.31-1.8s1.93-1.8,4.31-1.8c.29,0,.57.01.84.04.74-.87,2.07-1.68,3.88-2.43-.26-.55-.41-1.14-.41-1.75,0-3.19,3.92-5.77,8.75-5.77,3.55,0,6.6,1.39,7.97,3.39.04,0,.09,0,.13,0,.85,0,1.62.18,2.21.47.07.03.13.06.19.1.02-.04.04-.08.06-.12.42-.9,1.34-1.53,2.41-1.53.95,0,1.78.49,2.25,1.23.27-.01.54-.02.81-.04.75-1.23,2.53-2.1,4.6-2.1.55,0,1.07.06,1.56.18.31-1.64,1.74-2.88,3.47-2.88,1.27,0,2.38.67,3,1.66,1.22-.24,2.59-.37,4.03-.37,4.93,0,8.97,1.55,9.36,3.51.52-.08,1.1-.12,1.7-.12,2.42,0,4.38.7,4.38,1.56,0,.35-.31.67-.84.92.73.18,1.42.36,2.08.55.53-.41,1.2-.65,1.92-.65,1.55,0,2.84,1.12,3.11,2.6,1.32.73,2.19,1.51,2.55,2.32.15-.01.31-.02.46-.02,2.19,0,3.97,1.01,3.97,2.25Z"/>
        </g>
        <path class="cls-37" d="M246.01,60.18c.19.27.28.54.28.82,0,3.31-13.06,5.98-29.16,5.98-2.93,0-5.75-.09-8.41-.26-1.51,1.15-3.39,1.83-5.43,1.83-2.21,0-4.23-.79-5.79-2.11-4.06.34-8.67.54-13.56.54-16.29,0-29.49-2.16-29.49-4.82,0-2.31,9.91-4.23,23.15-4.7-1.22-.72-1.92-1.55-1.92-2.44,0-2.81,6.96-5.08,15.54-5.08,1.43,0,2.81.06,4.13.18,1.56-1.67,4.5-2.8,7.86-2.8,1.32,0,2.57.17,3.7.48,5.95-1.74,14.86-2.84,24.79-2.84,17.93,0,32.47,3.59,32.47,8.02,0,3.16-7.41,5.89-18.17,7.19Z"/>
        <g>
          <path class="cls-27" d="M334.71,43.17s-.04.08-.06.12c-.06-.04-.12-.07-.19-.1.08,0,.16-.01.25-.02Z"/>
          <path class="cls-30" d="M385.56,52.26c0,1.24-1.78,2.25-3.97,2.25-1.07,0-2.03-.24-2.74-.63-.97.57-2.2,1.1-3.66,1.6,1.54.36,2.44.81,2.44,1.29,0,1.24-6.06,2.25-13.54,2.25-2.72,0-5.26-.13-7.38-.36h-.01c-3.29.24-6.78.36-10.4.36-3.88,0-7.61-.15-11.09-.42-.6.78-1.8,1.32-3.19,1.32-1.78,0-3.26-.88-3.55-2.03-3.82-.52-7.18-1.22-9.89-2.03-.43.13-.91.21-1.42.21-1.74,0-3.15-.85-3.15-1.9,0-.04,0-.09.01-.13-.73-.4-1.33-.83-1.78-1.26-.36.04-.74.06-1.13.06-2.38,0-4.31-.81-4.31-1.8s1.93-1.8,4.31-1.8c.29,0,.57.01.84.04.74-.87,2.07-1.68,3.88-2.43-.26-.55-.41-1.14-.41-1.75,0-3.19,3.92-5.77,8.75-5.77,3.55,0,6.6,1.39,7.97,3.39.04,0,.09,0,.13,0,.85,0,1.62.18,2.21.47.07.03.13.06.19.1.02-.04.04-.08.06-.12.42-.9,1.34-1.53,2.41-1.53.95,0,1.78.49,2.25,1.23.27-.01.54-.02.81-.04.75-1.23,2.53-2.1,4.6-2.1.55,0,1.07.06,1.56.18.31-1.64,1.74-2.88,3.47-2.88,1.27,0,2.38.67,3,1.66,1.22-.24,2.59-.37,4.03-.37,4.93,0,8.97,1.55,9.36,3.51.52-.08,1.1-.12,1.7-.12,2.42,0,4.38.7,4.38,1.56,0,.35-.31.67-.84.92.73.18,1.42.36,2.08.55.53-.41,1.2-.65,1.92-.65,1.55,0,2.84,1.12,3.11,2.6,1.32.73,2.19,1.51,2.55,2.32.15-.01.31-.02.46-.02,2.19,0,3.97,1.01,3.97,2.25Z"/>
        </g>
        <path class="cls-37" d="M371.7,57.46c.09.14.14.27.14.41,0,1.65-6.53,2.99-14.58,2.99-1.46,0-2.87-.05-4.2-.13-.76.57-1.7.92-2.71.92-1.1,0-2.11-.4-2.89-1.06-2.03.17-4.34.27-6.78.27-8.15,0-14.75-1.08-14.75-2.41,0-1.15,4.96-2.11,11.58-2.35-.61-.36-.96-.78-.96-1.22,0-1.4,3.48-2.54,7.77-2.54.71,0,1.41.03,2.06.09.78-.84,2.25-1.4,3.93-1.4.66,0,1.28.09,1.85.24,2.98-.87,7.43-1.42,12.4-1.42,8.97,0,16.23,1.79,16.23,4.01,0,1.58-3.71,2.95-9.09,3.6Z"/>
        <path class="cls-29" d="M460.25,49.04c0-2.23-4.14-4.04-9.25-4.04-4.46,0-8.17,1.37-9.04,3.21-1.99-.41-4.34-.64-6.85-.64-4.75,0-8.89.83-11.14,2.07-1.43-.71-3.54-1.16-5.9-1.16-2.99,0-5.59.72-6.9,1.79-.47-.03-.94-.05-1.43-.05-3.67,0-6.65.91-6.65,2.04,0,.63.93,1.19,2.39,1.56-.45.41-.7.87-.7,1.35,0,.29.09.57.27.84-.38-.03-.78-.04-1.19-.04-2.96,0-5.35.69-5.35,1.53,0,.33.36.63.98.88-.63.31-.98.65-.98,1.03,0,1.22,3.83,2.21,8.56,2.21,4.38,0,7.99-.85,8.49-1.95,1.84.63,4.66,1.03,7.82,1.03,2.94,0,5.59-.35,7.42-.9.76.09,1.66.14,2.63.14,1.54,0,2.92-.13,3.83-.34,2.2.69,5.04,1.1,8.14,1.1,6.99,0,12.66-2.1,12.66-4.69,0-1.27-1.35-2.41-3.53-3.25,3.36-.61,5.72-2.05,5.72-3.73ZM413.33,57.93s0-.02,0-.02c.02,0,.03.01.05.01-.02.01-.03.01-.05.01Z"/>
        <path class="cls-37" d="M436.47,48.34c-.16-.29-.23-.56-.21-.84.28-3.3,13.52-4.85,29.56-3.49,2.91.25,5.72.58,8.35.97,1.6-1.02,3.53-1.54,5.56-1.36,2.2.19,4.14,1.15,5.59,2.59,4.07,0,8.69.2,13.56.62,16.23,1.38,29.21,4.65,28.98,7.3-.2,2.3-10.23,3.37-23.47,2.72,1.15.83,1.78,1.71,1.7,2.59-.24,2.8-7.36,4.48-15.91,3.75-1.42-.12-2.8-.3-4.1-.53-1.7,1.53-4.72,2.41-8.07,2.12-1.31-.11-2.55-.39-3.64-.79-6.08,1.23-15.04,1.57-24.95.73-17.87-1.52-32.05-6.33-31.67-10.75.27-3.15,7.88-5.24,18.72-5.63Z"/>
      </g>
      <g>
        <path class="cls-27" d="M606,61.72s-.04.08-.06.12c-.06-.04-.12-.07-.19-.1.08,0,.16-.01.25-.02Z"/>
        <path class="cls-30" d="M656.77,70.35c-.38-1.02-1.98-1.79-3.89-1.79-.16,0-.31,0-.46.02-.29-.66-.92-1.29-1.83-1.89-.22-.15-.46-.3-.72-.44-.27-1.48-1.56-2.6-3.11-2.6-.73,0-1.4.24-1.93.65-.65-.19-1.35-.37-2.08-.55.53-.26.84-.58.84-.92,0-.1-.03-.2-.08-.29-.38-.73-2.16-1.28-4.3-1.28-.6,0-1.18.05-1.7.13-.39-1.97-4.44-3.51-9.37-3.51-1.44,0-2.81.13-4.03.37-.55-.87-1.45-1.48-2.5-1.62-.16-.03-.33-.04-.5-.04-.5,0-.97.1-1.4.29-.32.14-.61.32-.87.54h0c-.6.52-1.04,1.23-1.19,2.05-.49-.12-1.02-.18-1.56-.18-2.08,0-3.86.87-4.61,2.1-.27.01-.54.02-.8.03-.47-.73-1.3-1.23-2.25-1.23-1.07,0-1.99.63-2.41,1.53-.03.04-.04.08-.06.12-.06-.04-.12-.07-.19-.1-.59-.3-1.36-.48-2.21-.48-.04,0-.08,0-.12.01-.52-.75-1.27-1.41-2.19-1.95-.18-.11-.37-.21-.57-.3-1.45-.72-3.26-1.14-5.22-1.14-3.09,0-5.8,1.05-7.36,2.65-.61.63-1.05,1.34-1.25,2.1-.09.33-.14.67-.14,1.02,0,.61.15,1.2.41,1.75-.45.18-.86.37-1.25.56-1.18.59-2.07,1.21-2.63,1.86-.28-.02-.55-.03-.84-.03-2.39,0-4.31.81-4.31,1.8,0,.27.15.53.41.76h78.28Z"/>
      </g>
      <g>
        <path class="cls-29" d="M661.15,50.79c.01-2.23-4.12-4.06-9.23-4.08-4.46-.02-8.18,1.34-9.06,3.17-1.98-.42-4.33-.66-6.85-.67-4.75-.02-8.9.79-11.15,2.02-1.43-.72-3.53-1.17-5.89-1.19-2.99-.01-5.59.69-6.9,1.75-.47-.03-.94-.05-1.43-.06-3.67-.02-6.65.88-6.66,2,0,.63.92,1.2,2.38,1.57-.45.4-.71.86-.71,1.35,0,.29.09.57.26.84-.38-.03-.78-.04-1.19-.04-2.96-.01-5.35.66-5.35,1.51,0,.33.36.64.98.89-.63.31-.98.65-.98,1.02,0,1.22,3.82,2.23,8.55,2.25,4.38.02,7.99-.81,8.5-1.91,1.84.64,4.66,1.06,7.82,1.07,2.94.01,5.59-.32,7.43-.87.76.1,1.66.15,2.63.15,1.54,0,2.92-.12,3.83-.32,2.19.7,5.03,1.12,8.14,1.14,6.99.03,12.67-2.04,12.68-4.63,0-1.27-1.34-2.42-3.52-3.27,3.36-.59,5.73-2.02,5.74-3.7ZM614.19,59.45s0-.02,0-.02c.02,0,.03.01.05.01-.02.01-.03.01-.05.01Z"/>
        <path class="cls-37" d="M698.73,48.66c-3.23-.28-6.33-.45-9.22-.54-1.12-.03-2.21-.04-3.26-.05-.35-.35-.73-.67-1.13-.96-1.26-.92-2.78-1.52-4.45-1.66-.81-.08-1.61-.04-2.37.1-1.15.21-2.24.63-3.2,1.23-2.63-.4-5.43-.74-8.35-1-13.86-1.25-25.65-.3-28.77,2.11-.49.37-.76.79-.8,1.23,0,.03-.01.06-.01.1v.1c.02.21.08.43.21.65-1.92.06-3.74.17-5.43.33-1.06.1-2.07.23-3.03.37-3.42.5-6.16,1.25-7.94,2.19-.66.36-1.2.74-1.58,1.14-.12.12-.22.24-.31.37-.26.36-.41.74-.45,1.14-.03.29.01.58.1.87.04.12.09.24.15.36.11.22.25.44.43.66,1.28,1.64,4.31,3.26,8.56,4.7,5.55,1.88,13.17,3.43,21.68,4.23.23.03.47.05.7.07,9.9.89,18.86.59,24.95-.61,1.09.41,2.33.69,3.64.81,3.35.3,6.38-.56,8.08-2.08,1.3.23,2.67.42,4.1.55,2.78.25,5.41.24,7.7.03v-16.44Z"/>
      </g>
      <g>
        <path class="cls-29" d="M152.43,50.01c-.34,2.2,3.47,4.63,8.51,5.42,4.41.69,8.29-.1,9.43-1.77,1.9.71,4.18,1.3,6.67,1.69,4.69.73,8.92.55,11.33-.33,1.3.92,3.32,1.69,5.65,2.06,2.96.46,5.64.15,7.09-.7.45.1.92.19,1.41.27,3.63.57,6.71.13,6.88-.98.1-.62-.73-1.32-2.12-1.91.51-.33.83-.75.9-1.23.05-.29,0-.58-.13-.87.37.09.76.16,1.17.22,2.92.46,5.39.15,5.52-.69.05-.33-.26-.68-.83-1.02.67-.21,1.07-.5,1.13-.86.19-1.21-3.44-2.78-8.11-3.51-4.33-.68-8.02-.4-8.69.61-1.72-.91-4.44-1.74-7.57-2.23-2.9-.45-5.57-.52-7.47-.25-.74-.21-1.62-.4-2.58-.55-1.52-.24-2.91-.32-3.84-.26-2.06-1.02-4.81-1.86-7.87-2.34-6.91-1.08-12.83.12-13.23,2.68-.2,1.25.96,2.59,2.99,3.76-3.41.08-5.97,1.14-6.23,2.8ZM200.15,48.48s0,.02,0,.02c-.02,0-.03-.02-.05-.02.02,0,.03,0,.06,0Z"/>
        <path class="cls-37" d="M100.19,33.77c2.97.4,6.29.97,9.82,1.7-.58-.58-.99-1.15-1.18-1.7h44.06c3.93.53,8.21,1.34,12.65,2.42,8.55,2.1,16.1,4.84,21.45,7.6,5.54,2.85,8.71,5.73,8.18,7.92-.01.05-.02.09-.04.14-.91,2.82-8.02,3.72-17.86,2.69-.48-.05-.97-.11-1.46-.17.11.27.13.53.09.77,0,.04-.01.07-.02.1-.71,2.91-11.7,2.76-25.39-.14-1.42-.3-2.88-.63-4.35-.99-2.84-.69-5.56-1.45-8.11-2.25-1.74.76-3.73.98-5.7.49-2.15-.52-3.92-1.77-5.12-3.42-2.43-.39-5.04-.87-7.77-1.45-1.79-.37-3.64-.8-5.53-1.26-15.82-3.87-28.13-9.11-27.5-11.69.08-.3.33-.56.74-.76h13.04Z"/>
      </g>
      <g>
        <path class="cls-27" d="M469.81,51.69s.04-.08.06-.12c.06.04.12.08.18.11-.08,0-.16,0-.25,0Z"/>
        <path class="cls-30" d="M419.37,40.57c.05-1.24,1.87-2.18,4.05-2.09,1.07.04,2.02.32,2.72.74.99-.53,2.24-1.01,3.72-1.45-1.52-.43-2.4-.9-2.39-1.39.05-1.24,6.15-2.01,13.62-1.71,2.72.11,5.25.34,7.36.66h.01c3.29-.1,6.79-.09,10.41.05,3.88.16,7.6.45,11.07.86.63-.76,1.85-1.24,3.24-1.19,1.78.07,3.23,1.01,3.47,2.17,3.8.68,7.13,1.5,9.8,2.43.43-.11.92-.17,1.43-.15,1.74.07,3.12.97,3.08,2.02,0,.04,0,.09-.02.13.72.43,1.3.88,1.73,1.33.36-.03.74-.03,1.13-.02,2.38.1,4.28.98,4.24,1.97s-2,1.72-4.38,1.63c-.29-.01-.56-.04-.84-.07-.77.84-2.13,1.6-3.98,2.27.24.56.36,1.16.34,1.77-.13,3.19-4.14,5.61-8.98,5.42-3.54-.14-6.54-1.65-7.83-3.71-.04,0-.09,0-.13,0-.85-.03-1.61-.24-2.19-.56-.07-.03-.13-.07-.18-.11-.02.04-.04.08-.06.12-.46.88-1.4,1.47-2.47,1.43-.95-.04-1.76-.56-2.2-1.32-.27,0-.54,0-.81,0-.8,1.2-2.61,1.99-4.68,1.91-.55-.02-1.07-.1-1.56-.24-.37,1.62-1.86,2.81-3.58,2.74-1.27-.05-2.35-.76-2.93-1.78-1.23.19-2.6.27-4.05.21-4.92-.2-8.9-1.9-9.22-3.88-.53.06-1.1.08-1.71.05-2.42-.1-4.35-.88-4.31-1.74.01-.35.34-.65.87-.89-.72-.21-1.41-.42-2.06-.63-.54.39-1.22.6-1.95.57-1.55-.06-2.8-1.23-3-2.73-1.29-.78-2.13-1.6-2.46-2.43-.15,0-.31,0-.47,0-2.19-.09-3.92-1.17-3.87-2.41Z"/>
      </g>
    </g>
    <text class="cls-31" transform="translate(27.41 10.3)"><tspan class="cls-36"><tspan x="0" y="0">Boeing 787 D</tspan><tspan class="cls-39" x="86.7" y="0">r</tspan><tspan x="92.21" y="0">eamliner-8</tspan></tspan><tspan class="cls-34"><tspan x="0" y="12">Ai</tspan><tspan class="cls-40" x="11.11" y="12">r</tspan><tspan x="15.88" y="12">line se</tspan><tspan class="cls-38" x="51.99" y="12">r</tspan><tspan x="57.01" y="12">vice ent</tspan><tspan class="cls-38" x="100.9" y="12">r</tspan><tspan x="105.92" y="12">y: 2011</tspan></tspan></text>
    <text class="cls-32" transform="translate(730.06 67.02) scale(1 1.97)"><tspan x="0" y="0">359</tspan></text>
  </g>
  <g id="Layer_8" data-name="Layer 8">
    <g>
      <path class="cls-25" d="M20.87,61.74l-.24.6s-.03.06-.05.1l-.22.37c-.1.16-.22.3-.38.41l-.57.4c-.09,0-.17.04-.23.09-.06.06-.09.14-.1.23v1.49c-.01.28-.09.56-.23.8-.11.19-.26.36-.44.48l-.19.13c-.06.04-.11.07-.18.1-.19.08-.32.27-.29.48l.16,1.47.15,1.23.13,1.76v.15c0,.19-.09.36-.22.5-.06.06-.09.14-.09.23v.27s-.26,3.11-.26,3.11l-.13,3.28-.02,1.04s0,.09,0,.13l.05.86c.06.18.2.32.38.38l.23.08-11.09-.04c.04-.25.13-.49.27-.7l.81-1.24.28-.19.36-.42,1.3-1.03c.09-.07.16-.17.2-.28l.09-.25c.05-.15.15-.28.29-.36l1.48-.95,2.29-1.29c-.03-.24-.19-.44-.41-.54l-.55-.25c-.06-.03-.1-.08-.1-.14-.04-.24.07-.48.27-.61l.94-.61,2.43-1.4v-1.12l-.15-1.9-.25-2.09-.19-2.64,1.06,1.06c.17.17.45.14.58-.06l1.34-2.02-.46-.7.05-.07c.06-.08.19-.1.27-.02l.54.49-.7-.83s-.02-.04-.02-.06c.02-.1.11-.17.2-.17.03,0,.07,0,.1.02l.19.1.66.55-.78-.87v-.05c0-.14.16-.22.27-.14l.55.39-.39-.65c-.04-.05,0-.13.06-.14l.62.17.28.55c.05.1.06.21.02.32Z"/>
      <path class="cls-9" d="M8.88,52.08l-1.08,1.42-.52-2.38-.39-1.79v-2.35l-.46-.83v-.23c-.06-.07-.1-.16-.1-.25,0-.06.01-.11.04-.17l.06-.11-.02-.55-.45-.64.19-.4-.3-.27.09-.19-.09-.3v-.21c.1,0,.18-.09.18-.18,0-.03,0-.06-.03-.09l-.15-.24c0-.16-.1-.3-.25-.35l-.19-.06-.19-.22c-.05-.06-.05-.15.01-.2.1-.09.16-.21.16-.34,0-.07-.02-.14-.05-.21l-.03-.05c-.08-.16.03-.35.21-.35h.17l.28-.13h.14c.19,0,.34-.15.34-.34l-.22-.42v-.66l.22-.4v-.23l.37.38.25-.72.23.44.19-.44.13.42.17-.25.21.93-.08.42-.28.36-.02.3.38.38h.44c.14.09.19.26.13.41l-.08.18.19.36v.27l-.25.28h-.44l-.06.19-.07.09c-.06.09-.17.14-.27.14v.08c0,.21.07.41.19.58l.1.14.04.93.09,1.69.21,1.21.45,1.29.15.82v1.08l.1.4.09.87c.02.19-.03.37-.15.52Z"/>
      <path class="cls-9" d="M17.01,70.49v1.12l-2.43,1.4-.94.61c-.2.13-.31.37-.27.61,0,.06.05.11.1.14l.55.25c.22.1.37.3.41.54l-2.29,1.29-1.48.95c-.13.08-.23.21-.29.36l-.09.25c-.04.11-.11.2-.2.28l-1.3,1.03-.36.42-.28.19-.04-.32-.15-5.76.02-.03,1.33-1.07,1.52-1.76,1.42-2.24,1.04-1.33.61-.74.13-.63-.11-1.14-.23-.39c-.06-.1-.08-.22-.07-.33l.06-.39c.02-.15.09-.28.21-.38l.55-.48.64-.93v-1.47c0-.17.12-.32.28-.37h.08c.15,0,.29.08.37.21l.15.26.27.73.11.54v.42l.02.32-.3.54c-.06.11-.04.25.05.33l.34.34.19,2.64.25,2.09.15,1.9Z"/>
      <path class="cls-25" d="M14.18,55.56h0s-.75.81-.75.81l-1.38,1.42-1.72,2.1-1.06,1.49-.7,1.3-.38,1.25v.68h-.15c-.29-.04-.56-.19-.73-.43-.15-.2-.22-.44-.22-.69v-.53c0-.13.03-.27.08-.39l.37-.82.23-.37,1.65-2.15,1.42-1.42,1.46-1.35,1.14-.82.28-.23.46.14Z"/>
      <polygon class="cls-25" points="13.43 55.65 12.29 56.46 10.83 57.81 9.41 59.23 7.76 61.38 8.29 60.52 8.22 59.93 7.83 59.28 8.26 59.09 8.77 58.6 9.39 57.71 9.89 56.25 10.21 54.87 10.21 53.28 11.02 54 11.3 54.53 11.61 55.1 11.97 55.42 12.62 55.68 13.43 55.65"/>
      <path class="cls-25" d="M10.21,53.28v1.59l-.32,1.38-.49,1.46-.63.89-.51.49-.43.19-.08-.14c-.1-.17-.16-.37-.16-.56v-.95l.06-1.06c0-.14-.02-.28-.08-.41l-.22-.46c-.07-.15-.2-.25-.35-.29l1.1-.76.66-.72.82-.91.19-.26.44.51Z"/>
      <polygon class="cls-9" points="18.19 83.02 5.92 83.02 5.94 81.86 7.06 81.86 18.15 81.9 18.17 82.37 18.19 83.02"/>
      <path class="cls-25" d="M18,59.64l-1.66,3.01-.02-.32v-.42l-.11-.54-.27-.73-.15-.26c-.07-.13-.21-.21-.37-.21h-.08c-.17.04-.28.2-.28.37v1.47l-.64.93-.55.48c-.11.1-.19.23-.21.38l-.06.39c-.02.11,0,.23.07.33l.23.39.11,1.14-.13.63-.61.74-1.04,1.33-1.42,2.24-1.52,1.76-1.33,1.07.16-.23c.13-.18.18-.4.16-.61l-.34-2.86c0-.08,0-.16,0-.24l.05-.29c.09-.51.03-1.04-.16-1.52l-.24-.59c-.06-.15-.09-.3-.09-.46,0-.3.07-.6.22-.87l.32-.61c.15-.28.19-.59.13-.9v-.02s0-.68,0-.68l.38-1.25.7-1.3,1.06-1.49,1.72-2.1,1.38-1.42.75-.81h0s.66.2.66.2l.24.08c.26.09.49.27.65.5l.53.78c.04.06.08.13.11.21l.3.78c.02.06.04.12.06.19l.07.31c.04.19.14.37.28.5l.22.21c.14.13.3.22.48.27l.24.06Z"/>
      <path class="cls-9" d="M16.48,51.04l-2.1-.15v-.23l2.1-1.02-2.43.53-.3-.42,1.23-1.69-1.67,1.38-.68-.19-.36-2.09-.28,2.01-.68.32-1.9-1.19,1.44,1.67-.27.28-1.52-.47,1.31,1.04v.21h-1.02s.08.22.08.22l.98.12.1.42.06.82-.36.66.82.72.28.53.31.57.36.32.64.27.82-.04.28-.23.46.14.66.2-.11-.49-.34-1.65-.04-1.71.09-.57,2.05-.3ZM13.73,52.12l-.04.13s0,.02,0,.03v.26c0,.14-.03.29-.08.42l-.13.32s-.02.07-.03.1h0s-.37.34-.37.34l-.11.07c-.15.1-.33.15-.51.15-.1,0-.2-.02-.28-.07l-.06-.03c-.09-.05-.17-.11-.24-.18l-.16-.17-.17-.19c-.15-.17-.27-.37-.32-.6l-.19-.79c.19,0,.39-.05.56-.14l.16-.08.42-.49.16-.36c.03-.06.12-.07.16-.01l.18.28.23.38.41.23s.09.04.13.06l.18.07c.11.04.16.16.12.27Z"/>
      <path class="cls-9" d="M21,60.17l-.43.71-.62-.17c-.07,0-.1.08-.06.14l.39.65-.55-.39c-.12-.08-.27,0-.27.14v.05l.78.87-.66-.55-.19-.1s-.06-.02-.1-.02c-.1,0-.19.07-.2.17,0,.02,0,.04.02.06l.7.83-.54-.49c-.08-.07-.2-.06-.27.02l-.05.07.46.7-1.34,2.02c-.13.2-.41.23-.58.06l-1.06-1.06-.34-.34c-.09-.09-.11-.23-.05-.33l.3-.54,1.66-3.01.47-.82c.09-.15.28-.21.44-.13l1.94.97c.19.09.26.33.15.51Z"/>
      <path class="cls-25" d="M9.77,52.76l-.19.26-.82.91-.66.72-1.1.76-.25-.06-.12-.05c-.16-.06-.27-.21-.29-.38l-.11-.81c-.02-.13,0-.25.03-.38l.23-.81c.02-.08.06-.15.11-.22l.15-.22c.08-.11.14-.23.18-.36l.34-1.01.52,2.38,1.08-1.42c.11-.15.16-.33.15-.52l-.09-.87.38.23.04.12.08.21v.03s.24.7.24.7l.09.78Z"/>
      <path class="cls-25" d="M13.73,52.12l-.04.13s0,.02,0,.03v.26c0,.14-.03.29-.08.42l-.13.32s-.02.07-.03.1h0s-.37.34-.37.34l-.11.07c-.15.1-.33.15-.51.15-.1,0-.2-.02-.28-.07l-.06-.03c-.09-.05-.17-.11-.24-.18l-.16-.17-.17-.19c-.15-.17-.27-.37-.32-.6l-.19-.79c.19,0,.39-.05.56-.14l.16-.08.42-.49.16-.36c.03-.06.12-.07.16-.01l.18.28.23.38.41.23s.09.04.13.06l.18.07c.11.04.16.16.12.27Z"/>
      <path class="cls-14" d="M13.44,53.39s-.01.07-.01.11v1.6l.28.32"/>
    </g>
  </g>
  <g id="_5" data-name="#5">
    <g>
      <g>
        <text class="cls-35" transform="translate(534.67 95.08)"><tspan x="0" y="0">Mayotte, France, Africa</tspan></text>
        <text class="cls-33" transform="translate(559.3 104.45)"><tspan x="0" y="0">13,350 Km</tspan></text>
      </g>
      <g>
        <path class="cls-10" d="M569.59,69.77v13.59h3.88v-6.79h.33v-6.79h-4.21ZM570.8,82.3h-.6v-.55h.6v.55ZM570.8,81.35h-.6v-.55h.6v.55ZM570.8,80.4h-.6v-.55h.6v.55ZM570.8,79.45h-.6v-.55h.6v.55ZM570.8,78.5h-.6v-.55h.6v.55ZM570.8,77.55h-.6v-.55h.6v.55ZM570.8,76.6h-.6v-.55h.6v.55ZM570.8,75.65h-.6v-.55h.6v.55ZM570.8,74.7h-.6v-.55h.6v.55ZM570.8,73.75h-.6v-.55h.6v.55ZM570.8,72.81h-.6v-.55h.6v.55ZM570.8,71.86h-.6v-.55h.6v.55ZM570.8,70.91h-.6v-.55h.6v.55ZM572.16,82.3h-.6v-.55h.6v.55ZM572.16,81.35h-.6v-.55h.6v.55ZM572.16,80.4h-.6v-.55h.6v.55ZM572.16,79.45h-.6v-.55h.6v.55ZM572.16,78.5h-.6v-.55h.6v.55ZM572.16,77.55h-.6v-.55h.6v.55ZM572.16,76.6h-.6v-.55h.6v.55ZM572.16,75.65h-.6v-.55h.6v.55ZM572.16,74.7h-.6v-.55h.6v.55ZM572.16,73.75h-.6v-.55h.6v.55ZM572.16,72.81h-.6v-.55h.6v.55ZM572.16,71.86h-.6v-.55h.6v.55ZM572.16,70.91h-.6v-.55h.6v.55ZM573.38,82.3h-.6v-.55h.6v.55ZM573.38,81.36h-.6v-.55h.6v.55ZM573.38,80.41h-.6v-.55h.6v.55ZM573.38,79.46h-.6v-.55h.6v.55ZM573.38,78.51h-.6v-.55h.6v.55ZM573.38,77.56h-.6v-.55h.6v.55ZM573.38,76.61h-.6v-.55h.6v.55ZM573.38,75.66h-.6v-.55h.6v.55ZM573.38,74.71h-.6v-.55h.6v.55ZM573.38,73.76h-.6v-.55h.6v.55ZM573.38,72.82h-.6v-.55h.6v.55ZM573.38,71.87h-.6v-.55h.6v.55ZM573.38,70.92h-.6v-.55h.6v.55Z"/>
        <rect class="cls-18" x="572.78" y="70.37" width=".6" height=".55"/>
        <rect class="cls-18" x="571.56" y="70.36" width=".6" height=".55"/>
        <rect class="cls-18" x="570.2" y="70.36" width=".6" height=".55"/>
        <path class="cls-4" d="M573.47,76.56v6.79h4.26v-6.79h-4.26ZM574.21,82.16h-.41v-5.03h.41v5.03ZM574.83,82.16h-.41v-5.03h.41v5.03ZM575.45,82.16h-.41v-5.03h.41v5.03ZM576.07,82.16h-.41v-5.03h.41v5.03ZM576.69,82.16h-.41v-5.03h.41v5.03ZM577.32,82.16h-.41v-5.03h.41v5.03Z"/>
        <path class="cls-7" d="M577.57,74.95v1.61h.16v6.79h7.99v-8.4h-8.16ZM578.26,75.67h6.81v.55h-6.81v-.55ZM585.16,81.89h-6.81v-.55h6.81v.55ZM585.16,80.94h-6.81v-.55h6.81v.55ZM585.16,79.99h-6.81v-.55h6.81v.55ZM585.16,79.04h-6.81v-.55h6.81v.55ZM585.16,78.09h-6.81v-.55h6.81v.55ZM585.16,77.14h-6.81v-.55h6.81v.55Z"/>
        <path class="cls-15" d="M585.72,70.33v13.03h1.85v-13.03h-1.85ZM586.26,82.57h-.26v-.55h.26v.55ZM586.26,81.62h-.26v-.55h.26v.55ZM586.26,80.67h-.26v-.55h.26v.55ZM586.26,79.72h-.26v-.55h.26v.55ZM586.26,78.77h-.26v-.55h.26v.55ZM586.26,77.83h-.26v-.55h.26v.55ZM586.26,76.88h-.26v-.55h.26v.55ZM586.26,75.93h-.26v-.55h.26v.55ZM586.26,74.98h-.26v-.55h.26v.55ZM586.26,74.03h-.26v-.55h.26v.55ZM586.26,73.08h-.26v-.55h.26v.55ZM586.26,72.13h-.26v-.55h.26v.55ZM586.26,71.18h-.26v-.55h.26v.55ZM587.31,82.57h-.26v-.55h.26v.55ZM587.31,81.62h-.26v-.55h.26v.55ZM587.31,80.67h-.26v-.55h.26v.55ZM587.31,79.72h-.26v-.55h.26v.55ZM587.31,78.77h-.26v-.55h.26v.55ZM587.31,77.83h-.26v-.55h.26v.55ZM587.31,76.88h-.26v-.55h.26v.55ZM587.31,75.93h-.26v-.55h.26v.55ZM587.31,74.98h-.26v-.55h.26v.55ZM587.31,74.03h-.26v-.55h.26v.55ZM587.31,73.08h-.26v-.55h.26v.55ZM587.31,72.13h-.26v-.55h.26v.55ZM587.31,71.18h-.26v-.55h.26v.55Z"/>
        <rect class="cls-18" x="587.05" y="70.63" width=".26" height=".55"/>
        <rect class="cls-18" x="586" y="70.63" width=".26" height=".55"/>
        <path class="cls-24" d="M566.23,74.95v4.76h.42v3.64h2.94v-8.4h-3.36ZM568.14,81.64h-.26v-1.05h.26v1.05ZM568.14,79.84h-.26v-1.05h.26v1.05ZM568.14,78.04h-.26v-1.05h.26v1.05ZM568.14,76.23h-.26v-1.05h.26v1.05Z"/>
        <path class="cls-23" d="M564.69,79.71v3.64h1.96v-3.64h-1.96ZM565.07,80.25h.6v.55h-.6v-.55ZM565.71,82.31h-.6v-.55h.6v.55ZM566.4,81.53h-.6v-.55h.6v.55Z"/>
        <path class="cls-24" d="M587.57,80.42v2.93h2.68v-2.93h-2.68ZM588.39,82.59h-.26v-.55h.26v.55ZM588.39,81.64h-.26v-.55h.26v.55ZM589.45,82.59h-.26v-.55h.26v.55ZM589.45,81.64h-.26v-.55h.26v.55Z"/>
        <polygon class="cls-26" points="569.59 74.02 569.59 74.95 566.25 74.95 568.02 66.86 569.59 74.02"/>
        <rect class="cls-19" x="586" y="82.02" width=".26" height=".55"/>
        <rect class="cls-19" x="586" y="81.07" width=".26" height=".55"/>
        <rect class="cls-19" x="586" y="80.12" width=".26" height=".55"/>
        <rect class="cls-19" x="586" y="79.17" width=".26" height=".55"/>
        <rect class="cls-19" x="586" y="78.22" width=".26" height=".55"/>
        <rect class="cls-19" x="586" y="77.28" width=".26" height=".55"/>
        <rect class="cls-19" x="586" y="76.33" width=".26" height=".55"/>
        <rect class="cls-19" x="586" y="75.38" width=".26" height=".55"/>
        <rect class="cls-19" x="586" y="74.43" width=".26" height=".55"/>
        <rect class="cls-19" x="586" y="73.48" width=".26" height=".55"/>
        <rect class="cls-19" x="586" y="72.53" width=".26" height=".55"/>
        <rect class="cls-19" x="586" y="71.58" width=".26" height=".55"/>
        <rect class="cls-19" x="587.06" y="82.02" width=".26" height=".55"/>
        <rect class="cls-19" x="587.06" y="81.07" width=".26" height=".55"/>
        <rect class="cls-19" x="587.06" y="80.12" width=".26" height=".55"/>
        <rect class="cls-19" x="587.06" y="79.17" width=".26" height=".55"/>
        <rect class="cls-19" x="587.06" y="78.22" width=".26" height=".55"/>
        <rect class="cls-19" x="587.06" y="77.28" width=".26" height=".55"/>
        <rect class="cls-19" x="587.06" y="76.33" width=".26" height=".55"/>
        <rect class="cls-19" x="587.06" y="75.38" width=".26" height=".55"/>
        <rect class="cls-19" x="587.06" y="74.43" width=".26" height=".55"/>
        <rect class="cls-19" x="587.06" y="73.48" width=".26" height=".55"/>
        <rect class="cls-19" x="587.06" y="72.53" width=".26" height=".55"/>
        <rect class="cls-19" x="587.06" y="71.58" width=".26" height=".55"/>
        <rect class="cls-19" x="588.14" y="82.04" width=".26" height=".55"/>
        <rect class="cls-19" x="588.14" y="81.09" width=".26" height=".55"/>
        <rect class="cls-19" x="589.19" y="82.04" width=".26" height=".55"/>
        <rect class="cls-19" x="589.19" y="81.09" width=".26" height=".55"/>
        <polygon class="cls-22" points="590.26 80.42 587.57 80.42 587.57 78.5 590.26 80.42"/>
        <rect class="cls-19" x="570.2" y="81.74" width=".6" height=".55"/>
        <rect class="cls-19" x="570.2" y="80.8" width=".6" height=".55"/>
        <rect class="cls-19" x="570.2" y="79.85" width=".6" height=".55"/>
        <rect class="cls-19" x="570.2" y="78.9" width=".6" height=".55"/>
        <rect class="cls-19" x="570.2" y="77.95" width=".6" height=".55"/>
        <rect class="cls-19" x="570.2" y="77" width=".6" height=".55"/>
        <rect class="cls-19" x="570.2" y="76.05" width=".6" height=".55"/>
        <rect class="cls-19" x="570.2" y="75.1" width=".6" height=".55"/>
        <rect class="cls-19" x="570.2" y="74.15" width=".6" height=".55"/>
        <rect class="cls-19" x="570.2" y="73.2" width=".6" height=".55"/>
        <rect class="cls-19" x="570.2" y="72.26" width=".6" height=".55"/>
        <rect class="cls-19" x="570.2" y="71.31" width=".6" height=".55"/>
        <rect class="cls-19" x="571.56" y="81.74" width=".6" height=".55"/>
        <rect class="cls-19" x="571.56" y="80.8" width=".6" height=".55"/>
        <rect class="cls-19" x="571.56" y="79.85" width=".6" height=".55"/>
        <rect class="cls-19" x="571.56" y="78.9" width=".6" height=".55"/>
        <rect class="cls-19" x="571.56" y="77.95" width=".6" height=".55"/>
        <rect class="cls-19" x="571.56" y="77" width=".6" height=".55"/>
        <rect class="cls-19" x="571.56" y="76.05" width=".6" height=".55"/>
        <rect class="cls-19" x="571.56" y="75.1" width=".6" height=".55"/>
        <rect class="cls-19" x="571.56" y="74.15" width=".6" height=".55"/>
        <rect class="cls-19" x="571.56" y="73.2" width=".6" height=".55"/>
        <rect class="cls-19" x="571.56" y="72.26" width=".6" height=".55"/>
        <rect class="cls-19" x="571.56" y="71.31" width=".6" height=".55"/>
        <rect class="cls-19" x="572.78" y="81.75" width=".6" height=".55"/>
        <rect class="cls-19" x="572.78" y="80.81" width=".6" height=".55"/>
        <rect class="cls-19" x="572.78" y="79.86" width=".6" height=".55"/>
        <rect class="cls-19" x="572.78" y="78.91" width=".6" height=".55"/>
        <rect class="cls-19" x="572.78" y="77.96" width=".6" height=".55"/>
        <rect class="cls-19" x="572.78" y="77.01" width=".6" height=".55"/>
        <rect class="cls-19" x="572.78" y="76.06" width=".6" height=".55"/>
        <rect class="cls-19" x="572.78" y="75.11" width=".6" height=".55"/>
        <rect class="cls-19" x="572.78" y="74.16" width=".6" height=".55"/>
        <rect class="cls-19" x="572.78" y="73.21" width=".6" height=".55"/>
        <rect class="cls-19" x="572.78" y="72.26" width=".6" height=".55"/>
        <rect class="cls-19" x="572.78" y="71.32" width=".6" height=".55"/>
        <rect class="cls-19" x="578.35" y="81.34" width="6.81" height=".55"/>
        <rect class="cls-19" x="578.35" y="80.39" width="6.81" height=".55"/>
        <rect class="cls-19" x="578.35" y="79.44" width="6.81" height=".55"/>
        <rect class="cls-19" x="578.35" y="78.49" width="6.81" height=".55"/>
        <rect class="cls-19" x="578.35" y="77.54" width="6.81" height=".55"/>
        <rect class="cls-19" x="578.35" y="76.59" width="6.81" height=".55"/>
        <rect class="cls-19" x="567.88" y="80.59" width=".26" height="1.05"/>
        <rect class="cls-19" x="567.88" y="78.79" width=".26" height="1.05"/>
        <rect class="cls-19" x="567.88" y="76.99" width=".26" height="1.05"/>
        <rect class="cls-19" x="567.88" y="75.19" width=".26" height="1.05"/>
        <rect class="cls-19" x="576.91" y="77.13" width=".41" height="5.03"/>
        <rect class="cls-19" x="576.29" y="77.13" width=".41" height="5.03"/>
        <rect class="cls-19" x="575.67" y="77.13" width=".41" height="5.03"/>
        <rect class="cls-19" x="575.04" y="77.13" width=".41" height="5.03"/>
        <rect class="cls-19" x="574.42" y="77.13" width=".41" height="5.03"/>
        <rect class="cls-19" x="573.8" y="77.13" width=".41" height="5.03"/>
        <rect class="cls-19" x="578.26" y="75.67" width="6.81" height=".55"/>
        <rect class="cls-19" x="565.07" y="80.25" width=".6" height=".55"/>
        <rect class="cls-19" x="565.8" y="80.98" width=".6" height=".55"/>
        <rect class="cls-19" x="565.11" y="81.76" width=".6" height=".55"/>
      </g>
      <g>
        <line class="cls-6" x1="590.26" y1="83.36" x2=".1" y2="83.36"/>
        <path class="cls-28" d="M0,83.12c.06-.85.76-1.36,1.36-1.76.63-.4,1.31-.72,2-.99,1.38-.55,2.8-.98,4.23-1.36,2.86-.75,5.76-1.33,8.67-1.86,5.82-1.03,11.67-1.83,17.53-2.55,11.73-1.42,23.49-2.5,35.26-3.47,23.54-1.91,47.12-3.33,70.7-4.57,47.17-2.41,94.38-4.04,141.59-5.33,23.61-.65,47.22-1.21,70.83-1.69,23.61-.42,47.23-.75,70.84-1.02,47.23-.34,94.46-.44,141.69.13v.2c-47.23.57-94.45.97-141.67,1.67-23.61.26-47.22.59-70.83,1-23.61.35-47.22.78-70.82,1.31-47.21,1.1-94.41,2.52-141.58,4.73-23.58,1.1-47.16,2.39-70.7,4.16-11.77.9-23.53,1.92-35.26,3.27-5.86.68-11.71,1.45-17.53,2.45-2.9.51-5.8,1.07-8.66,1.8-1.42.37-2.84.79-4.21,1.32-.68.27-1.35.57-1.97.96-.59.38-1.23.89-1.27,1.58h-.2Z"/>
      </g>
    </g>
    <g>
      <path class="cls-3" d="M524.27,60.55h.01s0,0,0,0l11.41.21c.06,0,.12,0,.18.01v-.24s-1.57-.57-1.57-.57c-.05-.02-.05-.09,0-.11l1.57-.5v-.2s-2.58.49-2.58.49c-.17.03-.35-.05-.43-.21l-.11-.21c-.09-.17-.26-.27-.45-.27h-.79s-.06,0-.1,0l-2.19-.21-1.27-.27c-.2-.04-.37-.2-.42-.4-.02-.06-.07-.11-.14-.11h-.53c-1.49.2-5.79,2.17-2.58,2.59Z"/>
      <path class="cls-5" d="M535.88,59.15v1.63c.06,0,.12.02.17.04l.56.05.16-.18c.08-.12.11-.21.04-.3l-.12-.14s-.04-.12,0-.16l.09-.09c.06-.06.07-.15.02-.22l-.13-.17c-.04-.05-.04-.13,0-.17l.09-.1c.06-.07.06-.18,0-.25l-.09-.11s-.02-.1.03-.13l-.83.33Z"/>
      <path class="cls-11" d="M536.65,61.43l.08.06s.04.11-.01.14l-.05.03s-.02.06,0,.06l1.99.32h3.22s.62-.13.62-.13l.05-.02v-4.23c-.49-.03-1.63-.01-2.25,0-.27,0-.53.03-.79.07l-1.93.3c-.1.02-.21.04-.31.07l-.67.2.23.05s.04.05.01.07l-.15.09s-.03.08,0,.09l.13.04s.05.08,0,.1l-.15.08s-.06.09-.03.13l.09.11c.06.07.06.18,0,.25l-.09.1s-.05.12,0,.17l.13.17c.05.07.04.16-.02.22l-.09.09s-.05.11,0,.16l.12.14c.08.09.04.18-.04.3l-.16.18.14.15c.07.02.08.11.02.15l-.12.08c-.06.04-.06.13,0,.18Z"/>
      <path class="cls-17" d="M542.55,57.65v4.23s.38-.16.38-.16c.15-.06.25-.2.26-.36l.05-.63.14-2.33c.01-.22-.08-.44-.26-.57-.11-.08-.25-.15-.43-.17-.04,0-.08,0-.13-.01Z"/>
      <path class="cls-21" d="M517.58,53.89v6.6s3.89.07,3.89.07h2.64s.18,0,.18,0h-.01c-3.2-.42,1.09-2.4,2.58-2.59-.09,0-.14-.09-.09-.17l.38-.2c.1-.06.14-.19.08-.29l-.2-.35c-.03-.05-.08-.1-.14-.12v.37c0,.23-.19.41-.41.41h-.76c-.23,0-.41-.18-.41-.41v-.39s-.18,0-.18,0c-.07,0-.12-.05-.13-.12h0s.02-.07.06-.08h.04c.2-.06.24-.33.06-.44l-.03-.02s-.08-.04-.12-.06c.02.04.02.09.02.15,0,.16-.07.28-.15.28s-.15-.13-.15-.28c0-.07.01-.13.04-.18h-.36s.04.11.04.18c0,.16-.07.28-.15.28s-.15-.13-.15-.28c0-.07.01-.13.04-.18h-.36s.04.11.04.18c0,.16-.07.28-.15.28s-.15-.13-.15-.28c0-.07.01-.13.04-.18h-.36s.04.11.04.18c0,.16-.07.28-.15.28s-.15-.13-.15-.28c0-.07.01-.13.04-.18h-.24c-.06,0-.1-.07-.06-.12.03-.05.08-.09.14-.11l.44-.17s.04-.07,0-.08l-5.59-1.66s-.06-.02-.09-.03ZM522.37,56.24c0-.16.07-.28.15-.28s.15.13.15.28c0,.16-.07.28-.15.28s-.15-.13-.15-.28ZM521.78,56.24c0-.16.07-.28.15-.28s.15.13.15.28c0,.16-.07.28-.15.28s-.15-.13-.15-.28ZM521.2,56.24c0-.16.07-.28.15-.28s.15.13.15.28-.07.28-.15.28-.15-.13-.15-.28ZM520.61,56.24c0-.16.07-.28.15-.28s.15.13.15.28-.07.28-.15.28-.15-.13-.15-.28ZM520.03,56.24c0-.16.07-.28.15-.28s.15.13.15.28c0,.16-.07.28-.15.28s-.15-.13-.15-.28ZM519.44,56.24c0-.16.07-.28.15-.28s.15.13.15.28c0,.16-.07.28-.15.28s-.15-.13-.15-.28ZM518.86,56.24c0-.16.07-.28.15-.28s.15.13.15.28c0,.16-.07.28-.15.28s-.15-.13-.15-.28ZM518.27,56.24c0-.16.07-.28.15-.28s.15.13.15.28-.07.28-.15.28-.15-.13-.15-.28ZM517.69,56.24c0-.16.07-.28.15-.28s.15.13.15.28-.07.28-.15.28-.15-.13-.15-.28Z"/>
      <path class="cls-20" d="M522.37,56.24c0,.16.07.28.15.28s.15-.13.15-.28c0-.16-.07-.28-.15-.28s-.15.13-.15.28Z"/>
      <path class="cls-13" d="M554.44,53.91l.05,6.7,3.66-.04c.13,0,.27-.01.4-.03l3.04-.39c.08,0,.15-.02.23-.04l1.51-.37v-2.68s-.33-.32-.33-.32c-.03-.03-.07-.06-.1-.09h-1.84c-.1,0-.19-.04-.26-.11-.06-.07-.1-.15-.1-.24s0-.07.02-.11l.04-.13c.02-.07.09-.13.17-.13l.95-.08-.15-.12c-.3-.24-.64-.44-.99-.59l-.59-.26c-.33-.15-.67-.26-1.02-.33l-2.07-.44c-.11-.02-.23-.04-.34-.05l-1.07-.09c-.06,0-.13,0-.19-.01l-1-.02ZM556.48,55.71c0-.23.19-.41.41-.41h.76c.23,0,.41.19.41.41v1.49c0,.23-.19.41-.41.41h-.76c-.23,0-.41-.18-.41-.41v-1.49ZM555.89,56.24c0-.16.07-.28.15-.28s.15.13.15.28-.07.28-.15.28-.15-.13-.15-.28ZM555.3,56.24c0-.16.07-.28.15-.28s.15.13.15.28-.07.28-.15.28-.15-.13-.15-.28ZM554.71,56.24c0-.16.07-.28.15-.28s.15.13.15.28c0,.16-.07.28-.15.28s-.15-.13-.15-.28Z"/>
      <path class="cls-13" d="M548.53,56.24c0,.16-.07.28-.15.28-.02,0-.03,0-.05-.01v4.17s6.16-.07,6.16-.07l-.05-6.7-6.11-.15v2.21s.03-.01.05-.01c.08,0,.15.13.15.28ZM553.91,56.24c0-.16.07-.28.15-.28s.15.13.15.28-.07.28-.15.28-.15-.13-.15-.28ZM553.34,56.24c0-.16.07-.28.15-.28s.15.13.15.28c0,.16-.07.28-.15.28s-.15-.13-.15-.28ZM552.77,56.24c0-.16.07-.28.15-.28s.15.13.15.28-.07.28-.15.28-.15-.13-.15-.28ZM552.2,56.24c0-.16.07-.28.15-.28s.15.13.15.28-.07.28-.15.28-.15-.13-.15-.28ZM551.63,56.24c0-.16.07-.28.15-.28s.15.13.15.28-.07.28-.15.28-.15-.13-.15-.28ZM551.07,56.24c0-.16.07-.28.15-.28s.15.13.15.28c0,.16-.07.28-.15.28s-.15-.13-.15-.28ZM550.5,56.24c0-.16.07-.28.15-.28s.15.13.15.28c0,.16-.07.28-.15.28s-.15-.13-.15-.28ZM549.93,56.24c0-.16.07-.28.15-.28s.15.13.15.28-.07.28-.15.28-.15-.13-.15-.28ZM549.36,56.24c0-.16.07-.28.15-.28s.15.13.15.28-.07.28-.15.28-.15-.13-.15-.28ZM548.79,56.24c0-.16.07-.28.15-.28s.15.13.15.28c0,.16-.07.28-.15.28s-.15-.13-.15-.28Z"/>
      <path class="cls-20" d="M548.79,56.24c0,.16.07.28.15.28s.15-.13.15-.28c0-.16-.07-.28-.15-.28s-.15.13-.15.28Z"/>
      <path class="cls-13" d="M539.98,53.73v3.76s1.55-.06,1.55-.06c.25,0,.49.01.73.06l.42.09c.14.03.27.06.4.11l.96.35c.14.05.28.12.42.19l.45.25c.27.15.49.36.66.61l.1.16c.07.1.09.23.06.35v.04c-.05.19-.18.35-.34.45-.2.11-.76.4-1.41.66l4.36-.04v-4.17c-.06-.04-.11-.14-.11-.27,0-.13.04-.24.11-.27v-2.21s-.42,0-.42,0l-.33-.53-.18-.07.1.58h-7.51ZM547.64,56.24c0-.16.07-.28.15-.28s.15.13.15.28-.07.28-.15.28-.15-.13-.15-.28ZM545.68,55.71c0-.23.19-.41.41-.41h.76c.23,0,.41.19.41.41v1.49c0,.23-.18.41-.41.41h-.76c-.23,0-.41-.18-.41-.41v-1.49ZM545.13,56.24c0-.16.07-.28.15-.28s.15.13.15.28-.07.28-.15.28-.15-.13-.15-.28ZM544.59,56.24c0-.16.07-.28.15-.28s.15.13.15.28-.07.28-.15.28-.15-.13-.15-.28ZM544.04,56.24c0-.16.07-.28.15-.28s.15.13.15.28-.07.28-.15.28-.15-.13-.15-.28ZM543.5,56.24c0-.16.07-.28.15-.28s.15.13.15.28-.07.28-.15.28-.15-.13-.15-.28ZM542.95,56.24c0-.16.07-.28.15-.28s.15.13.15.28c0,.16-.07.28-.15.28s-.15-.13-.15-.28ZM542.41,56.24c0-.16.07-.28.15-.28s.15.13.15.28-.07.28-.15.28-.15-.13-.15-.28ZM541.86,56.24c0-.16.07-.28.15-.28s.15.13.15.28c0,.16-.07.28-.15.28s-.15-.13-.15-.28ZM541.32,56.24c0-.16.07-.28.15-.28s.15.13.15.28-.07.28-.15.28-.15-.13-.15-.28ZM540.77,56.24c0-.16.07-.28.15-.28s.15.13.15.28-.07.28-.15.28-.15-.13-.15-.28ZM540.23,56.24c0-.16.07-.28.15-.28s.15.13.15.28c0,.16-.07.28-.15.28s-.15-.13-.15-.28Z"/>
      <path class="cls-13" d="M532.49,53.71v2.67s.49.11.49.11c-.05-.05-.08-.14-.08-.25,0-.16.07-.28.15-.28s.15.13.15.28-.05.25-.12.28l1.52.34,3.07.66c.13.03.26.04.38.03l1.93-.07v-3.76s-7.49-.01-7.49-.01ZM539.39,56.24c0-.16.07-.28.15-.28s.15.13.15.28-.07.28-.15.28-.15-.13-.15-.28ZM538.8,56.24c0-.16.07-.28.15-.28s.15.13.15.28-.07.28-.15.28-.15-.13-.15-.28ZM538.21,56.24c0-.16.07-.28.15-.28s.15.13.15.28c0,.16-.07.28-.15.28s-.15-.13-.15-.28ZM537.62,56.24c0-.16.07-.28.15-.28s.15.13.15.28-.07.28-.15.28-.15-.13-.15-.28ZM537.03,56.24c0-.16.07-.28.15-.28s.15.13.15.28-.07.28-.15.28-.15-.13-.15-.28ZM536.44,56.24c0-.16.07-.28.15-.28s.15.13.15.28-.07.28-.15.28-.15-.13-.15-.28ZM535.85,56.24c0-.16.07-.28.15-.28s.15.13.15.28-.07.28-.15.28-.15-.13-.15-.28ZM535.26,56.24c0-.16.07-.28.15-.28s.15.13.15.28-.07.28-.15.28-.15-.13-.15-.28ZM534.67,56.24c0-.16.07-.28.15-.28s.15.13.15.28-.07.28-.15.28-.15-.13-.15-.28ZM534.08,56.24c0-.16.07-.28.15-.28s.15.13.15.28c0,.16-.07.28-.15.28s-.15-.13-.15-.28ZM533.49,56.24c0-.16.07-.28.15-.28s.15.13.15.28c0,.16-.07.28-.15.28s-.15-.13-.15-.28Z"/>
      <path class="cls-20" d="M533.49,56.24c0,.16.07.28.15.28s.15-.13.15-.28c0-.16-.07-.28-.15-.28s-.15.13-.15.28Z"/>
      <path class="cls-13" d="M518.4,53.69l1.82.27,6.49,1.14,4.35.97c.03-.06.07-.11.12-.11.06,0,.11.07.14.16l.21.05c.02-.12.08-.21.14-.21.08,0,.15.12.15.28l.19.04s0-.02,0-.03c0-.16.07-.28.15-.28s.15.13.15.28c0,.03,0,.07,0,.1l.2.05v-2.67s-13.83-.02-13.83-.02h-.27Z"/>
      <path class="cls-20" d="M560.7,56.29c0,.09.03.18.1.24.07.07.16.11.26.11h1.84s-.07-.06-.1-.08l-.92-.72-.95.08c-.08,0-.14.06-.17.13l-.04.13s-.02.07-.02.11Z"/>
      <path class="cls-16" d="M563.33,57.06v2.68s.01,0,.01,0c.23-.06.45-.15.65-.28l.32-.21c.14-.09.25-.21.32-.36l.02-.04c.04-.08.05-.16.03-.25v-.03c-.04-.16-.12-.3-.24-.42l-1.12-1.1Z"/>
      <path class="cls-13" d="M497.83,56.14v.2c0,.09.06.17.14.19l6.53,1.8,5.98,1.32,4.96.77c.12.02.24.03.37.03l1.77.03v-6.6s-.06-.02-.09-.04l-.34-.16h-1c-.07,0-.13-.03-.18-.07l-.37-.37s-.09,0-.09.04v.28c0,.08-.06.15-.14.15l-.97.04c-.16,0-.31-.07-.41-.2l-.09-.12s-.06-.01-.06.02v.16c0,.08-.06.14-.14.15l-.78.04c-.28.01-.56-.02-.82-.1-.63-.2-1.79-.61-2.25-1.09-.63-.68-5.84-5.68-5.84-5.68l-2.35-2.3s-.3-.55-1-.7c-.55-.12-1.98-.26-2.56-.31-.11-.01-.2.1-.15.21l4.41,11.03c.04.09-.02.19-.11.22l-.9.22,3.88.64s.06,0,.09.01l2.06.15c.08,0,.15.06.18.14.02.06,0,.13-.06.16l-.06.04c-.13.07-.26.12-.41.15l-.58.11c-.08.01-.16.02-.24.02h-1.8s-.07,0-.1,0l-1.63-.11-2.1-.27-1.65-.6s-.01.01-.02.01l-.94.27c-.07.02-.11.08-.11.15ZM517.03,56.24c0-.16.07-.28.15-.28s.15.13.15.28-.07.28-.15.28-.15-.13-.15-.28ZM516.47,56.24c0-.16.07-.28.15-.28s.15.13.15.28-.07.28-.15.28-.15-.13-.15-.28ZM515.92,56.24c0-.16.07-.28.15-.28s.15.13.15.28c0,.16-.07.28-.15.28s-.15-.13-.15-.28ZM515.37,56.24c0-.16.07-.28.15-.28s.15.13.15.28c0,.16-.07.28-.15.28s-.15-.13-.15-.28ZM514.81,56.24c0-.16.07-.28.15-.28s.15.13.15.28c0,.16-.07.28-.15.28s-.15-.13-.15-.28ZM514.26,56.24c0-.16.07-.28.15-.28s.15.13.15.28-.07.28-.15.28-.15-.13-.15-.28ZM513.71,56.24c0-.16.07-.28.15-.28s.15.13.15.28-.07.28-.15.28-.15-.13-.15-.28ZM511.87,55.71c0-.23.19-.41.41-.41h.76c.23,0,.41.19.41.41v1.49c0,.23-.18.41-.41.41h-.76c-.23,0-.41-.18-.41-.41v-1.49Z"/>
      <path class="cls-20" d="M515.92,56.24c0,.16.07.28.15.28s.15-.13.15-.28c0-.16-.07-.28-.15-.28s-.15.13-.15.28Z"/>
      <line class="cls-12" x1="562.91" y1="56.64" x2="562.9" y2="56.64"/>
      <path class="cls-3" d="M525.29,56.81v.39c0,.23.18.41.41.41h.76c.23,0,.41-.18.41-.41v-.37s-.08-.03-.12-.03h-1.47Z"/>
      <path class="cls-20" d="M532,56.24s0,.02,0,.03l.29.06s0-.06,0-.1c0-.16-.07-.28-.15-.28s-.15.13-.15.28Z"/>
      <path class="cls-20" d="M531.52,56.17l.3.07c0-.15-.07-.28-.15-.28-.07,0-.13.09-.14.21Z"/>
      <path class="cls-20" d="M531.06,56.06l.25.06c-.02-.1-.08-.16-.14-.16-.05,0-.09.04-.12.11Z"/>
      <path class="cls-20" d="M524.71,56.24c0,.16.07.28.15.28s.15-.13.15-.28c0-.05,0-.11-.02-.15-.06-.02-.13-.03-.2-.03h-.04s-.04.11-.04.18Z"/>
      <path class="cls-20" d="M524.12,56.24c0,.16.07.28.15.28s.15-.13.15-.28c0-.07-.01-.13-.04-.18h-.23s-.04.11-.04.18Z"/>
      <path class="cls-20" d="M523.54,56.24c0,.16.07.28.15.28s.15-.13.15-.28c0-.07-.01-.13-.04-.18h-.23s-.04.11-.04.18Z"/>
      <path class="cls-20" d="M522.95,56.24c0,.16.07.28.15.28s.15-.13.15-.28c0-.07-.01-.13-.04-.18h-.23s-.04.11-.04.18Z"/>
      <path class="cls-1" d="M516.75,53.5l.4.19.34.16s.06.02.09.04c.03.01.06.02.09.03l5.59,1.66s.04.07,0,.08l-.44.17c-.06.02-.11.06-.14.11-.03.05,0,.12.06.12h2.03c.07,0,.14.01.2.03.04.02.08.03.12.06l.03.02c.18.11.14.38-.06.43h-.04s-.06.05-.06.08h0c0,.07.06.13.13.13h1.65s.08,0,.12.03c.06.02.1.07.14.12l.2.35c.06.1.02.23-.08.29l-.38.2c-.04.07,0,.17.09.17h.53c.07,0,.12.04.14.11.05.2.22.35.42.4l1.27.27,2.19.21s.06,0,.1,0h.79c.19,0,.37.1.45.27l.11.21c.08.16.26.24.43.21l2.58-.49.83-.33.15-.08s.04-.08,0-.1l-.13-.04s-.05-.07,0-.09l.15-.09s.02-.07-.01-.07l-.23-.05.67-.2c.1-.03.2-.05.31-.07l1.93-.3c.26-.04.53-.06.79-.07.61-.01,1.76-.03,2.25,0,.05,0,.1,0,.13.01.18.02.32.09.43.17.18.13.27.35.26.57l-.14,2.33h.74s0,0,0,0c.65-.26,1.21-.54,1.41-.66.17-.1.29-.26.34-.45v-.04c.04-.12.02-.25-.05-.35l-.1-.16c-.17-.25-.39-.46-.66-.61l-.45-.25c-.13-.07-.27-.14-.42-.19l-.96-.35c-.13-.05-.26-.09-.4-.11l-.42-.09c-.24-.05-.49-.07-.73-.06l-1.55.06-1.93.07c-.13,0-.26,0-.38-.03l-3.07-.66-1.52-.34s-.02,0-.03,0c-.02,0-.05-.01-.07-.03h0l-.49-.11-.2-.05-.29-.06-.19-.04-.3-.07-.21-.05-.25-.06-4.35-.97-6.49-1.14-1.82-.27-.82-.12-.82-.12s-.04.04-.02.05Z"/>
      <path class="cls-8" d="M534.3,59.96l1.57.57v-1.19s-1.57.5-1.57.5c-.05.02-.05.09,0,.11Z"/>
      <line class="cls-12" x1="532.49" y1="56.39" x2="532.49" y2="56.41"/>
      <path class="cls-21" d="M497.1,55.06l.56.2h0s1.22.45,1.22.45l1.65.6,2.1.27,1.63.11s.07,0,.1,0h1.8c.08,0,.16,0,.24-.02l.58-.11c.14-.03.28-.08.41-.15l.06-.04c.06-.03.08-.1.06-.16-.03-.08-.1-.13-.18-.14l-2.06-.15s-.06,0-.09-.01l-3.88-.64-1.8-.18c-.1-.01-.2-.02-.3-.02h-2.13Z"/>
      <path class="cls-1" d="M556.89,55.3h.76c.23,0,.41.18.41.41v1.49c0,.23-.19.41-.41.41h-.76c-.23,0-.41-.19-.41-.41v-1.49c0-.23.19-.41.41-.41Z"/>
      <path class="cls-1" d="M546.09,55.3h.76c.23,0,.41.18.41.41v1.49c0,.23-.19.41-.41.41h-.76c-.23,0-.41-.19-.41-.41v-1.49c0-.23.19-.41.41-.41Z"/>
      <path class="cls-1" d="M512.28,55.3h.76c.23,0,.41.18.41.41v1.49c0,.23-.19.41-.41.41h-.76c-.23,0-.41-.19-.41-.41v-1.49c0-.23.19-.41.41-.41Z"/>
      <path class="cls-20" d="M555.89,56.24c0,.16.07.28.15.28s.15-.13.15-.28-.07-.28-.15-.28-.15.13-.15.28Z"/>
      <path class="cls-20" d="M555.3,56.24c0,.16.07.28.15.28s.15-.13.15-.28-.07-.28-.15-.28-.15.13-.15.28Z"/>
      <path class="cls-20" d="M554.71,56.24c0,.16.07.28.15.28s.15-.13.15-.28c0-.16-.07-.28-.15-.28s-.15.13-.15.28Z"/>
      <path class="cls-20" d="M553.91,56.24c0,.16.07.28.15.28s.15-.13.15-.28-.07-.28-.15-.28-.15.13-.15.28Z"/>
      <path class="cls-20" d="M553.34,56.24c0,.16.07.28.15.28s.15-.13.15-.28c0-.16-.07-.28-.15-.28s-.15.13-.15.28Z"/>
      <path class="cls-20" d="M552.77,56.24c0,.16.07.28.15.28s.15-.13.15-.28-.07-.28-.15-.28-.15.13-.15.28Z"/>
      <path class="cls-20" d="M552.2,56.24c0,.16.07.28.15.28s.15-.13.15-.28-.07-.28-.15-.28-.15.13-.15.28Z"/>
      <path class="cls-20" d="M551.63,56.24c0,.16.07.28.15.28s.15-.13.15-.28-.07-.28-.15-.28-.15.13-.15.28Z"/>
      <path class="cls-20" d="M551.07,56.24c0,.16.07.28.15.28s.15-.13.15-.28c0-.16-.07-.28-.15-.28s-.15.13-.15.28Z"/>
      <path class="cls-20" d="M550.5,56.24c0,.16.07.28.15.28s.15-.13.15-.28c0-.16-.07-.28-.15-.28s-.15.13-.15.28Z"/>
      <path class="cls-20" d="M549.93,56.24c0,.16.07.28.15.28s.15-.13.15-.28-.07-.28-.15-.28-.15.13-.15.28Z"/>
      <path class="cls-20" d="M549.36,56.24c0,.16.07.28.15.28s.15-.13.15-.28-.07-.28-.15-.28-.15.13-.15.28Z"/>
      <path class="cls-20" d="M548.23,56.24c0,.13.04.24.11.27.01,0,.03.01.05.01.08,0,.15-.13.15-.28,0-.16-.07-.28-.15-.28-.02,0-.03,0-.05.01-.06.04-.11.14-.11.27Z"/>
      <path class="cls-20" d="M547.64,56.24c0,.16.07.28.15.28s.15-.13.15-.28-.07-.28-.15-.28-.15.13-.15.28Z"/>
      <path class="cls-20" d="M545.13,56.24c0,.16.07.28.15.28s.15-.13.15-.28-.07-.28-.15-.28-.15.13-.15.28Z"/>
      <path class="cls-20" d="M544.59,56.24c0,.16.07.28.15.28s.15-.13.15-.28-.07-.28-.15-.28-.15.13-.15.28Z"/>
      <path class="cls-20" d="M544.04,56.24c0,.16.07.28.15.28s.15-.13.15-.28-.07-.28-.15-.28-.15.13-.15.28Z"/>
      <path class="cls-20" d="M543.5,56.24c0,.16.07.28.15.28s.15-.13.15-.28-.07-.28-.15-.28-.15.13-.15.28Z"/>
      <path class="cls-20" d="M542.95,56.24c0,.16.07.28.15.28s.15-.13.15-.28c0-.16-.07-.28-.15-.28s-.15.13-.15.28Z"/>
      <path class="cls-20" d="M542.41,56.24c0,.16.07.28.15.28s.15-.13.15-.28-.07-.28-.15-.28-.15.13-.15.28Z"/>
      <path class="cls-20" d="M541.86,56.24c0,.16.07.28.15.28s.15-.13.15-.28c0-.16-.07-.28-.15-.28s-.15.13-.15.28Z"/>
      <path class="cls-20" d="M541.32,56.24c0,.16.07.28.15.28s.15-.13.15-.28-.07-.28-.15-.28-.15.13-.15.28Z"/>
      <path class="cls-20" d="M540.77,56.24c0,.16.07.28.15.28s.15-.13.15-.28-.07-.28-.15-.28-.15.13-.15.28Z"/>
      <path class="cls-20" d="M540.23,56.24c0,.16.07.28.15.28s.15-.13.15-.28c0-.16-.07-.28-.15-.28s-.15.13-.15.28Z"/>
      <path class="cls-20" d="M539.39,56.24c0,.16.07.28.15.28s.15-.13.15-.28-.07-.28-.15-.28-.15.13-.15.28Z"/>
      <path class="cls-20" d="M538.8,56.24c0,.16.07.28.15.28s.15-.13.15-.28-.07-.28-.15-.28-.15.13-.15.28Z"/>
      <path class="cls-20" d="M538.21,56.24c0,.16.07.28.15.28s.15-.13.15-.28c0-.16-.07-.28-.15-.28s-.15.13-.15.28Z"/>
      <path class="cls-20" d="M537.62,56.24c0,.16.07.28.15.28s.15-.13.15-.28-.07-.28-.15-.28-.15.13-.15.28Z"/>
      <path class="cls-20" d="M537.03,56.24c0,.16.07.28.15.28s.15-.13.15-.28-.07-.28-.15-.28-.15.13-.15.28Z"/>
      <path class="cls-20" d="M536.44,56.24c0,.16.07.28.15.28s.15-.13.15-.28-.07-.28-.15-.28-.15.13-.15.28Z"/>
      <path class="cls-20" d="M535.85,56.24c0,.16.07.28.15.28s.15-.13.15-.28-.07-.28-.15-.28-.15.13-.15.28Z"/>
      <path class="cls-20" d="M535.26,56.24c0,.16.07.28.15.28s.15-.13.15-.28-.07-.28-.15-.28-.15.13-.15.28Z"/>
      <path class="cls-20" d="M534.67,56.24c0,.16.07.28.15.28s.15-.13.15-.28-.07-.28-.15-.28-.15.13-.15.28Z"/>
      <path class="cls-20" d="M534.08,56.24c0,.16.07.28.15.28s.15-.13.15-.28c0-.16-.07-.28-.15-.28s-.15.13-.15.28Z"/>
      <path class="cls-20" d="M532.9,56.24c0,.11.03.21.08.25h0l.1.02c.07-.03.12-.14.12-.28s-.07-.28-.15-.28-.15.13-.15.28Z"/>
      <path class="cls-12" d="M532.99,56.5s.04.03.07.03c.01,0,.02,0,.03,0l-.1-.02Z"/>
      <path class="cls-20" d="M521.78,56.24c0,.16.07.28.15.28s.15-.13.15-.28c0-.16-.07-.28-.15-.28s-.15.13-.15.28Z"/>
      <path class="cls-20" d="M521.2,56.24c0,.16.07.28.15.28s.15-.13.15-.28-.07-.28-.15-.28-.15.13-.15.28Z"/>
      <path class="cls-20" d="M520.61,56.24c0,.16.07.28.15.28s.15-.13.15-.28-.07-.28-.15-.28-.15.13-.15.28Z"/>
      <path class="cls-20" d="M520.03,56.24c0,.16.07.28.15.28s.15-.13.15-.28c0-.16-.07-.28-.15-.28s-.15.13-.15.28Z"/>
      <path class="cls-20" d="M519.44,56.24c0,.16.07.28.15.28s.15-.13.15-.28c0-.16-.07-.28-.15-.28s-.15.13-.15.28Z"/>
      <path class="cls-20" d="M518.86,56.24c0,.16.07.28.15.28s.15-.13.15-.28c0-.16-.07-.28-.15-.28s-.15.13-.15.28Z"/>
      <path class="cls-20" d="M518.27,56.24c0,.16.07.28.15.28s.15-.13.15-.28-.07-.28-.15-.28-.15.13-.15.28Z"/>
      <path class="cls-20" d="M517.69,56.24c0,.16.07.28.15.28s.15-.13.15-.28-.07-.28-.15-.28-.15.13-.15.28Z"/>
      <path class="cls-20" d="M517.03,56.24c0,.16.07.28.15.28s.15-.13.15-.28-.07-.28-.15-.28-.15.13-.15.28Z"/>
      <path class="cls-20" d="M516.47,56.24c0,.16.07.28.15.28s.15-.13.15-.28-.07-.28-.15-.28-.15.13-.15.28Z"/>
      <path class="cls-20" d="M515.37,56.24c0,.16.07.28.15.28s.15-.13.15-.28c0-.16-.07-.28-.15-.28s-.15.13-.15.28Z"/>
      <path class="cls-20" d="M514.81,56.24c0,.16.07.28.15.28s.15-.13.15-.28c0-.16-.07-.28-.15-.28s-.15.13-.15.28Z"/>
      <path class="cls-20" d="M514.26,56.24c0,.16.07.28.15.28s.15-.13.15-.28-.07-.28-.15-.28-.15.13-.15.28Z"/>
      <path class="cls-20" d="M513.71,56.24c0,.16.07.28.15.28s.15-.13.15-.28-.07-.28-.15-.28-.15.13-.15.28Z"/>
    </g>
  </g>
</svg>