<?xml version="1.0" encoding="UTF-8"?>
<svg id="Layer_2" data-name="Layer 2" xmlns="http://www.w3.org/2000/svg" xmlns:xlink="http://www.w3.org/1999/xlink" viewBox="0 0 774.2 103.61">
  <defs>
    <style>
      .cls-1 {
        fill: #58595b;
      }

      .cls-1, .cls-2, .cls-3, .cls-4, .cls-5, .cls-6, .cls-7, .cls-8, .cls-9, .cls-10, .cls-11, .cls-12, .cls-13, .cls-14, .cls-15, .cls-16, .cls-17, .cls-18, .cls-19, .cls-20, .cls-21, .cls-22, .cls-23, .cls-24, .cls-25, .cls-26 {
        stroke: #231f20;
        stroke-miterlimit: 10;
      }

      .cls-1, .cls-3, .cls-5, .cls-8, .cls-11, .cls-12, .cls-15, .cls-16, .cls-18, .cls-19, .cls-21, .cls-23 {
        stroke-width: .25px;
      }

      .cls-2 {
        stroke-width: 3px;
      }

      .cls-2, .cls-27 {
        fill: #7acfef;
      }

      .cls-3, .cls-24 {
        fill: #414042;
      }

      .cls-4 {
        fill: #594a42;
      }

      .cls-5, .cls-7 {
        fill: #6d6e71;
      }

      .cls-6, .cls-12, .cls-13 {
        fill: none;
      }

      .cls-8 {
        fill: #bcbec0;
      }

      .cls-28 {
        fill: url(#linear-gradient);
      }

      .cls-9 {
        fill: #489478;
      }

      .cls-9, .cls-13, .cls-25 {
        stroke-width: .75px;
      }

      .cls-10, .cls-19 {
        fill: #939598;
      }

      .cls-11, .cls-29 {
        fill: #808285;
      }

      .cls-14 {
        fill: #754c29;
      }

      .cls-30, .cls-16 {
        fill: #f1f2f2;
      }

      .cls-31, .cls-32 {
        font-family: Arial-Black, 'Arial Black';
        font-weight: 800;
      }

      .cls-15 {
        fill: #e6e7e8;
      }

      .cls-33, .cls-34 {
        font-size: 10px;
      }

      .cls-33, .cls-35 {
        font-family: BodoniSvtyTwoSCITCTT-Book, 'Bodoni 72 Smallcaps';
      }

      .cls-35 {
        font-size: 9.63px;
      }

      .cls-36 {
        font-size: 12px;
      }

      .cls-37, .cls-23 {
        fill: #fff;
      }

      .cls-17, .cls-18 {
        fill: #f9ed32;
      }

      .cls-20 {
        fill: #be1e2d;
      }

      .cls-32 {
        font-size: 16px;
        letter-spacing: 0em;
      }

      .cls-21 {
        fill: #54889c;
      }

      .cls-38 {
        letter-spacing: .06em;
      }

      .cls-22 {
        fill: #3c2415;
      }

      .cls-39 {
        letter-spacing: .03em;
      }

      .cls-25 {
        fill: #5cbd99;
      }

      .cls-26 {
        fill: #a97c50;
      }
    </style>
    <linearGradient id="linear-gradient" x1="-.9" y1="67.76" x2="607.15" y2="67.76" gradientUnits="userSpaceOnUse">
      <stop offset="0" stop-color="#fff"/>
      <stop offset=".89" stop-color="#231f20"/>
    </linearGradient>
  </defs>
  <g id="Layer_6" data-name="Layer 6">
    <g id="Layer_7" data-name="Layer 7">
      <g>
        <rect class="cls-2" x="31.06" y="36.18" width="669.79" height="40.03"/>
        <path class="cls-29" d="M106.38,59.3s-.03.01-.05.01c0,0,0-.02,0-.02.02,0,.03.01.05.01Z"/>
        <path class="cls-29" d="M106.38,59.3s-.03.01-.05.01c0,0,0-.02,0-.02.02,0,.03.01.05.01Z"/>
        <path class="cls-29" d="M153.25,50.42c0-2.23-4.14-4.04-9.25-4.04-4.46,0-8.17,1.37-9.04,3.21-1.99-.41-4.34-.64-6.85-.64-4.75,0-8.89.83-11.14,2.07-1.43-.71-3.54-1.16-5.9-1.16-2.99,0-5.59.72-6.9,1.79-.47-.03-.94-.05-1.43-.05-3.67,0-6.65.91-6.65,2.04,0,.63.93,1.19,2.39,1.56-.45.41-.7.87-.7,1.35,0,.29.09.57.27.84-.38-.03-.78-.04-1.19-.04-2.96,0-5.35.69-5.35,1.53,0,.33.36.63.98.88-.63.31-.98.65-.98,1.03,0,1.22,3.83,2.21,8.56,2.21,4.38,0,7.99-.85,8.49-1.95,1.84.63,4.66,1.03,7.82,1.03,2.94,0,5.59-.35,7.42-.9.76.09,1.66.14,2.63.14,1.54,0,2.92-.13,3.83-.34,2.2.69,5.04,1.1,8.14,1.1,6.99,0,12.66-2.1,12.66-4.69,0-1.27-1.35-2.41-3.53-3.25,3.36-.61,5.72-2.05,5.72-3.73ZM106.33,59.31s0-.02,0-.02c.02,0,.03.01.05.01-.02.01-.03.01-.05.01Z"/>
        <path class="cls-29" d="M106.38,59.3s-.03.01-.05.01c0,0,0-.02,0-.02.02,0,.03.01.05.01Z"/>
        <g>
          <path class="cls-27" d="M60.78,47.48s-.04.08-.06.12c-.06-.04-.12-.07-.19-.1.08,0,.16-.01.25-.02Z"/>
          <path class="cls-30" d="M111.62,56.57c0,1.24-1.78,2.25-3.97,2.25-1.07,0-2.03-.24-2.74-.63-.97.57-2.2,1.1-3.66,1.6,1.54.36,2.44.81,2.44,1.29,0,1.24-6.06,2.25-13.54,2.25-2.72,0-5.26-.13-7.38-.36h-.01c-3.29.24-6.78.36-10.4.36-3.88,0-7.61-.15-11.09-.42-.6.78-1.8,1.32-3.19,1.32-1.78,0-3.26-.88-3.55-2.03-3.82-.52-7.18-1.22-9.89-2.03-.43.13-.91.21-1.42.21-1.74,0-3.15-.85-3.15-1.9,0-.04,0-.09.01-.13-.73-.4-1.33-.83-1.78-1.26-.36.04-.74.06-1.13.06-2.38,0-4.31-.81-4.31-1.8s1.93-1.8,4.31-1.8c.29,0,.57.01.84.04.74-.87,2.07-1.68,3.88-2.43-.26-.55-.41-1.14-.41-1.75,0-3.19,3.92-5.77,8.75-5.77,3.55,0,6.6,1.39,7.97,3.39.04,0,.09,0,.13,0,.85,0,1.62.18,2.21.47.07.03.13.06.19.1.02-.04.04-.08.06-.12.42-.9,1.34-1.53,2.41-1.53.95,0,1.78.49,2.25,1.23.27-.01.54-.02.81-.04.75-1.23,2.53-2.1,4.6-2.1.55,0,1.07.06,1.56.18.31-1.64,1.74-2.88,3.47-2.88,1.27,0,2.38.67,3,1.66,1.22-.24,2.59-.37,4.03-.37,4.93,0,8.97,1.55,9.36,3.51.52-.08,1.1-.12,1.7-.12,2.42,0,4.38.7,4.38,1.56,0,.35-.31.67-.84.92.73.18,1.42.36,2.08.55.53-.41,1.2-.65,1.92-.65,1.55,0,2.84,1.12,3.11,2.6,1.32.73,2.19,1.51,2.55,2.32.15-.01.31-.02.46-.02,2.19,0,3.97,1.01,3.97,2.25Z"/>
        </g>
        <path class="cls-37" d="M246.57,64.34c.19.27.28.54.28.82,0,3.31-13.06,5.98-29.16,5.98-2.93,0-5.75-.09-8.41-.26-1.51,1.15-3.39,1.83-5.43,1.83-2.21,0-4.23-.79-5.79-2.11-4.06.34-8.67.54-13.56.54-16.29,0-29.49-2.16-29.49-4.82,0-2.31,9.91-4.23,23.15-4.7-1.22-.72-1.92-1.55-1.92-2.44,0-2.81,6.96-5.08,15.54-5.08,1.43,0,2.81.06,4.13.18,1.56-1.67,4.5-2.8,7.86-2.8,1.32,0,2.57.17,3.7.48,5.95-1.74,14.86-2.84,24.79-2.84,17.93,0,32.47,3.59,32.47,8.02,0,3.16-7.41,5.89-18.17,7.19Z"/>
        <g>
          <path class="cls-27" d="M335.27,47.33s-.04.08-.06.12c-.06-.04-.12-.07-.19-.1.08,0,.16-.01.25-.02Z"/>
          <path class="cls-30" d="M386.11,56.42c0,1.24-1.78,2.25-3.97,2.25-1.07,0-2.03-.24-2.74-.63-.97.57-2.2,1.1-3.66,1.6,1.54.36,2.44.81,2.44,1.29,0,1.24-6.06,2.25-13.54,2.25-2.72,0-5.26-.13-7.38-.36h-.01c-3.29.24-6.78.36-10.4.36-3.88,0-7.61-.15-11.09-.42-.6.78-1.8,1.32-3.19,1.32-1.78,0-3.26-.88-3.55-2.03-3.82-.52-7.18-1.22-9.89-2.03-.43.13-.91.21-1.42.21-1.74,0-3.15-.85-3.15-1.9,0-.04,0-.09.01-.13-.73-.4-1.33-.83-1.78-1.26-.36.04-.74.06-1.13.06-2.38,0-4.31-.81-4.31-1.8s1.93-1.8,4.31-1.8c.29,0,.57.01.84.04.74-.87,2.07-1.68,3.88-2.43-.26-.55-.41-1.14-.41-1.75,0-3.19,3.92-5.77,8.75-5.77,3.55,0,6.6,1.39,7.97,3.39.04,0,.09,0,.13,0,.85,0,1.62.18,2.21.47.07.03.13.06.19.1.02-.04.04-.08.06-.12.42-.9,1.34-1.53,2.41-1.53.95,0,1.78.49,2.25,1.23.27-.01.54-.02.81-.04.75-1.23,2.53-2.1,4.6-2.1.55,0,1.07.06,1.56.18.31-1.64,1.74-2.88,3.47-2.88,1.27,0,2.38.67,3,1.66,1.22-.24,2.59-.37,4.03-.37,4.93,0,8.97,1.55,9.36,3.51.52-.08,1.1-.12,1.7-.12,2.42,0,4.38.7,4.38,1.56,0,.35-.31.67-.84.92.73.18,1.42.36,2.08.55.53-.41,1.2-.65,1.92-.65,1.55,0,2.84,1.12,3.11,2.6,1.32.73,2.19,1.51,2.55,2.32.15-.01.31-.02.46-.02,2.19,0,3.97,1.01,3.97,2.25Z"/>
        </g>
        <path class="cls-37" d="M372.25,61.62c.09.14.14.27.14.41,0,1.65-6.53,2.99-14.58,2.99-1.46,0-2.87-.05-4.2-.13-.76.57-1.7.92-2.71.92-1.1,0-2.11-.4-2.89-1.06-2.03.17-4.34.27-6.78.27-8.15,0-14.75-1.08-14.75-2.41,0-1.15,4.96-2.11,11.58-2.35-.61-.36-.96-.78-.96-1.22,0-1.4,3.48-2.54,7.77-2.54.71,0,1.41.03,2.06.09.78-.84,2.25-1.4,3.93-1.4.66,0,1.28.09,1.85.24,2.98-.87,7.43-1.42,12.4-1.42,8.97,0,16.23,1.79,16.23,4.01,0,1.58-3.71,2.95-9.09,3.6Z"/>
        <path class="cls-29" d="M460.81,53.2c0-2.23-4.14-4.04-9.25-4.04-4.46,0-8.17,1.37-9.04,3.21-1.99-.41-4.34-.64-6.85-.64-4.75,0-8.89.83-11.14,2.07-1.43-.71-3.54-1.16-5.9-1.16-2.99,0-5.59.72-6.9,1.79-.47-.03-.94-.05-1.43-.05-3.67,0-6.65.91-6.65,2.04,0,.63.93,1.19,2.39,1.56-.45.41-.7.87-.7,1.35,0,.29.09.57.27.84-.38-.03-.78-.04-1.19-.04-2.96,0-5.35.69-5.35,1.53,0,.33.36.63.98.88-.63.31-.98.65-.98,1.03,0,1.22,3.83,2.21,8.56,2.21,4.38,0,7.99-.85,8.49-1.95,1.84.63,4.66,1.03,7.82,1.03,2.94,0,5.59-.35,7.42-.9.76.09,1.66.14,2.63.14,1.54,0,2.92-.13,3.83-.34,2.2.69,5.04,1.1,8.14,1.1,6.99,0,12.66-2.1,12.66-4.69,0-1.27-1.35-2.41-3.53-3.25,3.36-.61,5.72-2.05,5.72-3.73ZM413.89,62.09s0-.02,0-.02c.02,0,.03.01.05.01-.02.01-.03.01-.05.01Z"/>
        <path class="cls-37" d="M437.03,52.5c-.16-.29-.23-.56-.21-.84.28-3.3,13.52-4.85,29.56-3.49,2.91.25,5.72.58,8.35.97,1.6-1.02,3.53-1.54,5.56-1.36,2.2.19,4.14,1.15,5.59,2.59,4.07,0,8.69.2,13.56.62,16.23,1.38,29.21,4.65,28.98,7.3-.2,2.3-10.23,3.37-23.47,2.72,1.15.83,1.78,1.71,1.7,2.59-.24,2.8-7.36,4.48-15.91,3.75-1.42-.12-2.8-.3-4.1-.53-1.7,1.53-4.72,2.41-8.07,2.12-1.31-.11-2.55-.39-3.64-.79-6.08,1.23-15.04,1.57-24.95.73-17.87-1.52-32.05-6.33-31.67-10.75.27-3.15,7.88-5.24,18.72-5.63Z"/>
      </g>
      <g>
        <path class="cls-27" d="M345.9,54.72s.04-.08.06-.12c.06.04.12.08.18.11-.08,0-.16,0-.25,0Z"/>
        <path class="cls-30" d="M295.47,43.6c.05-1.24,1.87-2.18,4.05-2.09,1.07.04,2.02.32,2.72.74.99-.53,2.24-1.01,3.72-1.45-1.52-.43-2.4-.9-2.39-1.39.05-1.24,6.15-2.01,13.62-1.71,2.72.11,5.25.34,7.36.66h.01c3.29-.1,6.79-.09,10.41.05,3.88.16,7.6.45,11.07.86.63-.76,1.85-1.24,3.24-1.19,1.78.07,3.23,1.01,3.47,2.17,3.8.68,7.13,1.5,9.8,2.43.43-.11.92-.17,1.43-.15,1.74.07,3.12.97,3.08,2.02,0,.04,0,.09-.02.13.72.43,1.3.88,1.73,1.33.36-.03.74-.03,1.13-.02,2.38.1,4.28.98,4.24,1.97s-2,1.72-4.38,1.63c-.29-.01-.56-.04-.84-.07-.77.84-2.13,1.6-3.98,2.27.24.56.36,1.16.34,1.77-.13,3.19-4.14,5.61-8.98,5.42-3.54-.14-6.54-1.65-7.83-3.71-.04,0-.09,0-.13,0-.85-.03-1.61-.24-2.19-.56-.07-.03-.13-.07-.18-.11-.02.04-.04.08-.06.12-.46.88-1.4,1.47-2.47,1.43-.95-.04-1.76-.56-2.2-1.32-.27,0-.54,0-.81,0-.8,1.2-2.61,1.99-4.68,1.91-.55-.02-1.07-.1-1.56-.24-.37,1.62-1.86,2.81-3.58,2.74-1.27-.05-2.35-.76-2.93-1.78-1.23.19-2.6.27-4.05.21-4.92-.2-8.9-1.9-9.22-3.88-.53.06-1.1.08-1.71.05-2.42-.1-4.35-.88-4.31-1.74.01-.35.34-.65.87-.89-.72-.21-1.41-.42-2.06-.63-.54.39-1.22.6-1.95.57-1.55-.06-2.8-1.23-3-2.73-1.29-.78-2.13-1.6-2.46-2.43-.15,0-.31,0-.47,0-2.19-.09-3.92-1.17-3.87-2.41Z"/>
      </g>
      <g>
        <path class="cls-29" d="M263.47,61.95c0,2.23,4.14,4.04,9.25,4.04,4.46,0,8.17-1.37,9.04-3.21,1.99.41,4.34.64,6.85.64,4.75,0,8.89-.83,11.14-2.07,1.43.71,3.54,1.16,5.9,1.16,2.99,0,5.59-.72,6.9-1.79.47.03.94.05,1.43.05,3.67,0,6.65-.91,6.65-2.04,0-.63-.93-1.19-2.39-1.56.45-.41.7-.87.7-1.35,0-.29-.09-.57-.27-.84.38.03.78.04,1.19.04,2.96,0,5.35-.69,5.35-1.53,0-.33-.36-.63-.98-.88.63-.31.98-.65.98-1.03,0-1.22-3.83-2.21-8.56-2.21-4.38,0-7.99.85-8.49,1.95-1.84-.63-4.66-1.03-7.82-1.03-2.94,0-5.59.35-7.42.9-.76-.09-1.66-.14-2.63-.14-1.54,0-2.92.13-3.83.34-2.2-.69-5.04-1.1-8.14-1.1-6.99,0-12.66,2.1-12.66,4.69,0,1.27,1.35,2.41,3.53,3.25-3.36.61-5.72,2.05-5.72,3.73ZM310.38,53.07s0,.02,0,.02c-.02,0-.03-.01-.05-.01.02-.01.03-.01.05-.01Z"/>
        <path class="cls-37" d="M287.25,62.66c.16.29.23.56.21.84-.28,3.3-13.52,4.85-29.56,3.49-2.91-.25-5.72-.58-8.35-.97-1.6,1.02-3.53,1.54-5.56,1.36-2.2-.19-4.14-1.15-5.59-2.59-4.07,0-8.69-.2-13.56-.62-16.23-1.38-29.21-4.65-28.98-7.3.2-2.3,10.23-3.37,23.47-2.72-1.15-.83-1.78-1.71-1.7-2.59.24-2.8,7.36-4.48,15.91-3.75,1.42.12,2.8.3,4.1.53,1.7-1.53,4.72-2.41,8.07-2.12,1.31.11,2.55.39,3.64.79,6.08-1.23,15.04-1.57,24.95-.73,17.87,1.52,32.05,6.33,31.67,10.75-.27,3.15-7.88,5.24-18.72,5.63Z"/>
      </g>
      <g>
        <path class="cls-27" d="M151.02,55.65s.04-.08.06-.12c.06.04.12.08.18.11-.08,0-.16,0-.25,0Z"/>
        <path class="cls-30" d="M100.64,44.3c.06-1.24,1.88-2.17,4.06-2.07,1.07.05,2.02.33,2.71.76.99-.53,2.24-1,3.72-1.44-1.52-.43-2.4-.92-2.38-1.4.06-1.24,6.16-1.98,13.63-1.64,2.72.12,5.25.37,7.36.69h.01c3.29-.09,6.79-.06,10.41.1,3.88.17,7.59.49,11.06.91.63-.76,1.86-1.24,3.25-1.17,1.78.08,3.22,1.02,3.46,2.19,3.8.69,7.12,1.54,9.79,2.47.43-.11.92-.16,1.43-.14,1.74.08,3.11.99,3.07,2.04,0,.04,0,.09-.02.13.72.43,1.29.88,1.72,1.34.36-.02.74-.03,1.13-.01,2.38.11,4.27,1,4.23,1.99s-2.01,1.71-4.39,1.61c-.29-.01-.56-.04-.84-.07-.78.83-2.14,1.59-3.99,2.25.24.56.36,1.16.33,1.77-.14,3.19-4.17,5.59-9,5.37-3.54-.16-6.53-1.68-7.81-3.74-.04,0-.09,0-.13,0-.85-.04-1.61-.25-2.18-.57-.07-.03-.12-.07-.18-.11-.02.04-.04.08-.06.12-.46.88-1.41,1.47-2.48,1.42-.95-.04-1.75-.57-2.19-1.33-.27,0-.54,0-.81,0-.81,1.2-2.62,1.98-4.69,1.89-.55-.02-1.07-.11-1.55-.25-.38,1.62-1.87,2.8-3.59,2.72-1.27-.06-2.34-.77-2.92-1.8-1.23.19-2.6.26-4.05.19-4.92-.22-8.89-1.94-9.2-3.93-.53.05-1.1.07-1.71.05-2.42-.11-4.35-.9-4.31-1.76.02-.35.34-.65.88-.88-.72-.21-1.4-.42-2.05-.64-.55.39-1.23.6-1.95.57-1.55-.07-2.79-1.25-2.99-2.74-1.28-.79-2.12-1.61-2.45-2.44-.15,0-.31,0-.47,0-2.19-.1-3.92-1.18-3.86-2.43Z"/>
      </g>
      <g>
        <path class="cls-29" d="M70.15,68.31c0,2.23,4.12,4.05,9.23,4.08,4.46.02,8.18-1.34,9.06-3.17,1.98.41,4.33.66,6.85.67,4.75.02,8.9-.8,11.15-2.03,1.43.71,3.54,1.17,5.9,1.18,2.99.01,5.59-.7,6.9-1.76.47.03.94.05,1.43.05,3.67.01,6.65-.88,6.66-2.01,0-.63-.92-1.19-2.38-1.57.45-.4.71-.86.71-1.35,0-.29-.09-.57-.26-.84.38.03.78.04,1.19.04,2.96.01,5.35-.67,5.35-1.51,0-.33-.36-.63-.98-.89.63-.31.98-.65.98-1.02,0-1.22-3.82-2.23-8.55-2.25-4.38-.02-7.99.82-8.5,1.91-1.84-.64-4.66-1.05-7.82-1.07-2.94-.01-5.59.32-7.42.87-.76-.1-1.66-.15-2.63-.15-1.54,0-2.92.12-3.83.32-2.19-.7-5.03-1.12-8.14-1.13-6.99-.03-12.67,2.05-12.68,4.64,0,1.27,1.34,2.41,3.52,3.27-3.36.59-5.73,2.02-5.74,3.71ZM117.11,59.61s0,.02,0,.02c-.02,0-.03-.01-.05-.01.02-.01.03-.01.05-.01Z"/>
        <path class="cls-37" d="M32.58,70.46c3.23.28,6.33.45,9.22.53,1.12.03,2.21.04,3.26.05.35.35.73.67,1.13.96,1.26.92,2.78,1.52,4.45,1.66.81.08,1.61.04,2.37-.1,1.15-.21,2.24-.63,3.2-1.23,2.63.4,5.43.74,8.35.99,13.86,1.24,25.65.28,28.77-2.13.49-.37.76-.79.8-1.23,0-.03,0-.06,0-.1v-.1c-.02-.21-.08-.43-.21-.65,1.92-.06,3.74-.17,5.43-.33,1.06-.1,2.07-.23,3.03-.37,3.42-.5,6.16-1.25,7.94-2.2.66-.36,1.2-.74,1.58-1.14.12-.12.22-.24.31-.37.26-.36.41-.74.45-1.14.03-.29-.01-.58-.1-.87-.04-.12-.09-.24-.15-.36-.11-.22-.25-.44-.43-.66-1.28-1.64-4.31-3.26-8.56-4.69-5.55-1.88-13.17-3.42-21.68-4.22-.23-.03-.47-.05-.7-.07-9.9-.88-18.86-.58-24.95.63-1.09-.41-2.33-.69-3.64-.81-3.35-.3-6.38.56-8.08,2.09-1.3-.23-2.67-.42-4.1-.55-2.78-.25-5.41-.24-7.7-.03v16.44Z"/>
      </g>
    </g>
    <text class="cls-31" transform="translate(27.97 10.3)"><tspan class="cls-36"><tspan x="0" y="0">Boeing 747-8I</tspan></tspan><tspan class="cls-34"><tspan x="0" y="12">Ai</tspan><tspan class="cls-39" x="11.11" y="12">r</tspan><tspan x="15.88" y="12">line se</tspan><tspan class="cls-38" x="51.99" y="12">r</tspan><tspan x="57.01" y="12">vice ent</tspan><tspan class="cls-38" x="100.9" y="12">r</tspan><tspan x="105.92" y="12">y: 1970</tspan></tspan></text>
    <text class="cls-32" transform="translate(730.62 71.9) scale(1 1.97)"><tspan x="0" y="0">467</tspan></text>
  </g>
  <g id="Layer_8" data-name="Layer 8">
    <g>
      <path class="cls-25" d="M21.43,58.34l-.24.6s-.03.06-.05.1l-.22.37c-.1.16-.22.3-.38.41l-.57.4c-.09,0-.17.04-.23.09-.06.06-.09.14-.1.23v1.49c-.01.28-.09.56-.23.8-.11.19-.26.36-.44.48l-.19.13c-.06.04-.11.07-.18.1-.19.08-.32.27-.29.48l.16,1.47.15,1.23.13,1.76v.15c0,.19-.09.36-.22.5-.06.06-.09.14-.09.23v.27s-.26,3.11-.26,3.11l-.13,3.28-.02,1.04s0,.09,0,.13l.05.86c.06.18.2.32.38.38l.23.08-11.09-.04c.04-.25.13-.49.27-.7l.81-1.24.28-.19.36-.42,1.3-1.03c.09-.07.16-.17.2-.28l.09-.25c.05-.15.15-.28.29-.36l1.48-.95,2.29-1.29c-.03-.24-.19-.44-.41-.54l-.55-.25c-.06-.03-.1-.08-.1-.14-.04-.24.07-.48.27-.61l.94-.61,2.43-1.4v-1.12l-.15-1.9-.25-2.09-.19-2.64,1.06,1.06c.17.17.45.14.58-.06l1.34-2.02-.46-.7.05-.07c.06-.08.19-.1.27-.02l.54.49-.7-.83s-.02-.04-.02-.06c.02-.1.11-.17.2-.17.03,0,.07,0,.1.02l.19.1.66.55-.78-.87v-.05c0-.14.16-.22.27-.14l.55.39-.39-.65c-.04-.05,0-.13.06-.14l.62.17.28.55c.05.1.06.21.02.32Z"/>
      <path class="cls-9" d="M9.44,48.68l-1.08,1.42-.52-2.38-.39-1.79v-2.35l-.46-.83v-.23c-.06-.07-.1-.16-.1-.25,0-.06.01-.11.04-.17l.06-.11-.02-.55-.45-.64.19-.4-.3-.27.09-.19-.09-.3v-.21c.1,0,.18-.09.18-.18,0-.03,0-.06-.03-.09l-.15-.24c0-.16-.1-.3-.25-.35l-.19-.06-.19-.22c-.05-.06-.05-.15.01-.2.1-.09.16-.21.16-.34,0-.07-.02-.14-.05-.21l-.03-.05c-.08-.16.03-.35.21-.35h.17l.28-.13h.14c.19,0,.34-.15.34-.34l-.22-.42v-.66l.22-.4v-.23l.37.38.25-.72.23.44.19-.44.13.42.17-.25.21.93-.08.42-.28.36-.02.3.38.38h.44c.14.09.19.26.13.41l-.08.18.19.36v.27l-.25.28h-.44l-.06.19-.07.09c-.06.09-.17.14-.27.14v.08c0,.21.07.41.19.58l.1.14.04.93.09,1.69.21,1.21.45,1.29.15.82v1.08l.1.4.09.87c.02.19-.03.37-.15.52Z"/>
      <path class="cls-9" d="M17.57,67.08v1.12l-2.43,1.4-.94.61c-.2.13-.31.37-.27.61,0,.06.05.11.1.14l.55.25c.22.1.37.3.41.54l-2.29,1.29-1.48.95c-.13.08-.23.21-.29.36l-.09.25c-.04.11-.11.2-.2.28l-1.3,1.03-.36.42-.28.19-.04-.32-.15-5.76.02-.03,1.33-1.07,1.52-1.76,1.42-2.24,1.04-1.33.61-.74.13-.63-.11-1.14-.23-.39c-.06-.1-.08-.22-.07-.33l.06-.39c.02-.15.09-.28.21-.38l.55-.48.64-.93v-1.47c0-.17.12-.32.28-.37h.08c.15,0,.29.08.37.21l.15.26.27.73.11.54v.42l.02.32-.3.54c-.06.11-.04.25.05.33l.34.34.19,2.64.25,2.09.15,1.9Z"/>
      <path class="cls-25" d="M14.74,52.15h0s-.75.81-.75.81l-1.38,1.42-1.72,2.1-1.06,1.49-.7,1.3-.38,1.25v.68h-.15c-.29-.04-.56-.19-.73-.43-.15-.2-.22-.44-.22-.69v-.53c0-.13.03-.27.08-.39l.37-.82.23-.37,1.65-2.15,1.42-1.42,1.46-1.35,1.14-.82.28-.23.46.14Z"/>
      <polygon class="cls-25" points="13.99 52.24 12.85 53.06 11.39 54.4 9.97 55.82 8.32 57.97 8.85 57.11 8.78 56.52 8.39 55.88 8.81 55.69 9.33 55.2 9.95 54.31 10.44 52.85 10.77 51.46 10.77 49.87 11.58 50.59 11.86 51.12 12.17 51.69 12.53 52.01 13.17 52.28 13.99 52.24"/>
      <path class="cls-25" d="M10.77,49.87v1.59l-.32,1.38-.49,1.46-.63.89-.51.49-.43.19-.08-.14c-.1-.17-.16-.37-.16-.56v-.95l.06-1.06c0-.14-.02-.28-.08-.41l-.22-.46c-.07-.15-.2-.25-.35-.29l1.1-.76.66-.72.82-.91.19-.26.44.51Z"/>
      <polygon class="cls-9" points="18.75 79.61 6.48 79.61 6.5 78.46 7.62 78.46 18.71 78.5 18.73 78.97 18.75 79.61"/>
      <path class="cls-25" d="M18.56,56.24l-1.66,3.01-.02-.32v-.42l-.11-.54-.27-.73-.15-.26c-.07-.13-.21-.21-.37-.21h-.08c-.17.04-.28.2-.28.37v1.47l-.64.93-.55.48c-.11.1-.19.23-.21.38l-.06.39c-.02.11,0,.23.07.33l.23.39.11,1.14-.13.63-.61.74-1.04,1.33-1.42,2.24-1.52,1.76-1.33,1.07.16-.23c.13-.18.18-.4.16-.61l-.34-2.86c0-.08,0-.16,0-.24l.05-.29c.09-.51.03-1.04-.16-1.52l-.24-.59c-.06-.15-.09-.3-.09-.46,0-.3.07-.6.22-.87l.32-.61c.15-.28.19-.59.13-.9v-.02s0-.68,0-.68l.38-1.25.7-1.3,1.06-1.49,1.72-2.1,1.38-1.42.75-.81h0s.66.2.66.2l.24.08c.26.09.49.27.65.5l.53.78c.04.06.08.13.11.21l.3.78c.02.06.04.12.06.19l.07.31c.04.19.14.37.28.5l.22.21c.14.13.3.22.48.27l.24.06Z"/>
      <path class="cls-9" d="M17.04,47.63l-2.1-.15v-.23l2.1-1.02-2.43.53-.3-.42,1.23-1.69-1.67,1.38-.68-.19-.36-2.09-.28,2.01-.68.32-1.9-1.19,1.44,1.67-.27.28-1.52-.47,1.31,1.04v.21h-1.02s.08.22.08.22l.98.12.1.42.06.82-.36.66.82.72.28.53.31.57.36.32.64.27.82-.04.28-.23.46.14.66.2-.11-.49-.34-1.65-.04-1.71.09-.57,2.05-.3ZM14.28,48.72l-.04.13s0,.02,0,.03v.26c0,.14-.03.29-.08.42l-.13.32s-.02.07-.03.1h0s-.37.34-.37.34l-.11.07c-.15.1-.33.15-.51.15-.1,0-.2-.02-.28-.07l-.06-.03c-.09-.05-.17-.11-.24-.18l-.16-.17-.17-.19c-.15-.17-.27-.37-.32-.6l-.19-.79c.19,0,.39-.05.56-.14l.16-.08.42-.49.16-.36c.03-.06.12-.07.16-.01l.18.28.23.38.41.23s.09.04.13.06l.18.07c.11.04.16.16.12.27Z"/>
      <path class="cls-9" d="M21.56,56.76l-.43.71-.62-.17c-.07,0-.1.08-.06.14l.39.65-.55-.39c-.12-.08-.27,0-.27.14v.05l.78.87-.66-.55-.19-.1s-.06-.02-.1-.02c-.1,0-.19.07-.2.17,0,.02,0,.04.02.06l.7.83-.54-.49c-.08-.07-.2-.06-.27.02l-.05.07.46.7-1.34,2.02c-.13.2-.41.23-.58.06l-1.06-1.06-.34-.34c-.09-.09-.11-.23-.05-.33l.3-.54,1.66-3.01.47-.82c.09-.15.28-.21.44-.13l1.94.97c.19.09.26.33.15.51Z"/>
      <path class="cls-25" d="M10.33,49.36l-.19.26-.82.91-.66.72-1.1.76-.25-.06-.12-.05c-.16-.06-.27-.21-.29-.38l-.11-.81c-.02-.13,0-.25.03-.38l.23-.81c.02-.08.06-.15.11-.22l.15-.22c.08-.11.14-.23.18-.36l.34-1.01.52,2.38,1.08-1.42c.11-.15.16-.33.15-.52l-.09-.87.38.23.04.12.08.21v.03s.24.7.24.7l.09.78Z"/>
      <path class="cls-25" d="M14.28,48.72l-.04.13s0,.02,0,.03v.26c0,.14-.03.29-.08.42l-.13.32s-.02.07-.03.1h0s-.37.34-.37.34l-.11.07c-.15.1-.33.15-.51.15-.1,0-.2-.02-.28-.07l-.06-.03c-.09-.05-.17-.11-.24-.18l-.16-.17-.17-.19c-.15-.17-.27-.37-.32-.6l-.19-.79c.19,0,.39-.05.56-.14l.16-.08.42-.49.16-.36c.03-.06.12-.07.16-.01l.18.28.23.38.41.23s.09.04.13.06l.18.07c.11.04.16.16.12.27Z"/>
      <path class="cls-13" d="M14,49.99s-.01.07-.01.11v1.6l.28.32"/>
    </g>
  </g>
  <g id="_4" data-name="#4">
    <g>
      <g>
        <text class="cls-35" transform="translate(562.94 93.54)"><tspan x="0" y="0">Krong Kaeb, Cambodia, Asia</tspan></text>
        <text class="cls-33" transform="translate(604.36 100.99)"><tspan x="0" y="0">14,320 Km</tspan></text>
      </g>
      <g>
        <line class="cls-6" x1="633.13" y1="81" x2=".1" y2="81"/>
        <path class="cls-28" d="M0,80.2c0-.45.28-.81.56-1.1.29-.29.63-.52.98-.71.7-.4,1.43-.72,2.18-.99,1.5-.55,3.03-.97,4.57-1.35,3.09-.75,6.21-1.33,9.34-1.85,6.26-1.03,12.56-1.83,18.87-2.54,12.61-1.42,25.26-2.5,37.92-3.46,25.31-1.91,50.65-3.32,76.01-4.56,50.7-2.41,101.44-4.03,152.18-5.33,25.37-.65,50.75-1.21,76.12-1.69,25.38-.42,50.75-.75,76.13-1.02,50.76-.34,101.52-.44,152.27.13v.2c-50.75.57-101.51.97-152.25,1.67-25.37.26-50.75.59-76.12,1-25.37.35-50.75.78-76.12,1.31-50.74,1.09-101.47,2.52-152.18,4.73-25.35,1.1-50.7,2.38-76.01,4.16-12.65.9-25.3,1.91-37.92,3.26-6.31.68-12.6,1.45-18.87,2.44-3.13.51-6.25,1.07-9.33,1.8-1.54.37-3.07.78-4.56,1.32-.74.26-1.47.57-2.15.96-.64.38-1.4.88-1.45,1.63h-.2Z"/>
      </g>
      <g>
        <path class="cls-10" d="M612.46,67.42v13.59h3.88v-6.79h.33v-6.79h-4.21ZM613.68,79.94h-.6v-.55h.6v.55ZM613.68,78.99h-.6v-.55h.6v.55ZM613.68,78.04h-.6v-.55h.6v.55ZM613.68,77.1h-.6v-.55h.6v.55ZM613.68,76.15h-.6v-.55h.6v.55ZM613.68,75.2h-.6v-.55h.6v.55ZM613.68,74.25h-.6v-.55h.6v.55ZM613.68,73.3h-.6v-.55h.6v.55ZM613.68,72.35h-.6v-.55h.6v.55ZM613.68,71.4h-.6v-.55h.6v.55ZM613.68,70.45h-.6v-.55h.6v.55ZM613.68,69.5h-.6v-.55h.6v.55ZM613.68,68.56h-.6v-.55h.6v.55ZM615.04,79.94h-.6v-.55h.6v.55ZM615.04,78.99h-.6v-.55h.6v.55ZM615.04,78.04h-.6v-.55h.6v.55ZM615.04,77.1h-.6v-.55h.6v.55ZM615.04,76.15h-.6v-.55h.6v.55ZM615.04,75.2h-.6v-.55h.6v.55ZM615.04,74.25h-.6v-.55h.6v.55ZM615.04,73.3h-.6v-.55h.6v.55ZM615.04,72.35h-.6v-.55h.6v.55ZM615.04,71.4h-.6v-.55h.6v.55ZM615.04,70.45h-.6v-.55h.6v.55ZM615.04,69.5h-.6v-.55h.6v.55ZM615.04,68.56h-.6v-.55h.6v.55ZM616.26,79.95h-.6v-.55h.6v.55ZM616.26,79h-.6v-.55h.6v.55ZM616.26,78.05h-.6v-.55h.6v.55ZM616.26,77.11h-.6v-.55h.6v.55ZM616.26,76.16h-.6v-.55h.6v.55ZM616.26,75.21h-.6v-.55h.6v.55ZM616.26,74.26h-.6v-.55h.6v.55ZM616.26,73.31h-.6v-.55h.6v.55ZM616.26,72.36h-.6v-.55h.6v.55ZM616.26,71.41h-.6v-.55h.6v.55ZM616.26,70.46h-.6v-.55h.6v.55ZM616.26,69.51h-.6v-.55h.6v.55ZM616.26,68.57h-.6v-.55h.6v.55Z"/>
        <rect class="cls-17" x="615.66" y="68.01" width=".6" height=".55"/>
        <rect class="cls-17" x="614.44" y="68" width=".6" height=".55"/>
        <rect class="cls-17" x="613.08" y="68" width=".6" height=".55"/>
        <path class="cls-4" d="M616.34,74.21v6.79h4.26v-6.79h-4.26ZM617.08,79.8h-.41v-5.03h.41v5.03ZM617.7,79.8h-.41v-5.03h.41v5.03ZM618.33,79.8h-.41v-5.03h.41v5.03ZM618.95,79.8h-.41v-5.03h.41v5.03ZM619.57,79.8h-.41v-5.03h.41v5.03ZM620.19,79.8h-.41v-5.03h.41v5.03Z"/>
        <path class="cls-7" d="M620.44,72.6v1.61h.16v6.79h7.99v-8.4h-8.16ZM621.14,73.32h6.81v.55h-6.81v-.55ZM628.04,79.53h-6.81v-.55h6.81v.55ZM628.04,78.59h-6.81v-.55h6.81v.55ZM628.04,77.64h-6.81v-.55h6.81v.55ZM628.04,76.69h-6.81v-.55h6.81v.55ZM628.04,75.74h-6.81v-.55h6.81v.55ZM628.04,74.79h-6.81v-.55h6.81v.55Z"/>
        <path class="cls-14" d="M628.6,67.98v13.03h1.85v-13.03h-1.85ZM629.14,80.22h-.26v-.55h.26v.55ZM629.14,79.27h-.26v-.55h.26v.55ZM629.14,78.32h-.26v-.55h.26v.55ZM629.14,77.37h-.26v-.55h.26v.55ZM629.14,76.42h-.26v-.55h.26v.55ZM629.14,75.47h-.26v-.55h.26v.55ZM629.14,74.52h-.26v-.55h.26v.55ZM629.14,73.58h-.26v-.55h.26v.55ZM629.14,72.63h-.26v-.55h.26v.55ZM629.14,71.68h-.26v-.55h.26v.55ZM629.14,70.73h-.26v-.55h.26v.55ZM629.14,69.78h-.26v-.55h.26v.55ZM629.14,68.83h-.26v-.55h.26v.55ZM630.19,80.22h-.26v-.55h.26v.55ZM630.19,79.27h-.26v-.55h.26v.55ZM630.19,78.32h-.26v-.55h.26v.55ZM630.19,77.37h-.26v-.55h.26v.55ZM630.19,76.42h-.26v-.55h.26v.55ZM630.19,75.47h-.26v-.55h.26v.55ZM630.19,74.52h-.26v-.55h.26v.55ZM630.19,73.58h-.26v-.55h.26v.55ZM630.19,72.63h-.26v-.55h.26v.55ZM630.19,71.68h-.26v-.55h.26v.55ZM630.19,70.73h-.26v-.55h.26v.55ZM630.19,69.78h-.26v-.55h.26v.55ZM630.19,68.83h-.26v-.55h.26v.55Z"/>
        <rect class="cls-17" x="629.93" y="68.28" width=".26" height=".55"/>
        <rect class="cls-17" x="628.88" y="68.28" width=".26" height=".55"/>
        <path class="cls-24" d="M609.11,72.6v4.76h.42v3.64h2.94v-8.4h-3.36ZM611.02,79.29h-.26v-1.05h.26v1.05ZM611.02,77.49h-.26v-1.05h.26v1.05ZM611.02,75.68h-.26v-1.05h.26v1.05ZM611.02,73.88h-.26v-1.05h.26v1.05Z"/>
        <path class="cls-22" d="M607.57,77.36v3.64h1.96v-3.64h-1.96ZM607.94,77.9h.6v.55h-.6v-.55ZM608.59,79.96h-.6v-.55h.6v.55ZM609.28,79.18h-.6v-.55h.6v.55Z"/>
        <path class="cls-24" d="M630.45,78.07v2.93h2.68v-2.93h-2.68ZM631.27,80.23h-.26v-.55h.26v.55ZM631.27,79.28h-.26v-.55h.26v.55ZM632.32,80.23h-.26v-.55h.26v.55ZM632.32,79.28h-.26v-.55h.26v.55Z"/>
        <polygon class="cls-26" points="612.46 71.66 612.46 72.6 609.12 72.6 610.89 64.51 612.46 71.66"/>
        <rect class="cls-18" x="628.88" y="79.67" width=".26" height=".55"/>
        <rect class="cls-18" x="628.88" y="78.72" width=".26" height=".55"/>
        <rect class="cls-18" x="628.88" y="77.77" width=".26" height=".55"/>
        <rect class="cls-18" x="628.88" y="76.82" width=".26" height=".55"/>
        <rect class="cls-18" x="628.88" y="75.87" width=".26" height=".55"/>
        <rect class="cls-18" x="628.88" y="74.92" width=".26" height=".55"/>
        <rect class="cls-18" x="628.88" y="73.97" width=".26" height=".55"/>
        <rect class="cls-18" x="628.88" y="73.02" width=".26" height=".55"/>
        <rect class="cls-18" x="628.88" y="72.07" width=".26" height=".55"/>
        <rect class="cls-18" x="628.88" y="71.13" width=".26" height=".55"/>
        <rect class="cls-18" x="628.88" y="70.18" width=".26" height=".55"/>
        <rect class="cls-18" x="628.88" y="69.23" width=".26" height=".55"/>
        <rect class="cls-18" x="629.93" y="79.67" width=".26" height=".55"/>
        <rect class="cls-18" x="629.93" y="78.72" width=".26" height=".55"/>
        <rect class="cls-18" x="629.93" y="77.77" width=".26" height=".55"/>
        <rect class="cls-18" x="629.93" y="76.82" width=".26" height=".55"/>
        <rect class="cls-18" x="629.93" y="75.87" width=".26" height=".55"/>
        <rect class="cls-18" x="629.93" y="74.92" width=".26" height=".55"/>
        <rect class="cls-18" x="629.93" y="73.97" width=".26" height=".55"/>
        <rect class="cls-18" x="629.93" y="73.02" width=".26" height=".55"/>
        <rect class="cls-18" x="629.93" y="72.07" width=".26" height=".55"/>
        <rect class="cls-18" x="629.93" y="71.13" width=".26" height=".55"/>
        <rect class="cls-18" x="629.93" y="70.18" width=".26" height=".55"/>
        <rect class="cls-18" x="629.93" y="69.23" width=".26" height=".55"/>
        <rect class="cls-18" x="631.01" y="79.68" width=".26" height=".55"/>
        <rect class="cls-18" x="631.01" y="78.73" width=".26" height=".55"/>
        <rect class="cls-18" x="632.06" y="79.68" width=".26" height=".55"/>
        <rect class="cls-18" x="632.06" y="78.73" width=".26" height=".55"/>
        <polygon class="cls-20" points="633.13 78.07 630.45 78.07 630.45 76.15 633.13 78.07"/>
        <rect class="cls-18" x="613.08" y="79.39" width=".6" height=".55"/>
        <rect class="cls-18" x="613.08" y="78.44" width=".6" height=".55"/>
        <rect class="cls-18" x="613.08" y="77.49" width=".6" height=".55"/>
        <rect class="cls-18" x="613.08" y="76.54" width=".6" height=".55"/>
        <rect class="cls-18" x="613.08" y="75.59" width=".6" height=".55"/>
        <rect class="cls-18" x="613.08" y="74.65" width=".6" height=".55"/>
        <rect class="cls-18" x="613.08" y="73.7" width=".6" height=".55"/>
        <rect class="cls-18" x="613.08" y="72.75" width=".6" height=".55"/>
        <rect class="cls-18" x="613.08" y="71.8" width=".6" height=".55"/>
        <rect class="cls-18" x="613.08" y="70.85" width=".6" height=".55"/>
        <rect class="cls-18" x="613.08" y="69.9" width=".6" height=".55"/>
        <rect class="cls-18" x="613.08" y="68.95" width=".6" height=".55"/>
        <rect class="cls-18" x="614.44" y="79.39" width=".6" height=".55"/>
        <rect class="cls-18" x="614.44" y="78.44" width=".6" height=".55"/>
        <rect class="cls-18" x="614.44" y="77.49" width=".6" height=".55"/>
        <rect class="cls-18" x="614.44" y="76.54" width=".6" height=".55"/>
        <rect class="cls-18" x="614.44" y="75.59" width=".6" height=".55"/>
        <rect class="cls-18" x="614.44" y="74.65" width=".6" height=".55"/>
        <rect class="cls-18" x="614.44" y="73.7" width=".6" height=".55"/>
        <rect class="cls-18" x="614.44" y="72.75" width=".6" height=".55"/>
        <rect class="cls-18" x="614.44" y="71.8" width=".6" height=".55"/>
        <rect class="cls-18" x="614.44" y="70.85" width=".6" height=".55"/>
        <rect class="cls-18" x="614.44" y="69.9" width=".6" height=".55"/>
        <rect class="cls-18" x="614.44" y="68.95" width=".6" height=".55"/>
        <rect class="cls-18" x="615.66" y="79.4" width=".6" height=".55"/>
        <rect class="cls-18" x="615.66" y="78.45" width=".6" height=".55"/>
        <rect class="cls-18" x="615.66" y="77.5" width=".6" height=".55"/>
        <rect class="cls-18" x="615.66" y="76.55" width=".6" height=".55"/>
        <rect class="cls-18" x="615.66" y="75.6" width=".6" height=".55"/>
        <rect class="cls-18" x="615.66" y="74.66" width=".6" height=".55"/>
        <rect class="cls-18" x="615.66" y="73.71" width=".6" height=".55"/>
        <rect class="cls-18" x="615.66" y="72.76" width=".6" height=".55"/>
        <rect class="cls-18" x="615.66" y="71.81" width=".6" height=".55"/>
        <rect class="cls-18" x="615.66" y="70.86" width=".6" height=".55"/>
        <rect class="cls-18" x="615.66" y="69.91" width=".6" height=".55"/>
        <rect class="cls-18" x="615.66" y="68.96" width=".6" height=".55"/>
        <rect class="cls-18" x="621.23" y="78.98" width="6.81" height=".55"/>
        <rect class="cls-18" x="621.23" y="78.04" width="6.81" height=".55"/>
        <rect class="cls-18" x="621.23" y="77.09" width="6.81" height=".55"/>
        <rect class="cls-18" x="621.23" y="76.14" width="6.81" height=".55"/>
        <rect class="cls-18" x="621.23" y="75.19" width="6.81" height=".55"/>
        <rect class="cls-18" x="621.23" y="74.24" width="6.81" height=".55"/>
        <rect class="cls-18" x="610.76" y="78.24" width=".26" height="1.05"/>
        <rect class="cls-18" x="610.76" y="76.44" width=".26" height="1.05"/>
        <rect class="cls-18" x="610.76" y="74.64" width=".26" height="1.05"/>
        <rect class="cls-18" x="610.76" y="72.83" width=".26" height="1.05"/>
        <rect class="cls-18" x="619.79" y="74.78" width=".41" height="5.03"/>
        <rect class="cls-18" x="619.16" y="74.78" width=".41" height="5.03"/>
        <rect class="cls-18" x="618.54" y="74.78" width=".41" height="5.03"/>
        <rect class="cls-18" x="617.92" y="74.78" width=".41" height="5.03"/>
        <rect class="cls-18" x="617.3" y="74.78" width=".41" height="5.03"/>
        <rect class="cls-18" x="616.68" y="74.78" width=".41" height="5.03"/>
        <rect class="cls-18" x="621.14" y="73.32" width="6.81" height=".55"/>
        <rect class="cls-18" x="607.94" y="77.9" width=".6" height=".55"/>
        <rect class="cls-18" x="608.68" y="78.63" width=".6" height=".55"/>
        <rect class="cls-18" x="607.99" y="79.41" width=".6" height=".55"/>
      </g>
    </g>
    <g>
      <path class="cls-3" d="M595.68,57.55v1.18s3.52-.3,3.52-.3v-.97c-1.08.06-2.26.1-3.52.1Z"/>
      <polygon class="cls-3" points="589.46 57.55 589.46 58.97 594.22 58.85 595.68 58.73 595.68 57.55 589.46 57.55"/>
      <path class="cls-3" d="M580.96,58.98h8.38s.13,0,.13,0v-1.42s-5.2,0-5.2,0c.04.05.06.1.06.16,0,.03,0,.07,0,.1-.03.29-.25.52-.53.57l-1.4.27-1.43.32Z"/>
      <path class="cls-1" d="M599.2,57.45v.97s.63-.05.63-.05l3.93-.82.63-.23v-.58c-1.3.34-3.06.59-5.2.71Z"/>
      <path class="cls-19" d="M606.78,55.57v.69s-.88.53-.88.53l-1.49.53v-.58c1.01-.27,1.9-.74,2.37-1.18Z"/>
      <path class="cls-23" d="M607.7,54.97c0,.1-.02.19-.05.29-.15.4-.42.73-.79.95l-.08.05v-.69s0-1.8,0-1.8l.19.12c.27.18.49.42.63.71.06.12.09.24.09.37Z"/>
      <path class="cls-15" d="M606.6,53.64c-.19-.13-.4-.24-.6-.34l-1.59-.8v4.24c1.01-.27,1.9-.74,2.37-1.18v-1.8s0,0,0,0l-.18-.12ZM604.75,54.98c-.1,0-.17-.13-.17-.3s.08-.3.17-.3.17.13.17.3-.08.3-.17.3ZM605.58,54.98c-.1,0-.17-.13-.17-.3s.08-.3.17-.3.17.13.17.3-.08.3-.17.3ZM606.42,54.98c-.1,0-.18-.13-.18-.3s.08-.3.18-.3.17.13.17.3-.08.3-.17.3Z"/>
      <path class="cls-15" d="M589.27,49.56l.19.4v2.73s.93,0,.93,0c-.11-.11-.17-.25-.17-.42v-1.13c0-.32.26-.58.58-.58h.12c.32,0,.58.26.58.58v1.13c0,.16-.07.31-.17.42h13.07s0-.19,0-.19l-1.27-.67c-1.4,0-2.02.08-2.2.12-.04,0-.08,0-.11-.01-.14-.06-.23-.2-.23-.35v-.09c0-.11.09-.2.2-.21l1.55-.08s-.03-.02-.05-.03l-.87-.52c-.23-.14-.49-.23-.76-.27l-.69-.1c-.32-.04-.65-.07-.97-.07l-4.64-.11-4.05-.05c-.2,0-.38-.1-.5-.25l-.21-.27c-.05-.07-.13-.11-.22-.11h-.03c-.07,0-.12.07-.09.14ZM596.9,51.71c0-.17.08-.3.18-.3s.17.13.17.3c0,.17-.08.3-.17.3s-.18-.13-.18-.3ZM596.04,51.71c0-.17.08-.3.17-.3s.18.13.18.3-.08.3-.18.3-.17-.13-.17-.3ZM594.89,51.71c0-.17.08-.3.17-.3s.17.13.17.3c0,.17-.08.3-.17.3s-.17-.13-.17-.3ZM594.1,51.71c0-.17.08-.3.18-.3s.17.13.17.3-.08.3-.17.3-.18-.13-.18-.3ZM593.31,51.71c0-.17.08-.3.17-.3s.17.13.17.3c0,.17-.08.3-.17.3s-.17-.13-.17-.3ZM592.52,51.71c0-.17.08-.3.18-.3s.17.13.17.3-.08.3-.17.3-.18-.13-.18-.3ZM591.74,51.71c0-.17.08-.3.17-.3s.17.13.17.3c0,.17-.08.3-.17.3s-.17-.13-.17-.3ZM589.52,51.71c0-.17.08-.3.17-.3s.17.13.17.3-.08.3-.17.3-.17-.13-.17-.3Z"/>
      <path class="cls-21" d="M600.6,51.5v.09c0,.15.09.29.23.35.03.02.07.02.11.01.18-.03.79-.12,2.2-.12l-.75-.6s-.03-.02-.05-.04l-1.55.08c-.11,0-.2.1-.2.21Z"/>
      <path class="cls-16" d="M577.32,50.42v2.28s12.14,0,12.14,0v-2.73s-9.77.22-9.77.22c-.12,0-.25.01-.37.02l-1.99.21ZM588.63,51.71c0-.17.08-.3.17-.3s.17.13.17.3c0,.17-.08.3-.17.3s-.17-.13-.17-.3ZM587.79,51.71c0-.17.08-.3.18-.3s.17.13.17.3c0,.17-.08.3-.17.3s-.18-.13-.18-.3ZM586.96,51.71c0-.17.08-.3.17-.3s.18.13.18.3-.08.3-.18.3-.17-.13-.17-.3ZM586.12,51.71c0-.17.08-.3.18-.3s.17.13.17.3-.08.3-.17.3-.18-.13-.18-.3ZM585.29,51.71c0-.17.08-.3.17-.3s.18.13.18.3-.08.3-.18.3-.17-.13-.17-.3ZM584.46,51.71c0-.17.08-.3.17-.3s.17.13.17.3-.08.3-.17.3-.17-.13-.17-.3ZM583.62,51.71c0-.17.08-.3.17-.3s.18.13.18.3-.08.3-.18.3-.17-.13-.17-.3ZM582.79,51.71c0-.17.08-.3.17-.3s.17.13.17.3-.08.3-.17.3-.17-.13-.17-.3ZM581.95,51.71c0-.17.08-.3.17-.3s.18.13.18.3-.08.3-.18.3-.17-.13-.17-.3ZM579.31,51.71c0-.17.08-.3.17-.3s.17.13.17.3c0,.17-.08.3-.17.3s-.17-.13-.17-.3ZM578.45,51.71c0-.17.08-.3.17-.3s.18.13.18.3-.08.3-.18.3-.17-.13-.17-.3Z"/>
      <path class="cls-8" d="M554.82,51.04v1.65s22.5,0,22.5,0v-2.28s-2.99.31-2.99.31l-4.16.56c-.21.03-.41.04-.62.04l-7.78.06h-6.5s-.34-.39-.34-.39c-.04-.04-.11-.02-.11.04Z"/>
      <path class="cls-8" d="M527.21,50.44c.1.25-.05.53-.32.58l-.79.16,9.72,1.52h18.99s0-1.21,0-1.21l-11.14-.06-.3-.38s-.08-.01-.08.03v.16c0,.1-.08.18-.19.18l-1.25-.02c-.24,0-.49-.04-.72-.1l-.55-.15c-.41-.11-.79-.31-1.1-.6l-4.63-4.11-6.6-5.87s-.36-.42-.85-.42c-.69,0-2.73-.03-3.96-.01-.18,0-.27.14-.2.3l3.96,9.99Z"/>
      <path class="cls-19" d="M595.68,52.69v4.85c1.26,0,2.44-.03,3.52-.1v-4.76s-3.52,0-3.52,0ZM598.56,54.7c0-.17.08-.3.18-.3s.17.13.17.3c0,.17-.08.3-.17.3s-.18-.13-.18-.3ZM596.54,53.92c0-.32.26-.58.58-.58h.26c.32,0,.58.26.58.58v1.34c0,.32-.26.58-.58.58h-.26c-.32,0-.58-.26-.58-.58v-1.34ZM595.99,54.68c0-.17.08-.3.17-.3s.17.13.17.3c0,.17-.08.3-.17.3s-.17-.13-.17-.3Z"/>
      <path class="cls-19" d="M589.46,52.69v4.85s6.22,0,6.22,0v-4.85s-4.35,0-4.35,0c-.11.11-.25.17-.41.17h-.12c-.16,0-.3-.06-.41-.17h-.93ZM594.82,54.68c0-.17.08-.3.17-.3s.17.13.17.3c0,.17-.08.3-.17.3s-.17-.13-.17-.3ZM593.96,54.68c0-.17.08-.3.18-.3s.17.13.17.3-.08.3-.17.3-.18-.13-.18-.3ZM593.1,54.68c0-.17.08-.3.17-.3s.18.13.18.3c0,.17-.08.3-.18.3s-.17-.13-.17-.3ZM592.24,54.68c0-.17.08-.3.17-.3s.17.13.17.3c0,.17-.08.3-.17.3s-.17-.13-.17-.3ZM591.38,54.68c0-.17.08-.3.17-.3s.18.13.18.3-.08.3-.18.3-.17-.13-.17-.3ZM590.51,54.68c0-.17.08-.3.17-.3s.17.13.17.3-.08.3-.17.3-.17-.13-.17-.3ZM589.65,54.68c0-.17.08-.3.18-.3s.17.13.17.3c0,.17-.08.3-.17.3s-.18-.13-.18-.3Z"/>
      <path class="cls-19" d="M542.52,54.68c0,.17-.08.3-.18.3-.02,0-.04,0-.06-.02v2.15s6.38,1.27,6.38,1.27v-3.4s0,0-.01,0c-.1,0-.17-.13-.17-.3,0-.08.02-.16.05-.21l-3.34-.58c-.18-.03-.36-.08-.53-.14l-.49-.18s-.02-.06.01-.05l4.48.48v-1.3s-6.38,0-6.38,0v1.7s.04-.02.06-.02c.1,0,.18.13.18.3ZM547.58,54.68c0-.17.08-.3.17-.3s.17.13.17.3-.08.3-.17.3-.17-.13-.17-.3ZM546.67,54.68c0-.17.08-.3.17-.3s.17.13.17.3-.08.3-.17.3-.17-.13-.17-.3ZM545.77,54.68c0-.17.08-.3.18-.3s.17.13.17.3-.08.3-.17.3-.18-.13-.18-.3ZM544.87,54.68c0-.17.08-.3.17-.3s.17.13.17.3c0,.17-.08.3-.17.3s-.17-.13-.17-.3ZM543.97,54.68c0-.17.08-.3.17-.3s.17.13.17.3c0,.17-.08.3-.17.3s-.17-.13-.17-.3ZM543.07,54.68c0-.17.08-.3.18-.3s.17.13.17.3-.08.3-.17.3-.18-.13-.18-.3Z"/>
      <path class="cls-11" d="M544.17,53.56l.49.18c.17.06.35.11.53.14l3.34.58.27.05.58.1.35.06.56.1.31.06.67.12h0l3.54.62,1.17.2s0,0,0,0l.27.05c.2.03.38.13.52.27l.28.28c.18.18.37.33.58.46l.84.53c.07.04.06.14,0,.18l-.36.2c-.2.26-.11.64.18.78.28.13.72.29,1.4.46h2.25s-1.91-.79-1.91-.79c-.09-.04-.1-.17,0-.21l2.04-.95.25-.11s.03-.08,0-.09l-.08-.02c-.08-.02-.12-.12-.07-.19.12-.16.39-.39.93-.38.77.01,1.05-.01,1.05-.01,0,0,2.62,0,2.95.01.2,0,.38.04.56.11.07.02.13.05.19.08.18.08.3.27.3.47v2.22s1.71,0,1.71,0l-.19-.05c-.1-.03-.11-.16-.02-.21l2.08-.98.29-.22-.13-.12c-.06-.06-.03-.17.06-.18l2.7-.43s1.78-.2,2.67.18c.28.12.48.29.5.55h.98c.26,0,.51-.05.74-.15l.7-.29c.15-.06.27-.19.32-.35.02-.05.02-.1.02-.16,0-.18-.09-.35-.24-.45l-.7-.47c-.74-.12-1.66-.25-2.32-.31-.14-.01-.27-.02-.39-.02-1.17-.03-2.66.37-2.66.37l-4.51-.19-1.2-.05-.54-.02-3.87-.27-3.55-.24-.85-.07h0s-.01,0-.02,0c-.01,0-.02,0-.03,0h0l-.78-.06-.23-.02-.66-.05-.3-.02-.6-.05-1.43-.11-.56-.04-.32-.02h-.02s-.57-.05-.57-.05l-.31-.02-.62-.05-.25-.02-.28-.02-.44-.05s0,0,0,0h-.09s0,0,0,0l-3.56-.39-4.48-.48s-.04.04-.01.05Z"/>
      <path class="cls-3" d="M569.67,59.05l.19.05,1.81.92.29-.11c.06-.02.07-.1.03-.14l-.2-.19c-.06-.06-.06-.15,0-.21l.2-.18s.03-.12-.03-.13l-.08-.03c-.08-.02-.1-.13-.03-.18l.1-.07c.07-.04.06-.14-.01-.18l-.1-.06c-.08-.04-.09-.14-.03-.2l.13-.12c.08-.07.07-.2-.02-.26l-.17-.11-2.08.98c-.09.04-.08.18.02.21Z"/>
      <path class="cls-5" d="M571.68,60.45l1.06.21c.08.02.17.03.26.04l1.86.15c.22.02.44.02.66,0l1.81-.18v-3.57c-.89-.38-2.67-.18-2.67-.18l-2.7.43c-.09.01-.12.12-.06.18l.13.12-.29.22.17.11c.09.06.1.19.02.26l-.13.12c-.06.06-.05.16.03.2l.1.06c.07.04.08.14.01.18l-.1.07c-.07.05-.05.15.03.18l.08.03c.06.02.07.09.03.13l-.2.18c-.06.06-.06.15,0,.21l.2.19s.03.11-.03.14l-.29.11.16.09c.05.03.05.1,0,.13l-.15.07c-.07.03-.06.13.02.15Z"/>
      <path class="cls-16" d="M577.32,57.09v3.57s.06,0,.06,0c.14-.08.25-.19.32-.32.08-.13.12-.28.12-.44v-2.25c-.02-.26-.22-.43-.5-.55Z"/>
      <path class="cls-5" d="M568.46,53.92v1.34c0,.12.03.22.09.32l1.2.05c.08-.1.13-.23.13-.37v-1.34c0-.32-.26-.58-.58-.58h-.26c-.32,0-.58.26-.58.58Z"/>
      <path class="cls-5" d="M562.09,59.46s-.04.06-.04.09c0,.05.03.1.09.11l.97.2,2.33.16h1.98s.23-.06.23-.06c0,0,0,0,0,0v-3.62c-.18-.06-.36-.1-.56-.11-.33-.01-2.95-.01-2.95-.01,0,0-.28.02-1.05.01-.54,0-.81.22-.93.38-.05.07-.02.17.07.19l.08.02s.05.07,0,.09l-.25.11.29.23c.09.06.08.19,0,.23l-.07.04c-.08.04-.09.15-.01.2l.06.04c.07.05.08.15.02.22l-.08.09s-.04.07-.04.11c0,.05.02.11.07.14.08.06.1.18.03.25l-.37.4.16.18c.08.09.07.23-.03.31Z"/>
      <path class="cls-16" d="M567.65,56.34v3.62c.24-.07.42-.27.45-.51l.04-.35v-2.22c0-.2-.12-.38-.3-.47-.06-.03-.13-.06-.19-.08Z"/>
      <path class="cls-3" d="M560.04,58.19l1.91.79.37-.4c.07-.08.06-.19-.03-.25-.05-.03-.07-.09-.07-.14,0-.04.01-.08.04-.11l.08-.09c.06-.07.05-.17-.02-.22l-.06-.04c-.07-.05-.06-.16.01-.2l.07-.04c.09-.05.1-.18,0-.23l-.29-.23-2.04.95c-.09.04-.09.17,0,.21Z"/>
      <path class="cls-12" d="M559.68,54.97s.02,0,.03,0c0,0,.01,0,.02,0h-.06Z"/>
      <path class="cls-21" d="M558.62,54.68c0,.09.02.16.05.22l.23.02c.04-.06.07-.14.07-.24,0-.17-.08-.3-.17-.3s-.17.13-.17.3Z"/>
      <path class="cls-21" d="M557.7,54.68c0,.05,0,.1.02.14l.3.02s.03-.11.03-.17c0-.17-.08-.3-.18-.3s-.17.13-.17.3Z"/>
      <path class="cls-5" d="M555.69,53.92v.74s1.43.11,1.43.11v-.85c0-.32-.26-.58-.58-.58h-.26c-.32,0-.58.26-.58.58Z"/>
      <path class="cls-21" d="M554.82,54.51v.09s.32.02.32.02c-.01-.14-.09-.25-.17-.25-.06,0-.11.05-.15.14Z"/>
      <path class="cls-12" d="M554.79,54.6h.02s0-.09,0-.09c-.01.03-.02.06-.02.09Z"/>
      <path class="cls-21" d="M553.91,54.53l.31.02c-.03-.1-.09-.18-.16-.18-.06,0-.12.06-.15.15Z"/>
      <path class="cls-21" d="M553.04,54.46l.25.02c-.03-.06-.08-.11-.13-.11-.05,0-.09.03-.12.09Z"/>
      <path class="cls-12" d="M552.26,54.37s-.02,0-.03,0h.09s-.03,0-.05,0Z"/>
      <path class="cls-21" d="M550.29,54.77c.02.12.09.2.16.2.06,0,.12-.06.15-.15l-.31-.06Z"/>
      <path class="cls-21" d="M549.38,54.68c0,.17.08.3.18.3s.17-.13.17-.3h0s-.35-.06-.35-.06c0,.02,0,.04,0,.06Z"/>
      <path class="cls-21" d="M548.48,54.68c0,.17.08.3.17.3,0,0,0,0,.01,0,.09,0,.17-.14.17-.3,0-.06-.01-.12-.03-.16l-.27-.05c-.03.06-.05.13-.05.21Z"/>
      <path class="cls-19" d="M525.22,52.28v.15c.02.24.11.46.25.65.14.2.36.35.6.4l12.66,2.93,3.55.71v-2.15c-.07-.04-.12-.15-.12-.29,0-.13.05-.25.12-.29v-1.7s-6.46,0-6.46,0l.81.13c.13.12.09.33-.07.4l-.12.05-.86.22h-2.57s-2.92-.16-2.92-.16l-2.63-.21c-.14-.01-.28-.04-.42-.09-.29-.1-.87-.32-1.84-.75ZM541.27,54.68c0-.17.08-.3.17-.3s.17.13.17.3c0,.17-.08.3-.17.3s-.17-.13-.17-.3ZM539.17,53.92c0-.32.26-.58.58-.58h.26c.32,0,.58.26.58.58v1.34c0,.32-.26.58-.58.58h-.26c-.32,0-.58-.26-.58-.58v-1.34Z"/>
      <path class="cls-5" d="M523.74,51.5l1.47.78c.97.43,1.56.65,1.84.75.13.05.27.08.42.09l2.63.21,2.92.16h2.57s.86-.22.86-.22l.12-.05c.16-.07.2-.28.07-.4l-.81-.13-9.72-1.52-2.34.24s-.06.07-.02.09Z"/>
      <path class="cls-3" d="M554.82,55.56v3.35s2.57.06,2.57.06h2.32c-.68-.17-1.12-.33-1.4-.46-.3-.14-.38-.52-.18-.78l.36-.2c.07-.04.07-.14,0-.18l-.84-.53c-.21-.13-.4-.29-.58-.46l-.28-.28c-.14-.14-.32-.24-.52-.27l-.27-.05s0,0,0,0l-1.17-.2Z"/>
      <path class="cls-3" d="M548.66,54.98v3.4s.29.06.29.06c.1.02.21.04.31.05l2.61.33c.17.02.33.03.5.04l2.45.06v-3.35s-3.54-.62-3.54-.62h0l-.67-.12c-.03.09-.09.15-.15.15-.08,0-.14-.09-.16-.2l-.56-.1h0c0,.17-.08.3-.17.3s-.18-.13-.18-.3c0-.02,0-.04,0-.06l-.58-.1s.03.1.03.16c0,.16-.07.29-.17.3Z"/>
      <path class="cls-19" d="M548.66,52.69v1.3s3.56.39,3.56.39h0s.02,0,.03,0c.02,0,.04,0,.05.02,0,0,0,0,0,0l.44.05.28.02c.03-.05.08-.09.12-.09.05,0,.1.04.13.11l.62.05c.03-.09.09-.15.15-.15.07,0,.13.07.16.18l.57.04s.01-.06.02-.09v-1.82s-6.16,0-6.16,0Z"/>
      <path class="cls-1" d="M577.82,57.64v1.33s3.14,0,3.14,0l1.43-.32,1.4-.27c.28-.06.5-.29.53-.57,0-.03,0-.07,0-.1,0-.05-.02-.11-.06-.16-.16-.22-.58-.41-.58-.41l-2.79-1.14s-.54-.1-1.25-.21l.7.47c.15.1.24.27.24.45,0,.05,0,.1-.02.16-.05.16-.16.29-.32.35l-.7.29c-.23.1-.49.15-.74.15h-.98Z"/>
      <path class="cls-19" d="M577.32,52.69v2.78c.67.06,1.58.19,2.32.31.71.11,1.25.21,1.25.21l2.79,1.14s.42.19.58.41h5.2s0-4.85,0-4.85h-12.14ZM588.58,54.68c0-.17.08-.3.18-.3s.17.13.17.3-.08.3-.17.3-.18-.13-.18-.3ZM587.7,54.68c0-.17.08-.3.17-.3s.18.13.18.3c0,.17-.08.3-.18.3s-.17-.13-.17-.3ZM586.81,54.68c0-.17.08-.3.17-.3s.18.13.18.3c0,.17-.08.3-.18.3s-.17-.13-.17-.3ZM585.93,54.68c0-.17.08-.3.17-.3s.18.13.18.3-.08.3-.18.3-.17-.13-.17-.3ZM585.05,54.68c0-.17.08-.3.17-.3s.18.13.18.3-.08.3-.18.3-.17-.13-.17-.3ZM584.16,54.68c0-.17.08-.3.17-.3s.17.13.17.3-.08.3-.17.3-.17-.13-.17-.3ZM583.28,54.68c0-.17.08-.3.17-.3s.17.13.17.3-.08.3-.17.3-.17-.13-.17-.3ZM581.68,53.92c0-.32.26-.58.58-.58h.26c.32,0,.58.26.58.58v1.34c0,.32-.26.58-.58.58h-.26c-.32,0-.58-.26-.58-.58v-1.34ZM581.08,54.68c0-.17.08-.3.17-.3s.17.13.17.3-.08.3-.17.3-.17-.13-.17-.3ZM580.2,54.68c0-.17.08-.3.17-.3s.17.13.17.3-.08.3-.17.3-.17-.13-.17-.3ZM579.31,54.68c0-.17.08-.3.17-.3s.17.13.17.3-.08.3-.17.3-.17-.13-.17-.3ZM578.43,54.68c0-.17.08-.3.18-.3s.17.13.17.3-.08.3-.17.3-.18-.13-.18-.3Z"/>
      <path class="cls-19" d="M564.44,54.68c0,.17-.08.3-.17.3-.05,0-.09-.03-.12-.08v.39s3.87.27,3.87.27l.54.02c-.06-.09-.09-.2-.09-.32v-1.34c0-.32.26-.58.58-.58h.26c.32,0,.58.26.58.58v1.34c0,.14-.05.27-.13.37l4.51.19s1.49-.4,2.66-.37c.12,0,.25.01.39.02v-2.78s-13.17,0-13.17,0v1.76c.03-.05.07-.08.12-.08.1,0,.17.13.17.3ZM576.46,54.68c0-.17.08-.3.18-.3s.17.13.17.3c0,.17-.08.3-.17.3s-.18-.13-.18-.3ZM575.61,54.68c0-.17.08-.3.17-.3s.17.13.17.3c0,.17-.08.3-.17.3s-.17-.13-.17-.3ZM574.76,54.68c0-.17.08-.3.17-.3s.17.13.17.3-.08.3-.17.3-.17-.13-.17-.3ZM573.9,54.68c0-.17.08-.3.17-.3s.17.13.17.3-.08.3-.17.3-.17-.13-.17-.3ZM573.05,54.68c0-.17.08-.3.17-.3s.17.13.17.3-.08.3-.17.3-.17-.13-.17-.3ZM572.19,54.68c0-.17.08-.3.17-.3s.18.13.18.3c0,.17-.08.3-.18.3s-.17-.13-.17-.3ZM571.34,54.68c0-.17.08-.3.17-.3s.18.13.18.3-.08.3-.18.3-.17-.13-.17-.3ZM570.48,54.68c0-.17.08-.3.18-.3s.17.13.17.3-.08.3-.17.3-.18-.13-.18-.3ZM567.59,54.68c0-.17.08-.3.17-.3s.17.13.17.3c0,.17-.08.3-.17.3s-.17-.13-.17-.3ZM566.71,54.68c0-.17.08-.3.17-.3s.18.13.18.3-.08.3-.18.3-.17-.13-.17-.3ZM565.84,54.68c0-.17.08-.3.18-.3s.17.13.17.3-.08.3-.17.3-.18-.13-.18-.3ZM564.96,54.68c0-.17.08-.3.18-.3s.17.13.17.3-.08.3-.17.3-.18-.13-.18-.3Z"/>
      <path class="cls-19" d="M554.82,52.69v1.82c.03-.08.09-.14.15-.14.09,0,.16.11.17.25l.56.04v-.74c0-.32.26-.58.58-.58h.26c.32,0,.58.26.58.58v.85s.6.05.6.05c-.01-.04-.02-.09-.02-.14,0-.17.08-.3.17-.3s.18.13.18.3c0,.06-.01.12-.03.17l.66.05c-.03-.06-.05-.13-.05-.22,0-.17.08-.3.17-.3s.17.13.17.3c0,.1-.03.18-.07.24l.78.06c-.08-.03-.14-.15-.14-.3,0-.17.08-.3.17-.3s.18.13.18.3c0,.15-.07.28-.15.3l.85.07,3.55.24v-.39c-.03-.06-.06-.13-.06-.22s.02-.17.06-.22v-1.76s-9.33,0-9.33,0ZM563.22,54.68c0-.17.08-.3.17-.3s.18.13.18.3-.08.3-.18.3-.17-.13-.17-.3ZM562.3,54.68c0-.17.08-.3.17-.3s.17.13.17.3-.08.3-.17.3-.17-.13-.17-.3ZM561.38,54.68c0-.17.08-.3.17-.3s.18.13.18.3-.08.3-.18.3-.17-.13-.17-.3ZM560.46,54.68c0-.17.08-.3.17-.3s.17.13.17.3c0,.17-.08.3-.17.3s-.17-.13-.17-.3Z"/>
      <line class="cls-12" x1="602.34" y1="51.2" x2="602.34" y2="51.2"/>
      <rect class="cls-5" x="596.54" y="53.34" width="1.43" height="2.51" rx=".58" ry=".58"/>
      <path class="cls-5" d="M590.22,51.14v1.13c0,.16.07.31.17.42.11.11.25.17.41.17h.12c.16,0,.31-.06.41-.17.11-.11.17-.25.17-.42v-1.13c0-.32-.26-.58-.58-.58h-.12c-.32,0-.58.26-.58.58Z"/>
      <rect class="cls-5" x="581.68" y="53.34" width="1.43" height="2.51" rx=".58" ry=".58"/>
      <rect class="cls-5" x="539.17" y="53.34" width="1.43" height="2.51" rx=".58" ry=".58"/>
      <line class="cls-12" x1="595.68" y1="50.16" x2="595.68" y2="52.69"/>
      <line class="cls-12" x1="564.14" y1="51.37" x2="564.14" y2="52.69"/>
      <line class="cls-12" x1="548.66" y1="51.45" x2="548.66" y2="52.69"/>
      <line class="cls-12" x1="542.29" y1="51.45" x2="542.29" y2="52.69"/>
      <path class="cls-8" d="M599.2,52.69v4.76c2.14-.12,3.9-.37,5.2-.71v-4.05s-5.2,0-5.2,0ZM603.46,54.68c0-.17.08-.3.17-.3s.17.13.17.3-.08.3-.17.3-.17-.13-.17-.3ZM602.52,54.68c0-.17.08-.3.17-.3s.17.13.17.3c0,.17-.08.3-.17.3s-.17-.13-.17-.3ZM601.58,54.68c0-.17.08-.3.18-.3s.17.13.17.3c0,.17-.08.3-.17.3s-.18-.13-.18-.3ZM600.64,54.68c0-.17.08-.3.17-.3s.18.13.18.3-.08.3-.18.3-.17-.13-.17-.3ZM599.7,54.68c0-.17.08-.3.17-.3s.18.13.18.3-.08.3-.18.3-.17-.13-.17-.3Z"/>
      <line class="cls-12" x1="535.83" y1="52.69" x2="535.65" y2="52.69"/>
      <path class="cls-21" d="M606.25,54.68c0,.17.08.3.18.3s.17-.13.17-.3-.08-.3-.17-.3-.18.13-.18.3Z"/>
      <ellipse class="cls-21" cx="605.58" cy="54.68" rx=".17" ry=".3"/>
      <path class="cls-21" d="M604.57,54.68c0,.17.08.3.17.3s.17-.13.17-.3c0-.17-.08-.3-.17-.3s-.17.13-.17.3Z"/>
      <ellipse class="cls-21" cx="603.64" cy="54.68" rx=".17" ry=".3"/>
      <ellipse class="cls-21" cx="602.7" cy="54.68" rx=".17" ry=".3"/>
      <path class="cls-21" d="M601.58,54.68c0,.17.08.3.18.3s.17-.13.17-.3c0-.17-.08-.3-.17-.3s-.18.13-.18.3Z"/>
      <path class="cls-21" d="M600.64,54.68c0,.17.08.3.17.3s.18-.13.18-.3-.08-.3-.18-.3-.17.13-.17.3Z"/>
      <path class="cls-21" d="M599.7,54.68c0,.17.08.3.17.3s.18-.13.18-.3-.08-.3-.18-.3-.17.13-.17.3Z"/>
      <path class="cls-21" d="M598.56,54.7c0,.17.08.3.18.3s.17-.13.17-.3c0-.17-.08-.3-.17-.3s-.18.13-.18.3Z"/>
      <path class="cls-21" d="M595.99,54.68c0,.17.08.3.17.3s.17-.13.17-.3c0-.17-.08-.3-.17-.3s-.17.13-.17.3Z"/>
      <ellipse class="cls-21" cx="594.99" cy="54.68" rx=".17" ry=".3"/>
      <path class="cls-21" d="M593.96,54.68c0,.17.08.3.18.3s.17-.13.17-.3-.08-.3-.17-.3-.18.13-.18.3Z"/>
      <path class="cls-21" d="M593.1,54.68c0,.17.08.3.17.3s.18-.13.18-.3c0-.17-.08-.3-.18-.3s-.17.13-.17.3Z"/>
      <path class="cls-21" d="M592.24,54.68c0,.17.08.3.17.3s.17-.13.17-.3c0-.17-.08-.3-.17-.3s-.17.13-.17.3Z"/>
      <path class="cls-21" d="M591.38,54.68c0,.17.08.3.17.3s.18-.13.18-.3-.08-.3-.18-.3-.17.13-.17.3Z"/>
      <ellipse class="cls-21" cx="590.69" cy="54.68" rx=".17" ry=".3"/>
      <path class="cls-21" d="M589.65,54.68c0,.17.08.3.18.3s.17-.13.17-.3c0-.17-.08-.3-.17-.3s-.18.13-.18.3Z"/>
      <path class="cls-21" d="M588.58,54.68c0,.17.08.3.18.3s.17-.13.17-.3-.08-.3-.17-.3-.18.13-.18.3Z"/>
      <path class="cls-21" d="M587.7,54.68c0,.17.08.3.17.3s.18-.13.18-.3c0-.17-.08-.3-.18-.3s-.17.13-.17.3Z"/>
      <path class="cls-21" d="M586.81,54.68c0,.17.08.3.17.3s.18-.13.18-.3c0-.17-.08-.3-.18-.3s-.17.13-.17.3Z"/>
      <path class="cls-21" d="M585.93,54.68c0,.17.08.3.17.3s.18-.13.18-.3-.08-.3-.18-.3-.17.13-.17.3Z"/>
      <path class="cls-21" d="M585.05,54.68c0,.17.08.3.17.3s.18-.13.18-.3-.08-.3-.18-.3-.17.13-.17.3Z"/>
      <path class="cls-21" d="M584.16,54.68c0,.17.08.3.17.3s.17-.13.17-.3-.08-.3-.17-.3-.17.13-.17.3Z"/>
      <ellipse class="cls-21" cx="583.45" cy="54.68" rx=".17" ry=".3"/>
      <ellipse class="cls-21" cx="581.25" cy="54.68" rx=".17" ry=".3"/>
      <ellipse class="cls-21" cx="580.37" cy="54.68" rx=".17" ry=".3"/>
      <ellipse class="cls-21" cx="579.49" cy="54.68" rx=".17" ry=".3"/>
      <path class="cls-21" d="M578.43,54.68c0,.17.08.3.18.3s.17-.13.17-.3-.08-.3-.17-.3-.18.13-.18.3Z"/>
      <path class="cls-21" d="M576.46,54.68c0,.17.08.3.18.3s.17-.13.17-.3c0-.17-.08-.3-.17-.3s-.18.13-.18.3Z"/>
      <ellipse class="cls-21" cx="575.78" cy="54.68" rx=".17" ry=".3"/>
      <ellipse class="cls-21" cx="574.93" cy="54.68" rx=".17" ry=".3"/>
      <path class="cls-21" d="M573.9,54.68c0,.17.08.3.17.3s.17-.13.17-.3-.08-.3-.17-.3-.17.13-.17.3Z"/>
      <path class="cls-21" d="M573.05,54.68c0,.17.08.3.17.3s.17-.13.17-.3-.08-.3-.17-.3-.17.13-.17.3Z"/>
      <path class="cls-21" d="M572.19,54.68c0,.17.08.3.17.3s.18-.13.18-.3c0-.17-.08-.3-.18-.3s-.17.13-.17.3Z"/>
      <path class="cls-21" d="M571.34,54.68c0,.17.08.3.17.3s.18-.13.18-.3-.08-.3-.18-.3-.17.13-.17.3Z"/>
      <path class="cls-21" d="M570.48,54.68c0,.17.08.3.18.3s.17-.13.17-.3-.08-.3-.17-.3-.18.13-.18.3Z"/>
      <ellipse class="cls-21" cx="567.76" cy="54.68" rx=".17" ry=".3"/>
      <path class="cls-21" d="M566.71,54.68c0,.17.08.3.17.3s.18-.13.18-.3-.08-.3-.18-.3-.17.13-.17.3Z"/>
      <path class="cls-21" d="M565.84,54.68c0,.17.08.3.18.3s.17-.13.17-.3-.08-.3-.17-.3-.18.13-.18.3Z"/>
      <path class="cls-21" d="M564.96,54.68c0,.17.08.3.18.3s.17-.13.17-.3-.08-.3-.17-.3-.18.13-.18.3Z"/>
      <path class="cls-21" d="M564.09,54.68c0,.09.02.17.06.22.03.05.07.08.12.08.1,0,.17-.13.17-.3s-.08-.3-.17-.3c-.05,0-.09.03-.12.08-.03.06-.06.13-.06.22Z"/>
      <path class="cls-21" d="M563.22,54.68c0,.17.08.3.17.3s.18-.13.18-.3-.08-.3-.18-.3-.17.13-.17.3Z"/>
      <ellipse class="cls-21" cx="562.48" cy="54.68" rx=".17" ry=".3"/>
      <path class="cls-21" d="M561.38,54.68c0,.17.08.3.17.3s.18-.13.18-.3-.08-.3-.18-.3-.17.13-.17.3Z"/>
      <ellipse class="cls-21" cx="560.64" cy="54.68" rx=".17" ry=".3"/>
      <path class="cls-21" d="M559.54,54.68c0,.14.06.27.14.3h.06s0,0,0,0c.09-.02.15-.15.15-.3,0-.17-.08-.3-.18-.3s-.17.13-.17.3Z"/>
      <path class="cls-12" d="M559.68,54.97s.02,0,.03,0c0,0,.01,0,.02,0h-.06Z"/>
      <ellipse class="cls-21" cx="547.75" cy="54.68" rx=".17" ry=".3"/>
      <path class="cls-21" d="M546.67,54.68c0,.17.08.3.17.3s.17-.13.17-.3-.08-.3-.17-.3-.17.13-.17.3Z"/>
      <path class="cls-21" d="M545.77,54.68c0,.17.08.3.18.3s.17-.13.17-.3-.08-.3-.17-.3-.18.13-.18.3Z"/>
      <ellipse class="cls-21" cx="545.04" cy="54.68" rx=".17" ry=".3"/>
      <path class="cls-21" d="M543.97,54.68c0,.17.08.3.17.3s.17-.13.17-.3c0-.17-.08-.3-.17-.3s-.17.13-.17.3Z"/>
      <path class="cls-21" d="M543.07,54.68c0,.17.08.3.18.3s.17-.13.17-.3-.08-.3-.17-.3-.18.13-.18.3Z"/>
      <path class="cls-21" d="M542.17,54.68c0,.13.05.25.12.29.02.01.04.02.06.02.1,0,.18-.13.18-.3s-.08-.3-.18-.3c-.02,0-.04,0-.06.02-.07.04-.12.15-.12.29Z"/>
      <ellipse class="cls-21" cx="541.44" cy="54.68" rx=".17" ry=".3"/>
      <path class="cls-21" d="M596.9,51.71c0,.17.08.3.18.3s.17-.13.17-.3c0-.17-.08-.3-.17-.3s-.18.13-.18.3Z"/>
      <path class="cls-21" d="M596.04,51.71c0,.17.08.3.17.3s.18-.13.18-.3-.08-.3-.18-.3-.17.13-.17.3Z"/>
      <path class="cls-21" d="M594.89,51.71c0,.17.08.3.17.3s.17-.13.17-.3c0-.17-.08-.3-.17-.3s-.17.13-.17.3Z"/>
      <path class="cls-21" d="M594.1,51.71c0,.17.08.3.18.3s.17-.13.17-.3-.08-.3-.17-.3-.18.13-.18.3Z"/>
      <path class="cls-21" d="M593.31,51.71c0,.17.08.3.17.3s.17-.13.17-.3c0-.17-.08-.3-.17-.3s-.17.13-.17.3Z"/>
      <path class="cls-21" d="M592.52,51.71c0,.17.08.3.18.3s.17-.13.17-.3-.08-.3-.17-.3-.18.13-.18.3Z"/>
      <ellipse class="cls-21" cx="591.91" cy="51.71" rx=".17" ry=".3"/>
      <path class="cls-21" d="M589.52,51.71c0,.17.08.3.17.3s.17-.13.17-.3-.08-.3-.17-.3-.17.13-.17.3Z"/>
      <path class="cls-21" d="M588.63,51.71c0,.17.08.3.17.3s.17-.13.17-.3c0-.17-.08-.3-.17-.3s-.17.13-.17.3Z"/>
      <path class="cls-21" d="M587.79,51.71c0,.17.08.3.18.3s.17-.13.17-.3c0-.17-.08-.3-.17-.3s-.18.13-.18.3Z"/>
      <path class="cls-21" d="M586.96,51.71c0,.17.08.3.17.3s.18-.13.18-.3-.08-.3-.18-.3-.17.13-.17.3Z"/>
      <path class="cls-21" d="M586.12,51.71c0,.17.08.3.18.3s.17-.13.17-.3-.08-.3-.17-.3-.18.13-.18.3Z"/>
      <path class="cls-21" d="M585.29,51.71c0,.17.08.3.17.3s.18-.13.18-.3-.08-.3-.18-.3-.17.13-.17.3Z"/>
      <path class="cls-21" d="M584.46,51.71c0,.17.08.3.17.3s.17-.13.17-.3-.08-.3-.17-.3-.17.13-.17.3Z"/>
      <path class="cls-21" d="M583.62,51.71c0,.17.08.3.17.3s.18-.13.18-.3-.08-.3-.18-.3-.17.13-.17.3Z"/>
      <ellipse class="cls-21" cx="582.96" cy="51.71" rx=".17" ry=".3"/>
      <path class="cls-21" d="M581.95,51.71c0,.17.08.3.17.3s.18-.13.18-.3-.08-.3-.18-.3-.17.13-.17.3Z"/>
      <ellipse class="cls-21" cx="579.49" cy="51.71" rx=".17" ry=".3"/>
      <path class="cls-21" d="M578.45,51.71c0,.17.08.3.17.3s.18-.13.18-.3-.08-.3-.18-.3-.17.13-.17.3Z"/>
      <line class="cls-12" x1="567.65" y1="59.96" x2="567.65" y2="60.02"/>
    </g>
  </g>
</svg>