<?xml version="1.0" encoding="UTF-8"?>
<svg id="Layer_2" data-name="Layer 2" xmlns="http://www.w3.org/2000/svg" viewBox="0 0 124.28 134.81">
  <defs>
    <style>
      .cls-1 {
        fill: #3d51ff;
      }

      .cls-1, .cls-2, .cls-3, .cls-4, .cls-5, .cls-6, .cls-7, .cls-8, .cls-9 {
        stroke: #000;
        stroke-miterlimit: 10;
        stroke-width: .5px;
      }

      .cls-2 {
        fill: #40adff;
      }

      .cls-3 {
        fill: #f9ed32;
      }

      .cls-4 {
        fill: #2e3192;
      }

      .cls-5 {
        fill: #e6e7e8;
      }

      .cls-6 {
        fill: none;
      }

      .cls-7 {
        fill: #d1d3d4;
      }

      .cls-8 {
        fill: #f1f2f2;
      }

      .cls-9 {
        fill: #808285;
      }

      .cls-10 {
        fill: #002535;
      }
    </style>
  </defs>
  <g id="Layer_1-2" data-name="Layer 1">
    <g>
      <path d="M113.44,119.14c0,2.29-.93,4.37-2.43,5.88-1.51,1.5-3.59,2.43-5.88,2.43H19.6c-4.59,0-8.3-3.72-8.3-8.3,0-.53.07-1.03.22-1.51.25-.9.74-1.71,1.38-2.35.99-.99,2.35-1.6,3.86-1.6h91.23c2.49,0,4.59,1.67,5.24,3.95.15.48.22.98.22,1.51h-.01Z"/>
      <line class="cls-6" x1="11.55" y1="117.63" x2="11.52" y2="117.63"/>
      <path class="cls-9" d="M20.15,127.45v7.11h-11.13v-16.93h2.51c-.15.48-.22.98-.22,1.51,0,4.59,3.72,8.3,8.3,8.3h.54Z"/>
      <path class="cls-9" d="M115.33,117.63v16.93h-11.13v-7.11h.94c2.29,0,4.37-.93,5.88-2.43,1.5-1.51,2.43-3.59,2.43-5.88,0-.53-.07-1.03-.22-1.51h2.11,0Z"/>
      <line class="cls-6" x1="113.22" y1="117.63" x2="112.79" y2="117.63"/>
      <line class="cls-6" x1="96.51" y1="105.49" x2="96.51" y2="105.48"/>
      <path class="cls-6" d="M117.29,81.79h-.46"/>
      <path class="cls-2" d="M37.7,90.22h0c-2.63-2.83-5.79-4.47-9.18-4.47,0-1.57-9.46-2.83-21.16-2.83v34.71h4.17c.25-.9.74-1.71,1.38-2.35.99-.99,2.35-1.6,3.86-1.6h28.68c0-9.84-3.08-18.49-7.73-23.46h-.01ZM39.02,106.8s-.09,0-.13,0l-10.38-1.17-13.42-1.52c-2.36-.27-4.05-2.4-3.79-4.76l.66-5.83,16.55,1.87,3.68.42c4.96.56,8.52,5.03,7.96,9.98-.07.58-.56,1.01-1.13,1.01h0Z"/>
      <path class="cls-2" d="M95.65,85.75c-.3,0-.6,0-.9.04-2.97.26-5.74,1.77-8.1,4.23-4.77,4.95-7.92,13.69-7.92,23.66h29.26c2.49,0,4.59,1.67,5.24,3.95h3.61v-35.83c-11.74.05-21.18,1.8-21.18,3.96h0ZM108.84,104.09l-12.33,1.39-11.47,1.3s-.09,0-.13,0c-.57,0-1.05-.42-1.12-1-.56-4.96,3-9.42,7.95-9.98l4.77-.54,15.46-1.75.66,5.83c.27,2.36-1.43,4.49-3.79,4.75h0Z"/>
      <path class="cls-10" d="M7.35,18.03v11.52c0,.71-.58,1.3-1.3,1.3h-1.28c-2.63,0-4.77-2.14-4.77-4.77v-8.05c0-.71.58-1.29,1.3-1.29h4.75c.72,0,1.3.58,1.3,1.29Z"/>
      <path class="cls-10" d="M116.93,18.04v11.52c0,.72.58,1.3,1.3,1.3h1.29c2.63,0,4.76-2.13,4.76-4.76v-8.05c0-.72-.58-1.3-1.3-1.3h-4.75c-.72,0-1.3.58-1.3,1.3h0Z"/>
      <path class="cls-3" d="M40.15,105.79c-.07.58-.56,1.01-1.13,1.01-.04,0-.09,0-.13,0l-10.38-1.17v-10.23l3.68.42c4.96.56,8.52,5.03,7.96,9.98h0Z"/>
      <path class="cls-8" d="M28.51,95.39v10.23l-13.42-1.52c-2.36-.27-4.05-2.4-3.79-4.76l.66-5.83,16.55,1.87h0Z"/>
      <path class="cls-3" d="M96.51,95.27v10.21l-11.47,1.3s-.09,0-.13,0c-.57,0-1.05-.42-1.12-1-.56-4.96,3-9.42,7.95-9.98l4.77-.54h0Z"/>
      <path class="cls-8" d="M108.84,104.09l-12.33,1.39v-10.21l15.46-1.75.66,5.83c.27,2.36-1.43,4.49-3.79,4.75h0Z"/>
      <path class="cls-1" d="M96.67.25H27.51C16.38.25,7.35,9.27,7.35,20.41v62.52c11.69,0,21.16,1.26,21.16,2.83,3.4,0,6.56,1.64,9.18,4.47h0c6.05,1.11,14.55,1.8,23.96,1.8,9.96,0,18.91-.78,24.98-2,2.37-2.46,5.14-3.97,8.1-4.23,0-.02-.01-.03-.01-.04h.91c0-2.16,9.43-3.91,21.18-3.96V20.41c0-11.13-9.02-20.16-20.16-20.16h.01ZM19.73,4.77h85.2v7.9H19.73v-7.9ZM113.44,62.42c0,4.99-2.97,9.28-7.22,11.21-.1.05-.2.1-.3.14-5.93,2.87-23.3,4.93-43.82,4.93h-.01c-23.76,0-43.3-2.76-45.72-6.32h0s0,0,0-.02c-3.07-2.23-5.06-5.86-5.06-9.94V16.05h102.14v46.37h0Z"/>
      <rect class="cls-5" x="11.3" y="16.05" width="50.78" height="5.36"/>
      <path class="cls-7" d="M62.09,21.41v57.29c-23.76,0-43.3-2.76-45.72-6.32h0s0,0,0-.02c-3.07-2.23-5.06-5.86-5.06-9.94V21.41h50.79Z"/>
      <rect class="cls-5" x="62.09" y="16.05" width="51.35" height="5.36"/>
      <path class="cls-7" d="M113.44,21.41v41.01c0,4.99-2.97,9.28-7.22,11.21-.1.05-.2.1-.3.14-5.93,2.87-23.3,4.93-43.82,4.93h-.01V21.41h51.35Z"/>
      <path class="cls-4" d="M86.65,90.02c-4.77,4.95-7.92,13.69-7.92,23.66h-33.29c0-9.84-3.08-18.49-7.73-23.46,6.05,1.11,14.55,1.8,23.96,1.8,9.96,0,18.91-.78,24.98-2h0Z"/>
      <rect class="cls-9" x="19.73" y="4.77" width="85.2" height="7.9"/>
    </g>
  </g>
</svg>